<?xml version="1.0" encoding="UTF-8"?>
<svg baseProfile="tiny" version="1.2" viewBox="0 0 564.7 165.92" xml:space="preserve" xmlns="http://www.w3.org/2000/svg">


<path d="m92.609 29.581c6.181-6.782 9.402-16.306 9.846-29.116l0.016-0.465-0.455 0.093c-21.708 4.441-32.919 18.047-33.322 40.439l-8e-3 0.436 0.431-0.067c10.341-1.619 18.025-5.323 23.492-11.32z" fill="#008000"/>
<path d="m17.902 144.76 0.399 0.574c3.588 5.176 7.703 10.211 12.229 14.971 3.447 3.623 8.938 5.617 15.46 5.617 4.78 0 9.736-1.124 12.935-2.934 6.618-3.74 10.125-3.748 12.685-3.752 0.514 0 0.994-2e-3 1.456-0.029l0.418-0.027c0.554-0.035 1.126-0.074 1.771-0.074 2.27 0 5.66 0.445 11.823 3.928 4.301 1.805 8.472 2.718 12.397 2.718h2e-3c10.686 0 20.056-6.688 28.644-20.431l0.351-0.561h-110.57z" fill="#00f"/>
<path d="m129.74 59.003c1.429-1.424 2.969-2.828 4.623-4.208l0.277-0.231-0.228-0.281c-8.055-9.936-19.085-15.294-31.897-15.496l-0.587-3e-3c-6.493 0-12.235 1.217-16.604 3.519-5.666 2.984-9.88 3.646-9.921 3.652-0.074 0.01-0.538 0.028-1.81 0.028-1.544 0-2.877-0.025-3.037-0.048l-0.102-0.013c-1.817-0.235-6.448-0.997-10.202-2.998-5.102-2.72-10.786-4.159-16.437-4.159l-0.372 2e-3c-14.942 0.167-27.433 7.448-35.194 20.236h121.49z" fill="#008000"/>
<path d="m117.21 80.245c1.47-7.11 5.439-14.013 11.911-20.619l0.61-0.623h-121.49l-0.107 0.177c-3.723 6.178-6.189 13.324-7.36 21.064l116.43 1e-3z" fill="#ff0"/>
<path d="m120.06 101.23c-2.938-6.035-4.381-13.008-2.919-20.542l0.084-0.437h-116.43l-0.046 0.31c-0.985 6.711-0.985 13.658-0.074 20.668h119.39v1e-3z" fill="#f60"/>
<path d="m6.393 123.24h133.06l0.779-1.685-0.32-0.158c-6.368-3.153-14.905-10.055-19.765-19.967l-0.101-0.205h-119.37l0.055 0.414c0.812 6.073 2.472 13.45 5.668 21.601z" fill="#f00"/>
<path d="m17.904 144.76h110.56c4.221-6.841 7.701-14.373 10.758-20.992l0.24-0.52h-133.04l0.201 0.502c2.908 7.264 6.685 14.283 11.289 21.01z" fill="#800080"/>
<path d="m373.91 38.527v78.112h18.555v-78.112h-18.555zm122.69 0v10.493h10.902c1.353 0 2.447 1.127 2.447 2.516v52.112c0 1.391-1.104 2.516-2.447 2.516h-10.902v10.514h29.365v-78.151h-29.365zm38.516 0v78.151h29.367v-10.514h-10.902c-1.354 0-2.447-1.125-2.447-2.516v-52.112c0-1.389 1.094-2.516 2.447-2.516h10.902v-10.493h-29.367zm-377.96 18.771c-8.841 0-16.031 2.907-22.043 8.88-6.054 6.016-8.912 12.669-8.912 20.425 0 7.646 3.015 14.396 9.423 20.705 6.392 6.299 13.492 9.33 21.751 9.33h11.962v-13.74h-4.931c-4.734 0-8.978-1.547-12.291-4.563-3.312-3.014-5.113-7.059-5.113-11.525 0-4.512 1.764-8.574 5.041-11.471 3.258-2.883 7.441-4.298 12.145-4.298h12.948c1.352 0 2.447 1.125 2.447 2.514v43.083h18.555v-59.34h-40.982zm53.163 0v78.114h18.573v-61.857c0-1.389 1.096-2.514 2.447-2.514h12.053c5.064 0 9.608 1.756 13.167 5.162 3.29 3.152 5.131 7.128 5.131 11.433 0 4.451-1.977 8.449-5.534 11.205-3.511 2.724-7.878 4.058-12.765 4.058h-4.255v13.74h12.51c8.708 0 15.867-2.806 21.916-8.521 6.044-5.714 8.93-12.373 8.93-20.576 0-8.5-2.894-15.452-8.913-21.4-6.027-5.957-13.029-8.843-21.477-8.843l-41.783-1e-3zm81.799 0v78.114h18.555v-61.857c0-1.389 1.101-2.514 2.447-2.514h12.071c5.063 0 9.605 1.756 13.166 5.162 3.292 3.152 5.132 7.128 5.132 11.433 0 4.457-1.998 8.453-5.554 11.205-3.507 2.72-7.856 4.058-12.744 4.058h-4.257v13.74h12.511c8.707 0 15.847-2.804 21.896-8.521 6.045-5.714 8.938-12.373 8.938-20.576 0-8.5-2.896-15.452-8.913-21.4-6.023-5.958-13.011-8.843-21.458-8.843l-41.79-1e-3zm146.65 0c-9.93 0-18.368 3.023-25.694 9.144-7.346 6.136-10.721 12.707-10.721 20.255 0 9.113 3.479 16.156 10.864 21.889 6.922 5.357 15.299 8.053 25.441 8.053h37.182v-13.74h-35.283c-4.678 0-8.897-1.582-12.233-4.619-3.357-3.057-5.188-7.188-5.188-11.784 0-4.388 1.765-8.339 4.986-11.189 3.25-2.873 7.531-4.26 12.436-4.26h12.056c0.938 1e-3 1.791 0.553 2.196 1.419 0.408 0.867 0.3 1.896-0.278 2.654l-13.388 17.322h20.31l14.391-19.708v-15.436h-37.077z" fill="#808080"/>
<linearGradient id="a" x1="345.34" x2="345.34" y1="32.959" y2="137.96" gradientUnits="userSpaceOnUse">
	<stop stop-color="#BCBCBC" offset="0"/>
	<stop stop-color="#5B5B5B" offset="1"/>
</linearGradient>
<path d="m373.69 38.42v78.566h18.993v-78.566h-18.993zm122.69 0v10.945h11.123c0.592-1e-3 1.16 0.239 1.578 0.668 0.418 0.43 0.652 1.015 0.65 1.623v52.113c2e-3 0.604-0.232 1.188-0.65 1.621-0.418 0.43-0.986 0.67-1.578 0.668h-11.123v10.965h29.808v-78.603h-29.808zm38.518 0v78.604h29.805v-10.963h-11.121c-0.592 2e-3 -1.16-0.238-1.578-0.668-0.418-0.434-0.652-1.016-0.645-1.621v-52.115c-9e-3 -0.608 0.229-1.193 0.645-1.623 0.418-0.43 0.986-0.67 1.578-0.668h11.121v-10.946h-29.805zm-377.74 18.774c-8.891 0-16.138 2.923-22.189 8.936-6.09 6.05-8.985 12.775-8.985 20.591 0 7.713 3.035 14.527 9.479 20.879 6.426 6.332 13.601 9.387 21.915 9.387h12.181v-14.188h-5.149c-4.688 0-8.873-1.522-12.145-4.506-3.271-2.979-5.041-6.949-5.041-11.354 0-4.458 1.735-8.425 4.968-11.286 3.214-2.846 7.337-4.263 11.998-4.263h12.948c0.592-1e-3 1.16 0.239 1.577 0.669 0.418 0.43 0.653 1.015 0.651 1.62v43.313h18.993v-59.798h-41.201zm52.943 0v78.564h19.012v-62.084c-2e-3 -0.605 0.232-1.19 0.65-1.62s0.986-0.67 1.577-0.669h12.053c5.016 0 9.501 1.74 13.021 5.106 3.255 3.119 5.06 7.022 5.06 11.264 0 4.388-1.951 8.302-5.46 11.021-3.47 2.688-7.771 4.021-12.62 4.021h-4.475v14.189h12.729c8.756 0 15.991-2.824 22.08-8.582 6.084-5.745 8.984-12.479 8.984-20.739 0-8.559-2.909-15.583-8.967-21.569-6.065-5.995-13.142-8.899-21.641-8.899l-42.003-3e-3zm81.798 0v78.564h18.992v-62.084c-1e-3 -0.605 0.231-1.19 0.649-1.62 0.42-0.43 0.983-0.67 1.58-0.669h12.065c5.021 0 9.501 1.74 13.021 5.106 3.254 3.119 5.06 7.022 5.061 11.264-1e-3 4.396-1.973 8.304-5.479 11.021-3.469 2.688-7.754 4.021-12.604 4.021h-4.479v14.189h12.729c8.758 0 15.975-2.822 22.063-8.582 6.086-5.745 8.983-12.479 8.983-20.739 0-8.559-2.905-15.583-8.967-21.569-6.063-5.997-13.124-8.899-21.623-8.899l-41.991-3e-3zm146.87 0c-9.973 0-18.477 3.027-25.842 9.18-7.381 6.166-10.793 12.823-10.793 20.442 0 9.178 3.506 16.309 10.938 22.078 6.964 5.387 15.401 8.092 25.588 8.092h37.397v-14.193h-35.501c-4.633 0-8.795-1.561-12.09-4.561-3.313-3.021-5.113-7.082-5.113-11.623 0-4.33 1.734-8.188 4.912-11 3.205-2.834 7.428-4.225 12.291-4.225h12.056c0.854-2e-3 1.641 0.503 2.01 1.296 0.371 0.794 0.264 1.736-0.273 2.422l-13.663 17.685h20.875l14.502-19.862v-15.731h-37.294z" fill="url(#a)"/>
</svg>
