<?xml version="1.0" encoding="UTF-8"?>
<!DOCTYPE svg  PUBLIC '-//W3C//DTD SVG 1.1//EN'  'http://www.w3.org/Graphics/SVG/1.1/DTD/svg11.dtd'>
<svg enable-background="new 0 0 568.929 116.145" version="1.1" viewBox="0 0 568.93 116.14" xml:space="preserve" xmlns="http://www.w3.org/2000/svg">

	<polygon points="358.58 26.897 358.58 24.416 375.76 24.416 375.76 46.389 363.56 46.389 363.56 50.715 359.37 50.715 359.37 55.566 354.53 55.566 354.53 76.674 358.71 76.674 358.71 81.131 363.3 81.131 363.3 85.851 375.76 85.851 375.76 108.1 358.71 108.1 358.71 105.36 353.46 105.36 353.46 102.79 349.26 102.79 349.26 99.203 345.46 99.203 345.46 94.442 341 94.442 341 89.753 336.8 89.753 336.8 84.113 332.73 84.113 332.73 48.142 336.8 48.142 336.8 42.718 340.87 42.718 340.87 37.813 345.59 37.813 345.59 33.124 349.26 33.124 349.26 29.74 353.07 29.74 353.07 26.897" fill="#fff"/>
	<path d="m376.52 108.84h-18.555v-2.737h-5.248v-2.564h-4.197v-3.59h-3.805v-4.762h-4.461v-4.688h-4.195v-5.641h-4.07v-37.471h4.07v-5.424h4.064v-4.905h4.725v-4.688h3.672v-3.385h3.805v-2.844h5.51v-2.48h18.686v23.473h-12.201v4.326h-4.197v4.851h-4.837v19.608h4.181v4.457h4.592v4.72h12.463v23.744zm-17.055-1.5h15.555v-20.744h-12.463v-4.72h-4.592v-4.457h-4.181v-22.608h4.837v-4.851h4.197v-4.326h12.201v-20.473h-15.684v2.48h-5.51v2.844h-3.805v3.384h-3.672v4.688h-4.725v4.905h-4.064v5.424h-4.07v34.471h4.07v5.641h4.195v4.688h4.461v4.762h3.805v3.59h4.197v2.564h5.248v2.738z"/>


	<polygon points="405.2 26.488 405.2 24.311 423.56 24.311 423.56 26.488 428.81 26.488 428.81 29.242 432.75 29.242 432.75 33.179 436.95 33.179 436.95 37.378 441.28 37.378 441.28 42.23 445.74 42.23 445.74 108.04 425.47 108.04 425.47 51.019 421.07 51.019 421.07 46.955 410.45 46.955 410.45 50.757 405.73 50.757 405.73 55.35 400.87 55.35 400.87 76.603 405.46 76.603 405.46 81.324 409.66 81.324 409.66 85.128 420.94 85.128 420.94 108.04 405.2 108.04 405.2 106.25 399.69 106.25 399.69 103.5 396.15 103.5 396.15 99.692 391.95 99.692 391.95 95.232 387.88 95.232 387.88 90.115 383.81 90.115 383.81 84.474 379.35 84.474 379.35 48.265 383.16 48.265 383.16 42.718 387.75 42.718 387.75 37.901 391.95 37.901 391.95 33.047 395.88 33.047 395.88 29.504 399.95 29.504 399.95 26.481" fill="#fff"/>
	<path d="m446.49 108.79h-21.77v-57.022h-4.395v-4.063h-9.125v3.802h-4.723v4.592h-4.857v19.753h4.592v4.722h4.199v3.804h11.281v24.413h-17.242v-1.79h-5.51v-2.755h-3.543v-3.805h-4.197v-4.46h-4.068v-5.116h-4.066v-5.642h-4.461v-37.709h3.805v-5.547h4.594v-4.817h4.197v-4.854h3.936v-3.543h4.066v-3.024l5.248 7e-3v-2.176h19.865v2.177h5.248v2.755h3.938v3.937h4.197v4.199h4.33v4.852h4.461v67.31zm-20.27-1.5h18.77v-64.311h-4.461v-4.852h-4.33v-4.199h-4.197v-3.937h-3.938v-2.755h-5.248v-2.177h-16.865v2.178l-5.248-7e-3v3.022h-4.066v3.543h-3.936v4.854h-4.197v4.817h-4.594v5.547h-3.805v34.709h4.461v5.642h4.066v5.116h4.068v4.46h4.197v3.805h3.543v2.755h5.51v1.79h14.242v-21.413h-11.28v-3.804h-4.199v-4.722h-4.592v-22.752h4.857v-4.593h4.723v-3.802h12.125v4.063h4.395v57.023z"/>


	<polygon points="29.042 26.488 29.042 24.311 47.408 24.311 47.408 26.488 52.656 26.488 52.656 29.242 56.593 29.242 56.593 33.179 60.791 33.179 60.791 37.378 65.121 37.378 65.121 42.231 69.582 42.231 69.582 108.04 49.312 108.04 49.312 51.02 44.917 51.02 44.917 46.955 34.292 46.955 34.292 50.757 29.57 50.757 29.57 55.351 24.712 55.351 24.712 76.602 29.304 76.602 29.304 81.324 33.503 81.324 33.503 85.129 44.785 85.129 44.785 108.04 29.042 108.04 29.042 106.25 23.533 106.25 23.533 103.5 19.99 103.5 19.99 99.692 15.792 99.692 15.792 95.233 11.725 95.233 11.725 90.115 7.658 90.115 7.658 84.475 3.197 84.475 3.197 48.265 7.001 48.265 7.001 42.718 11.596 42.718 11.596 37.901 15.792 37.901 15.792 33.047 19.728 33.047 19.728 29.504 23.794 29.504 23.794 26.481" fill="#F2B101"/>
	<path d="m70.332 108.79h-21.77v-57.021h-4.395v-4.064h-9.125v3.802h-4.722v4.594h-4.858v19.751h4.592v4.723h4.199v3.805h11.282v24.412h-17.243v-1.789h-5.509v-2.756h-3.543v-3.805h-4.198v-4.459h-4.067v-5.117h-4.067v-5.641h-4.461v-37.71h3.804v-5.547h4.595v-4.817h4.196v-4.854h3.936v-3.543h4.066v-3.025l5.248 7e-3v-2.176h19.866v2.177h5.248v2.755h3.937v3.937h4.198v4.199h4.33v4.853h4.461v67.309zm-20.27-1.5h18.77v-64.31h-4.461v-4.853h-4.33v-4.199h-4.198v-3.937h-3.937v-2.755h-5.248v-2.177h-16.866v2.178l-5.248-7e-3v3.022h-4.066v3.543h-3.936v4.854h-4.196v4.817h-4.595v5.547h-3.804v34.71h4.461v5.641h4.067v5.117h4.067v4.459h4.198v3.805h3.543v2.756h5.509v1.789h14.243v-21.412h-11.282v-3.805h-4.199v-4.723h-4.592v-22.75h4.858v-4.594h4.722v-3.802h12.125v4.064h4.395v57.022z"/>


	<polygon points="491.37 46.077 491.37 24.31 475.42 24.31 475.42 26.595 470.39 26.608 470.39 29.293 466.03 29.293 466.03 32.986 461.66 32.986 461.66 37.685 457.8 37.685 457.8 42.385 453.6 42.385 453.6 48.259 449.24 48.259 449.24 84.177 453.77 84.177 453.77 89.884 457.8 89.884 457.8 95.086 462 95.086 462 99.954 466.2 99.954 466.2 103.65 470.39 103.65 470.39 106.16 476.1 106.16 476.1 108.04 495.23 108.04 495.23 106.33 500.43 106.33 500.43 103.31 503.96 103.31 503.96 99.115 507.82 99.115 507.82 94.247 512.52 94.247 512.52 89.547 516.71 89.547 516.71 7.138 495.06 7.138 495.06 81.323 491.37 81.323 491.37 85.185 479.96 85.185 479.96 81.323 476.1 81.323 476.1 76.288 471.56 76.288 471.56 55.31 476.43 55.31 476.43 50.945 480.63 50.945 480.63 46.077" fill="#fff"/>
	<path d="m495.98 108.79h-20.631v-1.879h-5.709v-2.517h-4.193v-3.692h-4.195v-4.868h-4.197v-5.202h-4.029v-5.707h-4.531v-37.418h4.363v-5.874h4.197v-4.7h3.859v-4.699h4.365v-3.692h4.361v-2.684l5.035-0.013v-2.287h17.445v23.268h-10.74v4.867h-4.197v4.365h-4.867v19.479h4.533v5.035h3.857v3.861h9.914v-3.861h3.691v-74.186h23.154v83.909h-4.197v4.7h-4.697v4.868h-3.861v4.194h-3.525v3.022h-5.205v1.711zm-19.131-1.5h17.631v-1.71h5.205v-3.022h3.525v-4.194h3.861v-4.868h4.697v-4.7h4.197v-80.91h-20.153v74.186h-3.691v3.861h-12.914v-3.861h-3.857v-5.035h-4.533v-22.479h4.867v-4.365h4.197v-4.867h10.74v-20.268h-14.445v2.283l-5.035 0.013v2.688h-4.361v3.692h-4.365v4.699h-3.859v4.7h-4.197v5.874h-4.363v34.418h4.531v5.707h4.029v5.202h4.197v4.868h4.195v3.692h4.193v2.517h5.709v1.879z"/>


	<polygon points="525.33 47.705 525.33 42.423 528.98 42.423 528.98 37.819 533.32 37.819 533.32 33.077 537.11 33.077 537.11 29.284 541.45 29.284 541.45 26.17 546.32 26.17 546.32 24.31 566.1 24.31 566.1 46.486 552.28 46.486 552.28 49.872 547.81 49.872 547.81 52.446 543.75 52.446 543.75 55.426 566.1 55.426 566.1 76.148 543.88 76.148 543.88 79.399 548.08 79.399 548.08 81.971 552.01 81.971 552.01 85.223 566.1 85.223 566.1 108.04 546.32 108.04 546.32 106.21 541.71 106.21 541.71 103.37 537.52 103.37 537.52 99.579 533.59 99.579 533.59 95.379 528.98 95.379 528.98 89.963 525.33 89.963 525.33 84.003 520.45 84.003 520.45 47.69" fill="#fff"/>
	<path d="m566.84 108.79h-21.273v-1.828h-4.607v-2.842h-4.199v-3.793h-3.924v-4.2h-4.607v-5.416h-3.656v-5.96h-4.877v-37.816l4.877 0.016v-5.28h3.656v-4.604h4.334v-4.741h3.795v-3.793h4.334v-3.115h4.875v-1.86h21.273v23.676h-13.814v3.387h-4.469v2.573h-4.066v1.48h22.35v22.222h-22.213v1.751h4.201v2.572h3.926v3.252h14.086v24.319zm-19.773-1.5h18.273v-21.319h-14.086v-3.252h-3.926v-2.572h-4.201v-4.751h22.213v-19.222h-22.35v-4.48h4.066v-2.573h4.469v-3.387h13.814v-20.676h-18.273v1.86h-4.875v3.114h-4.334v3.793h-3.795v4.741h-4.334v4.604h-3.656v5.285l-4.877-0.016v34.811h4.877v5.96h3.656v5.416h4.607v4.2h3.924v3.793h4.199v2.842h4.607v1.829z"/>


	<polygon points="136.84 55.95 136.84 42.491 132.68 42.491 132.68 37.509 128.41 37.509 128.41 32.929 124.55 32.929 124.55 29.381 120.48 29.381 120.48 26.584 115.46 26.584 115.46 24.311 94.691 24.311 94.691 26.584 89.152 26.584 89.152 29.381 85.431 29.381 85.431 32.929 81.537 32.929 81.537 37.509 77.037 37.509 77.037 42.229 73.314 42.229 73.314 64.166 77.468 64.166 77.468 68.449 81.709 68.449 81.709 72.382 110.87 72.382 110.87 76.752 115.2 76.752 115.2 81.035 110.7 81.035 110.7 85.492 99.537 85.492 99.537 80.861 95.556 80.861 95.556 76.49 73.314 76.49 73.314 89.862 77.468 89.862 77.468 94.407 81.795 94.407 81.795 98.953 86.124 98.953 86.124 102.54 89.93 102.54 89.93 105.33 95.123 105.33 95.123 108.04 115.72 108.04 115.72 105.33 120.39 105.33 120.39 102.54 124.55 102.54 124.55 98.953 128.7 98.953 128.7 94.495 132.77 94.495 132.77 89.95 136.84 89.95 136.84 68.974 131.82 68.974 131.82 64.865 127.58 64.865 127.58 59.971 99.45 59.971 99.45 55.601 95.21 55.601 95.21 51.318 99.45 51.318 99.45 46.686 110.61 46.686 110.61 51.668 114.77 51.668 114.77 55.95" fill="#F2B101"/>
	<path d="m116.47 108.79h-22.097v-2.71h-5.193v-2.796h-3.806v-3.583h-4.329v-4.546h-4.327v-4.546h-4.154v-14.871h23.742v4.37h3.981v4.632h9.663v-4.457h4.501v-2.783h-4.327v-4.37h-29.165v-3.933h-4.241v-4.283h-4.154v-23.437h3.723v-4.72h4.5v-4.58h3.894v-3.548h3.721v-2.797h5.539v-2.273h22.269v2.273h5.02v2.797h4.067v3.548h3.86v4.58h4.275v4.982h4.154v14.959h-23.568v-4.282h-4.154v-4.982h-9.664v4.632h-4.24v2.783h4.24v4.37h28.126v4.895h4.241v4.108h5.019v22.476h-4.067v4.545h-4.068v4.458h-4.154v3.583h-4.153v2.796h-4.674v2.71zm-20.597-1.5h19.097v-2.71h4.674v-2.796h4.153v-3.583h4.154v-4.458h4.068v-4.545h4.067v-19.476h-5.019v-4.108h-4.241v-4.895h-28.126v-4.37h-4.24v-5.783h4.24v-4.632h12.664v4.982h4.154v4.282h20.568v-11.959h-4.154v-4.982h-4.275v-4.58h-3.86v-3.548h-4.067v-2.797h-5.02v-2.273h-19.269v2.273h-5.539v2.797h-3.721v3.548h-3.894v4.58h-4.5v4.72h-3.723v20.438h4.154v4.283h4.241v3.933h29.165v4.37h4.327v5.783h-4.501v4.457h-12.663v-4.632h-3.981v-4.37h-20.742v11.871h4.154v4.546h4.327v4.546h4.329v3.583h3.806v2.796h5.193v2.709z"/>


	<polygon points="183.47 86.1 183.47 81.475 179.24 81.475 179.24 77.115 175.35 77.115 175.35 46.836 188.22 46.836 188.22 39.071 183.21 39.071 183.21 34.272 178.55 34.272 178.55 30.608 175.35 30.608 175.35 16.909 153.24 16.909 153.24 30.608 150.39 30.608 150.39 34.272 146.07 34.272 146.07 39.071 140.63 39.071 140.63 46.836 153.24 46.836 153.24 84.093 157.56 84.093 157.56 89.327 161.19 89.327 161.19 94.389 165.42 94.389 165.42 99.536 169.13 99.536 169.13 103.38 172.85 103.38 172.85 106.17 178.46 106.17 178.46 108 194.1 108 194.1 86.1" fill="#F2B101"/>
	<path d="m194.84 108.75h-17.134v-1.832h-5.614v-2.793h-3.713v-3.839h-3.715v-5.147h-4.232v-5.062h-3.627v-5.234h-4.319v-37.257h-12.61v-9.266h5.441v-4.799h4.318v-3.664h2.851v-13.698h23.612v13.698h3.194v3.664h4.665v4.799h5.009v9.266h-12.868v28.779h3.886v4.359h4.232v4.625h10.624v23.401zm-15.634-1.5h14.134v-20.4h-10.624v-4.625h-4.232v-4.359h-3.886v-31.78h12.868v-6.266h-5.009v-4.799h-4.665v-3.664h-3.194v-13.698h-20.612v13.698h-2.851v3.664h-4.318v4.799h-5.441v6.266h12.61v37.257h4.319v5.234h3.627v5.062h4.232v5.147h3.715v3.839h3.713v2.793h5.614v1.832z"/>


	<polygon points="243.02 72.016 247.73 72.016 247.73 67.298 251.66 67.298 251.66 61.968 254.02 61.968 254.02 42.309 251.13 42.309 251.13 37.94 247.46 37.94 247.46 33.309 243.18 33.309 243.18 29.639 238.46 29.639 238.46 26.844 233.92 26.844 233.92 24.31 219.85 24.31 219.85 26.844 215.91 26.844 215.91 29.639 211.54 29.639 211.54 33.309 206.82 33.309 206.82 37.94 202.63 37.94 202.63 42.221 197.91 42.221 197.91 108.02 219.41 108.02 219.41 46.677 233.92 46.677 233.92 58.386 229.46 58.386 229.46 61.531 222.73 61.531 222.73 77.171 235.84 108.02 258.04 108.02" fill="#F2B101"/>
	<path d="m259.16 108.76h-23.821l-13.363-31.442v-16.542h6.73v-3.146h4.457v-10.208h-13.007v61.338h-22.999v-67.294h4.719v-4.281h4.195v-4.631h4.719v-3.67h4.37v-2.795h3.932v-2.534h15.571v2.534h4.544v2.795h4.72v3.67h4.283v4.631h3.67v4.369h2.885v21.159h-2.36v5.33h-3.933v4.718h-4.335l15.023 35.999zm-22.829-1.5h20.578l-15.023-35.999h5.086v-4.718h3.933v-5.33h2.36v-18.159h-2.885v-4.369h-3.67v-4.631h-4.283v-3.67h-4.72v-2.795h-4.544v-2.534h-12.571v2.534h-3.932v2.795h-4.37v3.67h-4.719v4.631h-4.195v4.281h-4.719v64.294h19.999v-61.338h16.007v13.209h-4.457v3.146h-6.73v14.737l12.855 30.246z"/>


	<path d="m325.39 48.171v-5.594h-4.326v-4.724h-4.409v-4.719h-3.893v-3.394h-3.977v-2.81h-5.02v-2.62h-20.84v2.622h-4.924v2.622h-4.324v3.583h-3.544v4.719h-4.584v4.724h-3.977v5.594h-4.238v36.009h4.238v5.592h3.977v4.726h4.584v4.719h3.544v3.583h4.324v2.623h4.929v2.621h20.84v-2.621h5.016v-2.623h3.977v-3.583h3.896v-4.719h4.409v-4.726h4.326v-5.658h3.89v-35.946h-3.894zm-22.223 28.231v4.724h-4.324v4.37h-11.063v-4.37h-3.979v-4.724h-4.669v-20.453h4.669v-4.726h3.979v-4.363h11.063v4.369h4.324v4.726h4.324v20.447h-4.324z" fill="#F2B101"/>
	<path d="m304.52 108.8h-22.254l-0.086-0.75v-1.871h-4.929v-2.623h-4.324v-3.583h-3.544v-4.719h-4.584v-4.726h-3.977v-5.592h-4.238v-37.42l0.75-0.088h3.488v-5.594h3.977v-4.724h4.584v-4.719h3.544v-3.583h4.324v-2.622h4.925v-2.621h22.34v2.62h5.02v2.811h3.977v3.395h3.893v4.719h4.409v4.724h4.326v5.594h3.894v37.352l-0.75 0.093h-3.14v5.658h-4.326v4.726h-4.409v4.719h-3.896v3.583h-3.977v2.623h-5.016v2.618zm-20.84-1.5h19.34v-2.621h5.016v-2.623h3.977v-3.583h3.896v-4.719h4.409v-4.726h4.326v-5.658h3.89v-34.444h-3.894v-5.594h-4.326v-4.724h-4.409v-4.719h-3.893v-3.394h-3.977v-2.81h-5.02v-2.62h-19.34v2.622h-4.925v2.622h-4.324v3.583h-3.544v4.719h-4.584v4.724h-3.977v5.594h-4.238v34.509h4.238v5.592h3.977v4.726h4.584v4.719h3.544v3.583h4.324v2.623h4.929v2.619zm15.912-21.05h-12.563v-4.37h-3.979v-4.724h-4.669v-21.952h4.669v-4.726h3.979v-4.363h12.563v4.369h4.324v4.726h4.324v21.947h-4.324v4.724h-4.324v4.369zm-11.063-1.5h9.563v-4.37h4.324v-4.724h4.324v-18.947h-4.324v-4.726h-4.324v-4.368h-9.563v4.364h-3.979v4.726h-4.669v18.952h4.669v4.724h3.979v4.369z"/>

</svg>
