<?xml version="1.0" encoding="UTF-8"?>
<!DOCTYPE svg  PUBLIC '-//W3C//DTD SVG 1.1//EN'  'http://www.w3.org/Graphics/SVG/1.1/DTD/svg11.dtd' [
	<!ENTITY ns_flows "http://ns.adobe.com/Flows/1.0/">
	<!ENTITY ns_extend "http://ns.adobe.com/Extensibility/1.0/">
	<!ENTITY ns_ai "http://ns.adobe.com/AdobeIllustrator/10.0/">
	<!ENTITY ns_graphs "http://ns.adobe.com/Graphs/1.0/">
	<!ENTITY ns_vars "http://ns.adobe.com/Variables/1.0/">
	<!ENTITY ns_imrep "http://ns.adobe.com/ImageReplacement/1.0/">
	<!ENTITY ns_sfw "http://ns.adobe.com/SaveForWeb/1.0/">
	<!ENTITY ns_custom "http://ns.adobe.com/GenericCustomNamespace/1.0/">
	<!ENTITY ns_adobe_xpath "http://ns.adobe.com/XPath/1.0/">
]>
<svg width="362.66px" height="72.563px" enable-background="new 217.274 0.152 362.658 72.563" version="1.1" viewBox="217.27 .152 362.66 72.563" xml:space="preserve" xmlns="http://www.w3.org/2000/svg">

<g fill="#878787">
	<path d="m227.98 36.615c1.446-1.85 4.439-2.166 6.213-0.614 0.726 0.612 1.234 1.455 1.494 2.361 3.284 11.302 6.583 22.598 9.863 33.899-1.938 2e-3 -3.878-3e-3 -5.815 2e-3 -0.914-3.115-1.807-6.237-2.709-9.356-3.749-0.01-7.495-3e-3 -11.243-5e-3 -0.917 3.118-1.823 6.239-2.725 9.361-1.928-7e-3 -3.856-2e-3 -5.784-4e-3 3.121-10.779 6.245-21.562 9.38-32.338 0.372-1.126 0.513-2.384 1.326-3.306m3.422 6.926c-1.375 4.682-2.721 9.372-4.087 14.057 2.724 0.013 5.447 4e-3 8.17 4e-3 -1.363-4.687-2.719-9.375-4.083-14.061z"/>
	<path d="m268.81 36.858c1.01-1.465 2.963-2.176 4.683-1.724 1.573 0.363 2.778 1.719 3.193 3.246 3.281 11.293 6.574 22.583 9.855 33.876-1.941 0.013-3.881 0-5.822 8e-3 -0.902-3.119-1.795-6.241-2.705-9.359-3.742 2e-3 -7.483-7e-3 -11.225 3e-3 -0.894 3.121-1.816 6.235-2.711 9.355-1.926 3e-3 -3.852-2e-3 -5.777 3e-3 3.119-10.84 6.274-21.672 9.417-32.504 0.33-0.98 0.458-2.058 1.092-2.904m-0.472 20.744c2.713 4e-3 5.424 1e-3 8.137 1e-3 -1.349-4.695-2.721-9.387-4.066-14.084-1.355 4.695-2.723 9.386-4.071 14.083z"/>
	<path d="m241.21 35.078h21.035v5.673c-2.582 2e-3 -5.163-3e-3 -7.744 2e-3 0 10.502 1e-3 21.007-1e-3 31.509h-5.547c0-10.502-2e-3 -21.006 1e-3 -31.509-2.582-5e-3 -5.162 0-7.745-2e-3 1e-3 -1.892-1e-3 -3.782 1e-3 -5.673z"/>
	<path d="m292.71 35.309c0.533-0.184 1.102-0.247 1.664-0.233 2.211 8e-3 4.423 1e-3 6.632 3e-3 3.724 0.068 7.278 2.378 8.889 5.73 1.115 2.176 1.231 4.706 0.949 7.093-0.193 2.5-1.241 4.998-3.163 6.655-1.016 0.904-2.279 1.452-3.364 2.257-0.597 0.455-0.626 1.337-0.318 1.968 2.934 4.529 5.984 8.989 8.98 13.48-2.19 4e-3 -4.382-5e-3 -6.573 4e-3 -2.868-4.308-5.706-8.638-8.562-12.952-0.84-1.228-1.068-2.854-0.566-4.255 0.393-1.074 1.332-1.861 2.378-2.268 1.997-0.762 3.966-1.959 5.072-3.843 0.842-1.417 0.798-3.165 0.419-4.715-0.443-2.013-2.404-3.596-4.477-3.526-1.432 0.01-2.865-8e-3 -4.295 7e-3 -0.648-0.015-1.258 0.548-1.25 1.204-6e-3 10.115 4e-3 20.23-2e-3 30.347-1.863-4e-3 -3.725 0-5.588-2e-3 -4e-3 -10.89 2e-3 -21.78-4e-3 -32.671 0.012-1.909 1.369-3.704 3.179-4.283z"/>
	<path d="m315.91 35.078h5.88c-1e-3 12.396 4e-3 24.789-3e-3 37.186-1.958-5e-3 -3.917 0-5.877-2e-3v-37.184z"/>
</g>
<path d="m441.87 34.488c5.281-3.112 8.575-8.381 8.575-14.23 0-13.813-14.59-20.104-28.146-20.104-13.558 0-28.146 6.291-28.146 20.104 0 5.851 3.293 11.118 8.573 14.23-7.511 3.479-11.713 9.403-11.713 16.784 0 13.913 15.736 21.192 31.282 21.192s31.283-7.279 31.283-21.192c5e-3 -7.381-4.198-13.308-11.708-16.784zm-19.57-8.756c-3.458 0-6.271-2.23-6.271-4.974s2.813-4.975 6.271-4.975c3.455 0 6.271 2.231 6.271 4.975-2e-3 2.744-2.814 4.974-6.271 4.974zm0 17.725c3.849 0 6.979 2.567 6.979 5.729 0 3.064-3.131 5.561-6.979 5.561-3.85 0-6.979-2.492-6.979-5.561 0-3.162 3.13-5.729 6.979-5.729z" fill="#AD0E0E"/>
<path d="m508.23 11.921c-5.774-7.698-14.257-11.769-24.529-11.769s-18.755 4.069-24.529 11.769c-4.854 6.476-7.528 15.181-7.528 24.513 0 18.058 9.912 36.28 32.061 36.28s32.063-18.223 32.063-36.28c-6e-3 -9.333-2.681-18.038-7.538-24.513zm-24.529 39.309c-7.721 0-8.566-10.037-8.566-14.881 0-4.798 0.849-14.714 8.566-14.714 7.721 0 8.565 9.916 8.565 14.714 2e-3 4.844-0.844 14.881-8.565 14.881z" fill="#AD0E0E"/>
<path d="m572.4 11.921c-5.772-7.698-14.257-11.769-24.527-11.769-10.272 0-18.755 4.069-24.529 11.769-4.854 6.476-7.529 15.181-7.529 24.513 0 18.058 9.913 36.28 32.062 36.28 22.146 0 32.061-18.223 32.061-36.28-5e-3 -9.333-2.68-18.038-7.538-24.513zm-24.527 39.309c-7.723 0-8.567-10.037-8.567-14.881 0-4.798 0.849-14.714 8.567-14.714s8.564 9.916 8.564 14.714c3e-3 4.844-0.844 14.881-8.564 14.881z" fill="#AD0E0E"/>
<polygon points="336.52 1.165 336.52 23.181 366.66 23.181 344.17 72.386 369.64 72.386 399.88 1.165" fill="#AD0E0E"/>
</svg>
