<?xml version="1.0" encoding="UTF-8"?>
<!DOCTYPE svg [
	<!ENTITY ns_flows "http://ns.adobe.com/Flows/1.0/">
	<!ENTITY ns_extend "http://ns.adobe.com/Extensibility/1.0/">
	<!ENTITY ns_ai "http://ns.adobe.com/AdobeIllustrator/10.0/">
	<!ENTITY ns_graphs "http://ns.adobe.com/Graphs/1.0/">
	<!ENTITY ns_vars "http://ns.adobe.com/Variables/1.0/">
	<!ENTITY ns_imrep "http://ns.adobe.com/ImageReplacement/1.0/">
	<!ENTITY ns_sfw "http://ns.adobe.com/SaveForWeb/1.0/">
	<!ENTITY ns_custom "http://ns.adobe.com/GenericCustomNamespace/1.0/">
	<!ENTITY ns_adobe_xpath "http://ns.adobe.com/XPath/1.0/">
]>
<svg baseProfile="tiny" version="1.2" viewBox="0 0 566.93 92.934" xml:space="preserve" xmlns="http://www.w3.org/2000/svg">

<g fill="#686868">
	
		<path d="m162.73 4.833c3.574-4.573 10.968-5.354 15.352-1.521 1.792 1.512 3.048 3.597 3.689 5.837 8.115 27.926 16.267 55.834 24.372 83.762-4.791 3e-3 -9.582-8e-3 -14.371 3e-3 -2.258-7.694-4.463-15.41-6.693-23.114-9.26-0.027-18.519-8e-3 -27.777-0.011-2.269 7.701-4.505 15.411-6.733 23.13-4.763-0.021-9.525-8e-3 -14.29-0.011 7.71-26.638 15.428-53.272 23.175-79.901 0.921-2.786 1.265-5.9 3.276-8.174m8.454 17.11c-3.396 11.568-6.723 23.16-10.098 34.734 6.73 0.03 13.458 0.011 20.186 0.011-3.368-11.581-6.72-23.163-10.088-34.745z"/>
		<path d="m263.61 5.434c2.495-3.62 7.32-5.379 11.567-4.261 3.89 0.896 6.865 4.248 7.893 8.021 8.106 27.905 16.241 55.798 24.345 83.694-4.793 0.043-9.588 0-14.383 0.021-2.229-7.704-4.437-15.423-6.683-23.122-9.245 3e-3 -18.489-0.021-27.733 6e-3 -2.21 7.713-4.487 15.405-6.698 23.113-4.759 3e-3 -9.517 0-14.274 3e-3 7.704-26.78 15.501-53.539 23.268-80.305 0.817-2.417 1.13-5.081 2.698-7.17m-1.166 51.254c6.702 0.01 13.401 3e-3 20.102 3e-3 -3.332-11.604-6.719-23.191-10.045-34.8-3.347 11.6-6.728 23.192-10.057 34.797z"/>
		<path d="m195.42 1.034h51.97v14.018c-6.378 5e-3 -12.755-7e-3 -19.131 5e-3 0 25.952 4e-3 51.902-3e-3 77.854h-13.706c0-25.951-4e-3 -51.901 4e-3 -77.854-6.379-0.012-12.755 0-19.133-5e-3 -1e-3 -4.673-4e-3 -9.344-1e-3 -14.018z"/>
		<path d="m322.65 1.604c1.316-0.455 2.721-0.608 4.111-0.577 5.461 0.021 10.922 5e-3 16.389 9e-3 9.197 0.168 17.979 5.88 21.961 14.157 2.756 5.377 3.041 11.633 2.344 17.53-0.475 6.176-3.068 12.35-7.814 16.44-2.508 2.236-5.631 3.592-8.313 5.578-1.475 1.126-1.545 3.302-0.785 4.859 7.25 11.194 14.789 22.207 22.189 33.309-5.412 0.011-10.824-0.016-16.238 0.011-7.088-10.646-14.104-21.344-21.16-32-2.074-3.031-2.637-7.051-1.396-10.518 0.971-2.652 3.293-4.599 5.877-5.599 4.936-1.882 9.799-4.842 12.533-9.498 2.076-3.503 1.973-7.816 1.039-11.647-1.098-4.974-5.943-8.89-11.061-8.716-3.543 0.024-7.08-0.021-10.615 0.018-1.6-0.037-3.105 1.353-3.086 2.979-0.018 24.99 0.01 49.985-6e-3 74.979-4.605-8e-3 -9.203 0-13.809-8e-3 -0.01-26.902 0.01-53.814-0.01-80.719 0.024-4.716 3.377-9.154 7.85-10.587z"/>
		<path d="m379.97 1.034h14.529c-6e-3 30.63 4e-3 61.251-0.01 91.876-4.84-0.013-9.68 0-14.521-3e-3 2e-3 -30.625 2e-3 -61.246 2e-3 -91.873z"/>
	
	
		<path d="m40.963 0.865c2.326-9e-3 4.651 0 6.981-6e-3 8e-3 5.472 0 10.942 3e-3 16.41 0.021 4.567-0.106 9.131-0.295 13.694-0.312 6.586-0.725 13.188-1.814 19.696-0.75 4.486-2.305 8.819-4.229 12.932-3.142 6.622-8.081 12.226-13.632 16.938-4.964 4.37-10.892 7.555-17.126 9.701-3.527 1.225-7.157 2.156-10.851 2.68 3e-3 -4.588 3e-3 -9.181 0-13.767 4.449-0.67 8.726-2.249 12.696-4.337 4.712-2.492 8.954-5.841 12.526-9.794 3.688-4.077 6.626-8.801 8.856-13.813 2.627-5.765 4.033-11.994 4.989-18.229 1.198-7.927 1.697-15.951 1.882-23.958 0.03-2.713 7e-3 -5.429 0.014-8.147z"/>
		<path d="m50.75 0.875c4.283-0.028 8.565-3e-3 12.85-0.01 1e-3 30.68 1e-3 61.362 0 92.042-4.274 0.011-8.547-0.021-12.82 0.021-0.052-9.781-7e-3 -19.571-0.022-29.351-6e-3 -20.899 8e-3 -41.799-8e-3 -62.702z"/>
		<path d="m66.458 0.865c2.315-6e-3 4.627-9e-3 6.939 0-0.076 9.354 0.244 18.729 1.358 28.021 0.913 7.22 2.201 14.494 5.076 21.218 2.725 6.505 6.654 12.555 11.774 17.433 4.892 4.663 10.814 8.248 17.252 10.309 1.796 0.571 3.632 1.021 5.501 1.299-1e-3 4.586-4e-3 9.171 0 13.757-3.669-0.499-7.267-1.444-10.769-2.636-4.169-1.449-8.202-3.329-11.907-5.742-2.704-1.731-5.163-3.814-7.524-5.985-3.894-3.595-7.377-7.67-9.996-12.294-2.046-3.6-3.54-7.486-4.711-11.448-1.073-3.983-1.528-8.107-1.945-12.201-0.805-8.855-1.106-17.753-1.05-26.64 2e-3 -5.033 0-10.061 2e-3 -15.091z"/>
		<path d="m50.75 0.875c0.015 20.9 3e-3 41.803 8e-3 62.7 0.014 9.778-0.032 19.565 0.022 29.352 4.272-0.039 8.547-0.01 12.82-0.021 1e-3 -30.68 1e-3 -61.361 0-92.047-4.283 0.013-8.566-0.011-12.85 0.016"/>
		<path d="m66.458 0.865c-2e-3 5.026 0 10.058 0 15.085-0.057 8.884 0.245 17.781 1.05 26.64 0.417 4.094 0.872 8.218 1.945 12.201 1.169 3.962 2.665 7.851 4.711 11.448 2.618 4.622 6.102 8.699 9.996 12.294 2.363 2.174 4.82 4.254 7.524 5.985 3.705 2.413 7.738 4.29 11.907 5.742 3.501 1.189 7.1 2.134 10.769 2.636-4e-3 -4.586-1e-3 -9.171 0-13.757-1.867-0.272-3.706-0.728-5.501-1.299-6.438-2.061-12.361-5.646-17.252-10.309-5.12-4.872-9.049-10.926-11.774-17.433-2.875-6.724-4.163-13.998-5.076-21.218-1.115-9.291-1.434-18.666-1.358-28.021-2.315-1e-3 -4.628 2e-3 -6.941 6e-3"/>
	
	
		<path d="m432.91 59.248 1.672 1.313c5.854 4.538 12.9 8.242 20.426 8.242 3.229 0 8.361-1.313 8.361-5.377 0-4.061-4.301-4.418-7.285-5.016l-6.572-1.193c-12.777-2.27-23.527-9.797-23.527-23.893-5e-3 -21.379 19.468-33.324 39.057-33.324 10.27 0 19.707 2.508 28.547 7.884l-8.84 23.054c-5.613-3.819-11.943-6.808-18.99-6.808-2.867 0-7.049 1.073-7.049 4.776 0 3.346 4.063 3.821 6.568 4.419l7.407 1.675c13.855 3.104 23.891 10.511 23.891 25.801 0 21.5-19.59 32.133-39.061 32.133-11.35 0-24.486-3.105-34.641-8.243l10.036-25.443z"/>
		<path d="M498.126,1.433h68.803V26.7l-18.037,0.051V91.5h-32.729V26.75l-18.037-0.05V1.433z"/>
	
</g>
</svg>
