<?xml version="1.0" encoding="UTF-8"?>
<svg enable-background="new 0 0 566.929 129.21" version="1.1" viewBox="0 0 566.93 129.21" xml:space="preserve" xmlns="http://www.w3.org/2000/svg" xmlns:cc="http://creativecommons.org/ns#" xmlns:dc="http://purl.org/dc/elements/1.1/" xmlns:rdf="http://www.w3.org/1999/02/22-rdf-syntax-ns#"><metadata><rdf:RDF><cc:Work rdf:about=""><dc:format>image/svg+xml</dc:format><dc:type rdf:resource="http://purl.org/dc/dcmitype/StillImage"/><dc:title/></cc:Work></rdf:RDF></metadata><g transform="matrix(.10252 0 0 .10252 199.56 .7625)"><g transform="matrix(1.0976 0 0 1.0976 -1181.1 -52.504)"><path d="m22.542 311.66h3702.7c109.78 0 190.76 81.148 168.57 163.98l-79.83 291.04c-20.001 72.92-100.5 136.49-176.11 136.49h-3752.2c-75.613 0-156.49-63.566-136.49-136.49l87.372-318.54c17.044-62.137 82.886-136.49 186.02-136.49z" color="#000000" color-rendering="auto" enable-background="accumulate" fill="#2285c8" image-rendering="auto" shape-rendering="auto" solid-color="#000000" style="isolation:auto;mix-blend-mode:normal"/><g fill="#fff" stroke-width="12.26px" aria-label="GAMES"><path d="m2529.8 586.59q-16.855 79.125-76.316 132.03-59.461 52.906-128.29 52.906-62.27 0-101.6-36.051-38.86-36.519-38.86-95.98 0-17.791 4.2137-36.987 14.982-70.697 81.466-119.86 59.461-44.01 118.45-44.01 31.369 0 50.565 12.641l7.0229-5.6183 62.738 36.987-88.02 75.847q-9.3638-5.6183-15.45-8.4275-19.664-8.8957-36.051-8.8957-30.901 0-54.31 21.537-20.601 19.196-26.219 44.947-0.9364 4.2138-1.4046 7.9593-0.4682 3.2774-0.4682 7.4911 0 23.41 16.855 36.519 17.323 13.109 42.606 13.109 14.514 0 26.687-6.0865 12.641-6.0865 22.005-16.387h-51.501l38.86-82.87h149.82q-0.9364 5.1501-0.9364 7.4911-1.4046 9.3639-1.8728 11.705z"/><path d="m2810.3 765.91h-106.28l0.4682-44.478h-90.83l-22.473 44.478h-103l112.83-234.1h-22.473l49.629-86.148h159.19zm-108.15-128.75-4.6819-95.043-45.415 95.043z"/><path d="m3130.8 765.91h-93.171l37.924-178.38-71.634 68.825-46.82-63.674-36.987 173.23h-100.19l47.288-222.39h-22.473l43.074-97.853h101.13l44.01 67.42 67.42-67.42h98.321z"/><path d="m3463.8 433.03-49.629 112.37h-100.66l-3.7456 18.26h117.52l-39.328 82.402h-95.98l-4.2138 19.664h115.64l-44.947 100.19h-191.96l47.288-223.33h-22.473l43.074-96.916h132.97l7.0229-12.641z"/><path d="m3665.2 661.97q-9.3638 43.074-44.947 73.975-42.138 36.519-103.94 36.519-21.537 0-45.883-6.0865-32.305-7.9593-59.461-25.282l44.947-92.702q35.583 17.791 50.097 22.942 14.514 5.1501 29.496 5.1501 21.069 0 23.878-14.982 2.3409-10.768-24.346-20.601-39.796-14.982-52.906-23.878-29.496-20.601-29.496-54.779 0-12.641 2.341-23.41 9.3639-44.478 44.478-71.634 35.115-27.155 85.211-27.155 8.8956 0 14.982 0 6.0865 0 21.069 1.8728l5.6183-10.3 80.529 16.387-50.097 101.6q-15.45-10.768-36.987-17.323-21.069-6.5547-31.369-6.5547-9.8321 0-16.855 3.7456-7.0229 3.2774-8.8957 11.237-1.8728 8.8957 24.814 18.728 36.987 13.578 51.501 24.346 28.56 20.601 28.56 54.779 0 12.641-2.341 23.41z"/></g><path d="m520.93 79.668h1361.1c138.91 0 274.52 147.31 229.43 311.68l-104.7 381.73c-71.56 267.07-251.67 373.11-394.94 377.65h-1351.9c-136.91 0-283.35-115.1-247.14-247.14l154.72-564.08c38.063-142.05 231.28-255.72 353.42-259.85z" color="#000000" color-rendering="auto" enable-background="accumulate" fill="#050608" image-rendering="auto" shape-rendering="auto" solid-color="#000000" style="isolation:auto;mix-blend-mode:normal"/><g transform="skewX(-3.483)" fill="#ed1e24" stroke-width="9.754px" aria-label="ALL "><path d="m981.37 1024.4h-271.6l1.1965-113.67h-232.12l-57.432 113.67h-263.23l288.36-598.25h-57.432l126.83-220.16h406.81zm-276.39-329.04-11.965-242.89-116.06 242.89z"/><path d="m1488.1 769.55-112.47 254.85h-369.72l122.04-573.12h-57.432l108.88-245.28h256.05l-119.65 563.55z"/><path d="m1950.8 769.55-112.47 254.85h-369.72l122.04-573.12h-57.432l108.88-245.28h256.05l-119.65 563.55z"/></g></g></g></svg>
