<?xml version="1.0" encoding="UTF-8"?>
<!DOCTYPE svg  PUBLIC '-//W3C//DTD SVG 1.1//EN'  'http://www.w3.org/Graphics/SVG/1.1/DTD/svg11.dtd'>
<svg width="169.5px" height="67.609px" enable-background="new 187.964 0 169.5 67.609" version="1.1" viewBox="187.96 0 169.5 67.609" xml:space="preserve" xmlns="http://www.w3.org/2000/svg">
<rect x="192.7" y="4.104" width="161.3" height="60.594"/>
<rect x="194.13" y="5.432" width="48.983" height="57.878" fill="#1F0200"/>
<g fill="#F9F8E1">
	<path d="m265.56 28.495c0 5.628-4.411 8.442-13.232 8.442-1.531 0-3.916-0.042-7.155-0.127 0.176-4.271 0.265-9.086 0.265-14.446 0-5.147-0.088-9.538-0.265-13.173h3.293c0.624 0 1.67-0.021 3.14-0.063s2.619-0.064 3.445-0.064c6.003 0 9.004 2.037 9.004 6.109 0 3.14-1.538 5.218-4.614 6.236v0.318c1.639 0.269 3.069 0.937 4.289 2.004 1.22 1.07 1.83 2.657 1.83 4.764zm-6.972-11.645c0-2.531-1.518-3.797-4.553-3.797-1.396 0-2.636 0.106-3.719 0.318 0.148 1.429 0.223 3.882 0.223 7.361 0.515 0.028 1.057 0.042 1.626 0.042 4.282-1e-3 6.423-1.308 6.423-3.924zm1.484 11.879c0-2.814-2.364-4.222-7.094-4.222-0.935 0-1.741 0.036-2.418 0.106 0 2.956 0.061 5.678 0.183 8.167 0.46 0.114 1.151 0.17 2.073 0.17 2.507 0 4.343-0.314 5.508-0.944s1.748-1.722 1.748-3.277z"/>
	<path d="m290.44 28.495c0 5.628-4.411 8.442-13.232 8.442-1.531 0-3.916-0.042-7.154-0.127 0.176-4.271 0.264-9.086 0.264-14.446 0-5.147-0.088-9.538-0.264-13.173h3.292c0.623 0 1.67-0.021 3.14-0.063 1.471-0.042 2.619-0.064 3.445-0.064 6.003 0 9.004 2.037 9.004 6.109 0 3.14-1.537 5.218-4.613 6.236v0.318c1.64 0.269 3.069 0.937 4.289 2.004 1.219 1.07 1.829 2.657 1.829 4.764zm-6.972-11.645c0-2.531-1.518-3.797-4.553-3.797-1.396 0-2.636 0.106-3.72 0.318 0.149 1.429 0.224 3.882 0.224 7.361 0.515 0.028 1.057 0.042 1.626 0.042 4.282-1e-3 6.423-1.308 6.423-3.924zm1.484 11.879c0-2.814-2.365-4.222-7.093-4.222-0.935 0-1.742 0.036-2.419 0.106 0 2.956 0.061 5.678 0.183 8.167 0.46 0.114 1.151 0.17 2.073 0.17 2.507 0 4.343-0.314 5.508-0.944s1.748-1.722 1.748-3.277z"/>
	<path d="m313.88 31.783-0.346 4.879c-1.925 0.48-3.821 0.721-5.691 0.721-4.647 0-8.188-1.339-10.62-4.02-2.433-2.68-3.648-5.936-3.648-9.769 0-3.973 1.291-7.431 3.872-10.373 2.581-2.941 6.122-4.412 10.62-4.412 1.653 0 3.219 0.198 4.695 0.594l-0.711 4.9c-1.6-0.538-3.131-0.806-4.594-0.806-2.751 0-4.797 0.909-6.139 2.726s-2.012 4.027-2.012 6.629c0 2.659 0.795 4.964 2.389 6.915 1.592 1.952 3.824 2.928 6.696 2.928 1.682 0 3.511-0.303 5.489-0.912z"/>
</g>
<g fill="#F9F8E1">
	<path d="m250.92 50.963-3.193-9.094c-0.018-0.041-0.054-0.081-0.126-0.081s-0.161 0.054-0.161 0.136v9.039h-1.489v-9.962h2.745l2.798 7.736c0.036 0.081 0.09 0.122 0.162 0.122 0.108 0 0.198-0.055 0.215-0.136l2.727-7.723h2.781v9.962h-1.489v-8.984c0-0.082-0.072-0.123-0.126-0.123-0.072 0-0.144 0.027-0.179 0.096l-3.157 9.012h-1.508z"/>
	<path d="m261.06 50.081h1.112v-8.171h-1.112v-0.909h4.144v0.909h-1.166v8.171h1.166v0.882h-4.144v-0.882z"/>
	<path d="m274.42 43.893c-0.144-0.965-0.753-1.833-2.188-1.833-1.31 0-1.866 0.773-2.152 1.303-0.484 0.896-0.539 2.28-0.539 2.39 0 2.185 0.521 4.315 2.691 4.315 1.041 0 1.579-0.569 1.74-0.76 0.358-0.462 0.43-1.032 0.466-1.357l1.794 0.244c-0.072 0.787-0.448 1.642-1.237 2.239-1.13 0.855-2.422 0.855-2.924 0.855-1.077 0-4.323-0.421-4.323-5.212 0-2.294 0.771-5.198 4.484-5.198 0.843 0 1.938 0.189 2.745 0.814 0.897 0.691 1.076 1.479 1.166 1.954l-1.723 0.246z"/>
	<path d="m279.73 41.001h4.054c3.678 0 4.467 1.683 4.467 2.701 0 1.872-1.632 2.375-2.816 2.659l3.444 4.602h-2.152l-3.122-4.424h-2.027v4.424h-1.848v-9.962zm1.83 1.167v3.299c1.004 0.014 2.296 0.014 2.977-0.096 0.719-0.122 1.848-0.407 1.848-1.52 0-1.168-1.039-1.684-3.013-1.684h-1.812z"/>
	<path d="m298.96 43.268c0.395 0.882 0.502 2.049 0.502 2.742 0 2.375-0.879 5.252-4.431 5.252-3.229 0-4.449-2.457-4.449-5.117 0-1.52 0.324-2.904 1.077-3.813 1.095-1.33 2.403-1.479 3.372-1.479 2.225-1e-3 3.391 1.22 3.929 2.415zm-3.892-1.222c-1.13 0-1.829 0.597-2.206 1.534-0.252 0.597-0.395 1.479-0.395 2.523 0 1.264 0.232 3.923 2.529 3.923 1.865 0 2.582-1.452 2.582-3.977 1e-3 -1.316-0.16-4.003-2.51-4.003z"/>
</g>
<circle cx="199.29" cy="10.039" r="1.863" fill="#F9F8E1"/>
<circle cx="204.2" cy="10.039" r="1.863" fill="#F9F8E1"/>
<circle cx="209.12" cy="10.039" r="1.863" fill="#F9F8E1"/>
<circle cx="214.04" cy="10.039" r="1.863" fill="#F9F8E1"/>
<circle cx="218.96" cy="10.039" r="1.863" fill="#F9F8E1"/>
<circle cx="223.87" cy="10.039" r="1.863" fill="#F9F8E1"/>
<circle cx="228.79" cy="10.039" r="1.863" fill="#F9F8E1"/>
<circle cx="233.71" cy="10.039" r="1.863" fill="#F9F8E1"/>
<circle cx="238.62" cy="10.039" r="1.863" fill="#F9F8E1"/>
<circle cx="201.71" cy="12.854" r="1.863" fill="#F9F8E1"/>
<circle cx="216.46" cy="12.854" r="1.863" fill="#F9F8E1"/>
<circle cx="221.38" cy="12.854" r="1.863" fill="#F9F8E1"/>
<circle cx="236.13" cy="12.854" r="1.863" fill="#F9F8E1"/>
<circle cx="199.29" cy="15.584" r="1.863" fill="#F9F8E1"/>
<circle cx="209.12" cy="15.584" r="1.863" fill="#F9F8E1"/>
<circle cx="218.96" cy="15.584" r="1.863" fill="#F9F8E1"/>
<circle cx="228.79" cy="15.584" r="1.863" fill="#F9F8E1"/>
<circle cx="238.62" cy="15.584" r="1.863" fill="#F9F8E1"/>
<circle cx="206.63" cy="18.4" r="1.863" fill="#F9F8E1"/>
<circle cx="211.55" cy="18.4" r="1.863" fill="#F9F8E1"/>
<circle cx="226.3" cy="18.4" r="1.863" fill="#F9F8E1"/>
<circle cx="231.22" cy="18.4" r="1.863" fill="#F9F8E1"/>
<circle cx="199.29" cy="20.999" r="1.863" fill="#F9F8E1"/>
<circle cx="209.12" cy="20.999" r="1.863" fill="#F9F8E1"/>
<circle cx="228.79" cy="20.999" r="1.863" fill="#F9F8E1"/>
<circle cx="238.62" cy="20.999" r="1.863" fill="#F9F8E1"/>
<circle cx="201.71" cy="23.815" r="1.863" fill="#F9F8E1"/>
<circle cx="216.46" cy="23.815" r="1.863" fill="#F9F8E1"/>
<circle cx="221.38" cy="23.815" r="1.863" fill="#F9F8E1"/>
<circle cx="236.13" cy="23.815" r="1.863" fill="#F9F8E1"/>
<circle cx="199.29" cy="26.544" r="1.863" fill="#F9F8E1"/>
<circle cx="204.2" cy="26.544" r="1.863" fill="#F9F8E1"/>
<circle cx="218.96" cy="26.544" r="1.863" fill="#F9F8E1"/>
<circle cx="233.71" cy="26.544" r="1.863" fill="#F9F8E1"/>
<circle cx="238.62" cy="26.544" r="1.863" fill="#F9F8E1"/>
<circle cx="201.71" cy="29.36" r="1.863" fill="#F9F8E1"/>
<circle cx="206.63" cy="29.36" r="1.863" fill="#F9F8E1"/>
<circle cx="211.55" cy="29.36" r="1.863" fill="#F9F8E1"/>
<circle cx="216.46" cy="29.36" r="1.863" fill="#F9F8E1"/>
<circle cx="221.38" cy="29.36" r="1.863" fill="#F9F8E1"/>
<circle cx="226.3" cy="29.36" r="1.863" fill="#F9F8E1"/>
<circle cx="231.22" cy="29.36" r="1.863" fill="#F9F8E1"/>
<circle cx="199.29" cy="32.22" r="1.863" fill="#F9F8E1"/>
<circle cx="204.2" cy="32.22" r="1.863" fill="#F9F8E1"/>
<circle cx="209.12" cy="32.22" r="1.863" fill="#F9F8E1"/>
<circle cx="214.04" cy="32.22" r="1.863" fill="#F9F8E1"/>
<circle cx="218.96" cy="32.22" r="1.863" fill="#F9F8E1"/>
<circle cx="238.62" cy="32.22" r="1.863" fill="#F9F8E1"/>
<circle cx="201.71" cy="35.036" r="1.863" fill="#F9F8E1"/>
<circle cx="206.63" cy="35.036" r="1.863" fill="#F9F8E1"/>
<circle cx="211.55" cy="35.036" r="1.863" fill="#F9F8E1"/>
<circle cx="216.46" cy="35.036" r="1.863" fill="#F9F8E1"/>
<circle cx="221.38" cy="35.036" r="1.863" fill="#F9F8E1"/>
<circle cx="204.2" cy="37.765" r="1.863" fill="#F9F8E1"/>
<circle cx="209.12" cy="37.765" r="1.863" fill="#F9F8E1"/>
<circle cx="214.04" cy="37.765" r="1.863" fill="#F9F8E1"/>
<circle cx="218.96" cy="37.765" r="1.863" fill="#F9F8E1"/>
<circle cx="238.62" cy="37.765" r="1.863" fill="#F9F8E1"/>
<circle cx="206.63" cy="40.581" r="1.863" fill="#F9F8E1"/>
<circle cx="211.55" cy="40.581" r="1.863" fill="#F9F8E1"/>
<circle cx="216.46" cy="40.581" r="1.863" fill="#F9F8E1"/>
<circle cx="221.38" cy="40.581" r="1.863" fill="#F9F8E1"/>
<circle cx="209.12" cy="43.181" r="1.863" fill="#F9F8E1"/>
<circle cx="214.04" cy="43.181" r="1.863" fill="#F9F8E1"/>
<circle cx="218.96" cy="43.181" r="1.863" fill="#F9F8E1"/>
<circle cx="223.87" cy="43.181" r="1.863" fill="#F9F8E1"/>
<circle cx="238.62" cy="43.181" r="1.863" fill="#F9F8E1"/>
<circle cx="211.55" cy="45.996" r="1.863" fill="#F9F8E1"/>
<circle cx="216.46" cy="45.996" r="1.863" fill="#F9F8E1"/>
<circle cx="221.38" cy="45.996" r="1.863" fill="#F9F8E1"/>
<circle cx="226.3" cy="45.996" r="1.863" fill="#F9F8E1"/>
<circle cx="214.04" cy="48.726" r="1.863" fill="#F9F8E1"/>
<circle cx="218.96" cy="48.726" r="1.863" fill="#F9F8E1"/>
<circle cx="223.87" cy="48.726" r="1.863" fill="#F9F8E1"/>
<circle cx="228.79" cy="48.726" r="1.863" fill="#F9F8E1"/>
<circle cx="238.62" cy="48.726" r="1.863" fill="#F9F8E1"/>
<circle cx="216.46" cy="51.541" r="1.863" fill="#F9F8E1"/>
<circle cx="226.3" cy="51.541" r="1.863" fill="#F9F8E1"/>
<circle cx="231.22" cy="51.541" r="1.863" fill="#F9F8E1"/>
<circle cx="214.04" cy="54.285" r="1.863" fill="#F9F8E1"/>
<circle cx="223.87" cy="54.285" r="1.863" fill="#F9F8E1"/>
<circle cx="233.71" cy="54.285" r="1.863" fill="#F9F8E1"/>
<circle cx="238.62" cy="54.285" r="1.863" fill="#F9F8E1"/>
<circle cx="201.71" cy="57.102" r="1.863" fill="#F9F8E1"/>
<circle cx="206.63" cy="57.102" r="1.863" fill="#F9F8E1"/>
<circle cx="211.55" cy="57.102" r="1.863" fill="#F9F8E1"/>
<circle cx="216.46" cy="57.102" r="1.863" fill="#F9F8E1"/>
<circle cx="221.38" cy="57.102" r="1.863" fill="#F9F8E1"/>
<circle cx="226.3" cy="57.102" r="1.863" fill="#F9F8E1"/>
<circle cx="236.13" cy="57.102" r="1.863" fill="#F9F8E1"/>
<circle cx="238.62" cy="59.83" r="1.863" fill="#F9F8E1"/>
</svg>
