<?xml version="1.0" encoding="UTF-8"?>
<svg enable-background="new 0 0 566.929 87.964" version="1.1" viewBox="0 0 343.64 70.468" xml:space="preserve" xmlns="http://www.w3.org/2000/svg" xmlns:cc="http://creativecommons.org/ns#" xmlns:dc="http://purl.org/dc/elements/1.1/" xmlns:rdf="http://www.w3.org/1999/02/22-rdf-syntax-ns#"><metadata><rdf:RDF><cc:Work rdf:about=""><dc:format>image/svg+xml</dc:format><dc:type rdf:resource="http://purl.org/dc/dcmitype/StillImage"/><dc:title/></cc:Work></rdf:RDF></metadata>
<g transform="matrix(.81916 0 0 .81916 -1.6624e-5 0)"><path d="m333.43 86.024h34.396l51.675-86.024h-34.384l-51.69 86.024" fill="#498cc1"/><path d="m135 23.469v46.875h28.125c8.7494-1.435 13.753-6.3365 15.656-14.062 0.0175-6.2553 3e-3 -12.495 0-18.75-1.9033-7.726-6.9069-12.627-15.656-14.062h-28.125zm11 9.4062h12.469c3.9161 0.69463 7.6321 1.9226 9.4062 7.8125l-0.0312 12.5c-1.7896 5.8814-5.4902 7.1179-9.4063 7.8125h-12.469l0.0312-28.125z" fill="#666" stroke="#000" stroke-width="1.1104px"/><path d="m14.64 70.354v-35.926h-14.071l-0.004331-10.935h43.78l-4.6933 10.935-10.944 0.0043v35.921l-14.067 3.7e-5" fill="#666" stroke="#000" stroke-width="1.1104px"/><path d="m49.031 23.5-17.188 46.844h14.094l5.4375-17.156 5.4688 7.8125h9.375l3.125 9.3438h14.188l-17.312-46.844h-17.188zm8.5312 12.469 5.5312 14.094h-10.938l5.4062-14.094z" fill="#666" stroke="#000" stroke-width="1.1104px"/><path d="m84.957 70.354v-46.861h17.225l17.195 34.381v-34.381h10.944l-9e-3 46.861h-17.192l-17.197-34.351-0.0044 34.351h-10.961" fill="#666" stroke="#000" stroke-width="1.1104px"/><path d="m191.27 48.513-18.746-25.02h14.059l10.195 15.598 10.146-15.598h15.604l-18.804 24.942 0.0346 21.919h-12.477l-0.0122-21.841" fill="#666" stroke="#000" stroke-width="1.1104px"/><path d="m288.28 86.024h34.396l51.67-86.024h-34.39l-51.68 86.024" fill="#197123"/><path d="m243.12 86.024h34.396l51.67-86.024h-34.384l-51.69 86.024" fill="#ae1f19"/></g><flowRoot transform="translate(-94.313 -12.249)" fill="#000000" font-family="Open Sans Light" font-size="40px" letter-spacing="0px" word-spacing="0px" line-height="125%" xml:space="preserve"><flowRegion><rect x="377" y="24.964" width="185.5" height="41"/></flowRegion><flowPara>Cooccc</flowPara></flowRoot><text x="295.30255" y="32.581753" fill="#000000" font-family="Open Sans Light" font-size="40px" letter-spacing="0px" word-spacing="0px" line-height="125%" xml:space="preserve"><tspan x="295.30255" y="32.581753" font-family="Ebrima"/></text>
</svg>
