<?xml version="1.0" encoding="UTF-8"?>
<svg width="302.34" height="66.534" version="1.1" viewBox="0 0 79.994 17.604" xmlns="http://www.w3.org/2000/svg" xmlns:cc="http://creativecommons.org/ns#" xmlns:dc="http://purl.org/dc/elements/1.1/" xmlns:rdf="http://www.w3.org/1999/02/22-rdf-syntax-ns#" xmlns:xlink="http://www.w3.org/1999/xlink">
<defs>
<radialGradient id="a" cx="55.191" cy="275.03" r="39.815" gradientTransform="matrix(1.0465 0 0 .38403 -2.5674 169.73)" gradientUnits="userSpaceOnUse">
<stop stop-color="#ffcf64" offset="0"/>
<stop stop-color="#d09236" offset="1"/>
</radialGradient>
<linearGradient id="b" x1="17.804" x2="17.804" y1="17.983" y2="46.173" gradientUnits="userSpaceOnUse">
<stop offset="0"/>
<stop stop-color="#c5bb8f" offset=".0065863"/>
<stop stop-color="#fbe38c" offset=".017612"/>
<stop stop-color="#fffbb1" stop-opacity="0" offset="1"/>
</linearGradient>
</defs>
<metadata>
<rdf:RDF>
<cc:Work rdf:about="">
<dc:format>image/svg+xml</dc:format>
<dc:type rdf:resource="http://purl.org/dc/dcmitype/StillImage"/>
<dc:title/>
</cc:Work>
</rdf:RDF>
</metadata>
<g transform="translate(-15.591 -266.75)">
<g aria-label="All Games">
<g transform="matrix(1.093 0 0 1.093 -14.323 -41.818)">
<path transform="matrix(.26458 0 0 .26458 15.635 241.12)" d="m48.426 171.73c-0.16754-5.6e-4 -0.32844 0.0655-0.44726 0.1836l-3.4453 3.4453c-0.11811 0.11882-0.18416 0.27972-0.18359 0.44726v20.678c-5.65e-4 0.16754 0.06548 0.32844 0.18359 0.44726l3.4453 3.4453c0.11883 0.11811 0.27972 0.18416 0.44726 0.18359h20.678c0.34829-3e-4 0.63056-0.28257 0.63086-0.63086v-6.8926c-3.02e-4 -0.34829-0.28257-0.63056-0.63086-0.63086h-16.602v-12.521h13.154c0.23875 1.5e-4 0.45716-0.13438 0.56445-0.34766l3.4473-6.8926c0.21015-0.41978-0.09501-0.91394-0.56445-0.91406zm27.191 0c-0.16754-5.6e-4 -0.32844 0.0655-0.44727 0.1836l-3.4453 3.4453c-0.11811 0.11882-0.18416 0.27972-0.18359 0.44726v20.678c-5.65e-4 0.16754 0.06548 0.32844 0.18359 0.44726l3.4453 3.4453c0.11883 0.11811 0.27972 0.18416 0.44727 0.18359h17.23c0.16754 5.7e-4 0.32844-0.0655 0.44727-0.18359l3.4473-3.4453c0.11811-0.11882 0.18416-0.27972 0.18359-0.44726v-20.678c5.65e-4 -0.16754-0.06548-0.32844-0.18359-0.44726l-3.4473-3.4453c-0.11882-0.11812-0.27972-0.18416-0.44727-0.1836zm23.746 0c-0.34829 3e-4 -0.63056 0.28257-0.63086 0.63086v27.568c3.02e-4 0.34829 0.28257 0.63056 0.63086 0.63086h20.678c0.23875 1.5e-4 0.45716-0.13438 0.56445-0.34766l3.4453-6.8926c0.21016-0.41978-0.095-0.91396-0.56445-0.91407h-16.6v-20.045c-3e-4 -0.34829-0.28257-0.63056-0.63086-0.63086zm27.191 0c-0.34829 3e-4 -0.63056 0.28257-0.63086 0.63086v27.568c3e-4 0.34829 0.28257 0.63056 0.63086 0.63086h20.678c0.23875 1.5e-4 0.45717-0.13438 0.56446-0.34766l3.4453-6.8926c0.21016-0.41979-0.095-0.91396-0.56446-0.91407h-16.6v-20.045c-3e-4 -0.34829-0.28256-0.63055-0.63085-0.63086zm27.193 0c-0.34829 3e-4 -0.63056 0.28257-0.63086 0.63086v27.568c3e-4 0.34829 0.28257 0.63056 0.63086 0.63086h20.676c0.34829-3e-4 0.63056-0.28257 0.63086-0.63086v-6.8926c-3e-4 -0.34829-0.28257-0.63056-0.63086-0.63086h-13.152v-2.1836h13.152c0.34829-3e-4 0.63056-0.28257 0.63086-0.63086v-6.8926c-3e-4 -0.34829-0.28257-0.63056-0.63086-0.63086h-13.152v-2.1836h13.152c0.34829-3e-4 0.63056-0.28257 0.63086-0.63086v-6.8926c-3e-4 -0.34829-0.28257-0.63056-0.63086-0.63086zm27.191 0c-0.16754-5.6e-4 -0.32844 0.0655-0.44726 0.1836l-3.4453 3.4453c-0.11812 0.11882-0.18416 0.27972-0.1836 0.44726v20.678c-5.6e-4 0.16754 0.0655 0.32844 0.1836 0.44726l3.4453 3.4453c0.11882 0.11811 0.27972 0.18416 0.44726 0.18359h20.676c0.34829-3e-4 0.63056-0.28257 0.63086-0.63086v-6.8926c-3e-4 -0.34829-0.28257-0.63056-0.63086-0.63086h-16.6v-12.521h13.154c0.23875 1.5e-4 0.45717-0.13438 0.56446-0.34766l3.4453-6.8926c0.21015-0.41978-0.095-0.91395-0.56446-0.91406zm23.746 0c-0.34829 3e-4 -0.63056 0.28257-0.63086 0.63086v6.8926c3e-4 0.34829 0.28257 0.63056 0.63086 0.63086h7.9844v20.045c3e-4 0.34829 0.28257 0.63056 0.63086 0.63086h6.8926c0.34829-3e-4 0.63056-0.28257 0.63086-0.63086v-20.045h7.9844c0.34829-3e-4 0.63056-0.28257 0.63086-0.63086v-6.8926c-3e-4 -0.34829-0.28257-0.63056-0.63086-0.63086zm27.191 0c-0.34829 3e-4 -0.63056 0.28257-0.63086 0.63086v27.568c3e-4 0.34829 0.28257 0.63056 0.63086 0.63086h6.8926c0.34829-3e-4 0.63056-0.28257 0.63086-0.63086v-27.568c-3e-4 -0.34829-0.28257-0.63056-0.63086-0.63086zm13.408 0c-0.16754-5.7e-4 -0.32844 0.0655-0.44727 0.1836l-3.4473 3.4453c-0.11811 0.11882-0.18416 0.27972-0.18359 0.44726v20.678c-5.7e-4 0.16754 0.0655 0.32844 0.18359 0.44726l3.4473 3.4453c0.11883 0.11811 0.27973 0.18416 0.44727 0.18359h17.23c0.16754 5.7e-4 0.32844-0.0655 0.44727-0.18359l3.4453-3.4453c0.11812-0.11882 0.18416-0.27972 0.1836-0.44726v-20.678c5.6e-4 -0.16754-0.0655-0.32844-0.1836-0.44726l-3.4453-3.4453c-0.11883-0.11812-0.27973-0.18417-0.44727-0.1836zm23.746 0c-0.34829 3e-4 -0.63056 0.28257-0.63086 0.63086v27.568c3e-4 0.34829 0.28257 0.63056 0.63086 0.63086h6.8906c0.34829-3.1e-4 0.63055-0.28257 0.63085-0.63086v-14.557l7.4199 14.84c0.10729 0.21328 0.3257 0.34781 0.56445 0.34766h8.6152c0.34829-3e-4 0.63056-0.28257 0.63086-0.63086v-27.568c-3e-4 -0.34829-0.28257-0.63056-0.63086-0.63086h-6.8906c-0.34829 3e-4 -0.63056 0.28257-0.63086 0.63086v14.557l-7.4199-14.84c-0.10729-0.21328-0.32571-0.34781-0.56446-0.34766zm30.637 0c-0.16754-5.7e-4 -0.32844 0.0655-0.44727 0.1836l-3.4453 3.4453c-0.11811 0.11882-0.18416 0.27972-0.18359 0.44726v10.34c-5.7e-4 0.16754 0.0655 0.32844 0.18359 0.44726l3.4453 3.4453c0.11883 0.11811 0.27973 0.18416 0.44727 0.18359h13.154v2.1836h-16.6c-0.34829 3e-4 -0.63056 0.28257-0.63086 0.63086v6.8926c3e-4 0.34829 0.28257 0.63056 0.63086 0.63086h17.23c0.16754 5.7e-4 0.32844-0.0655 0.44727-0.18359l6.8926-6.8926c0.11811-0.11883 0.18416-0.27973 0.18359-0.44727v-10.338c-3e-4 -0.34829-0.28257-0.63056-0.63086-0.63086h-16.6v-2.1836h13.258c0.34829-3e-4 0.48398-0.3129 0.63086-0.63086l3.3412-6.8926c0.0892-0.20916 0.0292-0.35252-0.0493-0.45765-0.11502-0.15409-0.37455-0.17303-0.58158-0.17321zm-219.97 8.1543h9.0762v12.521h-9.0762zm169.67 0h9.0762v12.521h-9.0762z" stroke-width=".68922px"/>
</g>
<path d="m16.77 271.56-0.99631 0.99631v5.9796l0.99631 0.9963h5.9795v-1.9932h-4.9832v-3.9858h3.9864l0.99687-1.9932zm7.8632 0-0.99631 0.99631v5.9796l0.99631 0.9963h4.9827l0.99687-0.9963v-5.9796l-0.99687-0.99631zm6.8668 0v7.9722h5.9795l0.99631-1.9932h-4.9827v-5.979zm7.8632 0v7.9722h5.9795l0.99631-1.9932h-4.9827v-5.979zm7.8637 0v7.9722h5.979v-1.9932h-3.9858v-0.9963h3.9858v-1.9932h-3.9858v-0.99632h3.9858v-1.9932zm7.8632 0-0.99631 0.99631v5.9796l0.99631 0.9963h5.979v-1.9932h-4.9827v-3.9858h3.9864l0.99631-1.9932zm6.8669 0v1.9932h2.4913v5.979h1.9932v-5.979h2.4913v-1.9932zm7.8632 0v7.9722h1.9932v-7.9722zm3.8774 0-0.99688 0.99631v5.9796l0.99688 0.9963h4.9827l0.99631-0.9963v-5.9796l-0.99631-0.99631zm6.8668 0v7.9722h1.9926v-4.9827l2.4913 4.9827h2.4913v-7.9722h-1.9926v4.9827l-2.4913-4.9827zm8.8595 0-0.9963 0.99631v2.9901l0.9963 0.99631h3.9864v0.9963h-4.9827v1.9932h4.9827l1.9932-1.9932v-2.9895h-4.9827v-0.99632h3.9869l0.99573-1.9932zm-63.794 1.9932h2.9895v3.9858h-2.9895zm49.064 0h2.9895v3.9858h-2.9895z" fill="url(#a)"/>
<path transform="matrix(.26458 0 0 .26458 15.591 266.75)" d="m4.4551 18.201-3.7656 3.7656v22.6l3.7656 3.7656h0.17969l-3.498-3.498v-22.6l3.7656-3.7656h22.018l0.13477-0.26758zm29.719 0-3.7656 3.7656v22.6l3.7656 3.7656h0.17969l-3.498-3.498v-22.6l3.7656-3.7656h18.652l-0.26758-0.26758zm25.953 0v30.131h0.44727v-29.863h7.0859v-0.26758zm29.719 0v30.131h0.44727v-29.863h7.0859v-0.26758zm29.723 0v30.131h0.44531v-29.863h22.152v-0.26758zm29.719 0-3.7656 3.7656v22.6l3.7656 3.7656h0.17773l-3.498-3.498v-22.6l3.7656-3.7656h22.02l0.13282-0.26758zm25.953 0v7.5332h0.44727v-7.2656h25.918v-0.26758zm29.719 0v30.131h0.44727v-29.863h7.0859v-0.26758zm14.654 0-3.7676 3.7656v22.6l3.7676 3.7656h0.17969l-3.5-3.498v-22.6l3.7676-3.7656h18.652l-0.26758-0.26758zm25.953 0v30.131h0.44726v-29.863h9.1035l-0.13477-0.26758zm18.832 0v18.205l0.44726 0.89453v-18.832h7.084v-0.26758zm14.654 0-3.7656 3.7656v11.301l3.7656 3.7656h0.17774l-3.498-3.498v-11.301l3.7656-3.7656h22.018l0.13672-0.26758zm-229.81 7.8008v14.797h-10.852v0.26758h11.299v-15.064zm135.42 0v22.33h0.44727v-22.33zm50.021 0v14.797h-10.852v0.26758h11.299v-15.064zm-107.13 3.498v0.26758h14.619v-0.26758zm155.72 0v0.26758h18.387v-0.26758zm-29.721 0.26758v0.62695l8.9688 17.938h0.31445zm40.574 7.5332v3.498h-18.832v7.5332h0.44531v-7.2656h18.832v-3.7656zm-285.45 3.498v0.26758h18.387v-0.26758zm59.439 0v0.26758h18.252l0.13281-0.26758zm29.719 0v0.26758h18.254l0.13281-0.26758zm29.721 0v0.26758h14.619v-0.26758zm25.951 0v0.26758h18.387v-0.26758z" fill="url(#b)"/>
</g>
</g>
</svg>
