<?xml version="1.0" encoding="UTF-8"?>
<svg version="1.1" viewBox="0 0 1273.6 259.91" xmlns="http://www.w3.org/2000/svg">
<g fill="#f60">
<path d="m41.387 0-25.24 156.04h75.213l22.934-156.04zm720.24 0-11.307 70.973c-20.187-1.3466-37.72 4.4402-52.48 16.934h-1.6387l2.1992-15.359h-64.16l-12.453 83.494h65.641c9.1467-18.253 39.733-25.893 53.586-26.613l-4.2402 26.613h75.201l15.492-86.881h4.6406c15.253 0 26.707 24.654 19.227 65.268-1.3867 7.5466-3.5466 14.827-6.2266 21.613h73.867c2.5067-8.36 4.5202-17.107 5.8535-26.254 14.107-95.987-32.308-129.79-95.201-129.79zm188.87 7.6797-7.2793 47.947h66.039l7.2793-47.947zm-551.59 61.428c-25.707 0-67.48 7.3726-73.227 52.506-2.1467 16.84 1.4268 26.641 8.7734 34.428h96.654c-7.0666-7.04-15.694-13.455-26.254-18.908-8.68-4.4933-15.666-5.0921-14.426-13.719 1.3067-9.0933 10.853-8.1465 15.213-8.1465 11.467 0 25.88 3.0386 36.227 10.865l5.9863-43.945c-14.44-10.853-30.934-13.08-48.947-13.08zm149.05 0c-53.84 0-83.2 34.414-93.32 86.934h160.68c9.44-62.92-17.346-86.934-67.359-86.934zm530.83 0c-25.707 0-67.48 7.3726-73.227 52.506-2.1467 16.84 1.4406 26.641 8.7872 34.428h96.639c-7.0666-7.04-15.678-13.455-26.238-18.908-8.6799-4.4933-15.681-5.0921-14.441-13.719 1.3067-9.0933 10.855-8.1465 15.215-8.1465 11.467 0 25.893 3.0386 36.226 10.865l5.9864-43.945c-14.44-10.853-30.934-13.08-48.947-13.08zm140.53 0c-35.054 0-73.159 18.894-86.133 86.934h67.373c0.333-1.0133 0.4536-2.134 0.8536-3.1074 14.107-34.933 36.068-30.573 46.961-27.293l7.7188-50.494c-12.667-4.8667-22.04-6.0391-36.774-6.0391zm-988.09 2.4922c-54.787 0-75.907 42.201-83.414 84.441h66.975c3.2933-16.093 11.52-26.508 22.787-26.508 11.08 0 13.239 13.775 12.879 26.508h64.307l13.6-80.375h-54.639l-6.7598 12.707h-1.6406c-8.16-15.28-23.84-16.773-34.094-16.773zm709.55 0.94727-12.746 83.494h66.039l12.748-83.494zm-393.32 33.826c10.107 0 12.32 9.0133 10.773 21.227h-29.266c1.6-12.56 7.8522-21.227 18.492-21.227zm-534.53 69.627-12.92 79.84h131.93l9.5195-64.652h-55.254l2.2266-15.188zm132.33 0c-3.1467 41.173 7.7197 83.906 55.986 83.906 16.093 0 29.266-4.0668 38.986-13.467h1.6406l-2.3867 9.4004h58.387l13.52-79.84h-63.721c-3.4 13.04-10.84 27.561-22.906 25.348-9.9067-1.8134-11.774-14.708-11.867-25.348zm217.15 0c1.3867 0.893 2.6941 1.706 4.1074 2.666 10.453 7.0133 16.093 12 15.279 19.307-0.76 6.7867-10.12 8.8945-14.76 8.8945-12.013 0-33.028-3.1067-45.828-10.693l-8.1719 47.467c10.613 10.96 32.067 16.266 55 16.266 35.907 0 73.506-15.107 78.586-66.16 0.6267-6.3467-0.12026-12.239-1.9336-17.746zm89.467 0c-4.88 56.8 20.386 83.906 76.199 83.906 46.147 0 67.987-24.999 82.801-68.439h-57.533c-3.8933 8.8666-13.307 19.92-23.32 19.92-16.613 0-16.893-19.44-15.199-35.387zm166.93 0-11.906 79.84h65.412l10.975-79.84zm114.79 0-12.721 79.84h74.652c51.053 0 93.894-30.653 115.79-79.84h-78.053c-6.4133 7.7067-13.867 13.133-22.547 13.133h-4.6406l2.3476-13.133zm191.4 0-12.186 79.84h66.027l12.186-79.84zm117.29 0c1.3866 0.893 2.6925 1.706 4.1192 2.666 10.44 7.0133 16.094 12 15.268 19.307-0.76 6.7867-10.12 8.8945-14.76 8.8945-12.013 0-33.028-3.1067-45.828-10.693l-8.1738 47.467c10.627 10.96 32.069 16.266 55.002 16.266 35.907 0 73.506-15.107 78.586-66.16 0.627-6.3467-0.1203-12.239-1.9336-17.746zm88.639 0c-3.0267 54.187 28.015 83.906 70.135 83.906 12.28 0 19.492-1.8802 28.412-8.1602l8.3477-56.199s-17.12 3.2935-27.307-1.1465c-7.7866-3.3867-11.453-10.387-12.453-18.4z"/>
<path d="m1201.7 0.64062v6.5996h10.746v29.053h7.8809v-29.053h10.746v-6.5996zm33.229 0v35.652h7.375v-25.014h0.1054l8.7735 25.014h6.08l8.7872-25.266h0.09v25.266h7.3867v-35.652h-11.094l-7.9336 24.52h-0.1055l-8.373-24.52z"/>
</g>
</svg>
