<?xml version="1.0" encoding="UTF-8"?>
<svg version="1.1" viewBox="0 0 1680 869.2" xmlns="http://www.w3.org/2000/svg" xmlns:cc="http://creativecommons.org/ns#" xmlns:dc="http://purl.org/dc/elements/1.1/" xmlns:rdf="http://www.w3.org/1999/02/22-rdf-syntax-ns#">
<metadata>
<rdf:RDF>
<cc:Work rdf:about="">
<dc:format>image/svg+xml</dc:format>
<dc:type rdf:resource="http://purl.org/dc/dcmitype/StillImage"/>
<dc:title/>
</cc:Work>
</rdf:RDF>
</metadata>
<g transform="translate(-7.1328 -565.73)">
<path d="m1476.3 1327.8-0.2917-292.5-46.766 163.41-46.706-162.66-0.2827 222.03-152.49-114.37 11.559-8.6664-0.5292-569.31 144.95 0.3774 43.449 152.2 43.513-152.4 214.43 0.69673-70.364 52.577-0.1246 814.43zm-1398-708.75-71.196-53.33 401.3 0.54398 45.931 35.087 0.0378 533.5 12.168 8.8133-388.15 291.25zm235.52 416.22-0.15295-307.89-10.758-8.7845-83.448 0.40375-0.18291 387.17zm152.4 82.781-0.0717-516.75 47.073-35.276 281.7-0.0156 46.98 35.422 0.17344 597.96-133.22 100.2zm223.13-399.76-71.048 0.49268-11.099 8.5271 0.15885 308.1 93.32 69.994 0.24947-377.93zm164.81 481.66-0.34116-598.8 46.919-35.239 282.07 0.26967 47.218 35.279-0.3246 515.56-241.34 182.45zm234.65-164.74-0.03-308.03-11.873-9.073-70.936 0.23276-11.405 8.7823 0.70414 377.33z"/>
</g>
<path d="m73.661 457.07v-404.77l-33.147-24.68c-18.231-13.574-33.147-25.093-33.147-25.597 0-0.50393 89.084-0.10582 197.96 0.88468l197.96 1.8009 42.355 32.549v266.07c0 202.03 1.0637 267.13 4.4197 270.49 2.7624 2.7624 3.1076 5.619 0.92076 7.6181-7.7779 7.11-373.71 280.4-375.45 280.4-1.0338 0-1.8796-182.14-1.8796-404.77zm188.37 48.955 47.35-35.385v-156c0-150.47-0.25284-156.14-7.124-159.82-3.9182-2.097-26.293-3.8126-49.721-3.8126h-42.597v195.2c0 107.36 1.0669 195.2 2.371 195.2 1.304 0 23.679-15.923 49.721-35.385z" fill="#bc8a2b" fill-rule="evenodd" stroke-width="3.683"/>
<path d="m580.84 640.51-118.62-88.934 0.10735-258.29 0.10736-258.29 43.137-31.306h283.06l45.58 33.871v594.17l-62.866 47.133c-34.576 25.923-64.894 47.911-67.372 48.862-2.4787 0.95115-57.887-38.291-123.13-87.205zm109.31-484.48c-5.0875-6.13-73.511-7.1084-84.535-1.2088-6.8715 3.6775-7.124 9.3532-7.124 160.14v156.33l93.918 70.635 0.95418-190.44c0.68926-137.57-0.20285-191.83-3.2133-195.46z" fill="#bc8a2b" fill-rule="evenodd" stroke-width="3.683"/>
<path d="m914.24 681.06-65.302-48.231v-595.57l43.637-33.578h284.71l43.637 33.578-0.1499 256.68-0.15 256.68-116.98 88.149c-64.337 48.482-118.58 88.684-120.54 89.338-1.9617 0.65389-32.952-20.515-68.868-47.042zm123.69-176.12 46.724-34.63v-154.64c0-142.96-0.4869-155.01-6.4453-159.53-7.8741-5.9773-75.234-7.0082-85.873-1.3143-6.9032 3.6945-7.124 9.7539-7.124 195.51 0 105.43 1.3488 191.14 2.9974 190.47 1.6486-0.67521 24.023-16.811 49.721-35.858z" fill="#bc8a2b" fill-rule="evenodd" stroke-width="3.683"/>
<path d="m1538.6 811.52-67.206-50.973-0.01-147.14c-0.01-80.926-1.4079-145.56-3.1171-143.64s-11.915 34.989-22.68 73.477c-10.765 38.488-20.629 72.066-21.92 74.619-1.2912 2.5524-12.011-28.938-23.822-69.978-11.811-41.04-22.509-76.276-23.773-78.302-1.2639-2.0257-3.1267 45.738-4.1395 106.14l-1.8416 109.82-69.978-52.366c-38.488-28.801-70.696-52.975-71.574-53.72-0.8778-0.74445 0.3653-3.3148 2.7623-5.7119 3.2806-3.2806 4.3583-74.888 4.3583-289.6v-285.24l28.179 2.382c15.498 1.3101 47.403 2.3845 70.899 2.3877l42.72 0.00569 16.356 58.002c26.796 95.025 26.654 94.602 29.71 88.971 1.5478-2.8528 11.464-35.848 22.036-73.323 10.572-37.475 20.401-69.407 21.843-70.959 1.4419-1.5525 47.776-2.3812 102.96-1.8415l100.34 0.98119-63.028 46.675-0.9369 405.15-0.9368 405.15z" fill="#bc8a2b" fill-rule="evenodd" stroke-width="3.683"/>
</svg>
