<?xml version="1.0" encoding="UTF-8" standalone="no"?>
<svg
   version="1.1"
   id="svg2"
   viewBox="0 0 1680 869.19995"
   height="869.19995"
   width="1680"
   sodipodi:docname="doom.svg"
   inkscape:version="1.2.1 (9c6d41e410, 2022-07-14)"
   xmlns:inkscape="http://www.inkscape.org/namespaces/inkscape"
   xmlns:sodipodi="http://sodipodi.sourceforge.net/DTD/sodipodi-0.dtd"
   xmlns="http://www.w3.org/2000/svg"
   xmlns:svg="http://www.w3.org/2000/svg"
   xmlns:rdf="http://www.w3.org/1999/02/22-rdf-syntax-ns#"
   xmlns:cc="http://creativecommons.org/ns#"
   xmlns:dc="http://purl.org/dc/elements/1.1/">
  <sodipodi:namedview
     id="namedview7"
     pagecolor="#ffffff"
     bordercolor="#666666"
     borderopacity="1.0"
     inkscape:showpageshadow="2"
     inkscape:pageopacity="0.0"
     inkscape:pagecheckerboard="0"
     inkscape:deskcolor="#d1d1d1"
     showgrid="false"
     inkscape:zoom="0.27151405"
     inkscape:cx="683.20589"
     inkscape:cy="434.59998"
     inkscape:window-width="1269"
     inkscape:window-height="481"
     inkscape:window-x="100"
     inkscape:window-y="197"
     inkscape:window-maximized="0"
     inkscape:current-layer="svg2" />
  <defs
     id="defs4" />
  <metadata
     id="metadata7">
    <rdf:RDF>
      <cc:Work
         rdf:about="">
        <dc:format>image/svg+xml</dc:format>
        <dc:type
           rdf:resource="http://purl.org/dc/dcmitype/StillImage" />
        <dc:title />
      </cc:Work>
    </rdf:RDF>
  </metadata>
  <g
     transform="translate(-7.1328025,-565.73124)"
     id="layer1">
    <path
       id="path3347"
       d="m 1476.3012,1327.8121 -0.2917,-292.4969 -46.7662,163.4072 -46.7058,-162.6616 -0.2827,222.0343 -152.4945,-114.3724 11.559,-8.6664 -0.5292,-569.30683 144.9467,0.3774 43.4492,152.19623 43.5126,-152.40042 214.4342,0.69673 -70.3645,52.57665 -0.1246,814.42954 z M 78.328958,619.06163 7.1328025,565.73124 l 401.3006875,0.54398 45.93055,35.08717 0.0378,533.50351 12.16772,8.8133 -388.148567,291.252 z m 235.518822,416.21877 -0.15295,-307.89242 -10.75764,-8.78449 -83.44785,0.40375 -0.18291,387.17176 z m 152.39799,82.7814 -0.0717,-516.75483 47.07325,-35.27648 281.69722,-0.0156 46.98005,35.42167 0.17344,597.96244 -133.22444,100.1999 z m 223.12917,-399.76328 -71.04792,0.49268 -11.09868,8.52709 0.15885,308.10291 93.32018,69.9936 0.24947,-377.92826 z m 164.80854,481.66028 -0.34116,-598.79687 46.91876,-35.23879 282.06992,0.26967 47.2183,35.27898 -0.3246,515.55821 -241.33557,182.4526 z m 234.65122,-164.742 -0.03,-308.02638 -11.8726,-9.07298 -70.9365,0.23276 -11.40484,8.78228 0.70414,377.32652 z"
       style="fill:#000000;fill-opacity:1;stroke:none" />
  </g>
  <path
     style="fill:#bc8a2b;fill-rule:evenodd;stroke-width:3.68305;fill-opacity:1"
     d="M 73.661013,457.06861 V 52.303374 L 40.513557,27.62288 C 22.282456,14.048609 7.3661013,2.5300827 7.3661013,2.0261552 c 0,-0.5039279 89.0837877,-0.1058229 197.9639687,0.8846768 l 197.96398,1.8009094 21.17754,16.2746466 21.17754,16.274645 V 303.33033 c 0,202.03206 1.0637,267.133 4.41966,270.48896 2.76236,2.76236 3.10765,5.61901 0.92076,7.6181 -7.77794,7.11001 -373.70661,280.39646 -375.448944,280.39646 -1.033777,0 -1.879593,-182.14435 -1.879593,-404.76524 z m 188.365007,48.95522 47.35023,-35.38461 V 314.63478 c 0,-150.46757 -0.25284,-156.13975 -7.12397,-159.81707 -3.91818,-2.09695 -26.29272,-3.81263 -49.72118,-3.81263 h -42.59721 v 195.20168 c 0,107.36093 1.06692,195.20168 2.37095,195.20168 1.30402,0 23.67855,-15.92308 49.72118,-35.38461 z"
     id="path2195" />
  <path
     style="fill:#bc8a2b;fill-opacity:1;fill-rule:evenodd;stroke-width:3.68305"
     d="m 580.84463,640.51123 -118.62177,-88.9344 0.10735,-258.29392 0.10736,-258.293929 21.56825,-15.652965 21.56826,-15.6529654 h 141.52868 141.52868 l 22.78977,16.9353454 22.78976,16.935347 V 334.63722 631.72071 l -62.86552,47.13307 c -34.57604,25.92319 -64.89357,47.9113 -67.37229,48.86248 -2.47871,0.95115 -57.88655,-38.29109 -123.12853,-87.20503 z m 109.30981,-484.4847 c -5.08746,-6.13002 -73.51118,-7.10845 -84.53474,-1.20882 -6.87149,3.67751 -7.12397,9.3532 -7.12397,160.14418 v 156.33155 l 46.95889,35.31732 46.9589,35.31733 0.95418,-190.44006 c 0.68926,-137.56737 -0.20285,-191.83418 -3.21326,-195.4615 z"
     id="path4428" />
  <path
     style="fill:#bc8a2b;fill-opacity:1;fill-rule:evenodd;stroke-width:3.68305"
     d="M 914.24488,681.0614 848.94317,632.83053 V 335.04578 37.261033 L 870.76173,20.472042 892.58028,3.6830506 h 142.35692 142.357 l 21.8185,16.7889914 21.8186,16.788991 -0.1499,256.677517 -0.15,256.67752 -116.9757,88.14921 c -64.3366,48.4821 -118.58072,88.68425 -120.5424,89.33814 -1.96169,0.65389 -32.95248,-20.51499 -68.86842,-47.04202 z m 123.68972,-176.12484 46.7238,-34.63033 V 315.66549 c 0,-142.95763 -0.4869,-155.01037 -6.4453,-159.53344 -7.8741,-5.97726 -75.2339,-7.00825 -85.87308,-1.31434 -6.90318,3.69447 -7.12397,9.75386 -7.12397,195.5086 0,105.43279 1.34881,191.14353 2.99736,190.46828 1.64855,-0.67521 24.02309,-16.81132 49.72119,-35.85803 z"
     id="path4430" />
  <path
     style="fill:#bc8a2b;fill-opacity:1;fill-rule:evenodd;stroke-width:3.68305"
     d="m 1538.6039,811.52275 -67.2061,-50.97279 -0.01,-147.13788 c -0.01,-80.92583 -1.4079,-145.56336 -3.1171,-143.63897 -1.7092,1.92439 -11.9151,34.98898 -22.68,73.47686 -10.7648,38.48788 -20.6288,72.06633 -21.9201,74.61879 -1.2912,2.55243 -12.0113,-28.93766 -23.8224,-69.97796 -11.8111,-41.04035 -22.5088,-76.27617 -23.7727,-78.30184 -1.2639,-2.02568 -3.1267,45.73803 -4.1395,106.14161 l -1.8416,109.82467 -69.9779,-52.36598 c -38.4879,-28.80128 -70.6962,-52.97505 -71.574,-53.71951 -0.8778,-0.74445 0.3653,-3.31478 2.7623,-5.71186 3.2806,-3.28064 4.3583,-74.88765 4.3583,-289.59851 V -1.0808723 l 28.1786,2.3819615 c 15.4982,1.3100788 47.4026,2.384523 70.8987,2.3876536 l 42.7201,0.00569 16.3557,58.0023542 c 26.7956,95.025353 26.6543,94.602103 29.7095,88.970703 1.5478,-2.85285 11.4638,-35.84839 22.0356,-73.323429 10.5718,-37.47504 20.4012,-69.4066566 21.843,-70.9591483 1.4419,-1.5524917 47.7759,-2.3811781 102.9644,-1.8415253 l 100.3427,0.9811868 -31.514,23.3375148 -31.514,23.337513 -0.9369,405.147998 -0.9368,405.14795 z"
     id="path4432" />
</svg>
