<?xml version="1.0" encoding="UTF-8"?>
<svg version="1.1" viewBox="0 0 559.25 81.18" xml:space="preserve" xmlns="http://www.w3.org/2000/svg" xmlns:cc="http://creativecommons.org/ns#" xmlns:dc="http://purl.org/dc/elements/1.1/" xmlns:rdf="http://www.w3.org/1999/02/22-rdf-syntax-ns#">
<metadata>
	<rdf:RDF>
		<cc:Work rdf:about="">
			<dc:format>image/svg+xml</dc:format>
			<dc:type rdf:resource="http://purl.org/dc/dcmitype/StillImage"/>
			<dc:title/>
		</cc:Work>
	</rdf:RDF>
	
	
</metadata>
<path d="m559.25 75.466c0 3.1542-2.1499 5.7144-4.8012 5.7144h-549.65c-2.6512 0-4.8012-2.5602-4.8012-5.7144v-69.751c0-3.1555 2.1499-5.7151 4.8012-5.7151h549.65c2.6513 0 4.8012 2.5595 4.8012 5.7151v69.751z"/>
<linearGradient id="a" x1="895.86" x2="1304.7" y1="-429.68" y2="-429.68" gradientTransform="matrix(.67196 0 0 -.67196 -442.04 -248.75)" gradientUnits="userSpaceOnUse">
	<stop stop-color="#f50019" offset="0"/>
	<stop stop-color="#f66d19" offset=".2761"/>
	<stop stop-color="#fbfa35" offset=".4785"/>
	<stop stop-color="#74b719" offset=".681"/>
	<stop stop-color="#17710a" offset=".7914"/>
	<stop stop-color="#226887" offset=".8834"/>
	<stop stop-color="#3262d9" offset="1"/>
</linearGradient>
<path d="m159.94 18.077h22.146c14.6 0 19.753 10.796 19.753 21.839 0 13.435-7.1161 21.962-22.391 21.962h-19.507v-43.802h-6.8e-4zm13.496 32.575h5.2762c8.4042 0 9.6313-6.8097 9.6313-10.919 0-2.7604-0.85878-10.43-10.613-10.43h-4.2945v21.349zm33.003-32.575h25.705c7.6678 0 14.293 4.2334 14.293 12.515 0 4.5398-2.0858 9.3248-6.5637 10.981 3.681 1.4118 5.9496 5.4597 6.4408 10.919 0.18345 2.1469 0.24459 7.3614 1.4716 9.386h-13.496c-0.67533-2.2081-0.92059-4.4773-1.1047-6.7479-0.36825-4.1715-0.73716-8.5265-6.0739-8.5265h-7.1786v15.276h-13.496v-43.803zm13.496 19.14h7.055c2.5152 0 5.9509-0.43006 5.9509-4.355 0-2.7598-1.5334-4.355-6.6874-4.355h-6.3185v8.71zm46.561-19.14h13.189l15.95 43.801h-13.986l-1.8398-6.2573h-13.926l-1.9635 6.2573h-13.558l16.135-43.801zm10.612 28.157-3.9263-13.496h-0.12296l-4.2327 13.496h8.2819zm52.388 11.166c-3.0064 3.8638-7.6678 5.5202-12.452 5.5202-12.945 0-20.92-10.061-20.92-22.513 0-16.686 11.718-23.372 21.594-23.372 11.165 0 18.22 6.0732 20.182 16.379h-12.945c-0.48986-3.1898-3.1891-5.4597-6.379-5.4597-9.263 0-8.9566 9.7542-8.9566 12.76 0 4.1091 1.6564 11.288 9.8758 11.288 3.1287 0 6.3185-1.5952 6.9931-4.8462h-5.9496v-9.3867h17.913v24.109h-8.5272l-0.43005-4.478zm37.787-40.366c13.313 0 22.207 9.5694 22.207 22.944 0 13.374-8.8948 22.944-22.207 22.944-13.312 0-22.208-9.5694-22.208-22.944 0-13.373 8.8961-22.944 22.208-22.944zm0 34.967c3.4351 0 8.7114-2.2699 8.7114-12.025 0-9.7542-5.2763-12.024-8.7114-12.024-3.4351 0-8.7113 2.2699-8.7113 12.024 0 9.7549 5.2769 12.025 8.7113 12.025zm27.972-33.924h13.803l12.76 23.434h0.12298v-23.434h12.76v43.801h-13.128l-13.435-23.925h-0.12296v23.925h-12.76v-43.801z" fill="url(#a)"/>
<path d="m447.34 33.413c0.0624-5.0296 2.0858-8.7113 5.3367-11.165 3.2516-2.3929 7.6684-3.558 12.453-3.558 12.39 0 16.502 7.3614 16.502 10.981 0 8.9559-5.6438 8.9559-5.6438 9.1414v0.12297c0 0.49053 6.9938 0.49053 6.9938 9.9995 0 5.2144-3.9263 13.435-17.913 13.435-19.2 0-19.263-13.496-18.956-16.687h11.657c-0.0618 2.2699 0.48985 3.9888 1.6571 5.0915 1.1645 1.4111 2.9445 1.9017 5.0915 1.9017 3.4962 0 5.7043-1.2882 5.7043-4.7844 0-3.7422-2.8834-4.4168-5.7043-4.4168-1.7787 0-2.6388 0.18344-3.558 0.30642v-8.3438c0.91924 0.06183 1.901 0.24527 3.558 0.24527 2.5763 0 5.8279-0.55168 5.8279-3.8645 0-2.7006-3.0668-3.7422-5.5834-3.7422-3.3128 0-6.0114 1.7787-5.8898 5.3367l-11.533-6.72e-4zm38.217 3.7422c-0.67533-11.718 6.6249-18.465 18.098-18.465 10.367 0 17.422 4.355 17.422 13.435 0 10.919-10.674 14.354-18.711 19.263v0.06183h19.324v10.43h-36.992c-0.24528-4.1104 0.98173-7.6691 3.0662-10.552 3.558-4.9698 9.693-8.2201 15.153-11.533 2.2081-1.35 5.7661-3.0675 5.7661-6.1968 0-3.8651-2.2699-5.2144-5.1526-5.2144-4.908 0-6.5644 3.558-6.4414 8.7725h-11.533z" fill="#fff"/>
<path d="m373.44 67.356h3.8866c2.5615 0 3.4666 1.8936 3.4666 3.8322 0 2.3586-1.2492 3.8544-3.931 3.8544h-3.4237v-7.6866zm2.37 5.7171h0.9253c1.4743 0 1.6907-1.1948 1.6907-1.9178 0-0.4845-0.15118-1.8304-1.862-1.8304h-0.75326v3.7482h-7e-4zm8.1408-5.7171h2.3142l2.7994 7.6866h-2.4547l-0.32185-1.0993h-2.4446l-0.34471 1.0993h-2.3794l2.8317-7.6866zm1.862 4.9416-0.68875-2.3687h-0.0214l-0.74185 2.3687h1.4521zm4.8476-2.9714h-2.153v-1.9709h6.6753v1.9709h-2.1536v5.7171h-2.3673v-5.7171zm6.7317-1.9702h2.3142l2.7994 7.6866h-2.4547l-0.32186-1.0993h-2.444l-0.34538 1.0993h-2.3794l2.8317-7.6866zm1.862 4.9416-0.68875-2.3687h-0.0214l-0.74185 2.3687h1.4521zm13.41-4.9416h2.368v5.7171h3.4015v1.9709h-5.7708v-7.6879zm7.1927 1.9702h-2.1523v-1.9709h6.6753v1.9709h-2.1536v5.7171h-2.3673v-5.7171zm5.3965-1.9702h3.8866c2.5615 0 3.4666 1.8936 3.4666 3.8322 0 2.3586-1.2485 3.8544-3.9303 3.8544h-3.4243v-7.6866zm2.3687 5.7171h0.9253c1.475 0 1.6907-1.1948 1.6907-1.9178 0-0.4845-0.15054-1.8304-1.862-1.8304h-0.75329l-6.7e-4 3.7482zm6.0752-0.16127h2.239v2.1315h-2.239v-2.1315z" fill="#dedede"/>
<path d="m76.055 41.738h-6.6424l15.812-27.385c3.05-5.3112 8.7443-8.6099 14.864-8.6099h32.674l-3.3208 5.752h-29.353c-4.0714 0-7.8586 2.1987-9.8792 5.7271l-14.154 24.516zm17.793-22.421c1.2794-2.2356 3.6709-3.6246 6.2412-3.6246h26.929l1.4367-2.4876h-28.366c-3.4593 0-6.678 1.8687-8.3975 4.8724l-13.661 23.661h2.872l12.945-22.421zm2.5165 10.565h22.462l3.884-6.727 1.182-2.0481 2.1395-3.7045h-25.942c-1.9588 0-3.7818 1.059-4.7575 2.7638l-12.455 21.572h6.6424l6.8446-11.856zm-51.039 0c-0.0039 0.04704-0.0071 0.06853-5e-3 0.06853-0.05238 0.1774-0.29432 0.68742-1.141 2.108-1.7894 3.0037-3.6199 6.7573-3.6205 11.819 0 9.4498 7.6879 17.138 17.138 17.138h65.256l-6.7741 11.733h6.6424l5.3206-9.216c0.49927-0.84062 0.76267-1.8056 0.76267-2.79 0-3.0211-2.4574-5.4785-5.4785-5.4785h-65.729c-6.2788 0-11.386-5.1083-11.386-11.386 0-3.4525 1.1235-6.045 2.8108-8.874 1.569-2.6341 1.9642-3.5433 1.9635-5.3945 0-3.0205-2.4574-5.4778-5.4778-5.4778h-19.274l3.3202 5.752h15.672zm78.1 21.185h-65.729c-3.9632 0-7.1887-3.2254-7.1887-7.1893 6.69e-4 -2.1899 0.60208-4.013 2.2182-6.725 1.7377-2.9157 2.5561-4.6103 2.5561-7.5441 0-5.334-4.3402-9.6749-9.6756-9.6749h-26.506l-0.93671-1.6208-6.2862 2.8424 9.728 3.1186-1.0698-1.8533h25.071c3.9639 0 7.188 3.2254 7.188 7.188 6.82e-4 2.2316-0.4959 3.4022-2.2047 6.2694-1.8486 3.1011-2.5682 5.3441-2.5682 7.9991 0 5.3354 4.3409 9.6763 9.6756 9.6763h65.729c3.9639 0 7.1887 3.2254 7.1887 7.1887 0 1.2915-0.34675 2.5588-1.0093 3.6763l-4.8093 8.3297h2.8713l4.0842-7.0731c0.88295-1.4891 1.3506-3.1945 1.3506-4.9329 0-5.3347-4.3409-9.6749-9.677-9.6749zm-59.578 11.815h-6.6417l-5.6976 9.8671h6.6424l5.6969-9.8671zm-0.85003 9.8664 5.6969-9.8671h-2.8713l-5.6969 9.8671h2.8713zm14.313-9.8664h-6.6424l-5.6969 9.8671h6.6417l5.6976-9.8671zm46.114-19.278h-65.447c0.03488-0.41998 0.21638-1.0523 1.1571-2.6321 2.0448-3.4297 3.6084-6.4455 3.6084-11.364 0-9.4498-7.6873-17.138-17.138-17.138h-0.45021l-3.7899 3.7905-3.7899-3.7905h-17.977l3.3215 5.7527h22.685c6.2788 0 11.386 5.1083 11.386 11.386 6.72e-4 3.4747-1.0563 5.498-2.7974 8.419-1.4588 2.4486-1.9762 3.9794-1.9762 5.8501 0 3.0205 2.458 5.4785 5.4785 5.4785h65.729c6.2788 0 11.386 5.1076 11.386 11.386 0 2.0394-0.5463 4.0405-1.5805 5.789l-3.5896 6.217h6.6424l1.9151-3.3182c1.5468-2.6281 2.3646-5.6311 2.3646-8.6885 6.6e-4 -9.4485-7.6873-17.137-17.138-17.137zm-76.377-31.864-5.6821-5.6815-5.6815 5.6815h2.6381l3.0433-3.0433 3.044 3.0433h2.6381z" fill="#f50019"/>
</svg>
