<?xml version="1.0" encoding="UTF-8"?>
<svg baseProfile="tiny" version="1.2" viewBox="0 0 566.93 94.787" xml:space="preserve" xmlns="http://www.w3.org/2000/svg">
<g fill="#666">
	<polygon points="556.36 78.931 554.07 78.931 554.07 78.142 559.52 78.142 559.52 78.931 557.25 78.931 557.25 85.077 556.36 85.077"/>
	<polygon points="563.21 85.077 561.32 79.442 561.32 85.077 560.4 85.077 560.4 78.142 561.67 78.142 563.67 84.038 565.67 78.142 566.93 78.142 566.93 85.077 566.02 85.077 566.02 79.442 564.12 85.077"/>
	<path d="m122.81 19.344c0-2.409-0.458-5.529-1.522-6.841 6.973 0 22.039 0.046 28.497 0.046 14.859 0 37.277 8.247 37.277 36.052 0 20.635-15.826 36.008-37.277 36.008-4.705 0-22.67-0.058-29.044-0.058 1.306-2.411 2.069-5.685 2.069-8.269v-56.938zm10.687 58.199c6.858 0.892 13.189 1.165 18.917 0.347 5.542-0.793 24.165-4.805 24.049-29.529-0.109-23.431-14.581-28.788-25.731-29.443-5.819-0.343-11.436-0.123-17.236 0.881l1e-3 57.744z"/>
	<path d="m193.19 34.642 10.676-1.667v9.4c2.738-6.767 11.259-12.205 23.366-7.493l-2.838 7.433c-11.082-5.26-20.528-0.646-20.528 11.661v25.394c0 1.209 0.264 3.648 0.985 5.213h-11.089c1.12-1.381 1.64-4.004 1.64-5.213v-36.63c-3e-3 -2.657-0.545-6.77-2.212-8.098z"/>
	<path d="m530.72 39.738v32.434c0 10.183 7.019 12.905 12.219 12.905 2.197 0.107 5.313-0.406 7.488-0.889l1.338-6.285c-2.535 0.97-5.481 1.197-7.25 1.197-3.26 0-5.617-2.164-5.617-5.549 0-3.037-0.077-32.809 0-33.761h-0.034c0.432 0 7.196-0.024 7.879 0 2.217 0.078 3.92 0.213 5.387 0.803l8e-3 -5.919s-12.985-0.017-13.239-0.017l0.053-15.181-9.838 2.719c1.356 1.269 1.797 4.982 1.797 7.431 0 0-8e-3 4.536-8e-3 5.083-0.441 0-5.438 0.025-6.265 0.025v5.001c0.873 0 6.082 3e-3 6.082 3e-3z"/>
	<path d="m488.19 74.036c4.229 3.021 10.866 5.703 15.733 5.703 6.752 0 11.588-3.285 11.588-9.469 0-11.414-26.022-9.522-26.022-24.004 0-9.792 8.756-13.476 17.1-13.476 2.683 0 8.806 0.582 12.697 2.088l-0.031 6.688c-3.459-2.955-8.735-3.669-12.213-3.669-5.521 0-9.668 2.74-9.668 8.112 0 7.887 26.002 7.43 26.002 23.621 0 10.471-9.07 15.354-19.055 15.354-4.865 0-9.939-0.862-14.16-2.071l-1.971-8.877z"/>
	<path d="m331.11 39.839c0-0.592 0.021-5.895 0.021-6.574l-10.809 1.671c1.303 1.365 2.303 5.623 2.303 8.667v35.414c0 1.209-0.519 4.143-1.641 5.521h11.784c-1.118-1.381-1.637-4.313-1.637-5.521v-26.645c0-9.75 6.031-13.164 12.035-13.164 5.434 0 10.344 2.352 10.344 13.164v26.646c0 1.209-0.52 4.142-1.637 5.521h11.428c-1.123-1.381-1.637-4.313-1.637-5.521v-26.646c0-10.811 6.678-13.164 12.123-13.164 5.43 0 11.111 3.411 11.111 13.164v26.646c0 1.209-0.515 4.142-1.642 5.521h11.008c-1.127-1.381-1.639-4.313-1.639-5.521v-31.706c0-5.404-5.516-14.063-18.391-14.063-7.492 0-11.818 3.333-15.103 6.2-2.793-3.26-7.34-6.317-14.647-6.317-7.116-3e-3 -11.319 4.17-13.374 6.707z"/>
	<path d="m305.62 56.453c-1.543 1.453-4.773 2.579-8.107 3.019-8.762 1.147-16.352 2.604-16.352 11.137 0 5.063 5.52 9.048 9.891 9.048 11.578 0 14.57-8.353 14.57-14.935v-8.269h-2e-3zm-27.352-20.883c4.419-1.771 11.549-2.583 16.021-2.583 11.42 0 19.008 5.705 19.008 18.95v21.972c0 4.069 0.062 7.924 1.512 10.631h-9.178l-0.332-5.78c-3.473 4.487-7.627 6.495-14.676 6.495-13.91 0-16.946-9.503-16.946-14.069 0-16.297 15.512-16.485 22.249-17.447 3.728-0.526 8.521-1.58 9.244-5.074 1.188-5.78-2.942-10.114-11.385-10.114-6.197 0-11.273 1.885-15.514 4.422l-3e-3 -7.403zm197.3 20.883c-1.541 1.453-4.773 2.579-8.109 3.019-8.76 1.147-16.348 2.604-16.348 11.137 0 5.063 5.516 9.048 9.887 9.048 11.576 0 14.57-8.353 14.57-14.935v-8.269zm-27.349-20.883c4.418-1.771 11.556-2.583 16.023-2.583 11.414 0 19.002 5.705 19.002 18.95v21.972c0 4.069-0.887 7.841 1.508 10.631h-9.176l-0.334-5.78c-3.478 4.487-7.625 6.495-14.674 6.495-13.902 0-16.943-9.503-16.943-14.069 0-16.297 15.512-16.485 22.246-17.447 3.729-0.526 8.527-1.58 9.242-5.074 1.19-5.78-2.941-10.114-11.385-10.114-6.195 0-11.271 1.885-15.513 4.422v-7.4l4e-3 -3e-3z"/>
	<path d="m438.45 42.308c-3.443-2.012-8.879-3.605-12.67-3.605-13.312 0-19.412 8.185-19.412 19.976 0 11.68 5.965 20.625 18.983 20.625 4.462 0 10.535-2.006 15.25-4.902l-1.918 8.593c-4.799 1.428-8.842 2.108-14.194 2.108-18.295 0-26.871-12.977-26.871-26.479 0-14.921 11.504-25.417 27.072-25.417 6.805 0 11.771 1.668 13.776 2.238l-0.016 6.863z"/>
	<path d="m233.65 59.304c8e-3 -1.234 0.172-2.41 0.31-3.55h35.401c0-12.169-6.087-22.608-20.505-22.608-14.965 0-23.85 11.703-23.85 26.63 0 13.498 9.891 25.56 26.832 25.56 5.356 0 9.834-1.319 14.669-3.012l1.701-8.63c-4.135 3.404-10.817 5.418-16.849 5.418-10.841 0-17.756-7.849-17.709-19.808zm1.431-8.948c1.149-5.92 6.628-11.952 13.184-11.952 10.018 0 12.917 7.817 12.917 11.952-2e-3 0-26.101 0.019-26.101 0z"/>
</g>
<path d="m65.058 1.288c3.969 0.596 8.026 1.984 10.141 2.63 4.261 1.302 11.177 5.351 13.621 7.291 1.157 0.918 3.585 3.323 4.528 4.533 0.917 1.179 2.667 3.733 3.783 5.308 1.781 2.597 3.874 6.466 5.648 10.025 1.984 3.978 2.12 5.13 2.721 8.455l1.311 5.862c0.123 1.014 0.227 4.731-1.957 5.251-2.181 0.521-4.199-0.483-5.15-1.955-1.316-2.036-1.133-4.926-2.623-8.234-1.161-2.674-1.666-6.561-3.521-9.355l-1.453-2.458c-2.573-3.96-5.253-7.103-6.851-9.153-1.411-1.723-4.04-4.064-6.531-5.729-2.306-1.398-6.032-2.993-8.719-3.813-0.856-0.279-4.524-1.357-6.8-1.66-3.093-0.347-5.126-0.836-8.063-1.043-3.63-0.256-5.367-0.578-10.074-0.028-1.783 0.484-4.605 0.676-7.147 1.647-2.053 0.837-4.906 2.189-7.703 3.832-3.012 1.651-7.578 5.026-10.609 7.907-3.054 3.263-4.582 5.014-6.687 9.15-0.931 2.046-2.736 5.213-3.464 7.447-0.497 2.269-1.443 6.5-1.286 8.556 0.073 3.681-0.25 4.44 0.027 7.45 0.01 2.71 0.899 4.588 1.27 6.806 0.315 1.53 1.787 6.828 2.694 8.062 4.129 8.9 9.675 12.755 15.856 15.537 1.742 0.888 7.191 2.346 8.767 2.763 2.69 0.485 6.227 0.81 9.633 0.875 3.583 0.069 8.522-0.414 11.517-1.519 3.244-1.193 6.997-2.891 6.953-2.84 1.504-0.832 3.802-2.187 4.516-2.781 1.383-0.885 2.217-1.228 3.034-2.08 1.184-1.033 1.898-1.629 2.794-2.91 0.497-0.721 1.292-1.827 2.059-2.805 0.83-1.36 1.307-2.793 2.116-4.564 0.968-2.623 0.818-2.496 1.003-5.277 0.175-0.807-0.02-3.519-0.164-3.979-0.437-2.502-0.283-4.709-0.856-7.139-0.771-3.287-1.417-5.747-2.402-8.899-0.929-3.549-3.656-6.838-5.702-9.188-1.268-1.457-5.201-4.895-10.658-7.043-1.538-0.517-4.05-1.103-5.647-1.395-3.41-0.356-3.965-0.127-7.229 0.111-1.124 0.196-3.731 0.729-4.692 1.066-2.804 0.985-3.835 1.611-6.702 3.366-1.334 0.775-2.34 1.368-3.705 2.646-1.089 1.008-1.868 2.72-2.748 3.725-1.209 1.644-2.554 3.836-3.456 6.201-0.978 2.353-1.293 5.664-1.143 7.795 0 1.621 0.441 4.598 0.616 5.246 0.176 0.65 0.616 2.67 0.71 3.076 0.097 0.405 1.145 2.541 1.292 2.853 0.593 1.261 1.726 3.069 3.633 4.919 1.411 1.54 4.133 3.05 6.174 3.635 1.828 1.006 4.912 1.174 6.62 1.178 0.839-0.053 2.984-0.184 4.103-0.451 2.271-0.545 2.688-0.56 5.028-1.575 2.1-0.974 3.523-1.325 4.986-2.403 0 0 2.007-1.572 2.919-2.724 0.481-0.604 1.306-3.5 1.161-5.293-0.069-2.453 0.289-3.845-0.214-5.863-0.5-2.019-1.354-4.358-2.281-5.8-0.939-1.46-2.956-2.882-5.251-4.017-1.288-0.636-4.333-1.224-5.627-1.376-2.453-0.292-4.506 0.823-5.753 2.097-1.082 1.236-3.22 3.803-2.369 6.457 0.771 2.4 1.703 4.959 5.304 4.77 2.473 0.516 5.33-0.229 6.283 0.207 1.413 0.803 1.955 2.573 1.443 3.811-0.359 2.383-2.643 2.668-5.076 2.852-2.18 0.365-7.715-0.702-8.93-1.613-0.816-0.484-2.067-1.647-2.946-2.435-0.633-0.568-1.346-1.828-1.837-2.734-0.598-1.114-0.903-1.933-1.057-2.657-0.185-0.86-0.562-2.506-0.419-4.149 0.099-1.108 0.394-1.582 0.688-3.203 0.589-1.84 1.32-3.239 2.498-4.834 1.532-1.556 3.479-3.408 5.38-4.269 1.676-0.886 4.613-1.211 7.268-1.056 2.156 0.206 4.702 0.469 6.389 1.033 2.884 1.03 3.708 1.236 6.077 2.73 1.999 1.237 4.012 3.516 5.136 5.402 2.39 4.89 3.76 10.328 2.764 17.653-0.081 1.236-0.466 2.443-1.237 4.084-0.714 1.511-1.96 3.35-3.838 4.732-0.754 0.699-1.946 1.561-2.915 2.063-1.375 0.834-2.299 1.269-3.733 1.989-1.26 0.594-2.73 1.27-4.646 1.802-2.076 0.821-3.67 0.854-6.281 1.243-2.568 0.646-9.602 0.187-13.792-1.662-2.857-1.203-6.064-3.321-8.505-5.904-1.354-1.422-2.681-3.996-3.069-4.523-1.94-3.729-2.319-7.233-2.631-7.973-0.422-1-0.631-3.244-0.916-4.779-0.319-1.724-0.122-8.941 1.617-13.573 0.981-1.845 1.555-3.49 2.217-4.353 1.193-1.696 1.769-2.755 2.782-3.957 1.528-1.852 2.64-3.364 4.127-4.431 3.793-3.083 6.959-4.711 11.245-6.746 5.324-2.168 6.923-1.72 11.964-1.639 2.267 0.02 5.566 0.733 7.189 1.027 3.012 0.401 4.738 1.127 6.773 1.695 2.178 0.608 3.436 1.58 5.226 2.659 1.47 0.949 3.202 2.251 4.345 3.308 2.927 2.146 4.337 4.401 6.131 7.171 0.327 0.464 2.455 5.002 2.794 6.266 0.158 0.633 0.638 2.449 0.949 3.511 0.396 1.685 0.591 3.176 1.036 5.078 0.396 1.957 1.072 5.652 1.364 9.107 0.495 2.965-0.296 9.016-0.76 10.871-1.035 3.463-2.85 7.69-6.428 11.762-1.519 1.804-3.135 3.199-5.003 4.717-1.427 1.189-2.653 1.886-4.861 3.202-2.996 1.788-5.276 2.931-9.477 4.573-1.71 0.549-3.866 1.271-6.188 1.75-4.499 0.408-9.123 0.805-14.169 0.206-5.047-0.602-10.102-2.023-13.089-2.939-1.649-0.618-4.841-1.955-6.178-2.68-0.872-0.44-3.793-2.438-4.288-2.918-2-1.237-6.479-5.449-9.371-9.375-0.633-1.217-2.911-4.854-3.406-6.448-1.313-2.697-2.229-5.96-2.766-7.354-0.568-3.254-1.528-5.348-1.902-8.611 0.042-0.768-0.154-2.577-0.33-3.578 0.254-2.235-0.086-4.339 0.358-6.773 0.39-2.053 0.904-2.91 1.028-4.766 0.121-0.794 1.141-3.182 1.415-4.245 0.826-1.75 1.03-3.191 2.107-5.147 1.549-3.048 3.172-6.554 5.662-9.617 0.712-0.95 2.729-3.228 3.416-4.017 1.625-1.625 2.578-1.881 4.421-3.51 0.19-0.12 1.409-1.508 2.685-1.985 2.111-1.632 3.937-2.23 5.948-3.715 4.029-2.008 5.497-2.686 9.497-4.351 2.313-0.825 5.534-1.28 6.694-1.73 2.209-0.137 4.451-0.841 6.773-0.702 2.607-0.024 5.234 0.162 7.855 0.4 1.766 0.102 4.072 0.188 7.199 0.868z" fill="#CF3311"/>
</svg>
