<?xml version="1.0" encoding="UTF-8"?>
<!DOCTYPE svg  PUBLIC '-//W3C//DTD SVG 1.1//EN'  'http://www.w3.org/Graphics/SVG/1.1/DTD/svg11.dtd'>
<svg enable-background="new 0 0 566.929 458.929" version="1.1" viewBox="0 0 566.93 458.93" xml:space="preserve" xmlns="http://www.w3.org/2000/svg">

	
		<path d="m564.9 182.7c0.103-1.35 0-2.745 0-3.875 0.015-25.821 0.018-51.642-7e-3 -77.463-1e-3 -1.341-0.074-2.729-0.417-4.015-7.45-27.979-20.942-52.36-43.296-71.218-18.353-15.481-39.435-24.117-63.727-24.113-64.021 0.011-128.04 4e-3 -192.06 4e-3 -86.168 0-172.34-1e-3 -258.5 0.01-1.591 0-3.182-0.08-4.898 0v58.69c1.204 0.469 2.251 0.942 3.338 1.29 7.92 2.53 15.849 5.035 23.776 7.545 79.821 25.273 159.64 50.542 239.46 75.823 37.698 11.939 75.383 23.919 113.09 35.826 2.366 0.747 4.884 1.441 7.333 1.444 57.348 0.081 114.7 0.064 172.04 0.052 1.128 0 2.515 0.104 3.864 0zm-222.24-3.722c-51.406-16.294-102.4-32.456-154.03-48.82v226.68c-22.218 11.208-44.116 22.253-65.864 33.224v66.882h269.52v-129.98h-49.629v-147.99zm17.448 17.717v114.01h204.54v-114.01h-204.54z" clip-rule="evenodd" fill="#CF8A61" fill-rule="evenodd"/>
		<path d="m394.27 458.93h-273.49v-70.091l65.865-33.224v-228.18l158 50.079v147.45h49.629v133.96zm-269.52-3.973h265.55v-126.01h-49.628v-148.52l-150.06-47.562v225.2l-65.864 33.224v63.672zm441.88-142.27h-208.51v-117.98h208.51v117.98zm-204.54-3.972h200.57v-110.04h-200.57v110.04zm201.46-123.99c-0.484 0-0.96-0.013-1.417-0.025-0.383-0.01-0.75-0.021-1.092-0.021l-8.07 2e-3c-19.899 4e-3 -39.796 8e-3 -59.696 8e-3 -41.668 0-73.831-0.019-104.29-0.062-2.703-4e-3 -5.407-0.741-7.929-1.537-24.306-7.675-48.603-15.38-72.898-23.086-13.398-4.249-26.795-8.498-40.194-12.741-56.305-17.833-112.61-35.66-168.92-53.487l-74.236-23.504c-6.698-2.121-13.396-4.241-20.09-6.378-0.807-0.258-1.556-0.564-2.349-0.887-0.357-0.146-0.723-0.295-1.106-0.444l-1.265-0.493v-61.945l1.894-0.088c1.19-0.055 2.322-0.038 3.433-0.019 0.518 9e-3 1.031 0.017 1.544 0.017 72.686-9e-3 145.36-9e-3 218.03-9e-3l151.41 2e-3c27.049 0 54.099-1e-3 81.146-6e-3 23.806 0 45.671 8.27 65.007 24.581 21.438 18.085 35.81 41.71 43.935 72.226 0.428 1.604 0.483 3.261 0.484 4.524 0.023 25.822 0.021 51.644 7e-3 77.466 0 0.342 0.011 0.711 0.021 1.097 0.023 0.894 0.051 1.906-0.026 2.927l-0.129 1.699-1.699 0.131c-0.5 0.038-1.005 0.052-1.501 0.052zm-2.516-4.019c0.384 0 0.787 0.011 1.208 0.022 0.231 6e-3 0.469 0.013 0.71 0.018-5e-3 -0.243-0.012-0.484-0.018-0.724-0.012-0.423-0.022-0.828-0.022-1.205 0.015-25.821 0.018-51.641-7e-3 -77.461-1e-3 -1.023-0.041-2.346-0.35-3.506-7.909-29.702-21.862-52.668-42.658-70.211-18.6-15.69-39.604-23.646-62.429-23.646-27.064 4e-3 -54.114 6e-3 -81.163 6e-3l-151.41-2e-3c-72.672 0-145.34 0-218.01 0.01-0.549 0-1.084-9e-3 -1.624-0.018-0.425-7e-3 -0.853-0.013-1.288-0.016v55.396c0.682 0.278 1.329 0.54 1.958 0.741 6.688 2.136 13.384 4.256 20.079 6.375l74.236 23.504c56.307 17.827 112.61 35.654 168.92 53.487 13.399 4.244 26.797 8.493 40.194 12.742 24.295 7.705 48.59 15.41 72.895 23.084 2.219 0.701 4.57 1.35 6.738 1.353 30.456 0.043 62.617 0.062 104.28 0.062 19.9 0 39.797-4e-3 59.695-8e-3l8.065-3e-3z"/>
	
	
		<path d="m564.9 182.7-178.77-0.052-384.14-121.74v-58.88c1.717-0.08 177.23-0.01 263.4-0.01 64.021 0 128.04 7e-3 192.06-3e-3 24.292-4e-3 45.374 8.632 63.727 24.113 22.354 18.858 35.846 43.239 43.296 71.218 0.343 1.286 0.416 2.673 0.417 4.015 0.025 25.822 7e-3 81.338 7e-3 81.338z" clip-rule="evenodd" fill="#CF8A61" fill-rule="evenodd"/>
		<path d="m566.88 184.68-181.06-0.052-0.293-0.093-385.53-122.18v-62.23l1.894-0.088c0.403-0.018 7.359-0.04 57.984-0.04 30.269 0 68.808 7e-3 106.6 0.015 36.342 7e-3 71.988 0.014 98.914 0.014l110.92 2e-3c27.053 0 54.095-1e-3 81.146-6e-3 23.806 0 45.671 8.27 65.007 24.581 21.438 18.085 35.81 41.711 43.935 72.226 0.427 1.604 0.483 3.26 0.484 4.524 0.023 25.822 7e-3 81.34 7e-3 81.34l-1e-3 1.986zm-180.45-4.024 176.48 0.051c3e-3 -10.128 0.014-56.434-8e-3 -79.35-1e-3 -1.023-0.041-2.346-0.35-3.506-7.909-29.702-21.862-52.668-42.658-70.211-18.6-15.69-39.604-23.646-62.429-23.646-27.068 4e-3 -54.11 6e-3 -81.163 6e-3l-110.92-2e-3c-26.926 0-62.573-7e-3 -98.915-0.014-37.787-7e-3 -76.326-0.014-106.59-0.014-12.41 0-47.302 0-55.906 0.025v55.453l382.46 121.21z"/>
	
	
		<path d="m342.66 178.97v147.98h49.629v129.98h-269.52v-66.882c21.748-10.971 43.646-22.016 65.864-33.224v-226.68c51.631 16.366 102.62 32.527 154.03 48.822z" clip-rule="evenodd" fill="#CF8A61" fill-rule="evenodd"/>
		<path d="m394.27 458.93h-273.49v-70.091l65.865-33.224v-228.18l158 50.079v147.45h49.629v133.96zm-269.52-3.973h265.55v-126.01h-49.628v-148.52l-150.06-47.562v225.2l-65.864 33.224v63.672z"/>
	
	
		<path d="m360.1 196.69h204.54v114.01h-204.54v-114.01z" clip-rule="evenodd" fill="#CF8A61" fill-rule="evenodd"/>
		<path d="m566.63 312.69h-208.51v-117.98h208.51v117.98zm-204.54-3.972h200.57v-110.04h-200.57v110.04z"/>
	

</svg>
