<?xml version="1.0" encoding="UTF-8"?>
<svg enable-background="new 0 0 566.929 129.21" version="1.1" viewBox="0 0 566.93 129.21" xml:space="preserve" xmlns="http://www.w3.org/2000/svg">

 <g>
  <title>Layer 1</title>
  <g stroke-width="10">
   
    
     <path d="m553.65 22.859h-540.37c-4.734 0-8.573 3.838-8.573 8.573v66.346c0 4.735 3.838 8.573 8.573 8.573h540.37c4.734 0 8.572-3.838 8.572-8.573v-66.346c0-4.734-3.837-8.573-8.572-8.573zm7.039 74.693c0 4.109-3.331 7.441-7.44 7.441h-539.56c-4.109 0-7.441-3.332-7.441-7.441v-65.893c0-4.109 3.332-7.441 7.441-7.441h539.56c4.109 0 7.44 3.332 7.44 7.441v65.893z" fill="#bd2136"/>
    
   
  </g>
  
   
    <path d="m294.95 73.518 6.785-15.589-8.479-0.067-4.37 10.112-6.916-6.197c5.153-5.023 5.807-6.196 6.067-11.025 0.261-4.825-4.11-10.762-12.264-10.762s-11.415 6.719-11.415 11.156c0 4.435 2.414 7.174 5.415 10.044-5.022 3.328-9.002 6.393-9.002 16.111 0 7.438 6.589 13.961 15.981 13.961 9.393 0 13.438-7.504 14.676-10.176 3.132 2.868 10.242 9.326 10.242 9.326l5.154-5.673-11.874-11.221zm-18.784-25.832c1.978 0 4.044 1.131 4.044 3.589 0 2.869-3.979 5.217-3.979 5.217-3.282-2.718-4.109-3.195-4.109-5.544-1e-3 -2.349 2.238-3.262 4.044-3.262zm0.521 35.878c-3.131 0-8.349-0.913-8.349-6.72 0-5.805 2.217-7.076 7.371-10.438 0 0 8.153 7.373 9.915 8.872-2.478 6.98-5.805 8.286-8.937 8.286z" fill="#bfac8b"/>
   
  
  <polygon points="127.93 90.038 161.77 39.16 170.12 39.16 170.12 74.295 193.77 39.246 202.3 39.246 202.3 90.038 193.77 90.038 193.77 54.901 170.12 90.212 161.68 90.212 161.68 54.728 138.2 90.038" fill="#bfac8b"/>
  <polygon points="209.6 90.125 209.6 39.246 235.78 39.246 235.78 47.857 218.21 47.857 218.21 60.816 235.78 60.816 235.78 69.513 218.13 69.513 218.13 81.515 235.69 81.515 235.69 90.125" fill="#bfac8b"/>
  
   
    <path d="m116.8 39.246-33.833 51.054h10.438l7.217-11.135h16.352v11.135h8.436v-51.054h-8.61zm0.087 31.137h-10.35l10.35-15.569v15.569z" fill="#bfac8b"/>
   
  
  
   
    <path d="m88.64 65.387h-26.63v8.3l17.268 0.078c-2.997 6.684-9.709 11.339-17.507 11.339-10.592 0-19.178-8.587-19.178-19.18 0-10.591 8.586-19.177 19.178-19.177 6.578 0 12.38 3.312 15.835 8.356l8.769-8e-3c-4.165-9.449-13.614-16.046-24.604-16.046-14.842 0-26.875 12.033-26.875 26.875 0 14.844 12.033 26.875 26.875 26.875s26.875-12.031 26.875-26.875c0-0.179-3e-3 -0.359-6e-3 -0.537z" fill="#bfac8b"/>
   
  
  
   
    
     <path d="m408.36 37.797-33.831 51.053h10.436l7.219-11.135h16.35v11.135h8.437v-51.053h-8.611zm0.087 31.135h-10.348l10.348-15.567v15.567z" fill="#bfac8b"/>
    
   
   
    
     <path d="m486.77 75.152c-3.382 3.919-8.384 6.397-13.965 6.397-10.184 0-18.438-8.254-18.438-18.438 0-10.183 8.255-18.439 18.438-18.439 5.364 0 10.19 2.291 13.56 5.945l9.868-3e-3c-4.483-8.45-13.371-14.203-23.602-14.203-14.747 0-26.7 11.953-26.7 26.7 0 14.748 11.953 26.701 26.7 26.701 10.416 0 19.44-5.966 23.842-14.664l-9.703 4e-3z" fill="#bfac8b"/>
    
   
   <polygon points="327.65 37.976 327.65 88.943 336.43 88.943 359.65 54.154 359.65 88.855 368.52 88.855 402.09 38.062 391.57 38.062 368.44 73.201 368.44 38.149 359.74 38.149 336.43 73.287 336.43 37.976" fill="#bfac8b"/>
   <polygon points="420.01 37.891 448.19 37.891 448.19 46.499 438.36 46.499 438.36 88.682 429.66 88.682 429.66 46.587 419.92 46.587" fill="#bfac8b"/>
   <polygon points="498.89 37.976 498.89 88.945 507.5 88.945 507.5 67.288 523.25 67.288 523.25 88.77 532.03 88.77 532.03 38.062 523.42 38.062 523.42 58.589 507.5 58.589 507.5 38.062" fill="#bfac8b"/>
  
 </g>
</svg>
