<?xml version="1.0" encoding="UTF-8"?>
<svg baseProfile="tiny" version="1.2" viewBox="0 0 566.93 98.574" xml:space="preserve" xmlns="http://www.w3.org/2000/svg">


	<linearGradient id="e" x1="527.77" x2="527.77" y1="-.7129" y2="98.787" gradientUnits="userSpaceOnUse">
		<stop stop-color="#2E5C92" offset=".0051"/>
		<stop stop-color="#2E3192" offset="1"/>
	</linearGradient>
	<polygon points="488.62 0.917 512.64 0.917 524.51 28.215 542.31 0.917 566.93 0.917 532.22 54.913 526.58 97.041 504.34 97.041 510.86 48.973" fill="url(#e)"/>
	<linearGradient id="f" x1="290.74" x2="290.74" y1="-.7129" y2="98.787" gradientUnits="userSpaceOnUse">
		<stop stop-color="#2E5C92" offset=".0051"/>
		<stop stop-color="#2E3192" offset="1"/>
	</linearGradient>
	<polygon points="311.8 97.041 314.76 75.671 280.95 75.671 283.03 59.066 312.39 59.066 315.36 37.706 286.29 37.706 288.37 22.276 322.18 22.276 325.45 0.917 269.38 0.917 256.03 97.041" fill="url(#f)"/>
	<linearGradient id="d" x1="127.57" x2="127.57" y1="-.7129" y2="98.787" gradientUnits="userSpaceOnUse">
		<stop stop-color="#2E5C92" offset=".0051"/>
		<stop stop-color="#2E3192" offset="1"/>
	</linearGradient>
	<path d="m112.15 49.565 7.416-19.874 2.375 19.874h-9.791zm-8.009 18.987h20.172l3.563 28.48h36.488l16.91-52.213 8.309 52.213h19.283l21.359-55.179 3.561 55.179h21.359l-5.934-96.119h-25.514l-19.875 50.728-7.715-50.728h-22.842l-26.105 78.912-9.791-78.912h-28.48l-31.744 79.8 4.154-31.149h-38.566l-2.672 18.987h16.912l-1.188 6.526c-2.967 1.778-9.789 2.075-12.459 2.075s-22.545-1.778-21.656-23.139c0.889-21.359 29.369-41.235 63.188-30.259l3.266-20.47c-22.548-7.711-81.766-3.395-87.815 49.544-3.559 31.148 24.921 45.982 43.906 45.688 10.977 0.594 23.438-3.561 27.887-5.935l-1.482 4.451h22.547l10.974-28.48z" fill="url(#d)"/>
	<linearGradient id="c" x1="458.99" x2="458.99" y1="-.7129" y2="98.787" gradientUnits="userSpaceOnUse">
		<stop stop-color="#2E5C92" offset=".0051"/>
		<stop stop-color="#2E3192" offset="1"/>
	</linearGradient>
	<path d="m464.58 0.028c-15.428-0.594-37.678 8.306-45.094 44.204-7.416 35.894 12.459 50.431 30.852 52.804 18.396 2.373 44.205-9.196 48.951-43.609 4.748-34.414-12.166-52.508-34.709-53.399zm-2.374 20.47c6.229 0 19.578 4.154 16.314 29.071-3.264 24.92-18.689 27.887-24.326 27.292-5.639-0.594-17.207-4.447-13.943-27.292 3.262-22.841 15.424-29.368 21.955-29.071z" fill="url(#c)"/>
	<linearGradient id="b" x1="378.92" x2="378.92" y1="-.7129" y2="98.787" gradientUnits="userSpaceOnUse">
		<stop stop-color="#2E5C92" offset=".0051"/>
		<stop stop-color="#2E3192" offset="1"/>
	</linearGradient>
	<path d="m370.83 37.706h12.461c9.197 0 10.977-5.934 11.271-8.305 0.297-2.375-2.371-7.122-7.117-7.122h-14.537l-2.078 15.427zm-5.339 37.971h16.912c9.193 0 11.27-7.118 11.564-9.493 0.299-2.373-2.371-7.117-7.117-7.117h-18.984l-2.375 16.61zm-24.918 21.361 13.35-96.118h40.938c9.793 0 24.031 11.274 22.252 26.403-1.779 15.13-6.527 16.02-9.791 18.393 5.045 4.447 10.088 11.568 8.012 24.918-2.078 13.353-13.055 26.403-32.338 26.403l-42.423 1e-3z" fill="url(#b)"/>
	<linearGradient id="a" x1="538.6" x2="538.6" y1="-.7129" y2="98.787" gradientUnits="userSpaceOnUse">
		<stop stop-color="#2E5C92" offset=".0051"/>
		<stop stop-color="#2E3192" offset="1"/>
	</linearGradient>
	<path d="m538.62 82.498c-3.66 0-6.615 2.951-6.615 6.593 0 3.681 2.953 6.634 6.615 6.634 3.641 0 6.592-2.953 6.592-6.634-3e-3 -3.643-2.956-6.593-6.592-6.593v-0.907c4.148 0 7.498 3.366 7.498 7.5 0 4.173-3.35 7.538-7.498 7.538-4.174-1e-3 -7.539-3.365-7.539-7.538 0-4.135 3.365-7.499 7.539-7.499v0.906z" fill="url(#a)"/>
	<linearGradient id="g" x1="539.14" x2="539.14" y1="-.7129" y2="98.787" gradientUnits="userSpaceOnUse">
		<stop stop-color="#2E5C92" offset=".0051"/>
		<stop stop-color="#2E3192" offset="1"/>
	</linearGradient>
	<path d="m536.84 85.639h2.402c1.045 0 2.182 0.156 2.182 1.457 0 1.711-1.828 1.516-3.01 1.516l-1.574-2e-3v0.809h1.893l2.4 3.878h1.219l-2.539-3.878c1.496-0.038 2.656-0.648 2.656-2.302 0-0.71-0.313-1.457-0.943-1.813-0.629-0.373-1.34-0.412-2.049-0.412h-3.656v8.403h1.02v-7.656h-1e-3z" fill="url(#g)"/>

</svg>
