<?xml version="1.0" encoding="UTF-8"?>
<!DOCTYPE svg  PUBLIC '-//W3C//DTD SVG 1.1//EN'  'http://www.w3.org/Graphics/SVG/1.1/DTD/svg11.dtd'>
<svg enable-background="new 0 0 566.93 124.23" version="1.1" viewBox="0 0 566.93 124.23" xml:space="preserve" xmlns="http://www.w3.org/2000/svg">



	
		
			<line x1="29.248" x2="28.12" y1="99.123" y2="98.282" fill="none"/>
		
		
			
				<linearGradient id="i" x1="24.415" x2="104.74" y1="564.87" y2="551.51" gradientTransform="translate(-.0049 -473.43)" gradientUnits="userSpaceOnUse">
				<stop stop-color="#fff" offset=".0368"/>
				<stop stop-color="#898CBF" offset=".8957"/>
			</linearGradient>
			<polygon points="89.451 62.438 89.451 82.608 53.699 103.22 18.222 82.608 16.628 83.691 53.699 105.43 91.065 83.824 91.065 61.505" fill="url(#i)"/>
		
		
			<polygon points="89.451 82.52 91.065 83.685 91.065 83.824 90.963 83.9 89.308 82.69 89.451 82.608" fill="#7A7EAE"/>
		
		
			
				<linearGradient id="h" x1="28.461" x2="54.049" y1="68.837" y2="68.837" gradientTransform="matrix(1 0 0 -1 -.0449 123.99)" gradientUnits="userSpaceOnUse">
				<stop stop-color="#6E70A9" offset="0"/>
				<stop stop-color="#514A8E" offset=".9693"/>
			</linearGradient>
			<polygon points="54.004 62.205 28.814 47.455 28.416 47.853 53.699 62.851" fill="url(#h)"/>
			
				<linearGradient id="g" x1="53.857" x2="54.185" y1="61.681" y2="61.681" gradientTransform="matrix(1 0 0 -1 -.0449 123.99)" gradientUnits="userSpaceOnUse">
				<stop stop-color="#6E70A9" offset="0"/>
				<stop stop-color="#514A8E" offset=".9693"/>
			</linearGradient>
			<polygon points="53.922 62.205 54.107 62.205 54.14 62.413 53.813 62.413" fill="url(#g)"/>
		
		
			<polygon points="54.004 62.851 54.004 62.205 107.63 31.206 107.78 31.647" fill="#120F22"/>
		
		
			<polygon points="54.004 124.23 54.363 105.73 91.582 84.28 91.72 61.312 91.065 61.312 91.065 83.824 53.699 105.43 53.565 124.23" fill="#453D76"/>
		
		
			
				<linearGradient id="f" x1="64.084" x2="108.73" y1="540.33" y2="569.63" gradientTransform="translate(-.0049 -473.43)" gradientUnits="userSpaceOnUse">
				<stop stop-color="#4C5284" offset="0"/>
				<stop stop-color="#8789BC" offset="1"/>
			</linearGradient>
			<polygon points="54.004 91.212 54.004 62.851 107.78 31.647 107.78 93.197 54.004 124.23 54.004 105.57 91.361 84.062 91.361 61.332 78.85 68.566 78.85 76.595" fill="url(#f)"/>
		
		
			
				<linearGradient id="e" x1="53.464" x2="53.153" y1="597" y2="577.1" gradientTransform="translate(-.0049 -473.43)" gradientUnits="userSpaceOnUse">
				<stop stop-color="#4C407E" offset=".1104"/>
				<stop stop-color="#669" offset=".8896"/>
				<stop stop-color="#A7B3D9" offset="1"/>
				<stop stop-color="#9BA5CD" offset="1"/>
			</linearGradient>
			<polyline points="53.402 124.23 53.699 124.23 53.699 105.43 52.642 104.81 53.402 124.23" fill="url(#e)"/>
		
		
			<polyline points="16.542 40.703 16.771 40.897 16.862 83.532 16.628 83.691 16.486 83.601 16.542 40.703" fill="#2D2868"/>
		
		
			<polygon points="18.222 82.608 16.628 83.691 16.628 40.755 54.004 19.174 54.004 21.3 18.26 41.987" fill="#453D76"/>
		
		
			<polygon points="54.004 62.094 54.004 91.212 53.699 91.417 53.699 62.851 53.699 62.028" fill="#453D76"/>
		
		
			
				<linearGradient id="d" x1="4.8237" x2="66.026" y1="553.13" y2="536.12" gradientTransform="translate(-.0049 -473.43)" gradientUnits="userSpaceOnUse">
				<stop stop-color="#669" offset=".2331"/>
				<stop stop-color="#A7B3D9" offset=".7239"/>
			</linearGradient>
			<polygon points="28.416 47.853 28.416 76.802 53.699 91.417 53.699 62.851" fill="url(#d)"/>
			
				<linearGradient id="c" x1="5.8823" x2="67.08" y1="556.93" y2="539.92" gradientTransform="translate(-.0049 -473.43)" gradientUnits="userSpaceOnUse">
				<stop stop-color="#669" offset=".2331"/>
				<stop stop-color="#A7B3D9" offset=".9907"/>
			</linearGradient>
			<polygon points="53.402 123.93 53.402 105.25 16.628 83.691 16.628 40.964 0 31.206 0 93.302 53.402 124.23" fill="url(#c)"/>
		
		<g fill="#2D2868">
			<rect x="16.343" y="40.755" width=".285" height="42.938"/>
			<polygon points="16.628 40.755 0.214 30.992 0 31.206 16.486 40.897"/>
		</g>
		
			
				<linearGradient id="b" x1="19.586" x2="43.921" y1="559.81" y2="572.84" gradientTransform="translate(-.0049 -473.43)" gradientUnits="userSpaceOnUse">
				<stop stop-color="#6E70A9" offset="0"/>
				<stop stop-color="#514A8E" offset=".9693"/>
			</linearGradient>
			<polygon points="53.402 105.25 53.402 105.6 16.343 84.015 16.343 83.691 16.628 83.691" fill="url(#b)"/>
		
		
			
				<linearGradient id="a" x1="55.735" x2="71.185" y1="495.65" y2="503.17" gradientTransform="translate(-.0049 -473.43)" gradientUnits="userSpaceOnUse">
				<stop stop-color="#9EA5D3" offset=".0368"/>
				<stop stop-color="#7675AE" offset=".9018"/>
			</linearGradient>
			<polygon points="54.004 19.174 77.901 33.142 77.901 35.231 54.004 21.3" fill="url(#a)"/>
		
		
			<polygon points="77.901 33.142 77.901 35.231 94.454 25.524 94.454 23.552" fill="#484592"/>
		
		
			<path d="m0 31.206" fill="none"/>
			
				<linearGradient id="l" x1=".2188" x2=".2188" y1="504.42" y2="504.42" gradientTransform="translate(-.0049 -473.43)" gradientUnits="userSpaceOnUse">
				<stop stop-color="#669" offset=".2331"/>
				<stop stop-color="#A7B3D9" offset=".9907"/>
			</linearGradient>
			<path d="m0.214 30.992" fill="url(#l)"/>
			
				<linearGradient id="k" x1="49.386" x2="45.741" y1="477.95" y2="518.44" gradientTransform="translate(-.0049 -473.43)" gradientUnits="userSpaceOnUse">
				<stop stop-color="#AAACD2" offset="0"/>
				<stop stop-color="#FCFAFB" offset=".6258"/>
			</linearGradient>
			<polygon points="53.833 0 94.454 23.552 77.901 33.142 54.004 19.174 16.628 40.755 0.214 30.992" fill="url(#k)"/>
			
				<linearGradient id="j" x1="71.78" x2="68.135" y1="473.27" y2="513.76" gradientTransform="translate(-.0049 -473.43)" gradientUnits="userSpaceOnUse">
				<stop stop-color="#AAACD2" offset=".6743"/>
				<stop stop-color="#FCFAFB" offset="1"/>
			</linearGradient>
			<polygon points="28.814 47.455 53.68 33.409 77.369 46.781 106.23 30.192 107.63 31.206 54.004 62.205" fill="url(#j)"/>
		
	
	<g fill="#7F7F7F">
		<path d="m373.52 21.158v-4.949h-14.143c-1.816 0-3.533 0.404-5.054 1.11-1.513 0.71-2.726 1.718-3.634 2.932-0.908 1.209-1.314 2.529-1.416 4.04v15.252c0.1 1.417 0.508 2.729 1.313 3.944 0.912 1.21 2.121 2.116 3.537 2.924 1.516 0.71 3.127 1.115 5.053 1.115h14.34v-4.949h-13.739c-1.11 0-2.118-0.306-3.022-0.911-0.815-0.604-1.318-1.312-1.318-2.319v-5.657h18.082v-5.053h-18.082v-4.142c0-1.013 0.503-1.817 1.318-2.427 0.904-0.606 1.912-0.91 3.022-0.91h13.739"/>
		<path d="m457.95 16.21v31.317h15.102c1.916-0.098 3.625-0.405 5.139-1.107 1.609-0.804 2.818-1.712 3.723-2.921 0.908-1.203 1.307-2.615 1.408-4.127v-15.106c-0.102-1.507-0.5-2.821-1.408-4.028-0.904-1.208-2.111-2.213-3.723-2.921-1.514-0.705-3.225-1.107-5.139-1.107h-15.102zm17.826 5.842c0.898 0.604 1.303 1.407 1.404 2.418v14.803c-0.104 1.006-0.506 1.812-1.404 2.416-0.809 0.703-1.82 1.005-2.928 1.005h-8.758v-21.648h8.758c1.108 0 2.119 0.301 2.928 1.006"/>
		<path d="m531.96 17.302c-1.488-0.692-3.172-0.993-5.053-1.093h-5.453c-1.885 0.099-3.566 0.4-5.057 1.093-1.584 0.794-2.775 1.68-3.666 2.874-0.895 1.186-1.389 2.576-1.389 4.063v15.359c0 1.486 0.494 2.777 1.389 3.967 0.891 1.19 2.082 2.179 3.666 2.874 1.49 0.693 3.172 1.089 5.057 1.089h5.453c1.881 0 3.563-0.396 5.053-1.089 1.584-0.694 2.773-1.684 3.666-2.874 0.893-1.191 1.387-2.577 1.387-3.967v-15.36c-0.096-1.487-0.494-2.877-1.387-4.063-0.893-1.194-2.082-2.08-3.666-2.873zm-2.379 4.656c0.891 0.694 1.387 1.484 1.387 2.382v15.059c0 0.892-0.496 1.686-1.387 2.379-0.793 0.597-1.787 0.994-2.873 0.994h-5.055c-1.094 0-2.084-0.396-2.977-0.994-0.789-0.694-1.285-1.487-1.285-2.379v-15.059c0-0.897 0.496-1.688 1.285-2.382 0.893-0.596 1.883-0.893 2.977-0.992h5.055c1.087 0.101 2.08 0.397 2.873 0.992"/>
		<path d="M169.301,16.21h-6.163v20.003L152.634,16.21h-8.385v31.317h6.163V23.083l12.828,24.444h6.061V16.21"/>
		<path d="M269.711,16.21h-6.163v20.003L253.043,16.21h-8.385v31.317h6.163V23.083l12.828,24.444h6.062V16.21"/>
		<path d="M428.299,16.21h-6.162v20.003L411.633,16.21h-8.387v31.317h6.163V23.083l12.828,24.444h6.062V16.21"/>
		<path d="m210.53 47.527v-31.317h-7.07v31.317h7.07"/>
		<path d="m296.92 16.21v4.949h10.401v26.369h6.671v-26.37h10.504v-4.949h-27.578"/>
	
	
		<path d="m543.92 69.03v-8.463h-42.717v40.229h43.113v-9.062h-31.855v-7.57h18.316v-8.457h-18.316v-6.677h31.459"/>
		<path d="m496.37 68.755c0.096-2.785-0.697-4.977-2.393-6.274-1.596-1.394-4.08-2.09-7.467-2.09h-35.148v40.325h32.658c8.563-0.099 12.744-2.887 12.744-8.562v-4.883c0-3.382-1.492-5.87-4.582-7.262 2.789-1.298 4.188-3.487 4.188-6.576v-4.678zm-10.854 0.2c0.398 0.399 0.602 0.8 0.496 1.396v3.685c0.104 0.495-0.098 0.995-0.496 1.293l-2.795 0.495h-20.107v-7.266h20.107c1.502 0 2.496 0.199 2.795 0.397zm-22.902 22.9v-7.867h20.211c1.496 0 2.393 0.201 2.889 0.5 0.402 0.401 0.596 0.998 0.596 1.993v2.886c0 0.897-0.191 1.594-0.596 1.891-0.496 0.4-1.393 0.597-2.889 0.597h-20.211"/>
		<path d="m446.61 60.458h-11.25v31.167h-24.396v-31.167h-11.248v30.271c-0.106 2.486 0.295 4.484 0.99 5.975 0.6 1.395 1.797 2.49 3.389 3.089 1.597 0.695 3.684 0.993 6.47 0.896h25.093c2.789 0.097 4.977-0.201 6.57-0.896 1.59-0.599 2.689-1.694 3.389-3.089 0.695-1.491 0.996-3.487 0.996-5.975v-30.271"/>
		<path d="m394.09 64.607c-0.705-1.489-1.896-2.488-3.388-3.186-1.596-0.602-3.784-0.898-6.473-0.898h-24.591c-2.789 0-4.881 0.298-6.478 0.898-1.591 0.697-2.786 1.696-3.382 3.186-0.697 1.494-1.096 3.484-0.993 5.974v20.214c-0.103 2.484 0.296 4.48 0.993 5.971 0.596 1.396 1.791 2.491 3.382 3.093 1.597 0.693 3.688 0.991 6.478 0.893h24.592c2.688 0.098 4.877-0.199 6.473-0.893 1.492-0.602 2.684-1.697 3.387-3.093 0.597-1.489 0.996-3.485 0.996-5.971v-7.371l-11.256 0.105v8.162h-23.893v-22.301h23.893v7.165h11.256v-5.974c0-2.585-0.399-4.574-0.996-5.974"/>
		<path d="m340.46 69.03v-8.463h-42.718v40.229h43.116v-9.062h-31.861v-7.57h18.321v-8.457h-18.321v-6.677h31.463"/>
		<path d="m282.41 60.458-17.127 28.48-17.025-28.48h-10.254v33.159l-20.016-33.159h-10.056l-23.994 40.228h30.068v-9.061h-13.442l12.447-20.013 16.828 29.072h18.519v-21.505l12.842 21.505h8.266l12.942-21.505v21.505h10.354v-40.227h-10.354"/>
		<path d="m184.83 69.307v-8.77h-37.938c-2.685 0-4.879 0.3-6.474 0.899-1.59 0.696-2.686 1.698-3.381 3.187-0.7 1.493-0.998 3.483-0.998 5.975v20.21c0 2.486 0.298 4.483 0.998 5.975 0.696 1.395 1.792 2.49 3.381 3.091 1.594 0.692 3.789 0.991 6.474 0.895h27.584c3.978 0.097 6.768-0.599 8.458-2.091 1.595-1.595 2.391-4.183 2.294-7.868v-14.24h-26.088v8.47h15.135v6.667h-26.985v-22.4h37.54"/>
	
	
		<path d="m566.93 91.979h-1.693l-2.041 6.45c-0.334 0.513-0.51 1.024-0.51 1.362-0.172-0.338-0.346-0.682-0.512-1.188l-2.211-6.626h-1.699v9.17h1.027v-7.813l2.717 7.813h1.012l2.721-7.642v7.642h1.189v-9.168"/>
		<path d="m554.02 93.167h2.893v-1.188h-7.139v1.188h3.063v7.982h1.186v-7.982"/>
	</g>

</svg>
