<?xml version="1.0" encoding="UTF-8"?>
<svg baseProfile="tiny" version="1.2" viewBox="0 0 566.93 89.334" xml:space="preserve" xmlns="http://www.w3.org/2000/svg">
<g transform="translate(-6.8438 -490.88)" fill="#6B6B6B">
	<path d="m429.04 490.88c-0.636 0-0.999 0.541-0.999 1.212l-0.132 13.085c0 0.636 0.541 0.966 1.212 0.966l6.011-0.049c0.672 0 1.213-0.362 1.213-0.999v-2.424c0-0.637-0.541-0.982-1.213-0.982l-3.881 0.016c-0.671 0-1.229-0.33-1.229-0.967v-8.646c0-0.671-0.344-1.212-0.982-1.212zm29.396 0c-0.079 0-0.157 0.017-0.229 0.033-0.496 0.113-0.771 0.591-0.771 1.179l-0.146 13.085c0 0.398 0.218 0.665 0.54 0.818 0.063 0.031 0.142 0.061 0.213 0.082 0.073 0.021 0.15 0.039 0.229 0.049 0.078 0.01 0.161 0.017 0.245 0.017l5.993-0.049c0.672 0 1.212-0.362 1.212-0.999v-2.424c0-0.636-0.54-0.982-1.212-0.982l-3.882 0.016c-0.671 0-1.212-0.33-1.212-0.966l-0.017-8.647c2e-3 -0.671-0.327-1.212-0.963-1.212zm-94 0.017c-0.673 0-1.229 0.378-1.229 1.015l0.065 1.965-0.065 10.988c0 0.672 0.346 1.212 0.981 1.212 0.079 0 0.143 0 0.214-0.016 0.496-0.113 0.786-0.608 0.786-1.196v-8.646c0-0.636 0.54-0.999 1.211-0.999h0.836c0.671 0 1.212 0.363 1.212 0.999l0.817 4.602c0 0.672 0.33 1.212 0.968 1.212h2.146c0.078 0 0.157-2e-3 0.229-0.016 0.491-0.098 0.77-0.527 1.079-1.13 0 0 2.47-5.901 2.57-6.125 0.223-0.483 0.836-0.403 0.836 0.065v8.793l0.033 1.294c0 0.672 0.328 1.229 0.965 1.229l2.475 0.016c0.079 0 0.146-1e-3 0.213-0.016 0.065-0.015 0.127-0.037 0.181-0.066 0.323-0.168 0.471-0.574 0.786-1.13l1.852-4.045c0.302-0.585 0.704-0.987 1.211-0.999h3.063c0.672 0 1.212 0.362 1.212 0.999l0.164 4.308c-9e-3 0.436 0.219 0.678 0.573 0.818 0.118 0.047 0.252 0.089 0.394 0.115 0.565 0.105 1.291 0.065 1.884 0.082 0.563 0.015 1.44-0.358 1.44-0.981l0.032-13.363c0-0.637-0.54-0.982-1.212-0.982h-6.484c-0.671 0-1.021 0.34-1.212 0.982 0 0-4.267 10.776-4.372 11.021-0.014 0.03-0.035 0.055-0.064 0.082-0.063 0.052-0.164 0.092-0.264 0.115-0.244 0.055-0.539-2e-3 -0.539-0.312 0-0.496-0.018-10.546-0.018-10.546 0-0.672-0.279-1.294-0.917-1.294h-2.293c-0.638 0-0.871 0.426-1.326 1.212 0 0-2.704 6.669-2.866 6.977-0.039 0.077-0.108 0.146-0.181 0.196-0.069 0.051-0.136 0.087-0.212 0.098-0.154 0.022-0.304-0.047-0.347-0.262-0.081-0.429-1.323-7.254-1.323-7.254 0-0.636-0.541-1.015-1.213-1.015l-4.291-2e-3zm118.38 0c-0.672 0-1.229 0.345-1.229 0.982l-0.063 13.232c0 0.238 0.081 0.432 0.212 0.59 0.132 0.157 0.307 0.277 0.523 0.343 0.071 0.021 0.149 0.038 0.229 0.049 0.078 0.011 0.161 0.017 0.245 0.017l2.063 0.016v0.017h5.044c0.084 0 0.168-6e-3 0.246-0.017 0.078-0.01 0.156-0.028 0.229-0.049 0.437-0.124 0.736-0.423 0.736-0.9 0-0.636-0.541-1.016-1.213-1.016h-5.044v0.033c-0.646-0.017-1.161-0.395-1.161-1.015l0.082-6.977c0-0.636 0.539-0.966 1.212-0.966h4.979c0.672 0 1.229-0.33 1.229-0.966v-2.326c0-0.637-0.558-0.999-1.229-0.999l-7.09-0.048zm21.633 0c-0.084 0-0.166 6e-3 -0.245 0.017-0.555 0.072-0.981 0.408-0.981 0.966-2e-3 0.332 3e-3 0.651 0 0.982-0.023 3.76-0.104 7.54-0.049 11.299 3e-3 0.23-0.037 0.477-0.051 0.721-7e-3 0.123-2e-3 0.245 0.018 0.361s0.055 0.225 0.114 0.327c0.158 0.269 0.388 0.44 0.64 0.541 0.252 0.1 0.536 0.123 0.818 0.115 0.442-0.012 0.862 0.034 1.261 0.016 0.133-6e-3 0.271-0.027 0.394-0.049 0.495-0.088 0.906-0.331 1.181-0.982l0.163-4.308c0-0.636 0.54-0.999 1.212-0.999h3.274c0.672 0 1.212 0.362 1.212 0.999l0.05 4.045c0 0.672 0.328 1.212 0.966 1.212 0.079 0 0.158 0 0.229-0.016 0.496-0.113 0.785-0.608 0.785-1.196v-5.551c0-0.955-0.838-1.264-1.457-1.573-0.188-0.092-0.354-0.187-0.477-0.294-0.12-0.107-0.181-0.234-0.181-0.393 0-0.842-0.017-5.257-0.017-5.257 0-0.637-0.542-0.982-1.212-0.982l-7.647-1e-3zm14.528 0c-0.084 0-0.168 6e-3 -0.246 0.017-0.555 0.072-0.982 0.408-0.982 0.966l-0.064 13.232c0 0.318 0.142 0.565 0.359 0.736 0.057 0.043 0.115 0.082 0.182 0.115 0.192 0.099 0.421 0.148 0.672 0.148h8.435c0.67 0 1.211-0.363 1.211-0.999l-0.063-13.232c0-0.637-0.54-0.982-1.213-0.982l-8.291-1e-3zm13.116 0c-0.084 0-0.167 5e-3 -0.245 0.017-0.158 0.022-0.297 0.065-0.428 0.13-0.322 0.163-0.539 0.47-0.539 0.868l0.064 1.965-0.064 10.988c0 0.588 0.264 1.083 0.754 1.196 0.068 0.016 0.133 0.016 0.213 0.016 0.079 0 0.158 0 0.229-0.016 0.496-0.113 0.786-0.608 0.786-1.196v-8.646c0-0.636 0.542-0.999 1.212-0.999h4.438c0.671 0 1.212 0.363 1.212 0.999l0.05 8.614c0 0.672 0.33 1.212 0.966 1.212 0.079 0 0.158 0 0.229-0.016 0.496-0.113 0.786-0.608 0.786-1.196l-0.018-9.58 0.018-3.341c0-0.637-0.559-1.015-1.229-1.015h-8.434zm20.831 0c-0.505 0-0.945 0.193-1.131 0.557-0.063 0.121-0.082 0.267-0.082 0.426l-0.081 13.232c0 0.238 0.081 0.432 0.213 0.59 0.219 0.262 0.58 0.409 0.999 0.409l7.105 0.033c0.671 0 1.212-0.329 1.212-0.966 0-0.636-0.541-1.015-1.212-1.015l-4.979 0.033c-0.671 0-1.229-0.38-1.229-1.016l0.082-6.977c0-0.636 0.54-0.966 1.212-0.966h4.979c0.673 0 1.229-0.33 1.229-0.966v-2.326c0-0.637-0.557-0.999-1.229-0.999l-7.088-0.049zm-5.961 0.017c-0.396 0-0.682 0.2-0.834 0.524-0.063 0.128-0.109 0.284-0.133 0.442-0.01 0.079-0.016 0.161-0.016 0.245l0.063 8.729c0 0.478-0.25 0.793-0.653 0.918-0.068 0.02-0.14 0.038-0.215 0.049-0.074 0.011-0.16 0-0.244 0h-0.459c-0.672 0-1.326 0.329-1.326 0.966v2.325c0 0.319 0.163 0.565 0.408 0.737 0.063 0.042 0.127 0.082 0.196 0.114 0.213 0.099 0.47 0.148 0.722 0.148h3.995c0.671 0 1.212-0.363 1.212-0.999v-2.325c0-0.1-4e-3 -0.184-0.018-0.263-0.088-0.551-0.473-0.62-0.852-0.687-0.162-0.029-0.319-0.062-0.458-0.131-0.232-0.116-0.396-0.336-0.396-0.852v-8.729c6e-3 -0.671-0.355-1.211-0.992-1.211zm-150.45 0.032c-0.672 0-1.229 0.361-1.229 0.999v2.326c0 0.636 0.558 0.966 1.229 0.966h1.521c0.671 0 1.212 0.33 1.212 0.966l-0.064 8.729c0 0.671 0.347 1.212 0.982 1.212 0.079 0 0.143 0 0.212-0.017 0.497-0.113 0.786-0.607 0.786-1.195v-8.729c0-0.557 0.412-0.877 0.967-0.949 0.079-0.011 0.162-0.017 0.245-0.017h4.193c0.669 0 1.211 0.33 1.211 0.966v8.729c0 0.671 0.361 1.212 0.999 1.212 0.08 0 0.159 0 0.229-0.017 0.49-0.113 0.735-0.607 0.735-1.195l-0.064-8.729c0-0.557 0.431-0.877 0.981-0.949 0.079-0.011 0.162-0.017 0.246-0.017h1.521c0.672 0 1.212-0.33 1.212-0.966v-2.326c0-0.637-0.539-0.999-1.212-0.999h-15.912zm96.767 0c-0.168 0-0.329 0.021-0.476 0.064-0.072 0.022-0.147 0.049-0.213 0.082-0.323 0.163-0.54 0.454-0.54 0.852v2.326c0 0.636 0.558 0.966 1.229 0.966h1.522c0.671 0 1.212 0.33 1.212 0.966l-0.064 8.729c0 0.335 0.082 0.648 0.246 0.868 0.04 0.055 0.097 0.104 0.146 0.146 0.103 0.088 0.221 0.148 0.359 0.18 0.07 0.017 0.148 0.017 0.229 0.017 0.079 0 0.143 0 0.214-0.017 0.495-0.113 0.784-0.607 0.784-1.195v-8.729c0-0.557 0.414-0.877 0.968-0.949 0.078-0.011 0.161-0.017 0.244-0.017h1.523c0.67 0 1.211-0.33 1.211-0.966v-2.326c0-0.637-0.541-0.999-1.211-0.999h-7.385v2e-3h2e-3zm78.426 0-7.188 0.049c-0.084 0-0.168 5e-3 -0.245 0.015-0.556 0.08-0.968 0.427-0.968 0.983l0.082 6.681c0 0.637 0.541 0.982 1.212 0.982l3.521 0.065c0.671 0 1.212 0.379 1.212 1.015l-0.082 2.44c0 0.159-0.036 0.305-0.099 0.426-0.122 0.242-0.349 0.409-0.64 0.491-0.071 0.021-0.149 0.022-0.229 0.033-0.079 0.011-0.162 0.016-0.246 0.016l-5.011 0.017c-0.085 0-0.167 7e-3 -0.246 0.016-0.554 0.074-0.966 0.409-0.966 0.967 0 0.318 0.124 0.565 0.344 0.736 0.221 0.172 0.532 0.263 0.868 0.263h9.448c0.335 0 0.633-0.083 0.853-0.246s0.36-0.401 0.36-0.72l0.082-6.567c0-0.636-0.559-0.966-1.229-0.966h-5.829c-0.673 0-1.213-0.33-1.213-0.967l-0.082-2.768c0-0.636 0.559-0.999 1.229-0.999l5.061 0.017c0.673 0 1.213-0.363 1.213-0.999 0-0.634-0.54-0.981-1.212-0.98zm-153.53 0.114c-0.671 0-1.212 0.33-1.212 0.967v4.603c0 0.67-0.329 1.212-0.967 1.212l-1.311 0.033c-0.671 0-1.212 0.33-1.212 0.966l-0.082 6.271c0 0.479 0.317 0.8 0.754 0.933 0.071 0.022 0.134 0.038 0.213 0.049s0.162 0.017 0.245 0.017l9.843 0.033c0.671 0 1.212-0.33 1.212-0.966s-0.541-1.015-1.212-1.015l-7.713 0.033c-0.672 0-1.212-0.38-1.212-1.016l0.063-2.342c0-0.636 0.541-0.966 1.213-0.966l7.647 0.016c0.084 0 0.167-6e-3 0.245-0.016 0.079-0.011 0.141-0.029 0.213-0.049 0.438-0.124 0.754-0.439 0.754-0.917 0-0.557-0.413-0.904-0.967-0.982-0.078-0.012-0.161-0.017-0.245-0.017l-1.703-0.017c-0.084 0-0.167-5e-3 -0.246-0.016-0.315-0.045-0.577-0.167-0.753-0.377-0.131-0.157-0.213-0.367-0.213-0.606l0.064-2.866c0-0.636 0.558-0.982 1.229-0.982h1.621c0.671 0 1.212-0.346 1.212-0.982 0-0.637-0.541-0.999-1.212-0.999l-6.268-2e-3zm29.381 0c-0.421 0-0.781 0.124-1 0.377-0.044 0.05-0.085 0.119-0.114 0.179-0.063 0.121-0.099 0.25-0.099 0.41v4.602c0 0.67-0.328 1.212-0.966 1.212l-1.312 0.033c-0.671 0-1.212 0.33-1.212 0.966l-0.082 6.271c0 0.238 0.082 0.432 0.213 0.59 0.131 0.157 0.321 0.277 0.54 0.343 0.072 0.022 0.149 0.038 0.229 0.049 0.079 0.011 0.161 0.017 0.245 0.017l9.825 0.033c0.672 0 1.212-0.33 1.212-0.966s-0.54-1.015-1.212-1.015l-7.713 0.033c-0.671 0-1.212-0.38-1.212-1.016l0.064-2.342c0-0.636 0.559-0.966 1.229-0.966l7.63 0.016c0.085 0 0.167-6e-3 0.246-0.016 0.08-0.011 0.156-0.029 0.229-0.049 0.437-0.124 0.735-0.439 0.735-0.917 0-0.557-0.411-0.904-0.967-0.982-0.079-0.012-0.161-0.017-0.246-0.017l-1.702-0.017c-0.084 0-0.166-5e-3 -0.246-0.016-0.314-0.045-0.577-0.167-0.753-0.377-0.132-0.157-0.213-0.367-0.213-0.606l0.082-2.866c0-0.636 0.541-0.982 1.211-0.982h1.622c0.672 0 1.212-0.346 1.212-0.982 0-0.637-0.54-0.999-1.212-0.999h-6.263zm24.382 0c-0.42 0-0.797 0.124-1.017 0.377-0.044 0.05-0.083 0.119-0.113 0.179-0.063 0.121-0.1 0.25-0.1 0.41l0.018 4.602c0 0.67-0.348 1.212-0.982 1.212l-1.294 0.033c-0.672 0-1.212 0.33-1.212 0.966l-0.082 6.271c0 0.238 0.082 0.432 0.214 0.59 0.132 0.157 0.306 0.277 0.523 0.343 0.071 0.022 0.149 0.038 0.229 0.049 0.077 0.011 0.16 0.017 0.244 0.017l9.826 0.033c0.671 0 1.229-0.33 1.229-0.966s-0.559-1.015-1.229-1.015l-7.696 0.033c-0.672 0-1.229-0.38-1.229-1.016l0.081-2.342c0-0.636 0.54-0.966 1.212-0.966l7.632 0.016c0.084 0 0.166-6e-3 0.246-0.016 0.078-0.011 0.155-0.029 0.229-0.049 0.438-0.124 0.754-0.439 0.754-0.917 0-0.557-0.431-0.904-0.981-0.982-0.08-0.012-0.162-0.017-0.246-0.017l-1.688-0.017c-0.083 0-0.166-5e-3 -0.245-0.016-0.315-0.045-0.595-0.167-0.771-0.377-0.131-0.157-0.195-0.367-0.195-0.606l0.064-2.866c0-0.636 0.54-0.982 1.212-0.982h1.621c0.671 0 1.229-0.346 1.229-0.982 0-0.637-0.559-0.999-1.229-0.999h-6.254zm-84.452 2.015h2.702c0.67 0 1.212 0.33 1.212 0.966l0.082 2.849c0 0.637-0.542 0.999-1.212 0.999h-4.014c-1.378-0.019-1.196-0.984-1.112-1.31l1.13-2.539c0.326-0.554 0.54-0.965 1.212-0.965zm119.1 0h3.343c0.671 0 1.212 0.33 1.212 0.966l0.082 2.849c0 0.637-0.56 0.999-1.229 0.999h-3.472c-0.672 0-1.212-0.362-1.212-0.999l0.064-2.849c1e-3 -0.636 0.542-0.966 1.212-0.966zm14.314 0h4.404c0.671 0 1.212 0.33 1.212 0.966l0.063 6.993c0 0.636-0.541 0.999-1.212 0.999h-4.534c-0.672 0-1.213-0.362-1.213-0.999l0.065-6.993c3e-3 -0.636 0.544-0.966 1.215-0.966z"/>
	<path d="m340.8 496.7s-15.496 59.529-15.91 60.881c-0.542 1.758-2.217 2.334-3.094 0.304-1.082-2.165-12.816-42.374-12.816-42.374h-21.38s15.962 52.369 16.685 53.92c7.577 16.234 24.275 9.75 27.705-2.154 3.527-12.254 18.618-70.576 18.618-70.576h-9.808v-1e-3zm-220.76 4.447-33.175 21.159c-1e-3 -4.093 0-6.685 0-6.685h-10.552v29.198c0 0.729-1.371 2.065-2.597 0.275 0 0-14.051-20.15-19.144-26.242-4.228-5.062-18.975-4.803-19.031 7.182-0.038 7.607 0.026 52.151 0.026 52.151h10.553v-36.819c0-2.039 1.806-1.322 2.928-0.058 0.521 0.588 23.124 35.004 24.142 36.381 2.306 3.108 13.701 5.406 13.701-6.354 0-8.427-0.021-33.382-0.028-46.849h10.304c1.081 0 2.457 1.213 2.458 1.215-0.01 1.021-0.166 33.137-0.166 37.375 0 9.528 7.895 15.966 16.436 15.966h19.032v-9.255h-8.756c-3.138 0-5.607-2.306-5.607-5.44v-36.102c0-1.942 1.559-4.696 4.668-4.696 3.111 0 9.75-0.083 9.75-0.083v-7.956h-13.093c-1.218 0-1.851-0.958-1.851-1.851l2e-3 -12.512zm-113.03 0.359s-0.166 73.3-0.166 77.675l20.468-0.027v-77.646l-20.302-2e-3zm478.67 13.259c-9.841 0-18.67 4.102-24.807 10.635-0.359 0.385-0.708 0.786-1.05 1.188-4.783 5.61-7.679 12.791-7.679 20.636 0 4.48 0.953 8.769 2.65 12.649 0.213 0.485 0.429 0.964 0.662 1.437 4.005 8.041 11.321 14.246 20.247 16.935 0.526 0.158 1.067 0.28 1.604 0.414 2.68 0.668 5.476 1.021 8.369 1.021 18.524 0 33.563-14.529 33.563-32.455 2e-3 -17.931-15.034-32.46-33.559-32.46zm-89.525 0.469c-12.309 0-21.851 8.804-21.851 21.326 0 12.896 14.228 16.998 21.739 17.789 4.726 0.496 9.28 3.765 9.28 8.396 0 3.727-3.219 6.74-6.687 6.74l-21.96-0.084v9.254h24.31c0.384 0 0.752-8e-3 1.132-0.027 11.773-0.579 21.132-10.041 21.132-21.711 0-1.926-0.106-3.633-0.358-5.166-0.063-0.383-0.145-0.743-0.221-1.104-2.104-9.762-9.756-11.649-21.685-14.807 0 0-6.326-1.967-6.326-5.773 0-2.379 1.377-4.012 3.261-4.889 0.188-0.088 0.382-0.175 0.579-0.249 0.986-0.364 2.065-0.524 3.149-0.524l14.888 0.055v-9.227h-20.382v1e-3zm-133.8 0.083s-0.166 6.508-0.166 10.883l20.469-0.056v-10.828l-20.303 1e-3zm86.929 0s-0.14 6.508-0.14 10.883l20.441-0.056v-10.828l-20.301 1e-3zm78.282 0s-0.139 6.508-0.139 10.883l20.439-0.056v-10.828l-20.3 1e-3zm-274.6 0.056c-5.871 0-10.142 3.04-12.237 8.039-0.189 0.455-0.343 0.923-0.497 1.41-0.617 1.942-0.938 4.135-0.938 6.519v31.188c0 9.527 5.134 16.324 13.673 16.324h30.661v-9.228h-18.259c-3.137 0-5.578-2.657-5.552-5.802v-12.209h20.966v-9.227l-20.993-0.057-0.056-12.265c0-3.137 2.498-5.44 5.635-5.44h18.259v-9.254l-30.662 2e-3zm34.97 0.11s-0.166 43.219-0.166 47.594c0 1.785 0.276 3.451 0.746 4.998 0.156 0.517 0.321 1.033 0.524 1.521 2.234 5.345 7.184 8.819 12.928 9.364 0.521 0.049 1.068 0.083 1.602 0.083h19.032v-9.254h-8.396c-3.137 0-5.607-2.306-5.607-5.44v-48.866h-20.663zm36.241 0s-0.138 43.219-0.138 47.594c0 8.934 6.365 15.141 14.197 15.883 0.522 0.049 1.041 0.083 1.575 0.083h19.031v-9.255h-8.729c-3.137 0-5.635-2.305-5.635-5.439v-48.866h-20.301zm339.01 0.138v29.198c0 0.729-1.369 2.064-2.598 0.275 0 0-14.022-20.15-19.113-26.242-4.23-5.062-19.001-4.803-19.062 7.182-0.035 7.607 0.027 52.151 0.027 52.151h10.553v-36.819c0-2.039 1.805-1.322 2.929-0.058 0.521 0.588 23.151 35.004 24.17 36.381 0.433 0.582 1.164 1.136 2.101 1.573 0.313 0.146 0.646 0.298 0.994 0.414 4.171 1.403 10.58 0.479 10.58-8.342 0-11.761-0.028-55.715-0.028-55.715h-10.553v2e-3zm-77.509 6.712c8.129 0 11.382 11.144 11.382 24.889 0 13.743-3.822 24.871-11.382 24.889-2.065 5e-3 -3.795-0.676-5.248-1.935-0.183-0.157-0.353-0.323-0.523-0.497-0.52-0.523-0.998-1.125-1.438-1.796-0.146-0.224-0.306-0.452-0.441-0.69-2.616-4.539-3.701-11.812-3.701-19.971 0-0.859 0.013-1.705 0.027-2.542 0.143-7.528 0.985-14.067 3.563-18.093 0.146-0.225 0.288-0.428 0.442-0.635 1.694-2.286 4.047-3.619 7.319-3.619zm-223.33 7.846s-0.166 44.626-0.166 49.001l20.469-0.026v-48.975h-20.303zm86.929 0s-0.14 44.626-0.14 49.001l20.441-0.026v-48.975h-20.301zm78.282 0s-0.139 44.626-0.139 49.001l20.439-0.026v-48.975h-20.3z"/>
</g>
</svg>
