<?xml version="1.0" encoding="UTF-8"?>
<!DOCTYPE svg  PUBLIC '-//W3C//DTD SVG 1.1//EN'  'http://www.w3.org/Graphics/SVG/1.1/DTD/svg11.dtd'>
<svg width="565.2px" height="186.79px" enable-background="new 1.735 -0.002 565.195 186.787" version="1.1" viewBox="1.735 -.002 565.2 186.79" xml:space="preserve" xmlns="http://www.w3.org/2000/svg">
<linearGradient id="ab" x1="-749.87" x2="-1296.2" y1="1590.8" y2="1590.8" gradientTransform="translate(1307.8 -1510.6)" gradientUnits="userSpaceOnUse">
	<stop stop-color="#013A67" offset="0"/>
	<stop stop-color="#6CD1FF" offset="1"/>
</linearGradient>
<polygon points="491.19 27.662 536.78 27.946 557.95 5.927 479.95 5.642 406.66 79.217 396.4 79.785 396.68 9.001 355.48 51.055 345.62 52.224 345.62 9.374 261.26 92.841 250.78 93.958 251.67 8.077 177.94 82.94 168.26 82.987 167.12 11.089 127.34 51.15 116.28 51.717 116.7 8.939 11.591 114.9 46.209 114.33 91.598 70.276 100.3 70.276 99.883 114.54 136.04 77.543 144.68 77.543 144.68 115.23 104.89 154.73 143.02 154.17 218.04 78.299 228.14 78.299 228.14 115.57 274.9 115.85 320.12 70.353 328.84 69.786 328.71 112.8 364.84 76.667 373.38 76.667 373.94 113.1 373.2 115 482.38 115 503.28 93.815 435.4 92.662 434.78 82.809 445.36 71.67 470.97 71.667 493.22 49.133 479.77 48.565 479.77 39.082" fill="url(#ab)"/>
<linearGradient id="q" x1="-1243.3" x2="-1247.2" y1="1574" y2="1570.1" gradientTransform="translate(1307.8 -1510.6)" gradientUnits="userSpaceOnUse">
	<stop stop-color="#08406F" offset="0"/>
	<stop stop-color="#60C5F5" offset="1"/>
</linearGradient>
<path d="m114.69 13.213-101.12 101.12-11.471 4.313s-0.604 0.039-0.271-0.445c0 0 117.26-117.29 117.47-117.47 0.212-0.181 0.467-0.028 0.467-0.028l-5.082 12.516z" fill="url(#q)"/>
<linearGradient id="g" x1="-1184.7" x2="-1188.3" y1="1649.1" y2="1645.5" gradientTransform="translate(1307.8 -1510.6)" gradientUnits="userSpaceOnUse">
	<stop stop-color="#08406F" offset="0"/>
	<stop stop-color="#60C5F5" offset="1"/>
</linearGradient>
<path d="m145.81 115.8-37.518 37.521-11.065 4.457s-0.576 0.063-0.236-0.406l43.929-43.75 4.89 2.178z" fill="url(#g)"/>
<linearGradient id="f" x1="-1282.3" x2="-1282.3" y1="1629.3" y2="1625" gradientTransform="translate(1307.8 -1510.6)" gradientUnits="userSpaceOnUse">
	<stop stop-color="#08406F" offset="0"/>
	<stop stop-color="#60C5F5" offset="1"/>
</linearGradient>
<polygon points="48.982 118.64 2.106 118.64 13.603 114.33 46.209 114.33" fill="url(#f)"/>
<linearGradient id="e" x1="-1186.8" x2="-1186.8" y1="1668.4" y2="1663.9" gradientTransform="translate(1307.8 -1510.6)" gradientUnits="userSpaceOnUse">
	<stop stop-color="#08406F" offset="0"/>
	<stop stop-color="#60C5F5" offset="1"/>
</linearGradient>
<polygon points="144.78 157.77 97.23 157.77 108.3 153.31 142.17 153.31" fill="url(#e)"/>
<linearGradient id="d" x1="-880.31" x2="-880.31" y1="1629.2" y2="1624.8" gradientTransform="translate(1307.8 -1510.6)" gradientUnits="userSpaceOnUse">
	<stop stop-color="#08406F" offset="0"/>
	<stop stop-color="#60C5F5" offset="1"/>
</linearGradient>
<polygon points="484.79 118.61 370.24 118.58 374.05 114.15 481.53 114.15" fill="url(#d)"/>
<linearGradient id="c" x1="-1056.9" x2="-1056.9" y1="1630.1" y2="1625.6" gradientTransform="translate(1307.8 -1510.6)" gradientUnits="userSpaceOnUse">
	<stop stop-color="#08406F" offset="0"/>
	<stop stop-color="#60C5F5" offset="1"/>
</linearGradient>
<path d="m277.05 119.48-51.527-0.028c-0.333 6e-3 -0.81-0.334-0.81-0.334l4.561-4.115h45.054l2.722 4.477z" fill="url(#c)"/>
<linearGradient id="b" x1="-785.72" x2="-785.72" y1="1517.4" y2="1512.5" gradientTransform="translate(1307.8 -1510.6)" gradientUnits="userSpaceOnUse">
	<stop stop-color="#08406F" offset="0"/>
	<stop stop-color="#60C5F5" offset="1"/>
</linearGradient>
<path d="m477.38 1.913h88.652c0.785 0 0.785 0.313 0.785 0.313l-10.572 4.55h-75.164l-3.701-4.863z" fill="url(#b)"/>
<linearGradient id="a" x1="-792.99" x2="-792.99" y1="1541.9" y2="1537.7" gradientTransform="translate(1307.8 -1510.6)" gradientUnits="userSpaceOnUse">
	<stop stop-color="#08406F" offset="0"/>
	<stop stop-color="#60C5F5" offset="1"/>
</linearGradient>
<polygon points="539.04 31.304 492.7 31.304 490.62 27.094 535.93 27.094" fill="url(#a)"/>
<linearGradient id="al" x1="-848.63" x2="-848.63" y1="1585.5" y2="1581.7" gradientTransform="translate(1307.8 -1510.6)" gradientUnits="userSpaceOnUse">
	<stop stop-color="#08406F" offset="0"/>
	<stop stop-color="#60C5F5" offset="1"/>
</linearGradient>
<polygon points="473.59 74.82 448.91 74.82 444.79 71.102 470.4 71.1" fill="url(#al)"/>
<linearGradient id="ak" x1="-817.84" x2="-817.84" y1="1560.3" y2="1554.8" gradientTransform="translate(1307.8 -1510.6)" gradientUnits="userSpaceOnUse">
	<stop stop-color="#08406F" offset="0"/>
	<stop stop-color="#60C5F5" offset="1"/>
</linearGradient>
<path d="M491.8,49.7h-13.58l-1.193-5.548h25.467c0.346-0.043,0.441,0.146,0.441,0.146L491.8,49.7z" fill="url(#ak)"/>
<linearGradient id="aj" x1="-1233.6" x2="-1237.2" y1="1604" y2="1600.5" gradientTransform="translate(1307.8 -1510.6)" gradientUnits="userSpaceOnUse">
	<stop stop-color="#08406F" offset="0"/>
	<stop stop-color="#60C5F5" offset="1"/>
</linearGradient>
<path d="m96.872 70.634-47.89 48.01-2.773-4.313 46.601-46.366c2-2.313 4.675-1.731 4.675-1.731l-0.613 4.4z" fill="url(#aj)"/>
<linearGradient id="ai" x1="-1187.7" x2="-1193.1" y1="1539.6" y2="1539.6" gradientTransform="translate(1307.8 -1510.6)" gradientUnits="userSpaceOnUse">
	<stop stop-color="#08406F" offset="0"/>
	<stop stop-color="#60C5F5" offset="1"/>
</linearGradient>
<path d="m114.71 51.669v-38.476l5.063-12.499s0.303 0.075 0.303 0.571v53.647l-0.315 2.311c0 1e-3 -4.496 0.025-5.051-5.554z" fill="url(#ai)"/>
<linearGradient id="ah" x1="-1134.9" x2="-1141.6" y1="1555.2" y2="1555.2" gradientTransform="translate(1307.8 -1510.6)" gradientUnits="userSpaceOnUse">
	<stop stop-color="#08406F" offset="0"/>
	<stop stop-color="#60C5F5" offset="1"/>
</linearGradient>
<path d="m172.9 88.843s-6.539 1.949-6.621-5.625c-0.08-7.313-0.013-69.292-0.013-69.292l5.214-13.896s0.182-0.027 0.182 0.725l-0.017 81.792 1.255 6.296z" fill="url(#ah)"/>
<linearGradient id="ag" x1="-1052" x2="-1058" y1="1560.4" y2="1560.4" gradientTransform="translate(1307.8 -1510.6)" gradientUnits="userSpaceOnUse">
	<stop stop-color="#08406F" offset="0"/>
	<stop stop-color="#60C5F5" offset="1"/>
</linearGradient>
<path d="m255.81 98.91s-5.889 0.577-5.96-6.088l-0.033-80.063 4.651-12.071s0.583 0.153 0.583 0.907l-0.016 91.14 0.775 6.175z" fill="url(#ag)"/>
<linearGradient id="af" x1="-958.72" x2="-964.42" y1="1539.8" y2="1539.8" gradientTransform="translate(1307.8 -1510.6)" gradientUnits="userSpaceOnUse">
	<stop stop-color="#08406F" offset="0"/>
	<stop stop-color="#60C5F5" offset="1"/>
</linearGradient>
<path d="m349.1 57.425s-4.869 0.452-5.701-4.563v-39.723l4.393-12.147s0.563 0.134 0.563 0.886v49.667l0.745 5.88z" fill="url(#af)"/>
<linearGradient id="ae" x1="-907.04" x2="-912.84" y1="1553.7" y2="1553.7" gradientTransform="translate(1307.8 -1510.6)" gradientUnits="userSpaceOnUse">
	<stop stop-color="#08406F" offset="0"/>
	<stop stop-color="#60C5F5" offset="1"/>
</linearGradient>
<path d="m400.78 85.333s-4.938 0.643-5.797-4.373v-67.706l4.85-12.544s0.268 0.221 0.268 1.708v77.226l0.679 5.689z" fill="url(#ae)"/>
<linearGradient id="ad" x1="-1206.2" x2="-1211.3" y1="1604.2" y2="1604.2" gradientTransform="translate(1307.8 -1510.6)" gradientUnits="userSpaceOnUse">
	<stop stop-color="#08406F" offset="0"/>
	<stop stop-color="#60C5F5" offset="1"/>
</linearGradient>
<path d="m97.759 120.82s-0.833-0.067-0.809-1.147c-1e-3 -0.918-0.078-49.037-0.078-49.037s-1.218-1.577 0.613-4.4c0.547 0.131 3.495 0.727 4.101 4.256v40.369l-3.827 9.959z" fill="url(#ad)"/>
<linearGradient id="ac" x1="-1186.8" x2="-1190.3" y1="1609.1" y2="1605.5" gradientTransform="translate(1307.8 -1510.6)" gradientUnits="userSpaceOnUse">
	<stop stop-color="#08406F" offset="0"/>
	<stop stop-color="#60C5F5" offset="1"/>
</linearGradient>
<path d="m140.84 78.598s-41.489 41.547-41.883 41.938c-0.346 0.379-1.202 0.281-1.202 0.281l3.827-9.963 36.059-36.088s1.34-1.727 3.831-1.637l-0.632 5.469z" fill="url(#ac)"/>
<linearGradient id="aa" x1="-754.56" x2="-758.23" y1="1527.7" y2="1524.1" gradientTransform="translate(1307.8 -1510.6)" gradientUnits="userSpaceOnUse">
	<stop stop-color="#08406F" offset="0"/>
	<stop stop-color="#60C5F5" offset="1"/>
</linearGradient>
<path d="m566.61 3.639-27.566 27.665-3.115-4.211 20.312-20.324 10.582-4.542c0 1e-3 0.349 0.847-0.213 1.412z" fill="url(#aa)"/>
<linearGradient id="z" x1="-1162" x2="-1167.4" y1="1605.1" y2="1605.1" gradientTransform="translate(1307.8 -1510.6)" gradientUnits="userSpaceOnUse">
	<stop stop-color="#08406F" offset="0"/>
	<stop stop-color="#60C5F5" offset="1"/>
</linearGradient>
<path d="m140.92 113.62-0.079-35.026s-1.301-2.633 0.631-5.456c0.593-7e-3 3.7 0.421 4.339 4.146l-1e-3 38.519-4.89-2.183z" fill="url(#z)"/>
<linearGradient id="y" x1="-1159.2" x2="-1163.7" y1="1542.2" y2="1537.7" gradientTransform="translate(1307.8 -1510.6)" gradientUnits="userSpaceOnUse">
	<stop stop-color="#08406F" offset="0"/>
	<stop stop-color="#60C5F5" offset="1"/>
</linearGradient>
<path d="m166.27 13.926-41.462 41.463c-1.987 1.986-5.045 1.836-5.045 1.836-1.795-3.531 0.315-6.065 0.315-6.065s50.503-50.49 50.867-50.87c0.331-0.417 0.541-0.264 0.541-0.264l-5.216 13.9z" fill="url(#y)"/>
<linearGradient id="x" x1="-1092.2" x2="-1096.3" y1="1557.5" y2="1553.4" gradientTransform="translate(1307.8 -1510.6)" gradientUnits="userSpaceOnUse">
	<stop stop-color="#08406F" offset="0"/>
	<stop stop-color="#60C5F5" offset="1"/>
</linearGradient>
<path d="m249.82 12.762-74.376 74.375c-1.55 1.551-2.537 1.702-2.537 1.702-3.781-1.877-1.213-6.254-1.213-6.254s80.652-80.635 81.016-81.015c0.943-1.093 1.761-0.883 1.761-0.883l-4.651 12.075z" fill="url(#x)"/>
<linearGradient id="w" x1="-1003.7" x2="-1008.1" y1="1563" y2="1558.6" gradientTransform="translate(1307.8 -1510.6)" gradientUnits="userSpaceOnUse">
	<stop stop-color="#08406F" offset="0"/>
	<stop stop-color="#60C5F5" offset="1"/>
</linearGradient>
<path d="m343.4 13.139-84.163 84.161c-1.429 1.432-3.424 1.607-3.424 1.607-3.115-1.557-0.776-6.175-0.776-6.175s90.609-90.5 90.974-90.881c0.941-1.098 1.781-0.862 1.781-0.862l-4.392 12.15z" fill="url(#w)"/>
<linearGradient id="v" x1="-931.03" x2="-935.24" y1="1542.1" y2="1537.9" gradientTransform="translate(1307.8 -1510.6)" gradientUnits="userSpaceOnUse">
	<stop stop-color="#08406F" offset="0"/>
	<stop stop-color="#60C5F5" offset="1"/>
</linearGradient>
<path d="m394.98 13.254-42.514 42.514c-1.428 1.432-3.373 1.657-3.373 1.657-2.932-1.908-0.588-5.983-0.588-5.983s49.584-49.69 49.947-50.07c1.047-1.033 1.377-0.66 1.377-0.66l-4.849 12.542z" fill="url(#v)"/>
<linearGradient id="u" x1="-819.26" x2="-822.72" y1="1570.5" y2="1567" gradientTransform="translate(1307.8 -1510.6)" gradientUnits="userSpaceOnUse">
	<stop stop-color="#08406F" offset="0"/>
	<stop stop-color="#60C5F5" offset="1"/>
</linearGradient>
<path d="m502.96 45.453-29.369 29.367-3.188-3.722 21.399-21.398 11.135-5.401s0.414 0.294 0.023 1.154z" fill="url(#u)"/>
<linearGradient id="t" x1="-808.19" x2="-812.15" y1="1614.6" y2="1610.6" gradientTransform="translate(1307.8 -1510.6)" gradientUnits="userSpaceOnUse">
	<stop stop-color="#08406F" offset="0"/>
	<stop stop-color="#60C5F5" offset="1"/>
</linearGradient>
<path d="m513.63 89.96-28.848 28.65-3.258-4.465 20.049-20.049 12.289-5.382c1e-3 6e-3 0.397 0.438-0.232 1.246z" fill="url(#t)"/>
<linearGradient id="s" x1="-866.16" x2="-870.45" y1="1556.8" y2="1552.6" gradientTransform="translate(1307.8 -1510.6)" gradientUnits="userSpaceOnUse">
	<stop stop-color="#08406F" offset="0"/>
	<stop stop-color="#60C5F5" offset="1"/>
</linearGradient>
<path d="m481.08 6.777-76.912 76.913c-1.43 1.433-3.395 1.644-3.395 1.644-2.449-3.092-0.689-5.979-0.689-5.979l77.289-77.44 3.707 4.862z" fill="url(#s)"/>
<linearGradient id="r" x1="-821.14" x2="-826.25" y1="1551.9" y2="1546.8" gradientTransform="translate(1307.8 -1510.6)" gradientUnits="userSpaceOnUse">
	<stop stop-color="#08406F" offset="0"/>
	<stop stop-color="#60C5F5" offset="1"/>
</linearGradient>
<path d="m492.7 31.304-12.676 12.786c-2.771 2.282-1.801 5.608-1.801 5.608-2.25-0.21-3.125-2.065-3.412-3.695-0.285-1.63 0.303-3.422 1.348-4.467l14.469-14.44 2.072 4.208z" fill="url(#r)"/>
<linearGradient id="p" x1="-1122" x2="-1125.7" y1="1627.5" y2="1623.9" gradientTransform="translate(1307.8 -1510.6)" gradientUnits="userSpaceOnUse">
	<stop stop-color="#08406F" offset="0"/>
	<stop stop-color="#60C5F5" offset="1"/>
</linearGradient>
<path d="m142.17 153.32 77.913-77.942s1.437-1.873 4.267-1.771l-0.456 5.223s-78.666 78.506-79.113 78.947l-2.611-4.457z" fill="url(#p)"/>
<linearGradient id="o" x1="-1005" x2="-1008.6" y1="1604.4" y2="1600.7" gradientTransform="translate(1307.8 -1510.6)" gradientUnits="userSpaceOnUse">
	<stop stop-color="#08406F" offset="0"/>
	<stop stop-color="#60C5F5" offset="1"/>
</linearGradient>
<path d="m274.33 115 47.642-47.659s1.438-1.871 4.268-1.771l-0.857 5.621-48.323 48.29-2.73-4.481z" fill="url(#o)"/>
<linearGradient id="n" x1="-958.11" x2="-961.62" y1="1608.3" y2="1604.8" gradientTransform="translate(1307.8 -1510.6)" gradientUnits="userSpaceOnUse">
	<stop stop-color="#08406F" offset="0"/>
	<stop stop-color="#60C5F5" offset="1"/>
</linearGradient>
<path d="m330.12 110.25 36.779-36.789c0.842-0.843 1.779-1.771 3.396-1.771l-0.107 5.501-43.08 43.042c-0.57 0.563-1.02 0.398-1.02 0.398l4.032-10.381z" fill="url(#n)"/>
<linearGradient id="m" x1="-937.19" x2="-941.62" y1="1628.9" y2="1624.4" gradientTransform="translate(1307.8 -1510.6)" gradientUnits="userSpaceOnUse">
	<stop stop-color="#08406F" offset="0"/>
	<stop stop-color="#60C5F5" offset="1"/>
</linearGradient>
<path d="m361.98 118.06 7.25-7.281 5.557 2.326-0.734 1.047-3.813 4.437-0.271 0.301h-7.721c-0.34 0.015-0.52-0.271-0.52-0.271s-0.156-0.149 0.252-0.559z" fill="url(#m)"/>
<linearGradient id="l" x1="-1078.5" x2="-1084.6" y1="1607" y2="1607" gradientTransform="translate(1307.8 -1510.6)" gradientUnits="userSpaceOnUse">
	<stop stop-color="#08406F" offset="0"/>
	<stop stop-color="#60C5F5" offset="1"/>
</linearGradient>
<path d="m223.98 117.34-0.09-38.514s-1.738-2.016 0.457-5.223c0.673-0.01 4.202 0.478 4.928 4.707l-1e-3 36.694-4.561 4.115c0 3e-3 -0.73-0.474-0.733-1.779z" fill="url(#l)"/>
<linearGradient id="k" x1="-977.7" x2="-982.91" y1="1603.7" y2="1603.7" gradientTransform="translate(1307.8 -1510.6)" gradientUnits="userSpaceOnUse">
	<stop stop-color="#08406F" offset="0"/>
	<stop stop-color="#60C5F5" offset="1"/>
</linearGradient>
<path d="m325.45 119.94-0.08-48.75s-1.471-2.681 0.871-5.621c0.596-9e-3 3.244 0.472 3.885 4.702v39.976l-4.027 10.39c-5e-3 -1e-3 -0.606-0.143-0.649-0.697z" fill="url(#k)"/>
<linearGradient id="j" x1="-933.03" x2="-939.27" y1="1603" y2="1603" gradientTransform="translate(1307.8 -1510.6)" gradientUnits="userSpaceOnUse">
	<stop stop-color="#08406F" offset="0"/>
	<stop stop-color="#60C5F5" offset="1"/>
</linearGradient>
<path d="m369.23 110.77v-32.628s-2.113-3.379 1.064-6.456c0.693-8e-3 4.131 0.24 4.492 4.323v37.087l-5.556-2.326z" fill="url(#j)"/>
<linearGradient id="i" x1="-867.36" x2="-871.78" y1="1594.9" y2="1590.5" gradientTransform="translate(1307.8 -1510.6)" gradientUnits="userSpaceOnUse">
	<stop stop-color="#08406F" offset="0"/>
	<stop stop-color="#60C5F5" offset="1"/>
</linearGradient>
<path d="m448.91 74.82-13.451 13.479-3.844 4.81c-3.896-2.458-1.953-6.874-0.912-7.925l14.088-14.079 4.119 3.715z" fill="url(#i)"/>
<linearGradient id="h" x1="-835.08" x2="-835.08" y1="1604.7" y2="1598.9" gradientTransform="translate(1307.8 -1510.6)" gradientUnits="userSpaceOnUse">
	<stop stop-color="#08406F" offset="0"/>
	<stop stop-color="#60C5F5" offset="1"/>
</linearGradient>
<path d="m501.58 94.099h-66.391c-2.502-0.197-3.574-0.993-3.574-0.993-0.012-3.571 3.844-4.81 3.844-4.81l77.746 2e-3c0.543-2e-3 0.662 0.422 0.662 0.422l-12.287 5.379z" fill="url(#h)"/>
<path d="m199.03 180.48c3.235 0 5.857 2.921 5.857 6.156h-17.971v-58.281h5.958v52.125h6.156z" fill="#C0392B"/>
<path d="m215.71 186.64c-3.235 0-6.057-2.923-6.057-6.156v-40.459h6.057v46.615z" fill="#C0392B"/>

	
		<path d="m233.68 140.03h-6.157v-11.666h-6.055v58.281h12.212c3.235 0 5.857-2.923 5.857-6.156v-34.75c0-3.235-2.622-5.709-5.857-5.709zm-0.1 40.459h-6.057v-34.65h6.057v34.65z" fill="#C0392B"/>
	


	<path d="m246.09 128h48.477s2.755 0.446 3.648 2.085c0.893 1.64 7.894 16.084 8.563 17.722 0.67 1.64 0.074 2.83-0.895 4.098-0.969 1.266-11.021 12.732-11.021 12.732l12.286 21.645h-18.541s-14.521-24.848-15.339-26.038c-0.82-1.19-0.82-3.128 0.967-3.128h6.33c0.818 0 1.191-0.148 2.159-0.967 0.968-0.82 5.957-6.853 5.957-6.853s-2.383-6.403-2.904-7.595-1.639-1.563-2.68-1.563h-18.689v46.143h-18.319l1e-3 -58.281z" fill="#231F20"/>
	<path d="m288.32 186.79-0.145-0.248c-8e-3 -0.012-3.629-6.213-7.359-12.572-3.727-6.349-7.584-12.895-7.959-13.435-0.387-0.568-0.614-1.249-0.616-1.916 0-0.491 0.129-0.991 0.473-1.384 0.344-0.394 0.887-0.619 1.522-0.613 1.789 0 5.511 0 6.33 2e-3 0.746-0.025 0.852-0.048 1.837-0.85 0.404-0.336 1.929-2.08 3.282-3.676 1.053-1.238 2.031-2.416 2.427-2.892-0.46-1.233-2.351-6.289-2.793-7.298-0.421-0.958-1.276-1.252-2.22-1.264h-9.737-8.453v46.144h-19.321v-59.282h0.502 48.475c2.065-0.057 3.211 0.618 4.088 2.348 0.917 1.688 7.892 16.073 8.589 17.771 0.217 0.535 0.32 1.048 0.318 1.537 0 1.179-0.584 2.135-1.279 3.054-0.914 1.193-9.293 10.762-10.808 12.49l12.536 22.083-19.689 1e-3zm17.969-1.002-12.035-21.208 0.232-0.265c0.012-0.015 10.068-11.488 10.999-12.705 0.665-0.873 1.079-1.625 1.077-2.447-2e-3 -0.35-0.071-0.727-0.248-1.158-0.645-1.579-7.671-16.082-8.54-17.671-0.91-1.55-1.252-1.767-3.209-1.825h-47.975v57.279h17.317v-46.143h0.502 18.689c1.141-0.013 2.518 0.438 3.138 1.862 0.538 1.231 2.91 7.614 2.914 7.621l0.101 0.271-0.184 0.224c-0.023 0.021-4.947 5.995-6.02 6.915-0.95 0.834-1.591 1.107-2.482 1.086-0.819-2e-3 -4.541-2e-3 -6.33-2e-3 -0.812 0.045-0.939 0.354-0.996 0.997-2e-3 0.427 0.165 0.952 0.441 1.348 0.808 1.181 13.699 23.231 15.214 25.821h17.395z" fill="#fff"/>


	<path d="m432.84 128h48.475c2.012 0 2.756 0.446 3.648 2.085 0.893 1.64 7.895 16.084 8.563 17.722 0.672 1.64 0.074 2.83-0.893 4.098-0.969 1.266-11.021 12.732-11.021 12.732l12.287 21.645h-18.543s-14.52-24.848-15.34-26.038c-0.818-1.19-0.818-3.128 0.969-3.128s5.512 0 6.328 0c0.82 0 1.191-0.148 2.16-0.967 0.969-0.82 5.957-6.853 5.957-6.853s-2.383-6.403-2.904-7.595c-0.52-1.191-1.637-1.563-2.68-1.563s-18.689 0-18.689 0v46.143h-18.318v-58.281h1e-3z" fill="#231F20"/>
	<path d="m475.06 186.78-0.143-0.248c-0.01-0.013-3.631-6.211-7.361-12.571-3.727-6.348-7.584-12.893-7.959-13.435-0.387-0.567-0.613-1.249-0.615-1.917-4e-3 -0.489 0.129-0.989 0.473-1.383 0.342-0.395 0.885-0.617 1.523-0.612h6.328c0.746-0.022 0.852-0.047 1.838-0.849 0.404-0.338 1.93-2.08 3.283-3.676 1.051-1.238 2.031-2.416 2.426-2.892-0.459-1.229-2.35-6.288-2.793-7.296-0.422-0.961-1.277-1.254-2.221-1.266h-9.736-8.453v46.143h-19.32v-59.28h0.502 48.477c2.064-0.058 3.209 0.617 4.086 2.345 0.92 1.688 7.891 16.075 8.588 17.771 0.221 0.538 0.32 1.051 0.32 1.54-2e-3 1.177-0.584 2.134-1.279 3.052-0.914 1.191-9.293 10.762-10.809 12.49l12.535 22.083h-19.69v1e-3zm17.971-1.001-12.037-21.207 0.236-0.266c8e-3 -0.016 10.066-11.488 10.996-12.705 0.662-0.873 1.078-1.627 1.076-2.446 0-0.353-0.07-0.728-0.248-1.16-0.643-1.577-7.668-16.08-8.539-17.67-0.908-1.55-1.254-1.767-3.209-1.824-1.889-2e-3 -42.963-2e-3 -47.975 0v57.278h17.314v-46.143h0.502 18.689c1.141-0.013 2.52 0.438 3.139 1.862 0.537 1.233 2.91 7.613 2.914 7.621l0.102 0.271-0.184 0.225c-0.021 0.021-4.949 5.992-6.02 6.914-0.951 0.836-1.59 1.109-2.482 1.084h-6.328c-0.814 0.045-0.941 0.353-0.998 0.996-4e-3 0.43 0.164 0.953 0.441 1.35 0.809 1.18 13.697 23.227 15.215 25.82h17.396z" fill="#fff"/>


	<path d="m310.5 186.29v-38.549c0-1.266 0.297-1.786 0.893-3.053 0.598-1.267 7.447-13.851 8.193-15.041 0.744-1.191 1.787-1.639 3.797-1.639s48.24 0 48.24 0v12.063h-36.252s-1.936 0.076-2.83 2.012-3.723 8.787-3.723 8.787h36.711v12.138h-36.711v11.021h42.805v12.262h-61.123z" fill="#231F20"/>
	<path d="m310.5 186.79v-0.5h0.5-0.5v0.5h-0.5v-0.5-38.549c-8e-3 -1.356 0.355-2.036 0.938-3.266 0.629-1.324 7.443-13.847 8.223-15.095 0.822-1.356 2.164-1.897 4.223-1.874h48.24 0.498v13.063h-0.498-36.252c-1.342 0.082-1.42-0.131-2.377 1.722-0.711 1.539-2.688 6.288-3.43 8.077h36.465v13.139l-36.711-2e-3v10.021h42.805v13.263l-61.624 1e-3zm60.621-1.002v-11.26h-42.805v-12.022h36.713v-11.137h-36.961l0.285-0.691c2e-3 -5e-3 2.828-6.845 3.732-8.805 0.832-2.019 1.945-2.384 3.285-2.302h35.752v-11.063h-47.742c-1.963 0.024-2.707 0.378-3.373 1.402-0.711 1.135-7.6 13.782-8.164 14.989-0.607 1.303-0.836 1.666-0.846 2.842v38.046l60.124 1e-3z" fill="#fff"/>


	
		<path d="m411.84 146.32v-18.318h-21.855v18.318h-18.367v21.407h18.367v18.555h21.855v-18.555h17.945v-21.407h-17.945zm-11.019 17.164c-3.559 0-6.441-2.884-6.441-6.441s2.883-6.44 6.441-6.44c3.557 0 6.439 2.884 6.439 6.44 0 3.557-2.883 6.441-6.439 6.441z" fill="#231F20"/>
	
	
		<path d="m389.49 186.79v-18.555h-18.367v-22.409h18.367v-18.318h22.856v18.318h17.944v22.409l-17.946-3e-3v18.558h-22.854zm-17.368-19.556h18.369v18.554h20.854v-18.554h17.944v-20.407h-17.443v-0.5h0.5-0.5v0.5h-0.501v-18.319h-20.854v18.319l-18.369-2e-3v20.409zm28.705-3.244v-1c3.279-6e-3 5.932-2.658 5.938-5.939-6e-3 -3.281-2.658-5.936-5.938-5.941-3.283 6e-3 -5.936 2.66-5.941 5.941 6e-3 3.281 2.658 5.934 5.941 5.941v0.998c-3.836 0-6.941-3.107-6.944-6.939 3e-3 -3.834 3.108-6.94 6.944-6.942 3.832 2e-3 6.938 3.108 6.938 6.942 0 3.832-3.106 6.939-6.938 6.942v-3e-3z" fill="#fff"/>
	

<polygon points="407.08 173.58 394.5 173.58 400.68 179.76" fill="#fff"/>
<polygon points="417.39 150.68 417.39 163.26 423.57 157.08" fill="#fff"/>
<polygon points="384.18 163.26 384.18 150.68 378 156.86" fill="#fff"/>

	
		<path d="m543.2 128h-35.049c-6.496 0-11.766 5.268-11.766 11.766v34.75c0 6.498 5.27 11.766 11.766 11.766h35.049c6.498 0 11.766-5.268 11.766-11.766v-34.75c-3e-3 -6.499-5.268-11.766-11.766-11.766zm-17.526 46.663c-9.705 0-17.574-7.868-17.574-17.573s7.869-17.572 17.574-17.572 17.574 7.867 17.574 17.572-7.869 17.573-17.574 17.573z" fill="#231F20"/>
	
	
		<path d="m508.15 186.78c-6.772 0-12.266-5.491-12.266-12.266v-34.749c0-6.776 5.493-12.266 12.266-12.268h35.05v1h-35.05c-6.22 0.014-11.255 5.046-11.266 11.268v34.749c0.011 6.222 5.046 11.254 11.266 11.265h35.05c6.221-0.011 11.253-5.043 11.266-11.265v-34.749c-2e-3 -6.224-5.045-11.268-11.266-11.268v-1c6.774 2e-3 12.262 5.493 12.264 12.268l2e-3 34.749c-2e-3 6.774-5.493 12.266-12.266 12.266h-35.05zm-0.551-29.691c0-9.981 8.094-18.071 18.073-18.073 9.982 2e-3 18.074 8.092 18.076 18.073-2e-3 9.982-8.094 18.073-18.076 18.073v-1c9.43-0.018 17.059-7.646 17.075-17.073-0.017-9.428-7.646-17.056-17.075-17.072-9.43 0.017-17.056 7.645-17.072 17.072 0.017 9.428 7.643 17.056 17.072 17.073v1c-9.979 0-18.073-8.091-18.073-18.073z" fill="#fff"/>
	

<rect x="209.65" y="128.36" width="6.057" height="6.269" fill="#C0392B"/>
<polygon points="394.5 140.37 407.08 140.37 400.9 134.19" fill="#fff"/>
</svg>
