<?xml version="1.0" encoding="UTF-8"?>
<!DOCTYPE svg  PUBLIC '-//W3C//DTD SVG 1.1//EN'  'http://www.w3.org/Graphics/SVG/1.1/DTD/svg11.dtd'>
<svg width="641.88px" height="266.22px" enable-background="new -54.704 -17.335 641.883 266.225" version="1.1" viewBox="-54.704 -17.335 641.88 266.22" xml:space="preserve" xmlns="http://www.w3.org/2000/svg">

	
		<linearGradient id="g" x1="-387.7" x2="-387.7" y1="422.88" y2="243.83" gradientTransform="matrix(1 0 0 -1 654 409.23)" gradientUnits="userSpaceOnUse">
		<stop stop-color="#CBECFC" offset=".0051"/>
		<stop stop-color="#BBE3F7" offset=".401"/>
		<stop stop-color="#2793C8" offset=".5431"/>
		<stop stop-color="#1E8EC5" offset="1"/>
	</linearGradient>
	<polygon points="583.63 -13.657 487.36 -13.657 398.41 77.391 398.41 -13.657 341.53 44.391 341.53 -13.657 236.42 91.724 236.42 -13.657 138.21 84.724 138.21 -13.657 78.131 44.724 78.131 -13.657 -51.036 113.39 -3.703 113.39 54.464 53.224 54.464 113.39 106.38 61.474 106.38 113.39 57.673 162.1 106.96 162.1 204.15 64.912 204.15 113.39 256.96 113.39 315.8 54.558 315.8 113.39 366.38 62.808 366.38 113.39 488.63 113.39 520.63 81.391 428.96 81.391 449.46 61.891 480.3 61.891 510.71 31.474 482.63 31.474 503.34 12.766 557.96 12.766" fill="url(#g)"/>
	<linearGradient id="f" x1="266.24" x2="266.24" y1="-17.721" y2="163.61" gradientUnits="userSpaceOnUse">
		<stop stop-color="#2A76A0" offset="0"/>
		<stop stop-color="#223756" offset="1"/>
	</linearGradient>
	<path d="m54.048 163.6 50.833-50.83v-47.674l-51.917 51.914-2e-3 -60.075-56.028 57.956h-51.638l134.34-132.13v58.412l60.083-58.38v98.302l98.209-98.378-2e-3 105.38 105.1-105.38v58.002l56.887-58.05v91.042l86.811-88.866h96.908v1.502-1.502h3.549l-28.582 29.423h-54.684l-17.385 15.708h27.807l-33.419 33.418-30.855-2e-3 -17.35 16.504h91.537l-34.998 34.998h-124.37v-48.461l-50.583 50.583v-58.833l-56.712 56.711h-54.934l-2e-3 -46.355-95.063 95.064h-53.537zm53.833-49.588-46.585 46.586h45.046l99.309-99.312v50.602h50.69l60.957-60.954v58.833l50.582-50.578v52.702h120.13l28.998-29h-91.795l23.65-22.5h30.813l27.416-27.417h-28.357l24.025-21.707h54.568l22.752-23.422-92.094-3e-3 -91.074 93.229v-91.052l-56.887 58.05v-58.098l-105.1 105.38v-105.38l-98.208 98.382v-98.461l-60.082 58.378v-58.348l-124 121.97h43.033l60.303-62.376v60.257l51.917-51.914-1e-3 56.157z" fill="url(#f)"/>


	
		<path d="m186.13 157.06v-47.333l-65.833 64h48.999v22.334h16.834v-22.334h18.833l17.834-16.667h-36.667zm-16.834 0h-9.999l9.999-10.999v10.999z" fill="#E2E2E2"/>
	
	
		<linearGradient id="e" x1="171.58" x2="171.58" y1="106.78" y2="197.11" gradientUnits="userSpaceOnUse">
			<stop stop-color="#9CA3A6" offset=".0051"/>
			<stop stop-color="#454547" offset="1"/>
		</linearGradient>
		<path d="m168.3 197.06v-22.334h-50.464l69.299-67.368v48.7h38.201l-19.975 18.668-18.226-2e-3v22.336h-18.835zm-45.535-24.336h47.536v22.335h14.833v-22.335h19.438l15.692-14.666h-34.13v-0.999h1.001-1.001v0.999h-1v-45.966l-62.369 60.632zm34.275-14.666 13.262-14.586v14.586h-13.262zm12.261-0.999v-1.001 1.001zm-7.738-1.001h6.737v-7.413l-6.737 7.413z" fill="url(#e)"/>
	


	
		
			
				<linearGradient id="d" x1="-429.72" x2="-429.72" y1="284.82" y2="154.63" gradientTransform="matrix(1 0 0 -1 654 409.23)" gradientUnits="userSpaceOnUse">
				<stop stop-color="#CBECFC" offset=".0051"/>
				<stop stop-color="#BBE3F7" offset=".401"/>
				<stop stop-color="#2793C8" offset=".5431"/>
				<stop stop-color="#1E8EC5" offset="1"/>
			</linearGradient>
			<polygon points="163.21 247.39 285.34 127.26 285.34 217.39 263.46 217.39 263.46 183.39 201.21 247.39" fill="url(#d)"/>
		
		
			
				<linearGradient id="c" x1="223.19" x2="223.19" y1="122.28" y2="219.61" gradientUnits="userSpaceOnUse">
					<stop stop-color="#2A76A0" offset="0"/>
					<stop stop-color="#223756" offset="1"/>
				</linearGradient>
				<path d="m163.22 248.89v-1.5l1.05 1.068-1.05-1.068v1.5h-3.667l127.29-125.21v95.208h-24.873v-31.807l-60.118 61.808h-38.631zm3.661-3 33.701-2e-3 64.384-66.194v36.195h18.877v-85.046l-116.96 115.05z" fill="url(#c)"/>
			
		
	


	
		
			
				<linearGradient id="b" x1="-296.29" x2="-296.29" y1="284.84" y2="153.84" gradientTransform="matrix(1 0 0 -1 654 409.23)" gradientUnits="userSpaceOnUse">
				<stop stop-color="#CBECFC" offset=".0051"/>
				<stop stop-color="#BBE3F7" offset=".401"/>
				<stop stop-color="#2793C8" offset=".5431"/>
				<stop stop-color="#1E8EC5" offset="1"/>
			</linearGradient>
			<polygon points="314.46 127.26 295.96 147.14 295.96 217.39 419.46 217.39 400.96 200.39 347.46 200.39 347.46 127.26 328.21 147.14 328.21 200.39 314.46 200.39" fill="url(#b)"/>
		
		
			
				<linearGradient id="a" x1="358.89" x2="358.89" y1="122.28" y2="219.61" gradientUnits="userSpaceOnUse">
					<stop stop-color="#2A76A0" offset="0"/>
					<stop stop-color="#223756" offset="1"/>
				</linearGradient>
				<path d="m294.46 218.89v-72.342l18.899-20.307 2.6-2.789v75.437h10.75v-52.357l22.248-22.97v75.329h52.586l21.768 19.999h-128.85zm2.998-71.16v68.16h118.15l-15.234-14.001h-54.414l-2e-3 -70.919-16.248 16.777v54.142h-16.75v-70.813l-15.502 16.654z" fill="url(#a)"/>
			
		
	

</svg>
