<?xml version="1.0" encoding="UTF-8"?>
<!DOCTYPE svg  PUBLIC '-//W3C//DTD SVG 1.1//EN'  'http://www.w3.org/Graphics/SVG/1.1/DTD/svg11.dtd'>
<svg enable-background="new 0 0 685 182" version="1.1" viewBox="0 0 685 182" xml:space="preserve" xmlns="http://www.w3.org/2000/svg">

	
		<linearGradient id="i" x1="-115.67" x2="-115.67" y1="311.5" y2="238" gradientTransform="matrix(1 0 0 -1 654 325)" gradientUnits="userSpaceOnUse">
		<stop stop-color="#7ED3F7" offset="0"/>
		<stop stop-color="#003D7E" offset="1"/>
	</linearGradient>
	<path d="m503.08 14.5c-3.728 0-6.75 3.855-6.75 7.583v58.834c0 3.728 3.022 6.915 6.75 6.915h77.25v-20.5h-61v-32.665h61v-20.167h-77.25z" fill="url(#i)"/>
	<path d="m503.08 88.834c-4.317-0.017-7.745-3.648-7.751-7.917v-58.833c0.031-4.223 3.293-8.512 7.751-8.584v2c-1.508-2e-3 -2.937 0.785-4.014 2.043-1.074 1.252-1.742 2.948-1.738 4.541v58.833c6e-3 3.188 2.611 5.908 5.751 5.915h76.249v-18.501h-61v-34.665h61v-18.166h-76.249v-2h78.249v22.166h-61v30.666h61v22.503l-78.248-1e-3z"/>


	
		<linearGradient id="h" x1="-374.17" x2="-374.17" y1="224.5" y2="151.5" gradientTransform="matrix(1 0 0 -1 654 325)" gradientUnits="userSpaceOnUse">
		<stop stop-color="#7ED3F7" offset="0"/>
		<stop stop-color="#003D7E" offset="1"/>
	</linearGradient>
	<path d="M235,107.084c0-3.729,3.022-7.584,6.75-7.584h83.584v73.333h-23.5v-53.167h-10.167v53.167H268   v-53.167h-10.5v53.167h-23.167L235,107.084z" fill="url(#h)"/>
	<path d="m267 173.83v-53.17h-8.501v53.17h-25.177l0.678-66.75h-2e-3c0.031-4.224 3.294-8.513 7.752-8.585h84.583v75.333h-25.502v-53.166h-8.166v53.168h-25.665zm35.834-55.168-2e-3 53.167h21.501v-71.332h-82.582c-1.509-4e-3 -2.937 0.784-4.014 2.043-1.075 1.251-1.743 2.947-1.736 4.54h-1l0.998 0.011-0.656 64.738h21.157v-53.167h12.5v53.167h21.666v-53.167h12.168z"/>


	
		<linearGradient id="g" x1="-177.17" x2="-177.17" y1="224.5" y2="151.5" gradientTransform="matrix(1 0 0 -1 654 325)" gradientUnits="userSpaceOnUse">
		<stop stop-color="#7ED3F7" offset="0"/>
		<stop stop-color="#003D7E" offset="1"/>
	</linearGradient>
	<path d="M432,107.084c0-3.729,3.021-7.584,6.75-7.584h83.584v73.333h-23.5v-53.167h-10.167v53.167H465   v-53.167h-10.5v53.167h-23.166L432,107.084z" fill="url(#g)"/>
	<path d="m464 173.83v-53.17h-8.499v53.17h-25.177l0.677-66.761c0.036-4.219 3.297-8.502 7.75-8.574h84.584v75.333h-25.5v-53.166h-8.167v53.168h-25.668zm35.834-55.168v53.167h21.501v-71.332h-82.584c-1.507-4e-3 -2.936 0.784-4.014 2.043-1.073 1.251-1.741 2.947-1.736 4.54h-1l1 0.011-0.656 64.738h21.156v-53.167h12.5l-2e-3 53.167h21.668v-53.167h12.167z"/>


	
		<linearGradient id="f" x1="-626.75" x2="-626.75" y1="311.5" y2="238" gradientTransform="matrix(1 0 0 -1 654 325)" gradientUnits="userSpaceOnUse">
		<stop stop-color="#7ED3F7" offset="0"/>
		<stop stop-color="#003D7E" offset="1"/>
	</linearGradient>
	<rect x="15.167" y="14.5" width="24.167" height="24.834" fill="url(#f)"/>
	<path d="m14.166 40.334v-26.834h26.167v26.834h-26.167zm25.167-1v-1 1zm-23.167-1h22.168v-22.835h-22.168v22.835z"/>


	
		<linearGradient id="e" x1="-270.75" x2="-270.75" y1="311.5" y2="238" gradientTransform="matrix(1 0 0 -1 654 325)" gradientUnits="userSpaceOnUse">
		<stop stop-color="#7ED3F7" offset="0"/>
		<stop stop-color="#003D7E" offset="1"/>
	</linearGradient>
	<rect x="371.17" y="14.5" width="24.167" height="24.834" fill="url(#e)"/>
	<path d="m370.17 40.334v-26.834h26.167v26.834h-26.167zm25.167-1v-1 1zm-23.166-1h22.166v-22.835h-22.166v22.835z"/>


	
		<linearGradient id="d" x1="-308.75" x2="-308.75" y1="224.5" y2="151.5" gradientTransform="matrix(1 0 0 -1 654 325)" gradientUnits="userSpaceOnUse">
		<stop stop-color="#7ED3F7" offset="0"/>
		<stop stop-color="#003D7E" offset="1"/>
	</linearGradient>
	<rect x="333.17" y="99.5" width="24.168" height="24.834" fill="url(#d)"/>
	<path d="m332.17 125.33v-26.835h26.167v26.835h-26.167zm25.169-1v-1.002 1.002zm-23.17-1.002h22.17v-22.832h-22.17v22.832z"/>


	
		<linearGradient id="c" x1="-593.42" x2="-593.42" y1="311.5" y2="238" gradientTransform="matrix(1 0 0 -1 654 325)" gradientUnits="userSpaceOnUse">
		<stop stop-color="#7ED3F7" offset="0"/>
		<stop stop-color="#003D7E" offset="1"/>
	</linearGradient>
	<polygon points="15.5 87.833 74.167 14.5 105.67 14.5 105.67 87.833 54.667 87.833 69.5 68.5 81.667 68.5 81.667 39.333 43 87.833" fill="url(#c)"/>
	<path d="m52.636 88.832 16.37-21.334h11.66v-25.308l-37.184 46.642h-27.983v-0.999l0.781 0.623-0.781-0.623v0.999h-2.08l60.267-75.333h32.98v75.333h-54.03zm-10.119-1.999 40.149-50.357v33.024l-12.675-3e-3 -13.298 17.334h47.973v-71.332h-30.02l-57.067 71.334h24.938z"/>


	
		<linearGradient id="b" x1="-274.92" x2="-274.92" y1="224.5" y2="151.5" gradientTransform="matrix(1 0 0 -1 654 325)" gradientUnits="userSpaceOnUse">
		<stop stop-color="#7ED3F7" offset="0"/>
		<stop stop-color="#003D7E" offset="1"/>
	</linearGradient>
	<polygon points="334 172.83 392.67 99.5 424.17 99.5 424.17 172.83 373.17 172.83 388 153.5 400.17 153.5 400.17 124.33 361.5 172.83" fill="url(#b)"/>
	<path d="m371.14 173.83 16.371-21.334h11.657v-25.307l-37.183 46.641h-27.981v-1l0.781 0.624-0.781-0.624v1h-2.081l60.265-75.333h32.981v75.333h-54.029zm-10.118-1.999 40.148-50.356v33.023l-12.674-2e-3 -13.3 17.332h47.973v-71.331h-30.019l-57.067 71.334h24.939z"/>


	
		<linearGradient id="a" x1="-303.92" x2="-303.92" y1="311.5" y2="238" gradientTransform="matrix(1 0 0 -1 654 325)" gradientUnits="userSpaceOnUse">
		<stop stop-color="#7ED3F7" offset="0"/>
		<stop stop-color="#003D7E" offset="1"/>
	</linearGradient>
	<polygon points="395.17 87.833 336.5 14.5 305 14.5 305 87.833 356 87.833 341.17 68.5 329 68.5 329 39.333 367.67 87.833" fill="url(#a)"/>
	<path d="m367.18 88.832-37.185-46.64v25.306h11.66l16.37 21.334h-54.03v-75.333h32.98l58.967 73.708-0.781 0.626v-1 1l0.781-0.626 1.302 1.625h-30.064zm0.963-1.999h24.938l-57.067-71.334h-30.02v71.332h47.973l-13.297-17.331h-12.675v-33.026l40.148 50.359z"/>


	
		
			<linearGradient id="o" x1="-498.5" x2="-498.5" y1="311.85" y2="236.84" gradientTransform="matrix(1 0 0 -1 654 325)" gradientUnits="userSpaceOnUse">
			<stop stop-color="#7ED3F7" offset="0"/>
			<stop stop-color="#003D7E" offset="1"/>
		</linearGradient>
		<path d="m190.08 13.999h-76.416v47.667h23.666v-26.166h36.333v33.166l-59.999 2e-3v19.665h76.416c4.022-7e-3 7.247-3.417 7.249-7.414v-58.835c-0.015-3.977-3.157-8.048-7.249-8.085z" fill="url(#o)"/>
	
	
		<path d="m112.67 89.332v-21.664l59.999-2e-3v-31.167h-34.333v26.167h-25.666v-49.667h77.416v0.999l0.01-0.999c4.793 0.101 8.201 4.625 8.238 9.085v58.835c-6e-3 4.534-3.64 8.395-8.249 8.413h-77.415zm2-2h75.414c3.439-4e-3 6.254-2.954 6.252-6.413v-58.831c6e-3 -3.498-2.871-7.095-6.258-7.089h-75.408v45.667h21.666v-26.167h38.333v35.167h-59.999v17.666z"/>
	


	
		<linearGradient id="n" x1="-403" x2="-403" y1="311.5" y2="238" gradientTransform="matrix(1 0 0 -1 654 325)" gradientUnits="userSpaceOnUse">
		<stop stop-color="#7ED3F7" offset="0"/>
		<stop stop-color="#003D7E" offset="1"/>
	</linearGradient>
	<polygon points="206 14.5 206 87.833 238.83 87.833 296 14.5 268.67 14.5 229.17 62.334 229.17 14.5" fill="url(#n)"/>
	<path d="m205 88.834v-75.334h25.169v46.049l38.027-46.049h29.853l-58.726 75.334h-34.323zm2-2.002h31.346l55.606-71.332h-24.813l-40.972 49.614v-49.614h-21.166l-1e-3 71.332zm-0.999-71.332v-1 1z"/>


	
		<linearGradient id="m" x1="-369.75" x2="-369.75" y1="311.5" y2="238" gradientTransform="matrix(1 0 0 -1 654 325)" gradientUnits="userSpaceOnUse">
		<stop stop-color="#7ED3F7" offset="0"/>
		<stop stop-color="#003D7E" offset="1"/>
	</linearGradient>
	<rect x="272.17" y="62.667" width="24.167" height="25.166" fill="url(#m)"/>
	<path d="m271.17 88.834v-27.169h26.167v27.169h-26.167zm25.167-1.002v-1 1zm-23.167-1h22.167v-23.166h-22.167v23.166z"/>


	
		<linearGradient id="l" x1="-208.33" x2="-208.33" y1="311.5" y2="238" gradientTransform="matrix(1 0 0 -1 654 325)" gradientUnits="userSpaceOnUse">
		<stop stop-color="#7ED3F7" offset="0"/>
		<stop stop-color="#003D7E" offset="1"/>
	</linearGradient>
	<polygon points="403.83 87.833 403.83 14.5 431.67 14.5 463.83 53.667 463.83 14.5 487.5 14.5 487.5 87.833 462.17 87.833 427 45.167 427 87.833" fill="url(#l)"/>
	<path d="m461.7 88.834-33.695-40.881v40.881h-24.167v-1.002h1-1v1.002h-1v-75.334h29.305l30.695 37.372v-37.372h25.667v75.334h-26.805zm-56.862-2.002 21.167-3e-3v-44.45l36.639 44.45h23.859v-71.329h-21.665v40.961l-33.639-40.961h-26.361v71.332z"/>


	
		<linearGradient id="k" x1="-24" x2="-24" y1="311.5" y2="238" gradientTransform="matrix(1 0 0 -1 654 325)" gradientUnits="userSpaceOnUse">
		<stop stop-color="#7ED3F7" offset="0"/>
		<stop stop-color="#003D7E" offset="1"/>
	</linearGradient>
	<polygon points="588.17 14.5 588.17 87.833 671.83 87.833 671.83 68.167 611.67 68.167 611.67 60.667 671.83 60.667 671.83 40.5 611.5 40.5 611.5 34.833 671.83 34.833 671.83 14.5" fill="url(#k)"/>
	<path d="m587.17 88.834v-75.334h85.667v22.333h-60.335v3.667h60.335v22.167h-60.168v5.499h60.168v21.668h-85.667zm2-2.005h81.666v-17.663h-60.166v-9.501h60.166v-18.165h-60.333v-7.667h60.333v-18.333h-81.666v71.329zm-1-71.329v-1 1z"/>


	
		<linearGradient id="j" x1="-82" x2="-82" y1="224.5" y2="151.5" gradientTransform="matrix(1 0 0 -1 654 325)" gradientUnits="userSpaceOnUse">
		<stop stop-color="#7ED3F7" offset="0"/>
		<stop stop-color="#003D7E" offset="1"/>
	</linearGradient>
	<polygon points="530.17 99.5 530.17 172.83 613.83 172.83 613.83 153.17 553.67 153.17 553.67 145.67 613.83 145.67 613.83 125.5 553.5 125.5 553.5 119.83 613.83 119.83 613.83 99.5" fill="url(#j)"/>
	<path d="m529.16 173.83v-75.335h85.669v22.336l-60.334-2e-3v3.667h60.334v22.167l-60.169-3e-3v5.502h60.169v21.668h-85.669zm2-2.001h81.668v-17.667h-60.167v-9.499h60.167v-18.167h-60.333v-7.667h60.332v-18.332h-81.668l1e-3 71.332zm-1-71.332v-1 1z"/>

</svg>
