<?xml version="1.0" encoding="UTF-8"?>
<!DOCTYPE svg  PUBLIC '-//W3C//DTD SVG 1.1//EN'  'http://www.w3.org/Graphics/SVG/1.1/DTD/svg11.dtd'>
<svg enable-background="new 0 0 566.932 90.32" version="1.1" viewBox="0 0 566.93 90.32" xml:space="preserve" xmlns="http://www.w3.org/2000/svg">


	
		
		<g transform="matrix(-1 0 0 1 572.25 .00013299)">
			
				<path d="m80.218 89.959c-8.256-0.161-16.444-0.408-24.631-1.503-7.381-0.984-15.09-1.993-22.254-4.029-5.428-1.542-10.057-3.437-15.895-6.56-6.832-3.654-12.602-10.143-12.596-16.239 9e-3 -7.51 6.74-11.396 13.125-15.035 5.015-2.585 10.609-4.529 16.037-6.073 7.162-2.034 14.406-3.098 21.787-4.083 8.185-1.094 16.168-1.369 24.424-1.533 7.857-0.154 16.084 0.158 23.941 0.341 6.061 0.141 11.971 0.417 18.031 0.325 8.963-0.136 17.987-0.469 26.934-1.09 5.355-0.373 10.818-0.862 16.148-1.512 6.055-0.736 12.965-1.829 18.1-2.821 5.135-0.994 8.492-2.026 12.68-3.248 4.125-1.204 8.322-2.533 12.31-4.142 2.503-1.011 4.806-2.127 7.156-3.453 1.816-1.023 3.677-2.238 5.465-3.313 1.684-1.014 3.26-2.046 5.022-2.91 4.022-1.968 8.088-3.931 12.291-5.48 5.604-2.066 11.256-3.669 17.103-4.896 5.938-1.246 12.016-1.843 18.058-2.393 3.056-0.275 14.854-0.49 14.854-0.49s11.802 0.215 14.854 0.49c6.042 0.548 12.119 1.146 18.058 2.393 5.847 1.228 11.498 2.829 17.103 4.896 4.202 1.551 8.269 3.515 12.291 5.48 1.764 0.863 3.34 1.896 5.022 2.909 1.789 1.076 3.646 2.291 5.465 3.314 2.354 1.324 4.654 2.442 7.158 3.453 3.985 1.607 8.184 2.938 12.31 4.142 4.187 1.222 7.543 2.254 12.679 3.248 5.135 0.993 12.044 2.085 18.1 2.821 5.33 0.647 10.793 1.139 16.149 1.512 8.944 0.621 17.968 0.954 26.933 1.09 6.062 0.092 11.971-0.186 18.03-0.325 7.858-0.183 16.084-0.495 23.943-0.341 8.256 0.164 16.238 0.439 24.424 1.533 7.381 0.986 14.624 2.049 21.787 4.083 5.426 1.542 11.023 3.488 16.038 6.073 6.385 3.642 13.116 7.525 13.124 15.035 5e-3 6.097-5.766 12.585-12.597 16.239-5.837 3.123-10.468 5.018-15.894 6.56-7.164 2.036-14.874 3.045-22.255 4.029-8.186 1.095-16.374 1.342-24.629 1.503-4e-3 0-345.26 0.409-416.18 0z"/>
		</g>
	
	
		
		
			<linearGradient id="c" x1="284.45" x2="284.45" y1="-415.99" y2="-475.99" gradientTransform="matrix(1 0 0 -1 -.1348 -389.26)" gradientUnits="userSpaceOnUse">
			<stop stop-color="#F1F3F2" offset="0"/>
			<stop stop-color="#A4B5D3" offset=".1937"/>
			<stop stop-color="#F1F3F2" offset=".5858"/>
			<stop stop-color="#5878B5" offset=".6"/>
			<stop stop-color="#F1F3F2" offset="1"/>
		</linearGradient>
		
			<path d="m265.31 41.527c-5.688-0.354-11.369-0.9-17.009-1.721-2.925-0.427-5.817-1.055-8.712-1.657-1.859-0.387-3.73-0.742-5.561-1.257-3.459-0.974-6.947-1.953-10.215-3.45-3.813-1.746-9.41-5.425-10.83-6.402-1.42-0.979-1.996-1.67-2.604-1.671-0.753 0.024-1.433 0.39-2.233 0.697-4.707 1.814-9.4 3.699-14.236 5.138-6.178 1.835-12.483 3.243-18.816 4.436-6.262 1.178-12.591 2.008-18.928 2.676-7.372 0.774-14.779 1.199-22.184 1.537-6.226 0.285-12.458 0.354-18.69 0.415-8.47 0.083-16.94-0.155-25.411-0.062-8.062 0.091-16.143-0.044-24.179 0.604-7.37 0.596-14.771 1.353-21.977 3.007-5.555 1.275-10.329 2.483-16.251 5.306-5.47 2.604-12.708 7.281-12.746 13.461-0.038 6.116 7.126 10.469 12.45 13.479 2.818 1.594 11.498 4.311 17.459 5.708 6.875 1.611 13.932 2.436 20.966 3.055 8.415 0.739 16.884 0.649 25.331 0.779h386.77c8.446-0.13 16.916-0.04 25.33-0.779 7.034-0.619 14.092-1.44 20.967-3.055 5.961-1.397 14.641-4.114 17.459-5.708 5.324-3.01 12.487-7.36 12.451-13.479-0.039-6.18-7.275-10.854-12.746-13.461-5.922-2.82-10.695-4.028-16.25-5.306-7.207-1.654-14.607-2.412-21.979-3.007-8.033-0.647-16.115-0.514-24.176-0.604-8.471-0.096-16.941 0.145-25.412 0.062-6.229-0.063-12.465-0.13-18.688-0.415-7.406-0.338-14.813-0.762-22.185-1.537-6.338-0.667-12.666-1.498-18.93-2.676-6.332-1.191-12.64-2.601-18.814-4.437-4.836-1.438-9.528-3.319-14.237-5.137-0.802-0.309-1.734-0.729-2.284-0.561-0.509 0.086-1.69 0.94-2.55 1.533-3.455 2.379-7.021 4.656-10.832 6.402-3.269 1.498-6.757 2.478-10.216 3.45-1.829 0.515-3.698 0.87-5.56 1.257-2.896 0.604-5.788 1.23-8.714 1.657-5.639 0.819-11.318 1.364-17.007 1.721-14.104 0.403-16.633 0.291-19.963 0.287-9.494-6e-3 -12.017 0.091-18.055-0.285z" fill="url(#c)"/>
		
			<linearGradient id="b" x1="1.7637" x2="1.7637" y1="261.54" y2="259.41" gradientTransform="matrix(2.5123 0 0 -12.447 281.81 3263.6)" gradientUnits="userSpaceOnUse">
			<stop stop-color="#F1F3F2" offset="0"/>
			<stop stop-color="#A4B5D3" offset=".8983"/>
			<stop stop-color="#5878B5" offset="1"/>
		</linearGradient>
		
			<path d="m343.19 22.236c0 7.391-25.497 13.383-56.951 13.383-31.451 0-56.949-5.992-56.949-13.383 0-7.393 25.498-13.385 56.949-13.385 31.452 0 56.951 5.992 56.951 13.385z" fill="url(#b)"/>
	
	
		<path d="m91.21 80.453c-8.445-0.129-17.579 0.039-26.329-0.688-5.462-0.454-10.98-0.904-16.284-2.293-5.424-1.419-11.206-2.718-15.668-6.11-2.922-2.225-6.594-5.285-6.594-8.827 0-2.274 1.791-4.304 3.475-5.805 4.464-3.979 10.615-5.685 16.348-7.388 6.58-1.957 13.513-2.559 20.352-3.153 8.204-0.715 16.64-0.402 24.701-0.493"/>
		<path d="m476.42 80.453c8.447-0.129 17.658 0.041 26.447-0.688 5.463-0.454 10.981-0.904 16.285-2.293 5.424-1.419 11.206-2.718 15.666-6.11 2.926-2.225 6.596-5.285 6.596-8.827 0-2.274-1.791-4.304-3.476-5.805-4.463-3.979-10.612-5.685-16.346-7.388-6.582-1.957-13.514-2.56-20.353-3.153-8.242-0.718-16.759-0.402-24.82-0.493"/>
		<polygon points="87.73 45.695 477.58 45.703 477.58 80.453 88.291 80.333"/>
	
	
		<path d="m302.59 15.683c-0.369 1.215-0.74 2.438-1.108 3.667-0.371 1.229-0.742 2.465-1.112 3.708-0.372 1.242-0.742 2.488-1.113 3.742-0.369 1.253-0.74 2.511-1.111 3.772 0.186-8e-3 0.367-0.016 0.552-0.021 0.183-8e-3 0.364-0.016 0.55-0.022 0.183-9e-3 0.364-0.017 0.548-0.025s0.367-0.017 0.551-0.024c0.372-1.212 0.743-2.419 1.114-3.62 0.372-1.199 0.743-2.396 1.114-3.583 0.371-1.188 0.742-2.369 1.112-3.543 0.371-1.174 0.742-2.341 1.113-3.5 0.04-0.158 0.103-0.308 0.18-0.438 0.078-0.132 0.173-0.248 0.278-0.343 0.107-0.097 0.229-0.171 0.354-0.221 0.132-0.049 0.269-0.073 0.412-0.069 0.146 5e-3 0.284 0.038 0.414 0.096 0.129 0.057 0.252 0.139 0.356 0.239 0.107 0.101 0.204 0.221 0.281 0.354 0.078 0.133 0.138 0.283 0.18 0.44 0.313 0.979 0.629 1.953 0.943 2.919 0.313 0.967 0.628 1.927 0.94 2.879 0.313 0.953 0.629 1.899 0.942 2.839 0.313 0.938 0.629 1.869 0.942 2.794-0.492 0.03-0.986 0.063-1.479 0.093-0.492 0.03-0.984 0.061-1.479 0.089-0.492 0.027-0.984 0.056-1.479 0.083-0.492 0.025-0.986 0.052-1.479 0.076v0.539 0.537 0.538 0.539c0.733-0.047 1.469-0.097 2.2-0.148 0.732-0.051 1.468-0.105 2.199-0.162 0.732-0.057 1.467-0.116 2.198-0.178 0.73-0.062 1.465-0.125 2.196-0.19-0.37-1.093-0.741-2.199-1.111-3.315-0.371-1.117-0.74-2.245-1.111-3.386-0.371-1.14-0.742-2.291-1.11-3.451-0.371-1.162-0.743-2.333-1.114-3.517-0.106-0.392-0.271-0.757-0.485-1.093-0.217-0.333-0.479-0.632-0.781-0.887-0.301-0.253-0.641-0.46-1.006-0.609-0.364-0.15-0.758-0.24-1.166-0.259-0.405-0.019-0.797 0.037-1.162 0.158-0.362 0.119-0.7 0.303-1.002 0.539-0.299 0.237-0.563 0.526-0.776 0.858-0.211 0.329-0.377 0.703-0.485 1.106zm2.614 9.042c0.063-0.207 0.129-0.415 0.192-0.622 0.064-0.207 0.13-0.414 0.194-0.62 0.063-0.206 0.128-0.413 0.192-0.619 0.063-0.206 0.13-0.412 0.194-0.617 0.066 0.204 0.136 0.407 0.203 0.608 0.067 0.204 0.136 0.406 0.202 0.607 0.068 0.202 0.136 0.404 0.204 0.606 0.066 0.201 0.135 0.403 0.202 0.604-0.132 5e-3 -0.265 9e-3 -0.396 0.013-0.133 4e-3 -0.267 0.01-0.398 0.014s-0.266 8e-3 -0.396 0.012-0.261 0.01-0.393 0.014zm-0.326-7.086c-0.332 1.044-0.664 2.096-0.996 3.151-0.331 1.059-0.663 2.12-0.994 3.188-0.332 1.067-0.664 2.144-0.998 3.222-0.33 1.079-0.662 2.163-0.994 3.25 0.216-0.012 0.429-0.021 0.645-0.032 0.214-0.011 0.428-0.021 0.642-0.032 0.216-0.013 0.431-0.022 0.646-0.036 0.214-0.013 0.428-0.023 0.643-0.037 0.138-0.446 0.274-0.893 0.412-1.336 0.139-0.444 0.273-0.89 0.413-1.331 0.136-0.441 0.272-0.884 0.409-1.323 0.137-0.44 0.272-0.881 0.412-1.319v0.616 0.616 0.614s0 0.411 0 0.616c0.433-0.021 0.862-0.041 1.296-0.063 0.431-0.021 0.862-0.043 1.293-0.065 0.432-0.022 0.862-0.046 1.294-0.069s0.861-0.048 1.294-0.073c-0.257-0.774-0.513-1.555-0.771-2.339-0.257-0.783-0.513-1.572-0.77-2.365-0.256-0.794-0.513-1.593-0.769-2.396-0.259-0.804-0.515-1.609-0.771-2.423-0.039-0.135-0.097-0.334-0.172-0.557-0.073-0.225-0.164-0.471-0.267-0.7-0.104-0.229-0.216-0.444-0.341-0.604-0.121-0.158-0.254-0.26-0.392-0.265-0.138-4e-3 -0.271 0.09-0.395 0.242-0.122 0.153-0.237 0.362-0.34 0.591s-0.189 0.475-0.266 0.697c-0.068 0.225-0.126 0.425-0.163 0.562zm-14.083-2.132c0.645 3e-3 1.285 7e-3 1.93 0.012 0.644 5e-3 1.283 0.012 1.928 0.019 0.643 6e-3 1.284 0.015 1.928 0.021 0.645 8e-3 1.285 0.019 1.929 0.026 0-0.201-1e-3 -0.403-1e-3 -0.606v-0.606s0-0.404 0-0.607c-1e-3 -0.203-1e-3 -0.404 0-0.607-0.658-0.017-1.315-0.031-1.975-0.045-0.657-0.015-1.314-0.025-1.976-0.036-0.655-0.011-1.313-0.021-1.973-0.026-0.659-9e-3 -1.315-0.015-1.976-0.02-0.531-3e-3 -1.039 0.115-1.5 0.334-0.463 0.217-0.877 0.534-1.226 0.928-0.351 0.394-0.632 0.861-0.827 1.382-0.193 0.52-0.303 1.091-0.303 1.688v2.272 2.271s0 1.515 0 2.272v2.271c-1e-3 0.6 0.107 1.169 0.303 1.688 0.195 0.521 0.479 0.986 0.828 1.379 0.348 0.392 0.762 0.708 1.227 0.925 0.459 0.217 0.969 0.333 1.5 0.326 0.658-8e-3 1.316-0.02 1.977-0.03 0.658-0.014 1.315-0.028 1.976-0.046 0.658-0.019 1.314-0.038 1.975-0.061 0.657-0.021 1.314-0.048 1.976-0.074v-2.834c-2e-3 -0.944-2e-3 -1.891-3e-3 -2.834 1e-3 -0.944 0-1.89 0-2.833s-1e-3 -1.89-1e-3 -2.833c-0.521-1e-3 -1.041-2e-3 -1.563-2e-3 -0.521-1e-3 -1.039-2e-3 -1.562-3e-3 -0.52 0-1.039-1e-3 -1.559-1e-3 -0.521 0-1.041-1e-3 -1.563-1e-3v0.564 0.565 0.565c2e-3 0.188 0 0.377 0 0.564 0.336 0 0.675-2e-3 1.011-3e-3s0.674-2e-3 1.011-4e-3c0.336-1e-3 0.672-2e-3 1.008-4e-3s0.672-4e-3 1.008-6e-3c1e-3 0.562 1e-3 1.122 1e-3 1.683 1e-3 0.562 0 1.121 0 1.683 0 0.561 1e-3 1.121 1e-3 1.681 0 0.562 1e-3 1.121 1e-3 1.683-0.459 0.013-0.916 0.022-1.376 0.033-0.46 0.01-0.919 0.02-1.378 0.026s-0.917 0.016-1.377 0.021c-0.459 7e-3 -0.918 0.013-1.377 0.018-0.254 3e-3 -0.495-0.053-0.715-0.154-0.222-0.104-0.418-0.253-0.582-0.438-0.165-0.187-0.302-0.408-0.394-0.654-0.094-0.247-0.146-0.52-0.146-0.804v-2.168c1e-3 -0.724 0-1.445 0-2.168v-2.17c1e-3 -0.723 1e-3 -1.445 1e-3 -2.168 0-0.283 0.049-0.557 0.143-0.803 0.092-0.247 0.229-0.469 0.394-0.654 0.166-0.188 0.36-0.337 0.582-0.44 0.219-0.102 0.46-0.16 0.715-0.157zm1.471 6.592v0.618 0.617s0 0.412 0 0.618 0 0.412 0 0.619c0.106-1e-3 0.215-2e-3 0.321-3e-3s0.214-1e-3 0.32-3e-3c0.105-1e-3 0.215-2e-3 0.32-3e-3s0.214-1e-3 0.318-3e-3c0 0.053 1e-3 0.104 0 0.153 0 0.053 1e-3 0.104 1e-3 0.154s0 0.104 0 0.152v0.155c-0.105 1e-3 -0.213 3e-3 -0.319 4e-3 -0.105 1e-3 -0.215 2e-3 -0.32 3e-3 -0.106 1e-3 -0.214 2e-3 -0.32 3e-3s-0.215 2e-3 -0.321 3e-3c-0.076 1e-3 -0.147-0.017-0.215-0.047-0.066-0.029-0.126-0.076-0.177-0.131-0.05-0.057-0.088-0.122-0.119-0.196-0.026-0.073-0.042-0.153-0.042-0.239v-1.34s0-0.894-1e-3 -1.34v-1.34-1.34c1e-3 -0.085 0.017-0.166 0.042-0.239 0.03-0.073 0.068-0.141 0.119-0.196s0.109-0.102 0.177-0.133c0.065-0.03 0.138-0.049 0.216-0.048 0.521 1e-3 1.039 2e-3 1.56 3e-3 0.521 0 1.039 2e-3 1.563 4e-3 0.521 2e-3 1.039 4e-3 1.562 6e-3 0.521 2e-3 1.039 4e-3 1.56 7e-3v-0.605s1e-3 -0.403 0-0.605c0-0.203 1e-3 -0.405 0-0.606v-0.604c-0.597-9e-3 -1.191-0.016-1.791-0.021-0.597-7e-3 -1.191-0.014-1.788-0.019s-1.192-0.011-1.791-0.015c-0.597-4e-3 -1.191-8e-3 -1.789-0.012-0.254-1e-3 -0.496 0.057-0.716 0.159-0.22 0.104-0.418 0.254-0.585 0.439-0.167 0.187-0.301 0.407-0.395 0.655-0.094 0.245-0.146 0.519-0.146 0.802v1.856 1.859c-1e-3 0.619-1e-3 1.238 0 1.858 1e-3 0.619 0 1.237 0 1.857 0 0.285 0.053 0.557 0.146 0.803 0.094 0.247 0.228 0.468 0.395 0.653 0.168 0.187 0.366 0.335 0.586 0.438 0.221 0.103 0.463 0.157 0.717 0.154 0.367-4e-3 0.733-9e-3 1.104-0.014 0.365-6e-3 0.733-0.011 1.103-0.018 0.367-7e-3 0.733-0.014 1.103-0.021 0.367-7e-3 0.735-0.016 1.104-0.023 0-0.459 0-0.917-1e-3 -1.377v-1.378s0-0.918 0-1.378c-1e-3 -0.459 0-0.918-1e-3 -1.377-0.291 2e-3 -0.582 3e-3 -0.873 5e-3 -0.289 2e-3 -0.582 3e-3 -0.871 5e-3 -0.291 3e-3 -0.582 4e-3 -0.873 5e-3s-0.592 6e-3 -0.883 7e-3zm-14.138-6.542c0.644-8e-3 1.285-0.017 1.929-0.021 0.644-7e-3 1.284-0.013 1.928-0.019 0.643-4e-3 1.285-8e-3 1.928-0.012 0.643-3e-3 1.283-5e-3 1.927-6e-3v-0.621s0-0.412 0-0.619 0-0.413 0-0.621v-0.62c-0.657 2e-3 -1.315 6e-3 -1.974 0.011-0.657 5e-3 -1.315 0.012-1.973 0.021-0.658 8e-3 -1.315 0.017-1.975 0.027s-1.314 0.022-1.975 0.037c-0.531 0.011-1.039 0.144-1.5 0.369-0.461 0.227-0.875 0.548-1.224 0.938-0.35 0.392-0.632 0.854-0.825 1.361-0.195 0.509-0.307 1.063-0.306 1.646v2.184s0 1.454-1e-3 2.183v2.183c0 0.729 0 1.455-1e-3 2.183 0 0.583 0.108 1.14 0.304 1.649 0.193 0.514 0.478 0.979 0.825 1.375 0.349 0.396 0.765 0.727 1.226 0.958 0.459 0.232 0.967 0.372 1.5 0.391 0.658 0.021 1.315 0.042 1.976 0.061 0.658 0.019 1.315 0.032 1.976 0.046 0.656 0.013 1.314 0.023 1.975 0.031 0.658 9e-3 1.316 0.015 1.975 0.019v-0.619-0.62c0-0.207 2e-3 -0.414 2e-3 -0.62v-0.62c-0.644-2e-3 -1.285-7e-3 -1.929-0.014-0.644-6e-3 -1.287-0.015-1.929-0.024-0.643-9e-3 -1.285-0.021-1.928-0.033-0.645-0.014-1.287-0.028-1.93-0.045-0.253-7e-3 -0.492-0.07-0.713-0.18-0.22-0.108-0.418-0.263-0.584-0.449-0.166-0.188-0.3-0.411-0.393-0.655-0.094-0.244-0.146-0.512-0.146-0.792 0-0.701 0-1.401 1e-3 -2.104v-2.104c1e-3 -0.701 1e-3 -1.401 1e-3 -2.104s1e-3 -1.4 0-2.103c0-0.279 0.053-0.546 0.146-0.79 0.093-0.242 0.228-0.463 0.394-0.647 0.166-0.188 0.363-0.337 0.583-0.442 0.215-0.107 0.457-0.165 0.71-0.169zm6.054 5.929v-0.567c0-0.189 0-0.379 2e-3 -0.566v-0.567s0-0.378 0-0.566h-1.285s-0.856 1e-3 -1.285 1e-3c-0.428 0-0.855 1e-3 -1.283 1e-3s-0.855 0-1.285 1e-3c0-0.085 0.016-0.165 0.042-0.238 0.028-0.073 0.069-0.139 0.119-0.194 0.05-0.057 0.108-0.102 0.175-0.132 0.066-0.031 0.141-0.05 0.215-0.051 0.521-1e-3 1.04-2e-3 1.561-4e-3 0.521 0 1.041-1e-3 1.562-3e-3 0.521 0 1.04-1e-3 1.562-2e-3 0.521 0 1.039-1e-3 1.561-1e-3 -1e-3 -0.206-1e-3 -0.413-1e-3 -0.618 1e-3 -0.207 1e-3 -0.413 1e-3 -0.62v-0.618s0-0.412 0-0.618c-0.597 1e-3 -1.191 2e-3 -1.789 5e-3 -0.597 2e-3 -1.191 6e-3 -1.79 0.01-0.597 4e-3 -1.192 7e-3 -1.791 0.013-0.597 4e-3 -1.192 0.011-1.788 0.017-0.254 3e-3 -0.494 0.063-0.715 0.167-0.22 0.104-0.417 0.256-0.583 0.441-0.167 0.188-0.301 0.404-0.394 0.647-0.094 0.243-0.146 0.511-0.146 0.79v0.813 0.812s0 0.541 0 0.813v0.812c0.612 4e-3 1.226 9e-3 1.835 0.011 0.611 3e-3 1.225 6e-3 1.834 9e-3 0.611 3e-3 1.225 4e-3 1.836 6e-3 0.608-7e-3 1.218-5e-3 1.83-4e-3zm0 0.826v0.567 0.567s2e-3 0.378 0 0.567c0 0.188 2e-3 0.378 0 0.565-0.429-2e-3 -0.855-4e-3 -1.285-8e-3 -0.429-3e-3 -0.855-8e-3 -1.283-0.012s-0.856-9e-3 -1.285-0.014c-0.428-5e-3 -0.855-0.01-1.285-0.016 0 0.085 0.016 0.165 0.042 0.238 0.028 0.074 0.069 0.142 0.119 0.197 0.049 0.056 0.108 0.103 0.175 0.134 0.066 0.032 0.141 0.051 0.215 0.052 0.521 7e-3 1.04 0.014 1.561 0.02 0.521 7e-3 1.041 0.012 1.563 0.017 0.52 5e-3 1.04 9e-3 1.563 0.012 0.52 3e-3 1.039 5e-3 1.561 7e-3v0.619s0 0.412 0 0.618 0 0.412 0 0.618 0 0.412 0 0.619c-0.597-2e-3 -1.191-7e-3 -1.79-0.012-0.598-5e-3 -1.192-0.012-1.791-0.02-0.598-9e-3 -1.192-0.02-1.791-0.028-0.597-0.01-1.192-0.022-1.79-0.037-0.253-6e-3 -0.492-0.068-0.713-0.177-0.22-0.108-0.417-0.264-0.583-0.45-0.166-0.188-0.3-0.408-0.394-0.653-0.092-0.245-0.145-0.514-0.145-0.793v-0.812s0-0.541 0-0.812v-0.813s0-0.542 0-0.813c0.612 6e-3 1.225 0.012 1.835 0.017 0.611 5e-3 1.224 9e-3 1.834 0.013 0.612 3e-3 1.226 8e-3 1.835 0.011 0.609 8e-3 1.22 0.011 1.832 0.012zm-18.86 2.658c-0.385-0.016-0.771-0.03-1.155-0.045-0.386-0.017-0.771-0.032-1.153-0.049-0.388-0.016-0.771-0.032-1.156-0.049-0.383-0.017-0.771-0.034-1.154-0.051v0.503s0 0.335 0 0.503 0 0.335 0 0.503 0 0.335 0 0.502c0.588 0.038 1.176 0.074 1.763 0.109 0.587 0.036 1.177 0.07 1.765 0.104s1.176 0.066 1.764 0.098 1.176 0.063 1.764 0.091c8e-3 0 0.016 1e-3 0.021 1e-3 9e-3 0 0.016 1e-3 0.022 1e-3s0.017 0 0.022 2e-3c8e-3 0 0.016 1e-3 0.023 1e-3 0.33 3e-3 0.646-0.063 0.93-0.188 0.285-0.127 0.543-0.31 0.758-0.538 0.216-0.229 0.389-0.507 0.509-0.813 0.12-0.308 0.188-0.646 0.188-1.006 0-0.365-0.069-0.716-0.194-1.036-0.125-0.319-0.306-0.609-0.53-0.854-0.223-0.244-0.488-0.44-0.785-0.579-0.296-0.138-0.621-0.216-0.964-0.222-0.231-3e-3 -0.464-6e-3 -0.694-0.01-0.232-3e-3 -0.465-7e-3 -0.696-0.011-0.232-3e-3 -0.464-7e-3 -0.696-0.01-0.23-3e-3 -0.463-7e-3 -0.693-0.012-0.281-0.114-0.553-0.272-0.801-0.467-0.248-0.193-0.472-0.421-0.66-0.676-0.189-0.255-0.346-0.536-0.453-0.836-0.105-0.299-0.166-0.617-0.166-0.947 0-0.424 0.097-0.831 0.268-1.204 0.171-0.371 0.415-0.709 0.712-0.999 0.297-0.288 0.646-0.525 1.024-0.695 0.38-0.169 0.789-0.271 1.207-0.283 0.574-0.019 1.146-0.033 1.721-0.05 0.574-0.017 1.146-0.031 1.721-0.046 0.574-0.016 1.146-0.028 1.721-0.041 0.574-0.014 1.146-0.025 1.722-0.037v-0.599-0.6-0.599-0.601c-0.597 0.02-1.193 0.039-1.79 0.062-0.596 0.021-1.193 0.044-1.79 0.067-0.597 0.022-1.192 0.048-1.79 0.075-0.598 0.025-1.193 0.053-1.789 0.082-0.709 0.033-1.383 0.218-1.997 0.514-0.612 0.297-1.167 0.707-1.631 1.196-0.465 0.489-0.84 1.059-1.101 1.682-0.26 0.622-0.402 1.299-0.402 2.003 0 0.707 0.154 1.381 0.432 1.998 0.276 0.617 0.676 1.181 1.163 1.661 0.486 0.48 1.063 0.882 1.692 1.167 0.632 0.287 1.316 0.458 2.025 0.481v-6e-3s0-5e-3 0-7e-3v-8e-3 -5e-3c0 2e-3 2e-3 4e-3 4e-3 6e-3s2e-3 4e-3 4e-3 8e-3c0 2e-3 2e-3 4e-3 4e-3 6e-3 0 2e-3 2e-3 4e-3 2e-3 6e-3 0.137 5e-3 0.271 0.01 0.41 0.014 0.135 4e-3 0.271 9e-3 0.407 0.013 0.138 5e-3 0.273 9e-3 0.41 0.013 0.136 5e-3 0.272 0.01 0.409 0.014 0.049 1e-3 0.098 0.014 0.141 0.033 0.043 0.021 0.084 0.051 0.116 0.085 0.033 0.036 0.062 0.079 0.079 0.125 0.02 0.047 0.029 0.099 0.029 0.152s-0.012 0.104-0.03 0.149c-0.021 0.045-0.045 0.087-0.079 0.12s-0.072 0.062-0.117 0.079c-0.043 0.019-0.091 0.026-0.141 0.024-0.195-8e-3 -0.391-0.015-0.586-0.021-0.195-9e-3 -0.391-0.016-0.586-0.022s-0.391-0.014-0.586-0.021c-0.197 6e-3 -0.391-3e-3 -0.587-0.01zm3.035-6.497c0.387-3e-3 0.771-7e-3 1.158-0.011 0.387-3e-3 0.771-6e-3 1.157-9e-3 0.388-3e-3 0.772-6e-3 1.159-9e-3 0.385-3e-3 0.771-7e-3 1.158-9e-3v-0.548-0.55s0-0.366 0-0.549v-0.548c-0.59 0.01-1.178 0.021-1.766 0.031-0.591 0.012-1.18 0.022-1.768 0.036-0.589 0.014-1.178 0.025-1.766 0.041-0.59 0.016-1.178 0.028-1.767 0.044-8e-3 0-0.016 1e-3 -0.022 0-8e-3 0-0.017 0-0.023 1e-3h-0.023-0.022c-0.331 0.021-0.646 0.108-0.933 0.251-0.285 0.143-0.541 0.337-0.756 0.569-0.215 0.233-0.39 0.507-0.51 0.81-0.119 0.299-0.186 0.623-0.186 0.966 0 0.352 0.068 0.684 0.193 0.986s0.308 0.578 0.53 0.811c0.226 0.231 0.491 0.421 0.788 0.555 0.296 0.132 0.623 0.209 0.965 0.214 0.232 2e-3 0.465 6e-3 0.696 8e-3 0.231 3e-3 0.463 6e-3 0.694 9e-3s0.465 6e-3 0.697 8e-3c0.23 2e-3 0.463 5e-3 0.693 8e-3 0.281 0.117 0.553 0.28 0.799 0.481 0.248 0.2 0.473 0.439 0.661 0.708s0.345 0.565 0.45 0.884c0.105 0.317 0.166 0.657 0.166 1.006 0 0.45-0.098 0.876-0.268 1.259-0.17 0.384-0.416 0.723-0.711 1.004-0.298 0.278-0.646 0.499-1.025 0.644-0.381 0.145-0.791 0.212-1.209 0.188-0.572-0.031-1.145-0.063-1.717-0.097-0.572-0.032-1.146-0.066-1.718-0.104-0.573-0.034-1.146-0.071-1.718-0.108-0.57-0.038-1.145-0.076-1.716-0.116v0.55s0 0.366 0 0.549v0.55s0 0.365 0 0.549c0.595 0.054 1.19 0.105 1.784 0.155 0.596 0.052 1.19 0.101 1.787 0.146 0.595 0.049 1.19 0.095 1.785 0.139 0.597 0.044 1.191 0.087 1.789 0.128 0.707 0.05 1.383-0.061 1.998-0.3 0.614-0.242 1.17-0.616 1.635-1.096 0.465-0.479 0.843-1.063 1.104-1.721 0.262-0.658 0.404-1.391 0.405-2.162 0-0.771-0.155-1.511-0.433-2.182-0.277-0.672-0.676-1.274-1.164-1.78-0.486-0.504-1.063-0.909-1.694-1.188-0.632-0.279-1.318-0.429-2.027-0.425v8e-3 8e-3 7e-3 9e-3c-1e-3 -2e-3 -3e-3 -5e-3 -4e-3 -8e-3 -1e-3 -2e-3 -3e-3 -5e-3 -4e-3 -7e-3 -2e-3 -2e-3 -4e-3 -5e-3 -5e-3 -7e-3s-4e-3 -6e-3 -4e-3 -8e-3c-0.137 0-0.271 1e-3 -0.409 1e-3 -0.136 1e-3 -0.271 1e-3 -0.408 2e-3 -0.136 0-0.272 2e-3 -0.407 2e-3 -0.138 1e-3 -0.272 1e-3 -0.408 2e-3 -0.051 0-0.102-0.01-0.146-0.028-0.044-0.02-0.083-0.046-0.114-0.08-0.033-0.033-0.061-0.075-0.078-0.121-0.019-0.047-0.028-0.096-0.028-0.149 0-0.052 0.01-0.102 0.028-0.146 0.019-0.046 0.045-0.087 0.078-0.122 0.031-0.035 0.07-0.063 0.114-0.083 0.043-0.021 0.093-0.031 0.144-0.031 0.195-2e-3 0.391-5e-3 0.584-7e-3 0.195-2e-3 0.392-4e-3 0.586-6e-3 0.195-3e-3 0.391-6e-3 0.586-8e-3 0.197 0 0.393-2e-3 0.586-4e-3z" fill="#0F0E43"/>
	
	
		<linearGradient id="a" x1="284.85" x2="284.85" y1="-415.7" y2="-480.58" gradientTransform="matrix(1 0 0 -1 -1.1348 -390.26)" gradientUnits="userSpaceOnUse">
		<stop stop-color="#F1F3F2" offset="0"/>
		<stop stop-color="#A4B5D3" offset=".1937"/>
		<stop stop-color="#F1F3F2" offset=".5858"/>
		<stop stop-color="#5878B5" offset=".6"/>
		<stop stop-color="#F1F3F2" offset="1"/>
	</linearGradient>
	<path d="m413.98 49.74 4.438 6.651h12.134l-4.438-6.651h-12.134zm36.842 0-4.437 6.651h12.133l4.437-6.651h-12.133zm-386.57 0.571v6.082h59.302c0-3.322-2.405-6.025-5.385-6.082h-53.917zm65.479 0v6.082h39.027v-6.082h-39.027zm50.052 0c-3.01 0.02-5.449 2.734-5.449 6.082h46.124v-6.082h-40.675zm51.572 0c-2.996 0.037-5.418 2.747-5.418 6.082h43.685c0-3.357-2.457-6.082-5.479-6.082-0.057 0-0.104-2e-3 -0.158 0h-32.63zm63.925 0v6.082h45.616c0-3.334-2.424-6.042-5.416-6.082h-40.2zm57.846 0v0.031c-2.818 0.248-5.037 2.855-5.037 6.051h44.604c0-3.335-2.422-6.045-5.416-6.082h-34.151zm46.06 0v6.082h10.931v-6.082h-10.931zm68.012 0v6.082h39.028v-6.082h-39.028zm-427.94 5.29c-3.891 0-7.032 3.143-7.032 7.033s3.142 7.063 7.032 7.063c3.892 0 7.033-3.174 7.033-7.063 1e-3 -3.892-3.141-7.033-7.033-7.033zm488.92 0c-3.891 0-7.063 3.143-7.063 7.033s3.174 7.063 7.063 7.063c3.891 0 7.033-3.174 7.033-7.063-1e-3 -3.892-3.144-7.033-7.033-7.033zm-463.93 2.818v18.058h10.834v-18.058h-10.834zm24.107 0v18.058h10.865v-18.058h-10.865zm24.139 0v18.058h10.96v-18.058h-10.96zm17.233 0v11.563c0.146 3.611 3.46 6.494 7.508 6.494h31.52v-6.082h-25.659c-1.345 0-2.407-1.096-2.407-2.438v-1.521h26.167v-5.574h-23.76c-1.345 0-2.407-1.097-2.407-2.439h-1.015l-9.947-3e-3zm44.603 0v11.753h0.031c0.238 3.313 3.13 5.968 6.779 6.272v0.03h32.026v-0.03c4.069-0.265 7.286-3.623 7.286-7.763 0-4.312-3.48-7.823-7.793-7.823-0.042 0-0.084-2e-3 -0.126 0h-18.722v5.574h13.525c1.096 0 1.965 0.9 1.965 1.996s-0.869 1.964-1.965 1.964h-20.084c-1.095 0-1.964-0.869-1.964-1.964v-10.01l-10.958 1e-3zm51.604 0v18.058h10.93v-18.058h-10.93zm32.724 0v5.387h-19.862v7.097h19.862v5.574h10.961v-18.058h-10.961zm36.618 0v18.058h10.93v-18.058h-10.93zm34.658 0v10.012c0 1.096-0.868 1.964-1.965 1.964h-20.243v6.082h26.294v-0.03c3.842-0.293 6.875-3.183 6.875-6.717v-11.311h-10.961zm18.15 0v18.058h10.93v-18.058h-10.93zm33.642 0v3.423c0 0.021 3e-3 0.042 0 0.063-0.03 1.063-0.893 1.899-1.963 1.899h-18.309v7.097h15.27l5.543 5.574h13.084l-7.539-7.57c2.854-1.159 4.88-3.954 4.88-7.224v-3.264h-0.729l-10.237 2e-3zm17.456 0v18.058h10.931v-18.058h-10.931zm20.559 0 12.037 18.058h13.367l12.036-18.058h-12.133l-6.59 9.885-6.59-9.885h-12.127zm47.453 0v11.563c0.147 3.611 3.461 6.494 7.508 6.494h31.521v-6.082h-25.659c-1.343 0-2.439-1.096-2.439-2.438v-1.521h26.168v-5.574h-23.729c-1.343 0-2.439-1.097-2.439-2.439l-10.931-3e-3z" fill="url(#a)"/>

</svg>
