<?xml version="1.0" encoding="UTF-8"?>
<svg width="386.64mm" height="105.26mm" version="1.1" viewBox="0 0 386.64 105.26" xmlns="http://www.w3.org/2000/svg" xmlns:cc="http://creativecommons.org/ns#" xmlns:dc="http://purl.org/dc/elements/1.1/" xmlns:rdf="http://www.w3.org/1999/02/22-rdf-syntax-ns#">
<metadata>
<rdf:RDF>
<cc:Work rdf:about="">
<dc:format>image/svg+xml</dc:format>
<dc:type rdf:resource="http://purl.org/dc/dcmitype/StillImage"/>
<dc:title/>
</cc:Work>
</rdf:RDF>
</metadata>
<g transform="translate(-101.91 -192.29)">
<path d="m466.23 193.24-19.325 7.246v7.383l4.2213-1.5825v8.003l8.4543 3.1702v-14.342l6.6494-2.4933z" stroke="#000" stroke-width="1.3042" style="paint-order:fill markers stroke"/>
<path d="m467.52 193.24 19.325 7.246v7.383l-4.2213-1.5826v6e-3l-8.4542-3.1699v-4e-3l-6.6495-2.4934z" fill="none" stroke="#010002" stroke-width="1.3042" style="paint-order:fill markers stroke"/>
<path d="m467.26 192.86 0.93256 0.34957v7.3849l-0.93256-0.3498z" stroke="#000" stroke-width=".77892" style="paint-order:fill markers stroke"/>
<path d="m467.52 227.88 19.325-7.246v-7.383l-4.2213 1.5825v-8.003l-8.4542-3.1702v14.342l-6.6494 2.4933z" stroke="#000" stroke-width="1.3042" style="paint-order:fill markers stroke"/>
<path d="m466.23 227.88-19.325-7.246v-7.383l4.2213 1.5826v-6e-3l8.4542 3.1699v4e-3l6.6495 2.4934z" fill="none" stroke="#010002" stroke-width="1.3042" style="paint-order:fill markers stroke"/>
<path d="m466.5 228.26-0.93255-0.34957v-7.3849l0.93255 0.34978z" stroke="#000" stroke-width=".77892" style="paint-order:fill markers stroke"/>
<g transform="matrix(1.472 0 0 1.472 75.414 -32.507)" stroke="#000" stroke-width=".40636" style="font-feature-settings:normal;font-variant-caps:normal;font-variant-ligatures:normal;font-variant-numeric:normal" aria-label="THOMSON">
<path d="m18.205 154.28v5.5265h9.6551v16.157h6.9244v-16.157h9.6551v-5.5265z" style="font-feature-settings:normal;font-variant-caps:normal;font-variant-ligatures:normal;font-variant-numeric:normal"/>
<path d="m45.011 154.28v21.683h6.9244v-7.8346h14.922v7.8346h6.9244v-21.683h-6.9244v7.7696h-14.922v-7.7696z" style="font-feature-settings:normal;font-variant-caps:normal;font-variant-ligatures:normal;font-variant-numeric:normal"/>
<path d="m91.256 153.96c-9.07 0-11.086 0.22756-12.743 1.4954-1.658 1.2678-2.1456 3.4784-2.1456 9.5251 0 6.3717 0.45512 8.5173 2.1456 9.8177 1.658 1.2678 3.6735 1.4954 12.808 1.4954 8.9724 0 11.02-0.22756 12.678-1.4954 1.658-1.2678 2.1456-3.4459 2.1456-9.6876 0-6.2092-0.48763-8.3873-2.1456-9.6551-1.658-1.2678-3.6735-1.4954-12.743-1.4954zm0 5.624c6.0466 0 6.7618 0.0975 7.5095 0.97526 0.58516 0.7152 0.78022 1.9505 0.78022 5.1689 0 2.6332-0.22757 3.576-0.97527 4.1611-0.87774 0.65017-1.9505 0.78021-7.2495 0.78021-5.4615 0-6.5018-0.0975-7.3795-0.78021-0.78021-0.61767-0.97526-1.4954-0.97526-4.1936 0-2.7632 0.13004-3.9986 0.52014-4.7463 0.65018-1.2678 1.2678-1.3654 7.7696-1.3654z" style="font-feature-settings:normal;font-variant-caps:normal;font-variant-ligatures:normal;font-variant-numeric:normal"/>
<path d="m108.76 154.28v21.683h6.5018l-0.16255-16.222h1.1703l8.1597 16.222h5.494l8.1597-16.222h1.1053l-0.16255 16.222h6.5018v-21.683h-11.898l-6.4693 14.076-6.4368-14.076z" style="font-feature-settings:normal;font-variant-caps:normal;font-variant-ligatures:normal;font-variant-numeric:normal"/>
<path d="m147.79 168.78v1.0403c0 2.9908 0.48764 4.2587 1.983 5.2014 1.5279 0.97527 4.1611 1.2678 10.89 1.2678 6.4693 0 9.2-0.16255 10.5-0.65018 2.2431-0.84523 3.1534-2.6982 3.1534-6.4693 0-3.0233-0.55265-4.4862-2.0481-5.4615-1.3979-0.87774-2.7958-1.0403-9.9477-1.2678-4.5837-0.13004-6.3717-0.22757-6.9569-0.39011-0.68268-0.16254-0.97526-0.58516-0.97526-1.3979 0-1.5929 0.45512-1.723 6.0466-1.723 4.6813 0 5.494 0.065 6.0466 0.39011 0.48763 0.29258 0.58516 0.58516 0.65018 1.788h6.3717c0.0325-0.42261 0.0325-0.87773 0.0325-1.0078 0-2.5682-0.52014-3.9336-1.8205-4.8113-1.5279-1.0403-3.8035-1.3329-10.11-1.3329-5.2014 0-8.1922 0.13004-9.4601 0.39011-2.9908 0.65017-4.1611 2.5032-4.1611 6.6318 0 4.7788 1.4954 6.1442 6.8594 6.3067l1.7555 0.065 3.511 0.16254 5.2014 0.19506c2.1131 0.0325 2.6007 0.35759 2.6007 1.658 0 1.918 0 1.918-7.0869 1.918-4.6488 0-5.364-0.065-5.9816-0.45513-0.52014-0.32508-0.65018-0.7477-0.65018-2.048z" style="font-feature-settings:normal;font-variant-caps:normal;font-variant-ligatures:normal;font-variant-numeric:normal"/>
<path d="m191.07 153.96c-9.07 0-11.086 0.22756-12.743 1.4954-1.658 1.2678-2.1456 3.4784-2.1456 9.5251 0 6.3717 0.45512 8.5173 2.1456 9.8177 1.658 1.2678 3.6735 1.4954 12.808 1.4954 8.9724 0 11.02-0.22756 12.678-1.4954 1.658-1.2678 2.1456-3.4459 2.1456-9.6876 0-6.2092-0.48764-8.3873-2.1456-9.6551-1.658-1.2678-3.6735-1.4954-12.743-1.4954zm0 5.624c6.0466 0 6.7618 0.0975 7.5095 0.97526 0.58516 0.7152 0.78021 1.9505 0.78021 5.1689 0 2.6332-0.22756 3.576-0.97526 4.1611-0.87774 0.65017-1.9505 0.78021-7.2495 0.78021-5.4615 0-6.5018-0.0975-7.3795-0.78021-0.78021-0.61767-0.97526-1.4954-0.97526-4.1936 0-2.7632 0.13003-3.9986 0.52014-4.7463 0.65018-1.2678 1.2678-1.3654 7.7696-1.3654z" style="font-feature-settings:normal;font-variant-caps:normal;font-variant-ligatures:normal;font-variant-numeric:normal"/>
<path d="m208.57 154.28v21.683h6.7293l-0.16254-16.189h0.71519l11.411 16.189h11.476v-21.683h-6.7293l0.16254 16.157h-0.68268l-11.346-16.157z" style="font-feature-settings:normal;font-variant-caps:normal;font-variant-ligatures:normal;font-variant-numeric:normal"/>
</g>
<text x="151.56845" y="228.20834" fill="#000000" font-family="sans-serif" font-size="10.583px" letter-spacing="0px" stroke-width=".26458" word-spacing="0px" style="line-height:1.25" xml:space="preserve"><tspan x="151.56845" y="237.86385" stroke-width=".26458"/></text>
<g transform="matrix(1.472 0 0 1.472 75.414 -32.507)" stroke="#000" style="font-feature-settings:normal;font-variant-caps:normal;font-variant-ligatures:normal;font-variant-numeric:normal" aria-label="MO / TO">
<path d="m30.853 189.32v31.01h9.2983l-0.23246-23.199h1.6737l11.669 23.199h7.8571l11.669-23.199h1.5807l-0.23246 23.199h9.2983v-31.01h-17.016l-9.2519 20.131-9.2054-20.131z" fill="none" stroke-width="1.2602" style="font-feature-settings:normal;font-variant-caps:normal;font-variant-ligatures:normal;font-variant-numeric:normal"/>
<path d="m108.43 188.86c-12.971 0-15.854 0.32544-18.225 2.1386s-3.0685 4.9746-3.0685 13.622c0 9.1124 0.65088 12.181 3.0685 14.041 2.3711 1.8132 5.2536 2.1386 18.318 2.1386 12.832 0 15.761-0.32544 18.132-2.1386s3.0685-4.9281 3.0685-13.855c0-8.8799-0.69738-11.995-3.0685-13.808s-5.2536-2.1386-18.225-2.1386zm0 8.0431c8.6475 0 9.6703 0.13948 10.74 1.3948 0.83685 1.0228 1.1158 2.7895 1.1158 7.3922 0 3.7658-0.32544 5.1141-1.3948 5.9509-1.2553 0.92984-2.7895 1.1158-10.368 1.1158-7.8106 0-9.2984-0.13948-10.554-1.1158-1.1158-0.88334-1.3948-2.1386-1.3948-5.9974 0-3.9518 0.18597-5.7185 0.74387-6.7878 0.92984-1.8132 1.8132-1.9527 11.112-1.9527z" fill="none" stroke-width="1.2602" style="font-feature-settings:normal;font-variant-caps:normal;font-variant-ligatures:normal;font-variant-numeric:normal"/>
<path d="m163.29 185.68-21.896 38.258h2.9228l-0.0194 0.0338h5.0466l21.936-38.258h-2.9228l0.0199-0.0343z" stroke-width=".49875" style="font-feature-settings:normal;font-variant-caps:normal;font-variant-ligatures:normal;font-variant-numeric:normal"/>
<path d="m182.94 189.32v7.9036h13.808v23.106h9.9027v-23.106h13.808v-7.9036z" stroke-width=".58115" style="font-feature-settings:normal;font-variant-caps:normal;font-variant-ligatures:normal;font-variant-numeric:normal"/>
<path d="m243.91 188.86c-12.971 0-15.854 0.32544-18.225 2.1386-2.3711 1.8132-3.0685 4.9746-3.0685 13.622 0 9.1124 0.65088 12.181 3.0685 14.041 2.3711 1.8132 5.2536 2.1386 18.318 2.1386 12.832 0 15.761-0.32544 18.132-2.1386s3.0685-4.9281 3.0685-13.855c0-8.8799-0.69738-11.995-3.0685-13.808s-5.2536-2.1386-18.225-2.1386zm0 8.0431c8.6475 0 9.6703 0.13948 10.74 1.3948 0.83685 1.0228 1.1158 2.7895 1.1158 7.3922 0 3.7658-0.32544 5.1141-1.3948 5.9509-1.2553 0.92984-2.7895 1.1158-10.368 1.1158-7.8106 0-9.2984-0.13948-10.554-1.1158-1.1158-0.88334-1.3948-2.1386-1.3948-5.9974 0-3.9518 0.18597-5.7185 0.74387-6.7878 0.92984-1.8132 1.8132-1.9527 11.112-1.9527z" stroke-width=".58115" style="font-feature-settings:normal;font-variant-caps:normal;font-variant-ligatures:normal;font-variant-numeric:normal"/>
</g>
</g>
</svg>
