<?xml version="1.0" encoding="UTF-8"?>
<!DOCTYPE svg [
	<!ENTITY ns_flows "http://ns.adobe.com/Flows/1.0/">
	<!ENTITY ns_extend "http://ns.adobe.com/Extensibility/1.0/">
	<!ENTITY ns_ai "http://ns.adobe.com/AdobeIllustrator/10.0/">
	<!ENTITY ns_graphs "http://ns.adobe.com/Graphs/1.0/">
	<!ENTITY ns_vars "http://ns.adobe.com/Variables/1.0/">
	<!ENTITY ns_imrep "http://ns.adobe.com/ImageReplacement/1.0/">
	<!ENTITY ns_sfw "http://ns.adobe.com/SaveForWeb/1.0/">
	<!ENTITY ns_custom "http://ns.adobe.com/GenericCustomNamespace/1.0/">
	<!ENTITY ns_adobe_xpath "http://ns.adobe.com/XPath/1.0/">
]>
<svg width="566.93px" height="234.74px" baseProfile="tiny" version="1.2" viewBox="-.463 -70.905 566.93 234.74" xml:space="preserve" xmlns="http://www.w3.org/2000/svg">

<rect x="-.463" y="-70.905" width="566.93" height="234.74" fill="#003E99"/>
<path d="m36.727 130.56 43.064-169.51h39.932l20.749 73.991 21.531-73.991h37.583l35.233 124.88 85.965-0.162c9.022-0.088 9.577-18.748-0.669-18.744l-50.063-0.668c-21.497 0.207-44.167-23.05-43.063-54.023 0.229-28.412 25.004-50.786 56.698-50.778l127.69-0.114 32.494 44.238 31.709-44.629 52.85 0.392-57.938 81.428 62.637 88.292-52.572-0.16-36.456-50.664-34.681 50.662-53.633-0.049 61.072-87.299-26.622-38.757-111 0.162c-12.114 0.111-11.669 19.169 0.095 18.812l46.769 0.716c19.767 0.127 47.604 20.668 46.91 52.735 0.301 37.279-33.274 54.313-49.44 53.401l-122.42 0.163-20.357-76.271-20.357 76.108h-38.644l-21.255-75.718-18.677 75.833-45.135-0.278z" fill="#fff"/>
</svg>
