<?xml version="1.0" encoding="UTF-8"?>
<!DOCTYPE svg  PUBLIC '-//W3C//DTD SVG 1.1//EN'  'http://www.w3.org/Graphics/SVG/1.1/DTD/svg11.dtd' [
	<!ENTITY ns_flows "http://ns.adobe.com/Flows/1.0/">
	<!ENTITY ns_extend "http://ns.adobe.com/Extensibility/1.0/">
	<!ENTITY ns_ai "http://ns.adobe.com/AdobeIllustrator/10.0/">
	<!ENTITY ns_graphs "http://ns.adobe.com/Graphs/1.0/">
	<!ENTITY ns_vars "http://ns.adobe.com/Variables/1.0/">
	<!ENTITY ns_imrep "http://ns.adobe.com/ImageReplacement/1.0/">
	<!ENTITY ns_sfw "http://ns.adobe.com/SaveForWeb/1.0/">
	<!ENTITY ns_custom "http://ns.adobe.com/GenericCustomNamespace/1.0/">
	<!ENTITY ns_adobe_xpath "http://ns.adobe.com/XPath/1.0/">
]>
<svg enable-background="new 0 0 566.929 102.84" version="1.1" viewBox="0 0 566.93 102.84" xml:space="preserve" xmlns="http://www.w3.org/2000/svg">

<polygon points="51.491 11.127 39.613 32.324 51.491 27.772 62.829 32.113 65.865 28.707 65.865 5.553" fill="#1747CE"/>
<polygon points="88.391 87.288 66.938 59.29 66.938 96.307 51.491 102.84 51.491 39.606 66.938 33.69 88.391 64.354 88.391 25.369 102.98 19.742 102.98 81.161" fill="#1747CE"/>
<polygon points="14.589 87.288 28.277 81.227 14.589 54.652" fill="#1747CE"/>
<polygon points="29.178 19.742 36.044 33.689 39.613 32.324 51.491 11.127 37.117 5.535" fill="#069330"/>
<polygon points="62.829 32.113 73.807 19.742 88.391 25.369 88.391 64.354 66.938 33.69" fill="#069330"/>
<polygon points="14.589 25.369 0 19.742 0 81.161 14.589 87.288 14.589 54.652 36.044 96.307 51.491 102.84 51.491 39.606 36.044 33.689 36.044 65.792" fill="#069330"/>
<polygon points="36.044 33.689 36.044 65.792 14.589 25.369 29.178 19.742" fill="#CC130E"/>
<polygon points="88.391 87.288 66.938 59.29 66.938 74.586 71.321 80.73" fill="#CC130E"/>
<polygon points="66.938 33.689 51.491 39.606 36.044 33.689 51.491 27.772" fill="#FFC001"/>
<polygon points="73.802 19.742 88.391 14.129 102.98 19.742 88.391 25.369" fill="#FFC001"/>
<polygon points="0 19.742 14.589 14.129 29.178 19.742 14.589 25.369" fill="#FFC001"/>
<polygon points="65.865 5.553 51.491 0 37.117 5.535 51.491 11.127" fill="#FFC001"/>
<polygon points="154.07 81.252 175.45 81.252 175.45 33.752 160.98 33.752 160.98 60.989 160.86 60.989 151.32 33.752 129.95 33.752 129.95 81.252 144.4 81.252 144.4 53.834 144.53 53.834" fill="#1747CE"/>
<polygon points="234.71 81.252 256.09 81.252 256.09 33.752 241.64 33.752 241.64 60.989 241.5 60.989 231.97 33.752 210.6 33.752 210.6 81.252 225.06 81.252 225.06 53.834 225.18 53.834" fill="#1747CE"/>
<polygon points="373.58 81.252 394.96 81.252 394.96 33.752 380.5 33.752 380.5 60.989 380.37 60.989 370.83 33.752 349.46 33.752 349.46 81.252 363.91 81.252 363.91 53.834 364.04 53.834" fill="#1747CE"/>
<polygon points="184.18 33.752 202.01 33.752 202.01 81.252 184.18 81.252" fill="#1747CE"/>
<polygon points="272.59 46.655 261.26 46.655 261.26 33.752 301.78 33.752 301.78 46.655 290.42 46.655 290.42 81.252 272.59 81.252" fill="#1747CE"/>
<polygon points="307.05 33.739 342.31 33.739 342.31 46.303 324.6 46.303 324.6 51.27 340.91 51.27 340.91 63.448 324.6 63.448 324.6 68.777 342.88 68.777 342.88 81.236 307.05 81.236" fill="#1747CE"/>
<path d="m402.63 33.752h21.123c18.016 0 23.75 10.197 23.75 24.275 0 14.343-8.848 23.226-22.684 23.226h-22.189v-47.501zm17.453 36.707h1.738c2.867 0 4.789-0.879 5.912-2.787 1.184-1.975 1.316-5.572 1.316-10.172 0-4.604-0.135-8.194-1.316-10.172-1.123-1.91-3.045-2.789-5.912-2.789h-1.738v25.92z" fill="#1747CE"/>
<path d="m475.45 32.506c15.521 0 23.244 10.193 23.244 24.995 0 14.806-7.725 25.002-23.244 25.002-15.523 0-23.246-10.196-23.246-25.002 0-14.802 7.72-24.995 23.246-24.995zm0 37.959c2.738 0 4.801-1.346 4.801-12.965 0-11.357-1.939-12.961-4.801-12.961-2.865 0-4.801 1.604-4.801 12.961 0 11.62 2.058 12.965 4.801 12.965z" fill="#1747CE"/>
<path d="m507.02 71.23c-3.107 0-5.629 2.521-5.629 5.634 0 3.114 2.521 5.639 5.629 5.639 3.115 0 5.641-2.522 5.641-5.639-2e-3 -3.112-2.526-5.634-5.641-5.634zm0 10.284c-2.563 0-4.637-2.078-4.637-4.649 0-2.568 2.072-4.646 4.637-4.646 2.574 0 4.656 2.08 4.656 4.646 0 2.571-2.082 4.649-4.656 4.649z" fill="#1747CE"/>
<path d="m506.11 79.961h-1.328v-6.199h2.635c1.068 0.019 2.154 0.357 2.154 1.615 0 0.803-0.52 1.342-1.287 1.504v0.014c1.021 0.119 1.021 0.74 1.135 1.603 0.059 0.392 0.105 1.123 0.359 1.465h-1.469c-0.111-0.549-0.174-1.106-0.232-1.662-0.035-0.344-0.117-0.817-0.559-0.836h-1.408v2.496zm0-3.527h1.119c0.582-8e-3 0.928-0.305 0.928-0.85 0-0.547-0.346-0.781-0.928-0.789h-1.119v1.639z" fill="#1747CE"/>
<polygon points="154.07 81.252 175.45 81.252 175.45 33.752 160.98 33.752 160.98 60.989 160.86 60.989 151.32 33.752 129.95 33.752 129.95 81.252 144.4 81.252 144.4 53.834 144.53 53.834" fill="#1747CE"/>
<polygon points="234.71 81.252 256.09 81.252 256.09 33.752 241.64 33.752 241.64 60.989 241.5 60.989 231.97 33.752 210.6 33.752 210.6 81.252 225.06 81.252 225.06 53.834 225.18 53.834" fill="#1747CE"/>
<polygon points="373.58 81.252 394.96 81.252 394.96 33.752 380.5 33.752 380.5 60.989 380.37 60.989 370.83 33.752 349.46 33.752 349.46 81.252 363.91 81.252 363.91 53.834 364.04 53.834" fill="#1747CE"/>
<polygon points="184.18 33.752 202.01 33.752 202.01 81.252 184.18 81.252" fill="#1747CE"/>
<polygon points="272.59 46.655 261.26 46.655 261.26 33.752 301.78 33.752 301.78 46.655 290.42 46.655 290.42 81.252 272.59 81.252" fill="#1747CE"/>
<polygon points="307.05 33.739 342.31 33.739 342.31 46.303 324.6 46.303 324.6 51.27 340.91 51.27 340.91 63.448 324.6 63.448 324.6 68.777 342.88 68.777 342.88 81.236 307.05 81.236" fill="#1747CE"/>
<path d="m530.58 27.436c-0.949-0.083-1.871-0.044-3.158 0.014-7.521 0.348-10.563 3.553-11.594 7.174h0.182c1.873-1.637 4.188-2.401 7.289-2.401 5.965 0 11.414 4.338 11.414 12.476 0 7.787-5.986 13.852-14.02 13.852-10.584 0-15.188-8.083-15.188-16.75 0-7.041 2.498-13.004 6.598-16.85 3.902-3.615 8.934-5.441 15.092-5.582 1.631-0.094 2.6 0 3.385 0.071v7.996zm-10.021 23.456c2.439 0 3.918-2.491 3.918-5.673-0.02-2.686-1.25-5.613-4.52-5.613-1.998 0-3.555 1.266-4.143 2.795-0.229 0.469-0.314 1.137-0.314 2.27 0.209 3.035 1.672 6.222 4.998 6.222l0.061-1e-3z" fill="#CC130E"/>
<path d="m553.36 57.911v-8.524h-15.846v-6.811l12.723-22.671h12.66v21.673h4.027v7.809h-4.027v8.524h-9.537zm0-16.333v-6.531c0-2.414 0.145-4.922 0.268-7.565h-0.207c-1.178 2.565-2.203 5.007-3.543 7.657l-3.113 6.326-0.033 0.115 6.628-2e-3z" fill="#CC130E"/>
</svg>
