<?xml version="1.0" encoding="UTF-8"?>
<svg width="36.812mm" height="11.038mm" version="1.1" viewBox="0 0 36.812 11.038" xmlns="http://www.w3.org/2000/svg" xmlns:cc="http://creativecommons.org/ns#" xmlns:dc="http://purl.org/dc/elements/1.1/" xmlns:rdf="http://www.w3.org/1999/02/22-rdf-syntax-ns#">
<metadata>
<rdf:RDF>
<cc:Work rdf:about="">
<dc:format>image/svg+xml</dc:format>
<dc:type rdf:resource="http://purl.org/dc/dcmitype/StillImage"/>
<dc:title/>
</cc:Work>
</rdf:RDF>
</metadata>
<g transform="translate(-22.017 -182.11)" fill="#777">
<g stroke-width=".11319" aria-label="TM">
<path d="m57.253 191.66h-0.54886v1.3546h-0.20428v-1.3546h-0.54886v-0.18158h1.302z"/>
<path d="m58.829 193.02h-0.20428v-1.19l-0.41042 1.1512h-0.12174l-0.44073-1.1011v1.1399h-0.19086v-1.5362h0.27856l0.40958 1.0891 0.39617-1.0891h0.28372z"/>
</g>
<rect x="34.01" y="182.41" width="2.6727" height="10.591" style="paint-order:stroke fill markers"/>
<path transform="scale(.26458)" d="m125.38 689.42-17.861 30.938h39.707v-7.7031h-15.91l7.3223-23.234zm3.5352 8.5879v14.395h-7.7012z"/>
<path transform="scale(.26458)" d="m105.73 688.28c-11.387 0-22.514 9.861-22.514 21.248v3.1562c1.1e-5 11.387 4.9391 17.337 16.348 17.314 9.6116-0.0256 15.549-7.0951 15.549-15.043l-1.2207-1.6113c2e-5 -4.3123-2.7205-8.2019-6.8926-9.8535-4.1721-1.6516-9.6076-0.74114-13.092 1.8242 2.3533-6.2435 9.7519-8.4072 15.607-8.3652l0.0879-8.6699zm-6.9238 21.717a4.8618 6.377 0 0 1 4.8633 6.377 4.8618 6.377 0 0 1-4.8633 6.377 4.8618 6.377 0 0 1-4.8613-6.377 4.8618 6.377 0 0 1 4.8613-6.377z" style="paint-order:stroke fill markers"/>
<path transform="scale(.26458)" d="m177.77 689.4v40.072h15.363c10.301 0 18.65-5.8509 18.65-19.545 0-14.944-8.3492-20.527-18.65-20.527zm10.252 7.916h3.3477c13.341 0 12.216 25.178 0 25.178h-3.3477v-12.494z" style="paint-order:stroke fill markers"/>
<g transform="translate(-8.5526)">
<path transform="matrix(.26458 0 0 .26458 8.5526 0)" d="m145.44 689.4v40.072h15.361c10.301 0 18.652-5.8509 18.652-19.545 0-14.944-8.3512-20.527-18.652-20.527zm10.25 7.916h3.3477c13.341 0 12.216 25.178 0 25.178h-3.3477v-12.494z" fill="#777" style="paint-order:stroke fill markers"/>
</g>
</g>
</svg>
