<?xml version="1.0" encoding="UTF-8"?>
<svg viewBox="0 0 2150 450" xmlns="http://www.w3.org/2000/svg">
<g class="layer">
<title>Layer 1</title>
<g clip-rule="evenodd" fill-rule="evenodd">
<path d="m-45-845h2162.8v2162.8h-2162.8v-2162.8z" fill="none"/>
<path d="m387.53 411.19v-377.1h-62.72l1.01 242.46-289.7-239.32 1.01 378.11h54.42v-244.6l295.98 240.44zm40.06 6.17 48.25-82.24h-44.21v-57.45h73.04l132.51-240.44 211.61 380.13h-74.95l-43.2-82.24h-187.93l-45.22 82.24h-69.9zm140.7-140.7h135.65l-67.77-124.43-67.88 124.43zm816.93 140.7h-61.71v-379.12l209.59 243.47 211.72-248.63v384.28h-65.75l-1.01-206.56-145.97 175.7-146.87-174.69v205.55zm478.76 0 1.01-388.32h62.72l-1.01 388.32h-62.72zm121.29-324.71v-54.42h-17.5v-10.32h48.25v10.32h-18.51v54.42h-12.23zm33.88-1.01v-63.73h17.5l18.4 40.17 17.5-40.17h13.35v64.74h-12.34v-42.07l-17.39 42.07-24.68-42.07v42.07l-12.34-1.01z" fill="#2885DD"/>
<path d="m846.76 231.44c0-114.11 92.45-206.56 206.56-206.56 113.99 0 206.45 92.45 206.45 206.56 0 113.99-92.45 206.45-206.45 206.45-114.11 0-206.56-92.45-206.56-206.45zm206.56 144.85c80.11 0 144.85-64.74 144.85-144.85 0-79.1-64.74-143.84-144.85-143.84-79.1 0-143.84 64.74-143.84 143.84 0 80.11 64.74 144.85 143.84 144.85z" fill="#cc2229"/>
</g>
</g>
</svg>
