<?xml version="1.0" encoding="UTF-8"?>
<svg baseProfile="tiny" version="1.2" viewBox="0 0 566.93 78.275" xml:space="preserve" xmlns="http://www.w3.org/2000/svg">
<path d="m347.88 70.38c0 0.83-0.682 1.578-1.521 1.578h-29.102c-0.848 0-1.527-0.748-1.527-1.578v-21.022c0-0.832 0.682-1.496 1.527-1.496h29.102c0.84 0 1.521 0.664 1.521 1.496v21.022zm-1.263-28.834h-29.621c-4.287 0-7.787 3.49-7.787 7.813v21.104c0 4.236 3.5 7.813 7.787 7.813h29.621c4.297 0 7.787-3.574 7.787-7.813v-21.105c0-4.322-3.491-7.812-7.787-7.812" fill="#999"/>
<path d="m6.797 9.969v27.174h-6.797v-36.729h5.808l27.529 26.756v-26.756h5.442s0.964 0 1.264 0v36.729h-5.311l-27.935-27.174" fill="#C91818"/>
<path d="m74.943 9.969v27.174h-6.797v-36.729h5.8l27.529 26.756v-26.756h5.451s0.972 0 1.263 0v36.729h-5.31l-27.936-27.174" fill="#C91818"/>
<path d="m216.18 9.969v27.174h-6.797v-36.729h5.8l27.529 26.756v-26.756h5.45s0.973 0 1.264 0v36.729h-5.301l-27.945-27.174" fill="#C91818"/>
<path d="m56.23 0.414h1.255v36.729h-6.797v-36.729h5.542" fill="#C91818"/>
<path d="m154.48 0.414h1.246v6.315h-16.386s0 29.997 0 30.413h-7.063v-30.413s-15.986 0-16.386 0v-6.315h38.589" fill="#C91818"/>
<path d="m198.02 0.414h1.271v6.315h-29.134v8.226h22.536v6.316h-22.536v9.555h29.134v6.315h-35.863v-36.729c0.39 2e-3 34.592 2e-3 34.592 2e-3" fill="#C91818"/>
<path d="m287.22 30.827h-20.874v-24.096h20.874c6.531 0 8.852 6.479 8.852 12.049-2e-3 5.482-2.318 12.047-8.852 12.047zm11.153-25.01c-2.658-3.573-6.59-5.401-11.344-5.401h-27.238v36.729h27.238c4.754 0 8.686-1.911 11.344-5.401 2.492-3.24 3.813-7.728 3.813-12.962-1e-3 -5.239-1.321-9.725-3.813-12.965" fill="#C91818"/>
<path d="m347.88 29.331c0 0.748-0.682 1.496-1.521 1.496h-29.102c-0.848 0-1.527-0.748-1.527-1.496v-21.105c0-0.831 0.682-1.496 1.527-1.496h29.102c0.84 0 1.521 0.665 1.521 1.496v21.105zm-1.263-28.917h-29.621c-4.287 0-7.787 3.49-7.787 7.813v21.104c0 4.321 3.5 7.813 7.787 7.813h29.621c4.297 0 7.787-3.49 7.787-7.813v-21.105c0-4.32-3.491-7.812-7.787-7.812" fill="#C91818"/>
<path d="m470.02 62.737c7.045 2.824 21.928 5.066 33.545 5.066 12.713 0 17.973-4.32 17.973-9.806 0-4.985-4.887-7.811-18.92-12.963-18.771-6.896-32.541-12.38-32.541-24.762 0-12.713 16.57-20.274 41.822-20.274 13.561 0 18.215 0.831 26.822 2.41l0.066 12.131c-8.459-1.578-15.955-4.321-27.598-4.321-12.479 0-17.799 3.988-17.799 8.063 0 5.9 8.191 8.725 22.563 13.876 20 7.146 31.127 12.629 31.127 24.68 0 12.463-13.938 21.438-45.361 21.438-12.904 0-21.805-0.832-31.699-2.492v-13.046" fill="#C91818"/>
<path d="m403.12 10.719h-14.955v56.671h14.955c22.961 0 37.443-9.89 37.443-28.252 0-18.365-14.483-28.419-37.443-28.419zm40.144 61.905c-7.396 3.324-21.391 5.484-33.621 5.484h-46.748v-77.943h46.748c12.23 0 26.225 2.16 33.637 5.484 18.008 8.143 23.873 21.188 23.873 33.485 0 12.302-5.817 25.347-23.889 33.49" fill="#C91818"/>
<path d="m551.77 66.475h-3v-1.08h7.305v1.08h-3.016v8.725h-1.289v-8.725" fill="#C91818"/>
<path d="m565.44 70.878c-0.076-1.328-0.158-2.989-0.158-4.235h-0.033c-0.35 1.162-0.748 2.407-1.246 3.737l-1.736 4.82h-0.965l-1.609-4.736c-0.467-1.414-0.85-2.659-1.121-3.821h-0.033c-0.025 1.246-0.104 2.907-0.186 4.319l-0.268 4.238h-1.213l0.689-9.807h1.621l1.68 4.735c0.406 1.246 0.73 2.326 0.996 3.324h0.025c0.266-0.998 0.613-2.078 1.055-3.324l1.754-4.735h1.619l0.615 9.807h-1.254l-0.232-4.322" fill="#C91818"/>
</svg>
