<?xml version="1.0" encoding="UTF-8"?>
<svg version="1.1" viewBox="0 0 337.53 42.416" xml:space="preserve" xmlns="http://www.w3.org/2000/svg" xmlns:cc="http://creativecommons.org/ns#" xmlns:dc="http://purl.org/dc/elements/1.1/" xmlns:rdf="http://www.w3.org/1999/02/22-rdf-syntax-ns#"><metadata><rdf:RDF><cc:Work rdf:about=""><dc:format>image/svg+xml</dc:format><dc:type rdf:resource="http://purl.org/dc/dcmitype/StillImage"/><dc:title/></cc:Work></rdf:RDF></metadata>
<style type="text/css">
	.st0{fill:#FFE700;}
	.st1{fill:#00A2E7;}
</style>




<g transform="translate(-6.2849 -169.89)"><path d="m134.89 184.61c-1.6 0-2.9 0.6-4 1.7s-1.7 2.5-1.7 4c0 1.6 0.6 2.9 1.7 4s2.5 1.7 4 1.7c1.6 0 2.9-0.6 4-1.7s1.7-2.4 1.7-4-0.6-2.9-1.7-4c-1.1-1.2-2.4-1.7-4-1.7zm108.7-14c-5.9-0.2-10.8 1.6-14.9 5.6-4 3.9-6 8.9-6 14.8 0 5.3 1.5 9.8 4.6 13.7 3.9 4.9 9.5 7.3 16.6 7.3 7.2 0 12.7-2.5 16.6-7.6 3-3.8 4.4-8.3 4.4-13.3 0-5.9-2-10.8-6-14.8-3.8-4.1-9-5.9-15.3-5.7zm9.4 31.7c-1 2.8-2.3 4.8-4 6-1.4 1-3 1.5-5 1.5-3 0-5.3-1.1-7-3.4-2.4-3.3-3.6-8.3-3.6-15.1 0-5.7 0.8-10.1 2.3-13.2 1.9-3.7 4.7-5.6 8.3-5.6 2 0 3.7 0.5 5.2 1.6s2.8 2.9 3.7 5.5c1 2.6 1.5 6.6 1.5 11.8 0 4.5-0.5 8.1-1.4 10.9zm-66.6-8h-19.4v1h1c1 0 1.8 0.2 2.4 0.6 0.7 0.4 1.1 0.8 1.3 1.3s0.3 1.5 0.3 3.1v8.3c-1.1 0.4-2.1 0.7-3.1 0.9s-2 0.3-2.9 0.3c-2.8 0-5.1-0.7-7.1-2-2-1.4-3.4-3.5-4.3-6.3-0.9-2.9-1.3-6.2-1.3-10 0-3.2 0.4-6.2 1.2-9.2s2.2-5.3 4.2-7 4.5-2.5 7.4-2.5c3.1 0 6 1 8.6 3s4.6 4.9 5.9 8.8h1v-14.1h-1c-0.4 1.1-0.8 1.9-1.3 2.3s-1 0.6-1.5 0.6c-0.4 0-1.5-0.4-3.4-1.1s-3.3-1.2-4.2-1.3c-1.6-0.3-3.4-0.5-5.4-0.5-6.4 0-11.7 2.1-15.9 6.2s-6.3 9.2-6.3 15.2c0 3.3 0.7 6.4 2.1 9.1 1.1 2.1 2.6 4 4.5 5.7s4.1 3 6.6 4.1c2.5 1 5.6 1.5 9.4 1.5 3 0 5.8-0.3 8.6-0.9s5.4-1.4 8-2.6v-8.3c0-1.5 0.1-2.4 0.3-2.8 0.3-0.7 0.8-1.2 1.3-1.5 0.6-0.3 1.6-0.5 3.1-0.6v-1.3zm-80.9-23.7c-5.9-0.2-10.8 1.6-14.9 5.6-4 3.9-6 8.9-6 14.8 0 5.3 1.5 9.8 4.6 13.7 3.9 4.9 9.5 7.3 16.6 7.3 7.2 0 12.7-2.5 16.6-7.6 3-3.8 4.4-8.3 4.4-13.3 0-5.9-2-10.8-6-14.8-3.8-4.1-8.9-5.9-15.3-5.7zm9.4 31.7c-1 2.8-2.3 4.8-4 6-1.4 1-3 1.5-5 1.5-3 0-5.3-1.1-7-3.4-2.4-3.3-3.6-8.3-3.6-15.1 0-5.7 0.8-10.1 2.3-13.2 1.9-3.7 4.7-5.6 8.3-5.6 2 0 3.7 0.5 5.2 1.6s2.8 2.9 3.7 5.5c1 2.6 1.5 6.6 1.5 11.8 0 4.5-0.5 8.1-1.4 10.9zm100.2 4c-2.2 1.7-5.2 2.6-8.9 2.6h-2.4c-1.1 0-2-0.2-2.5-0.5s-0.9-0.7-1-1.2c-0.2-0.5-0.3-1.8-0.3-4v-11.2c1.9 0 3.4 0.3 4.4 0.8s1.9 1.5 2.6 2.9c0.8 1.5 1.2 3.3 1.5 5.6h1.1v-20.9h-1.1c-0.3 3.1-1 5.4-2.2 7-1.1 1.6-3 2.4-5.5 2.4h-0.8v-16.3h4.1c3 0 5.1 0.2 6.2 0.5 1.9 0.6 3.3 1.5 4.4 2.8 1 1.3 1.8 3.3 2.4 6.2h1.1v-11.8h-33.4v1h1.3c1.3 0 2.3 0.3 3 0.8 0.5 0.4 0.9 0.9 1.1 1.6 0.1 0.4 0.1 1.5 0.1 3.4v26.3c0 2-0.1 3.3-0.3 3.7-0.3 0.7-0.7 1.1-1.2 1.4-0.7 0.4-1.6 0.6-2.8 0.6h-1.3v1h34.4l1.8-12.7h-1.1c-0.8 3.6-2.4 6.3-4.7 8zm-138 0c-2.2 1.7-5.2 2.6-8.9 2.6h-2.4c-1.1 0-2-0.2-2.5-0.5s-0.9-0.7-1-1.2c-0.2-0.5-0.3-1.8-0.3-4v-11.2c1.9 0 3.4 0.3 4.4 0.8s1.9 1.5 2.6 2.9c0.8 1.5 1.2 3.3 1.5 5.6h1.1v-20.9h-1.2c-0.3 3.1-1 5.4-2.2 7-1.1 1.6-3 2.4-5.5 2.4h-0.8v-16.3h4.1c3 0 5.1 0.2 6.2 0.5 1.9 0.6 3.3 1.5 4.4 2.8 1 1.3 1.8 3.3 2.4 6.2h1.1v-11.8h-45.8v1c2.2 0 3.8 0.5 4.8 1.7 0.7 0.8 1 2.5 1 4.9v17.1l-19.7-24.7h-14.1v1c1.2 0 2.1 0.2 2.8 0.6 0.6 0.3 1.4 1 2.2 2.1l0.9 1.1v28.1c0 2.1-0.4 3.7-1.3 4.6-0.9 0.9-2.4 1.4-4.6 1.4v1h14.2v-1h-0.9c-1.4 0-2.6-0.4-3.6-1.2s-1.6-2.4-1.6-4.7v-25.4l26.9 33.2h1v-33.2c0-1.9 0.2-3.2 0.5-4s0.8-1.3 1.3-1.7c0.6-0.3 1.7-0.6 3.4-0.8h0.6c1.3 0 2.3 0.3 3 0.8 0.5 0.4 0.9 0.9 1.1 1.6 0.1 0.4 0.1 1.5 0.1 3.4v26.3c0 2-0.1 3.3-0.3 3.7-0.3 0.7-0.7 1.1-1.2 1.4-0.7 0.4-1.6 0.6-2.8 0.6h-1.3v1h34.4l1.8-12.7h-1.1c-0.9 3.5-2.5 6.2-4.7 7.9zm248.8-31.9c-1.3-0.6-3.4-0.8-6.4-0.8v29.4c0 1.5 0.1 2.4 0.2 2.8 0.1 0.3 0.4 0.6 0.7 0.8 0.5 0.3 1.2 0.4 2.1 0.4 3 0 5.3-1 6.9-3.1 2.1-2.8 3.2-7.4 3.2-13.3 0-4.7-0.7-8.4-2.2-11.3-1.2-2.1-2.7-4.1-4.5-4.9zm2.2 28.5c-1.3 1.7-3.1 2.5-5.6 2.5-0.9 0-1.2-0.2-1.3-0.2 0-0.2-0.1-0.7-0.1-2.2v-27.8c2.4 0.1 3.6 0.4 4.2 0.7 1.5 0.7 2.7 2.4 3.7 4.3 1.3 2.6 2 6.1 2 10.5 0 5.3-1 9.7-2.9 12.2zm13.1-23.3c-1.8-3.2-4.6-6.2-8.1-7.8-2.9-1.3-6.6-1.9-11.2-1.9h-20.5l-0.2 1.4c-0.1 0.8-0.3 1-0.4 1.1s-0.2 0.2-0.4 0.2c-0.1 0-0.6-0.1-2.6-0.9-3-1.2-6-1.8-8.7-1.8-3.7 0-7.3 0.9-10.6 2.8s-6 4.5-8 7.9-3 7-3 10.7c0 3.6 0.9 7 2.7 10.1 1.8 3.2 4.4 5.7 7.7 7.4 3.2 1.7 7 2.5 11.1 2.5 3.2 0 6-0.5 8.4-1.6 2.4-1 4.7-2.7 6.9-5l0.4-0.5v-8.1l-2.8 3.3c-2 2.3-3.9 3.9-5.6 4.8s-3.5 1.3-5.6 1.3c-2.4 0-4.4-0.6-5.8-1.7-1.5-1.2-2.6-2.9-3.3-5.3-0.8-2.5-1.2-5.4-1.2-8.5s0.5-5.9 1.6-8.4c0.8-1.9 1.9-3.3 3.6-4.4 1.6-1.1 3.4-1.7 5.4-1.7 2.4 0 4.4 0.7 6.3 2.3 1.9 1.5 3.2 3.8 3.9 6.8l0.3 1.2h3.9v-11.8h1.3c0.9 0 1.4 0.2 1.6 0.3 0.4 0.2 0.5 0.4 0.5 0.5s0.2 1.6 0.2 3.8v24.1c0 2-0.1 2.6-0.1 2.8-0.1 0.2-0.3 0.4-0.6 0.6-0.2 0.1-0.6 0.3-1.6 0.3h-2.8v4.1h17.9c2.5 0 4.3-0.1 5.5-0.4 2.6-0.5 4.9-1.2 6.7-2.1 1.9-0.9 3.6-2.2 5-3.7 1.4-1.6 2.6-3.5 3.5-5.9 0.9-2.3 1.3-5.3 1.3-8 0.2-4-0.8-7.6-2.6-10.8zm-37.3 4.7h-1c-0.8-3.3-2.3-5.9-4.4-7.6-2.2-1.8-4.6-2.6-7.3-2.6-2.3 0-4.4 0.7-6.3 2s-3.3 3-4.2 5.1c-1.1 2.7-1.7 5.7-1.7 9.1 0 3.3 0.4 6.2 1.2 8.9s2.1 4.7 3.9 6.1 4 2.1 6.8 2.1c2.3 0 4.4-0.5 6.3-1.5s3.9-2.7 6-5.2v3.2c-2 2.1-4.2 3.7-6.4 4.7s-4.8 1.4-7.8 1.4c-3.9 0-7.4-0.8-10.4-2.3-3-1.6-5.4-3.8-7-6.7s-2.5-6-2.5-9.4c0-3.5 0.9-6.8 2.7-9.9s4.3-5.6 7.4-7.3 6.4-2.6 9.9-2.6c2.6 0 5.3 0.6 8.1 1.7 1.7 0.6 2.7 1 3.2 1 0.6 0 1.1-0.2 1.5-0.6s0.7-1.1 0.8-2h1v12.4zm37.2 13.6c-0.8 2.2-1.9 4-3.2 5.4s-2.8 2.5-4.5 3.4-3.8 1.5-6.3 2c-1.1 0.2-2.8 0.3-5.2 0.3h-16.3v-0.9h1.2c1.1 0 1.9-0.2 2.4-0.5 0.6-0.3 1-0.8 1.2-1.4 0.2-0.4 0.2-1.5 0.2-3.4v-24.1c0-1.9-0.1-3.9-0.3-4.4s-0.6-0.9-1.2-1.2c-0.6-0.4-1.4-0.5-2.4-0.5h-1.2v-1.1h16.3c4.4 0 7.9 0.6 10.5 1.8 3.3 1.5 5.7 4.1 7.4 7.1 1.7 2.9 2.5 6.3 2.5 10 0.2 2.6-0.3 5.3-1.1 7.5z"/><path d="m103.53 211.86c-6.5211-0.66589-11.255-3.1764-14.748-7.8218-1.1244-1.4953-2.6967-4.6829-3.2217-6.5318-1.4836-5.2246-1.0881-11.029 1.0583-15.534 1.0357-2.1736 1.9007-3.4216 3.5957-5.1874 2.9652-3.0891 6.1856-4.8971 10.213-5.7337 1.7703-0.36776 6.0875-0.50078 8.3988-0.25877 5.1882 0.54323 8.4564 2.0885 11.881 5.6173 2.5946 2.6739 3.9829 4.8919 4.9542 7.9152 0.82741 2.5754 1.0197 4.1332 0.93179 7.548-0.0695 2.6996-0.13133 3.2265-0.58124 4.9541-0.57862 2.2218-1.8451 4.9782-3.0882 6.7214-3.1603 4.4314-7.3516 7.0723-12.698 8.001-1.4595 0.25351-5.4439 0.43836-6.695 0.3106zm4.7287-2.2749c3.2881-0.85644 5.8428-3.9165 7.0167-8.4045 0.80697-3.0852 0.98699-4.9167 0.98712-10.043 1.3e-4 -5.0207-0.13676-6.6187-0.81132-9.471-1.4296-6.0448-4.6923-9.2213-9.4718-9.2213-2.4739 0-4.5447 0.86131-6.2868 2.6148-2.0909 2.1046-3.2686 4.8865-4.0302 9.5198-0.38358 2.3336-0.47446 9.1442-0.15833 11.865 0.87372 7.5189 3.663 12.106 8.0011 13.158 1.1908 0.28885 3.6103 0.27959 4.7536-0.0182z" fill="#777" stroke="#777" stroke-width=".16329"/><path d="m27.903 195.36-13.453-16.607-0.04178 13.456c-0.04596 14.802-0.05561 14.637 0.94038 16.085 0.70104 1.0189 2.1974 1.7363 3.8418 1.8418 1.1521 0.0739 1.2198 0.0997 1.2198 0.46504v0.38676h-14.043v-0.40823c0-0.35659 0.071296-0.40824 0.56349-0.40824 1.6892 0 3.5917-0.79563 4.3259-1.8091 0.98699-1.3625 0.98919-1.4018 0.98919-17.64v-14.731l-0.64359-0.83155c-1.5085-1.9491-2.6756-2.7394-4.3777-2.9646-0.76127-0.10074-0.85729-0.15681-0.85729-0.50064v-0.3872h13.986l19.734 24.734 0.04967-1.3038c0.02732-0.71709 0.02372-5.2351-8e-3 -10.04-0.05145-7.7954-0.08855-8.8295-0.34443-9.6025-0.54746-1.6538-2.0905-2.6675-4.4245-2.9066-0.98455-0.10087-1.0697-0.1403-1.0697-0.49528v-0.38569h45.722v11.594h-0.48677c-0.39895 0-0.50404-0.081-0.58252-0.44906-0.57536-2.6985-1.8374-5.4109-2.9925-6.4314-2.3345-2.0626-4.5753-2.5902-11.002-2.5904l-3.0618-1.4e-4v16.493l0.77564-3e-3c1.1227-4e-3 2.8165-0.39863 3.7565-0.87496 1.965-0.99574 3.5382-4.0447 3.8978-7.5538l0.10649-1.0394h1.098v20.738h-0.48248c-0.43156 0-0.49265-0.0646-0.57877-0.61235-0.61589-3.9168-1.9094-6.5605-3.7328-7.6291-0.79983-0.46873-2.1874-0.83444-3.738-0.98516l-1.1022-0.10714 5e-3 6.5856c0.0052 6.7823 0.1206 8.6581 0.57536 9.3522 0.52862 0.80678 1.555 1.122 3.9133 1.202 5.2257 0.17723 8.8518-0.86004 11.433-3.2704 1.7313-1.6168 3.1226-3.995 3.8237-6.5359 0.19189-0.69545 0.26248-0.77565 0.68268-0.77565 0.25776 0 0.46895 0.0551 0.46931 0.12247 0.0011 0.21021-1.635 11.696-1.7213 12.084l-0.08177 0.36741h-34.285v-0.40823c0-0.39827 0.02919-0.40824 1.1951-0.40824 2.259 0 3.5959-0.67365 4.1411-2.0866 0.2806-0.72722 0.2975-1.6889 0.2975-16.937 0-8.8913-0.05509-16.362-0.12242-16.603-0.17848-0.63635-0.88259-1.4051-1.6535-1.8054-1.0204-0.52978-3.2307-0.59299-5.0092-0.14325-1.1052 0.27947-1.4853 0.46063-1.9799 0.94363-1.2728 1.2429-1.1905-0.10201-1.2401 20.261l-0.04427 18.166h-0.46395c-0.41851 0-1.7817-1.6266-13.917-16.607z" fill="#777" stroke="#777" stroke-width=".16329"/><path d="m133.56 195.74c-1.5664-0.42234-3.0008-1.5942-3.7653-3.0761-0.54477-1.0559-0.61233-3.0174-0.14647-4.2524 0.45936-1.2179 1.7049-2.585 2.878-3.159 1.2042-0.58919 2.7866-0.70689 4.0712-0.30283 1.2632 0.39733 2.7289 1.7436 3.3682 3.0938 0.62906 1.3285 0.65822 3.1689 0.0702 4.4317-0.74075 1.5909-2.0598 2.7443-3.693 3.2293-1.0216 0.30338-1.7545 0.31271-2.783 0.0354z" fill="#777" stroke="#777" stroke-width=".16329"/><path d="m162.23 212.12c-3.1943-0.28273-5.4036-0.86779-7.8381-2.0757-5.2632-2.6114-9.1369-6.8701-10.753-11.822-0.73265-2.2444-0.97793-4.2834-0.86926-7.2263 0.101-2.7353 0.31204-3.9986 1.0205-6.109 1.917-5.7108 6.766-10.665 12.596-12.87 2.2976-0.86894 4.3147-1.2236 7.509-1.3202 4.2459-0.12849 6.0529 0.14912 10.011 1.538 3.2478 1.1397 3.8372 1.288 4.4787 1.127 0.64611-0.16216 1.4579-0.97345 1.8837-1.8826 0.33253-0.70997 0.45495-0.82936 0.85042-0.82936h0.46197v13.88h-0.47722c-0.4075 0-0.50606-0.0895-0.67462-0.61235-0.10858-0.3368-0.52153-1.2835-0.91768-2.1037-1.7329-3.588-4.2239-6.1275-7.5765-7.7241-1.87-0.89051-3.0003-1.1654-5.2232-1.2702-6.3352-0.29884-10.695 3.216-12.41 10.004-0.94927 3.7587-1.277 7.6643-0.97866 11.664 0.44789 6.005 1.7188 9.7132 4.1717 12.172 2.0136 2.0182 4.4119 2.9969 7.6908 3.1385 2.1809 0.0942 3.4704-0.0693 5.5917-0.7088l1.362-0.41064-0.0651-5.4197c-0.0463-3.8562-0.12441-5.5611-0.27064-5.9096-0.52562-1.2529-1.9305-2.0371-3.6538-2.0396l-1.1022-2e-3v-0.97976h19.452l-0.1014 1.2247-1.0331 0.11395c-0.56823 0.0627-1.2798 0.19537-1.5813 0.29487-0.70676 0.23325-1.643 1.2727-1.8643 2.0698-0.10479 0.37737-0.17361 2.6122-0.17416 5.6554l-9.8e-4 5.0315-1.0206 0.46041c-2.4055 1.0852-6.9131 2.2761-10.241 2.7058-2.3241 0.30005-6.2591 0.41278-8.2519 0.2364z" fill="#777" stroke="#777" stroke-width=".16329"/><path d="m184.68 210.49v-0.48988l1.3472-9.8e-4c0.74095-4.9e-4 1.6279-0.0789 1.9711-0.17416 0.81136-0.2253 1.8325-1.1568 2.1022-1.9177 0.17003-0.47965 0.21322-3.9258 0.21322-17.013 0-15.447-0.0171-16.442-0.29162-16.945-0.63937-1.1706-2.1609-1.8338-4.207-1.8338-0.92765 0-0.97173-0.0185-0.97173-0.40823v-0.40824h33.312v11.615l-0.50948-0.0512c-0.48457-0.0487-0.52363-0.10708-0.79879-1.1945-0.9726-3.8436-2.388-5.8506-5.0201-7.1184-1.7037-0.82058-2.7942-0.97556-7.5925-1.079l-4.3681-0.0942v16.538l0.8573-3e-3c2.1067-7e-3 4.2592-0.82452 5.2652-1.9998 1.1746-1.3722 2.127-3.9073 2.453-6.5295 0.11178-0.8991 0.13672-0.93894 0.5878-0.93894h0.47106v20.738h-0.47311c-0.45656 0-0.47974-0.0386-0.66223-1.1022-0.47983-2.7968-1.2808-4.7892-2.467-6.1368-1.0843-1.2318-2.2859-1.7089-5.0269-1.9959l-1.036-0.10848 0.0645 7.4069c0.057 6.5375 0.0974 7.4835 0.34432 8.06 0.60325 1.4084 1.9597 1.7968 5.8272 1.6683 2.693-0.0895 4.4633-0.38428 6.1736-1.028 3.4346-1.2928 5.8526-3.9711 7.0878-7.8507 0.50935-1.5999 0.55997-1.6866 0.98597-1.6878 0.24699-6.5e-4 0.44935 0.0538 0.44971 0.12119 1e-3 0.21021-1.635 11.696-1.7213 12.084l-0.0818 0.36741h-34.285z" fill="#777" stroke="#777" stroke-width=".16329"/><path d="m240.94 211.79c-6.455-0.73015-11.406-3.678-14.736-8.7746-2.3877-3.6539-3.372-7.1783-3.3629-12.041 6e-3 -3.0392 0.3114-4.9994 1.1392-7.3047 1.897-5.2828 6.378-9.8518 11.516-11.743 2.1501-0.79121 4.0146-1.1229 6.9206-1.2311 7.8146-0.29107 12.923 1.641 17.159 6.4898 3.1592 3.6163 4.7083 7.223 5.1416 11.971 0.60778 6.6602-1.6999 12.996-6.3523 17.441-2.7404 2.6181-6.0352 4.2616-9.914 4.9452-1.8007 0.31735-5.7454 0.44738-7.5115 0.2476zm5.3819-2.2054c4.0889-1.065 6.6444-4.8942 7.7131-11.557 0.42127-2.6264 0.42205-11.283 1e-3 -13.955-1.2058-7.655-4.6201-11.627-9.9938-11.627-3.6796 0-6.5483 1.9342-8.4017 5.6648-1.5354 3.0907-2.2937 7.505-2.2939 13.355-5.1e-4 10.287 2.8952 16.71 8.1646 18.109 1.1948 0.31741 3.611 0.32245 4.8104 0.01z" fill="#777" stroke="#777" stroke-width=".16329"/><path d="m286.99 211.12c-4.0881-0.23092-7.9353-1.4804-11.086-3.6003-1.3826-0.93036-3.6975-3.2225-4.6587-4.6129-2.3956-3.4653-3.6059-7.3298-3.6059-11.513 0-5.798 2.1714-10.902 6.4276-15.11 1.9536-1.9312 3.3946-2.9782 5.632-4.0922 3.116-1.5516 5.5794-2.1084 9.3318-2.1092 3.262-7.3e-4 4.8821 0.31085 8.5555 1.6454 1.3376 0.48594 2.5961 0.88352 2.7968 0.88352 0.52309 0 0.68391-0.27176 0.90204-1.5243l0.19329-1.11 12.514 0.0685c13.555 0.0742 13.341 0.0611 16.76 1.0245 5.415 1.5259 9.8676 6.0817 11.984 12.262 0.78177 2.2829 1.0468 4.3872 0.94271 7.4865-0.1431 4.2628-0.76606 6.8851-2.3567 9.9205-2.4298 4.6365-6.166 7.3465-12.237 8.8756-3.0707 0.77346-4.9883 0.88-15.847 0.88046l-9.3486 4e-4v-4.0823l2.0004-6.6e-4c1.685-4.9e-4 2.0815-0.0501 2.5149-0.31436 0.50175-0.30594 0.51733-0.35165 0.62632-1.8364 0.0615-0.83748 0.0871-7.7352 0.057-15.328-0.0508-12.79-0.0757-13.838-0.33901-14.239-0.33933-0.51772-1.1501-0.77426-2.451-0.77552l-0.93894-8.7e-4v11.757h-3.8671l-0.20594-0.93894c-0.3259-1.4858-1.1861-3.6315-1.865-4.6523-1.3047-1.9617-3.5809-3.6683-5.7375-4.3019-1.4492-0.42574-3.9243-0.40144-5.3887 0.0529-2.1676 0.67256-4.2768 2.2186-5.3813 3.9446-1.7786 2.7794-2.5293 5.8633-2.5352 10.415-5e-3 3.5335 0.34191 5.8574 1.3105 8.7888 1.4029 4.2458 3.9525 6.275 8.239 6.5575 2.6505 0.17462 5.1528-0.44055 7.1975-1.7695 1.8602-1.209 3.0994-2.3527 5.3143-4.9048l2.103-2.4232v7.9246l-1.1719 1.1263c-4.5952 4.4166-9.2833 6.0264-16.382 5.6254zm5.7443-1.2887c3.2099-0.43889 6.0684-1.8624 9.1563-4.5597l1.3472-1.1768v-3.4497l-1.7071 1.7258c-3.5156 3.5542-6.4253 4.8979-10.622 4.9051-3.3742 6e-3 -5.6619-0.85909-7.6799-2.9035-1.8692-1.8936-2.9703-4.3921-3.7051-8.4064-0.51067-2.7901-0.50895-8.2082 3e-3 -10.567 0.93058-4.2838 2.4425-6.9543 5.0987-9.0059 1.748-1.3501 4.2261-2.149 6.6661-2.149 4.4364 0 8.1181 2.3554 10.21 6.5318 0.38233 0.7634 0.83654 1.884 1.0093 2.4902 0.29044 1.019 0.34826 1.1022 0.76528 1.1022h0.4511v-12.574h-0.55718c-0.52819 0-0.56327 0.0361-0.67435 0.69356-0.16041 0.94946-1.1161 1.9188-1.8927 1.9198-0.30245 4e-4 -1.9461-0.47416-3.6525-1.0546-3.5928-1.222-5.3024-1.5576-7.9392-1.5583-8.5664-2e-3 -16.073 5.3295-18.903 13.426-0.72089 2.0628-1.0296 3.9515-1.033 6.3189-0.0125 8.6919 5.2868 15.613 13.587 17.744 0.85321 0.21911 1.9922 0.46194 2.5311 0.53962 1.4257 0.20552 6.0555 0.20945 7.5405 6e-3zm35.568-1.276c0.80758-0.20025 2.0048-0.54419 2.6606-0.76431 7.121-2.3904 11.302-8.5416 11.302-16.627 0-4.8684-0.94272-8.4136-3.1382-11.801-3.068-4.7343-7.0299-7.0474-13.226-7.7214-0.92801-0.10097-5.5165-0.17252-11.063-0.17252h-9.4775v1.0862l1.6406 0.1662c1.4017 0.14199 1.7406 0.23633 2.3269 0.64783 1.232 0.86459 1.167-0.0841 1.1719 17.123 4e-3 15.262 2e-3 15.353-0.33726 16.001-0.50191 0.95687-1.5181 1.4304-3.2665 1.5222l-1.3724 0.072v0.95617l10.655-0.0621c10.364-0.0604 10.695-0.072 12.123-0.42614z" fill="#777" stroke="#777" stroke-width=".16329"/><path d="m320.79 206.67c-0.26943-0.11894-0.63685-0.38093-0.81647-0.58222-0.3212-0.35994-0.32734-0.62981-0.37204-16.352l-0.0454-15.986 1.5967 6e-3c1.7266 6e-3 3.705 0.29994 4.6177 0.68569 2.0972 0.88638 4.5495 4.1992 5.6079 7.5756 0.72119 2.3009 0.95229 4.0011 1.0419 7.6655 0.2422 9.9018-2.3379 15.752-7.4814 16.965-1.2839 0.30264-3.487 0.31454-4.1488 0.0224zm4.7349-1.7317c2.7086-1.0484 4.5031-4.334 5.2376-9.59 0.21046-1.5061 0.24995-2.6971 0.18285-5.5136-0.0957-4.0169-0.37156-5.7438-1.3214-8.2726-0.74286-1.9777-1.4625-3.1318-2.8005-4.4912-1.3197-1.3408-1.9696-1.6113-4.3803-1.8226l-1.4082-0.12347v15.057c0 11.888 0.043 15.076 0.20412 15.148 0.11226 0.0503 0.9022 0.068 1.7554 0.0392 1.1365-0.0383 1.8131-0.1536 2.5304-0.43122z" fill="#777" stroke="#777" stroke-width=".16329"/></g></svg>
