<?xml version="1.0" encoding="UTF-8"?>
<!DOCTYPE svg  PUBLIC '-//W3C//DTD SVG 1.1//EN'  'http://www.w3.org/Graphics/SVG/1.1/DTD/svg11.dtd'>
<svg enable-background="new 0 0 566.924 121.752" version="1.1" viewBox="0 0 566.92 121.75" xml:space="preserve" xmlns="http://www.w3.org/2000/svg">

	
		
			
				
					<linearGradient id="d" x1="-8.1711" x2="-8.1711" y1="2.5586" y2="118.27" gradientTransform="translate(155)" gradientUnits="userSpaceOnUse">
					<stop stop-color="#B2B2B4" offset="0"/>
					<stop stop-color="#B2B2B4" offset=".3516"/>
					<stop stop-color="#9BA29A" offset=".3571"/>
					<stop stop-color="#9BA29A" offset=".6758"/>
					<stop stop-color="#717274" offset=".6813"/>
					<stop stop-color="#717274" offset="1"/>
				</linearGradient>
				<path d="m146.83 3.073c-38.667 0-61.867 30.933-61.867 58s19.333 58 61.867 58c34.8 0 61.867-30.933 61.867-58s-23.2-58-61.867-58zm0 96.666c-19.333 0-30.933-11.599-30.933-38.666s11.6-38.667 30.933-38.667 30.934 11.601 30.934 38.667c-1e-3 27.068-11.601 38.666-30.934 38.666z" fill="url(#d)"/>
			
		
		
			<linearGradient id="c" x1="427.16" x2="427.16" y1="2.5586" y2="118.27" gradientUnits="userSpaceOnUse">
				<stop stop-color="#B2B2B4" offset="0"/>
				<stop stop-color="#B2B2B4" offset=".3516"/>
				<stop stop-color="#9BA29A" offset=".3571"/>
				<stop stop-color="#9BA29A" offset=".6758"/>
				<stop stop-color="#717274" offset=".6813"/>
				<stop stop-color="#717274" offset="1"/>
			</linearGradient>
			<path d="m444.56 119.07c-42.534 0-69.601-23.2-69.601-58s23.2-58 61.866-58c19.334 0 34.801 11.599 42.534 23.2-3.866 7.733-19.333 19.334-19.333 19.334-3.867 0-7.734-3.868-7.734-3.868 0-7.733 3.867-19.333-15.467-19.333-19.332 0-30.934 7.733-30.934 38.667 0 23.2 19.334 38.666 38.668 38.666h11.6c3.867-3.866 7.733-7.733 7.733-11.599h7.733v30.933h-27.065z" fill="url(#c)"/>
		
		
			
				
					<linearGradient id="b" x1="113.63" x2="113.63" y1="2.5586" y2="118.27" gradientTransform="translate(155)" gradientUnits="userSpaceOnUse">
					<stop stop-color="#B2B2B4" offset="0"/>
					<stop stop-color="#B2B2B4" offset=".3516"/>
					<stop stop-color="#9BA29A" offset=".3571"/>
					<stop stop-color="#9BA29A" offset=".6758"/>
					<stop stop-color="#717274" offset=".6813"/>
					<stop stop-color="#717274" offset="1"/>
				</linearGradient>
				<path d="m313.1 107.47c-3.866-3.866-23.2-38.666-27.066-42.533 11.601 0 27.066-11.6 27.066-30.933 0-19.334-15.466-30.933-30.933-30.933h-65.734v7.733c7.733 0 7.733 11.599 7.733 11.599s0 77.333 0 81.201c0 3.866-3.867 7.733-7.733 7.733v7.733h41.083v-7.733c-5.317 0-6.283-3.867-6.283-7.733v-34.8c3.866 0 7.733 0 11.6 3.866 3.867 3.867 11.6 27.066 15.466 34.8 3.868 7.733 7.734 11.601 11.6 11.601h23.2s7.733-7.733 7.733-7.733-3.866-1e-3 -7.732-3.868zm-46.4-54.133h-15.466v-30.934s7.733 0 15.466 0 15.467 3.867 15.467 15.468c0 11.599-7.734 15.466-15.467 15.466z" fill="url(#b)"/>
			
		
		
			<linearGradient id="a" x1="347.9" x2="347.9" y1="2.5591" y2="118.27" gradientUnits="userSpaceOnUse">
				<stop stop-color="#B2B2B4" offset="0"/>
				<stop stop-color="#B2B2B4" offset=".3516"/>
				<stop stop-color="#9BA29A" offset=".3571"/>
				<stop stop-color="#9BA29A" offset=".6758"/>
				<stop stop-color="#717274" offset=".6813"/>
				<stop stop-color="#717274" offset="1"/>
			</linearGradient>
			<path d="m363.36 103.61c0 3.867 3.867 7.733 7.734 7.733v7.733h-46.4v-7.733c3.867 0 7.733-3.866 7.733-7.733v-85.066c0-3.867-3.866-7.733-7.733-7.733v-7.734h46.4v7.733c-3.867 0-7.734 3.866-7.734 7.733v85.067z" fill="url(#a)"/>
		
	

</svg>
