<?xml version="1.0" encoding="UTF-8"?>
<svg version="1.1" viewBox="0 0 873.36 193.01" xmlns="http://www.w3.org/2000/svg" xmlns:cc="http://creativecommons.org/ns#" xmlns:dc="http://purl.org/dc/elements/1.1/" xmlns:rdf="http://www.w3.org/1999/02/22-rdf-syntax-ns#">
<metadata>
<rdf:RDF>
<cc:Work rdf:about="">
<dc:format>image/svg+xml</dc:format>
<dc:type rdf:resource="http://purl.org/dc/dcmitype/StillImage"/>
<dc:title/>
</cc:Work>
</rdf:RDF>
</metadata>
<path d="m146.2 191.66c-7.9947-1.7524-18.038-6.1674-24.766-10.887-10.939-7.6732-22.792-25.51-26.679-40.146-2.2581-8.5032-2.2663-27.484-0.0153-35.156 6.4103-21.849 22.594-39.07 43.229-46 8.2783-2.7801 25.295-4.1705 31.406-2.5662l3.2812 0.86141 0.83135 10.835c0.45724 5.959 0.55187 12.324 0.21028 14.145l-0.62106 3.3105-10.992 0.3545c-12.7 0.4096-18.05 2.3095-25.723 9.1347-15.213 13.533-15.076 41.453 0.2776 56.408 7.949 7.7426 19.188 11.663 30.181 10.528 4.7645-0.49175 5.124-0.38413 5.6821 1.7011 0.32769 1.2244 0.60157 7.8011 0.60862 14.615 0.0117 11.296-0.14713 12.474-1.8006 13.359-2.5244 1.351-18.088 1.0436-25.111-0.49596zm107.28 0.0248c-18.615-3.7021-27.894-14.31-30.859-35.279-1.9869-14.05 1.6921-25.96 10.452-33.836 2.6066-2.3436 4.7394-4.4684 4.7394-4.7219 0-0.25341-1.3307-1.8765-2.9572-3.6068-7.7216-8.2147-10.162-24.726-5.7305-38.771 2.9234-9.2654 7.795-14.797 16.656-18.913 5.1987-2.4147 6.5131-2.6142 17.344-2.6311 11.394-0.01786 11.908 0.07019 18.544 3.1802 3.9886 1.8693 8.1632 4.6799 10.045 6.7632 12.403 13.728 12.824 37.094 0.90779 50.348l-4.1526 4.6187 3.7692 2.4943c11.443 7.5725 16.352 28.42 10.675 45.331-4.9664 14.795-13.689 22.497-28.462 25.132-8.6884 1.55-12.739 1.529-20.971-0.10823zm18.615-34.418c7.5429-6.927 5.6631-19.958-3.4024-23.585-10.844-4.339-20.408 7.7866-15.468 19.611 1.7431 4.1718 6.4219 7.0137 11.555 7.0182 3.2079 3e-3 4.6539-0.59871 7.3159-3.0434zm-1.6048-56.515c9.4875-7.9832 3.1001-24.758-8.5919-22.565-7.4162 1.3913-11.565 11.754-7.6301 19.06 3.3057 6.1384 11.093 7.8211 16.222 3.5053zm-267.83 90.62c-0.68363-0.43342-1.4072-2.4309-1.6079-4.4388-0.20073-2.0079-0.57732-30.739-0.83686-63.848-0.425-54.215-0.32353-60.345 1.0212-61.69 1.3137-1.3137 4.9503-1.459 30.279-1.2093l28.786 0.28376 8.0585 3.9949c11.755 5.8272 17.584 12.912 20.784 25.259 5.873 22.665-7.8812 45.469-30.964 51.339-7.2666 1.848-17.783 2.2125-19.326 0.66987-0.7474-0.7474-1.301-4.9065-1.5253-11.459-0.43067-12.583 0.42777-14.51 6.8941-15.48 10.839-1.6255 16.701-11.985 11.874-20.986-2.4694-4.6045-6.8325-6.6203-14.329-6.6203-3.8457 0-6.6008 0.44921-7.2026 1.1744-0.6516 0.78512-0.92794 17.748-0.83377 51.181 0.1362 48.355 0.08126 50.05-1.6631 51.326-1.3505 0.98752-5.117 1.3155-14.984 1.3047-7.2491-7e-3 -13.74-0.36898-14.423-0.80239zm339.68-0.14469c-10.423-2.1013-20.623-9.7778-24.47-18.416-6.35-14.259-6.741-31.098-0.98051-42.232 1.7601-3.402 7.644-9.7821 10.397-11.274 1.7376-0.94164 1.6837-1.1446-1.1661-4.3903-6.3966-7.2854-9.1726-16.475-8.3442-27.623 0.98591-13.269 4.89-21.287 13.599-27.929 5.4331-4.144 9.2159-5.1443 21.444-5.6708 12.451-0.5361 19.365 1.2654 27.021 7.0413 14.956 11.282 16.895 40.655 3.5635 53.986l-3.3553 3.3553 4.7891 4.3058c3.0797 2.7689 5.8869 6.5357 7.8647 10.553 3.0003 6.0945 3.0753 6.5459 3.0674 18.455-7e-3 11.344-0.19978 12.662-2.7186 18.637-4.551 10.796-13.769 18.57-25.125 21.19-4.7244 1.0898-20.204 1.0973-25.586 0.0125zm18.81-32.537c11.92-5.6841 7.4092-26.228-5.6963-25.944-7.5089 0.16247-12.635 5.753-12.641 13.786-8e-3 10.83 8.8318 16.691 18.338 12.158zm-0.56616-57.097c3.7991-2.2442 5.6623-6.0335 5.6623-11.516 0-4.1479-0.43074-5.261-3.2092-8.2928-2.8644-3.1256-3.6998-3.5019-7.7756-3.5019-5.9064 0-9.0326 2.0964-11.066 7.4206-2.1507 5.6316-1.242 10.255 2.8122 14.31 2.537 2.537 3.842 3.1136 7.047 3.1136 2.1634 0 5.1015-0.68999 6.5292-1.5333zm81.362 89.578c-23.93-5.6399-38.372-34.493-37.013-73.945 1.3754-39.912 19.504-63.304 48.97-63.187 15.246 0.06052 24.705 3.8546 33.623 13.487 8.2849 8.9487 13.732 22.334 16.204 39.819 1.227 8.6786 1.2862 12.343 0.3736 23.127-0.59643 7.0482-1.9207 16.316-2.9428 20.596-2.0602 8.6259-8.7191 22.684-13.483 28.464-3.9414 4.7827-11.596 9.3623-18.737 11.21-6.0709 1.571-21.132 1.8099-26.994 0.42812zm19.833-32.216c8.5546-4.4238 12.426-14.608 13.003-34.204 0.53476-18.18-1.1037-26.111-7.0984-34.357-3.421-4.7057-7.939-6.9554-13.969-6.9554-8.1915 0-14.655 6.0251-18.607 17.344-2.1788 6.2414-2.9341 25.493-1.3609 34.69 2.6029 15.217 10.653 24.842 20.777 24.842 2.5455 0 5.8102-0.61126 7.2549-1.3584zm87.311 31.733c-9.3884-2.5231-19.142-10.411-24.405-19.736-1.5082-2.6724-3.1653-5.1204-3.6825-5.44-1.7243-1.0656-6.5911-18.152-7.5471-26.495-3.0315-26.459 0.65578-48.154 10.708-63.001 12.676-18.722 29.025-25.627 50.157-21.182 9.0421 1.9021 15.462 5.3669 21.636 11.677 14.839 15.165 20.584 44.171 15.329 77.397-4.1408 26.184-17.585 43.856-36.024 47.353-6.9946 1.3265-20.179 1.0382-26.171-0.57238zm21.344-31.697c5.1428-2.6867 8.7548-7.7475 10.986-15.392 5.7132-19.577 2.8322-46.196-5.9639-55.102-6.2222-6.3001-14.186-7.2615-21.401-2.5833-4.418 2.8647-7.1005 6.8336-9.8514 14.576-2.9019 8.167-3.1372 31.785-0.40707 40.854 2.1565 7.1636 6.8191 13.943 11.565 16.816 4.1239 2.4965 11.144 2.8835 15.072 0.83097zm220.5 26.161c-0.7563-0.91128-1.0064-3.1254-0.70603-6.2511 0.51564-5.3665 2.2458-7.3378 6.4404-7.3378 2.8827 0 10.432-6.5156 24.942-21.528 8.3923-8.6827 10.065-11.498 7.4294-12.51-0.70014-0.26867-9.0322-0.7794-18.516-1.135-19.766-0.7411-20.109-0.88222-19.184-7.9013 0.30214-2.2923 1.0734-4.517 1.714-4.9436s10.513-0.66046 21.939-0.51962l20.775 0.25609 3.6003 2.9118c2.2863 1.8491 4.2175 4.5666 5.2912 7.4457 2.4316 6.5198 1.0084 11.779-5.0655 18.72-2.6256 3.0004-4.3438 5.755-3.9808 6.3819 0.3513 0.60657 1.8165 2.6186 3.256 4.4711 2.4054 3.0956 6.7859 11.698 9.2296 18.126 1.4801 3.8929-0.10406 5.2248-6.2141 5.2248-5.64 0-5.3401 0.30202-12.041-12.127-3.945-7.3173-5.28-7.2146-12.608 0.97006-4.3363 4.8432-7.4258 7.3477-11.031 8.9422-5.8374 2.5816-13.463 2.9829-15.271 0.80371zm-159.14-0.5915c-0.68934-0.69701-1.1719-3.629-1.1719-7.1206 0-3.9178 0.3984-6.0668 1.1719-6.3215 0.64454-0.21222 8.4763-0.62052 17.404-0.90734 8.9277-0.28681 17.039-0.95337 18.025-1.4812 3.7106-1.9858 4.1754-4.4494 4.2989-22.786 0.0715-10.619 0.50106-18.032 1.0781-18.609 1.4653-1.4653 12.477-1.2142 13.441 0.30642 0.44113 0.6961 0.8085 9.5225 0.8164 19.614 0.0161 20.636-0.88618 25.281-5.9674 30.718-6.1695 6.6011-8.3123 7.1503-29.174 7.4777-14.19 0.2227-19.035 6e-3 -19.922-0.89062zm61.617-1.3397c-1.2547-3.3002-1.1486-5.5321 0.44411-9.3441l1.3584-3.2511 9.6572-0.0529c11.079-0.0607 15.235-1.1999 18.007-4.9359 1.8193-2.4517 1.9795-4.028 2.1911-21.562 0.20253-16.781 0.41425-19.058 1.875-20.164 2.1322-1.6137 11.334-0.97929 12.5 0.86177 0.46027 0.72708 0.84332 10.249 0.85122 21.16 0.0131 18.096-0.16367 20.304-2.0126 25.135-1.3398 3.5012-3.2837 6.3724-5.7343 8.47-5.8245 4.9856-10.394 6.0876-25.241 6.0876h-12.981l-0.91429-2.4048zm52.523-22.654c-2.1316-0.81144-2.7824-2.2476-2.7982-6.1752-0.0302-7.5176-1.2103-7.204 27.106-7.204 28.318 0 26.317-0.57337 26.317 7.5437 0 3.5665-0.40061 4.7922-1.8134 5.5483-1.899 1.0163-46.211 1.277-48.812 0.28715zm-114.14-4.6251c-1.5426-0.62247-1.5819-11.719-0.0469-13.254 1.3423-1.3423 25.783-1.57 27.853-0.25943 0.78436 0.49652 1.5039 3.031 1.7694 6.2322 0.63278 7.6304 0.0525 7.9199-15.692 7.8282-6.9913-0.0407-13.239-0.2868-13.883-0.54687zm61.828-3.3166c-0.76985-0.76985-1.125-5.3468-1.125-14.498 0-15.213 0.0519-15.314 7.8402-15.314 6.7564 0 7.1598 0.89135 7.1598 15.817 0 8.7604-0.35926 13.23-1.125 13.996-0.61875 0.61875-3.4875 1.125-6.375 1.125s-5.7562-0.50625-6.375-1.125zm-59.063-15.542c-3.9445-0.42497-5.3234-3.5493-4.2236-9.5696l0.77311-4.2317h14.522 14.522l0.28272 5.9985c0.1555 3.2992-0.13287 6.4141-0.64081 6.9221-0.90409 0.90409-19.119 1.5397-25.236 0.88068zm214.18-4.7345c-0.85336-0.94295-1.5516-2.5569-1.5516-3.5866 0-2.1764 3.6739-5.949 5.7934-5.949 2.258 0 6.3941 3.6826 6.3941 5.693 0 4.6599-7.4578 7.3543-10.636 3.8425zm15.639 0.60654c-2.3899-1.1561-3.1378-3.3359-2.1037-6.1314 1.6772-4.534 8.6377-4.9056 10.294-0.54963 1.2175 3.2022 1.1174 3.7906-1.0059 5.9139-2.0546 2.0546-4.0763 2.2705-7.1842 0.7671zm-693.64-2.7173c-1.3076-2.1157-1.6626-19.524-0.42854-21.011 0.98021-1.1811 4.5426-1.4138 21.641-1.4138h20.468l0.5612 3.0469c0.30866 1.6758 0.43325 6.8438 0.27686 11.484l-0.28434 8.4375-20.793 0.25213c-14.564 0.17661-20.987-0.0619-21.441-0.7961zm-167.75-83.329c-0.27323-0.44209 0.77051-6.288 2.3194-12.991 3.3607-14.544 3.5099-17.543 0.94121-18.917-1.0312-0.55191-1.8596-1.516-1.8408-2.1424 0.042312-1.4097 9.849-11.92 11.122-11.92 0.50876 0 1.4784 0.79007 2.1548 1.7557 3.4121 4.8715 19.002 21.608 19.551 20.989 0.71636-0.80744 4.6541-17.748 4.6441-19.979-0.01928-4.3182 3.5651-3.8127 9.7799 1.3792l2.7552 2.3017-3.1364 1.6986c-5.2356 2.8356-6.2859 4.438-7.9466 12.124-4.3773 20.26-5.7564 25.187-7.1045 25.384-0.76196 0.11155-5.6041-4.6693-10.76-10.624-11.481-13.259-12.22-13.751-13.568-9.0225-0.55235 1.9381-1.2451 5.2113-1.5394 7.2738-0.4918 3.4464-0.30038 3.8871 2.3642 5.4436 1.5946 0.9315 2.8993 2.0239 2.8993 2.4276 0 1.5096-11.881 6.04-12.636 4.8183zm102.63-0.8577c-4.8295-1.5751-8.4117-3.9624-10.961-7.3048-2.2486-2.948-2.6692-4.4659-2.9225-10.548-0.27676-6.6452-0.095-7.4342 2.8125-12.21 2.0926-3.4372 5.0998-6.5213 9.2021-9.4375 7.4382-5.2875 10.878-6.5506 17.841-6.5506h5.374l1.5681 4.4531c0.86243 2.4492 1.7843 5.1109 2.0487 5.9148 0.30908 0.94001-0.39392 1.8601-1.9698 2.5781-3.9431 1.7966-5.483 1.3032-8.2823-2.6535-1.4514-2.0515-3.1618-3.73-3.8008-3.73-2.3294 0-9.7254 5.4824-11.695 8.6688-1.112 1.7992-2.0202 4.698-2.0182 6.4418 5e-3 4.0902 3.0411 9.0383 6.325 10.307 3.5897 1.3865 10.13 0.31718 14.8-2.4195 2.1653-1.2689 4.1826-2.0614 4.4831-1.7609 0.88121 0.88121-7.5495 16.904-9.2346 17.551-2.7431 1.0526-11.159 1.487-13.571 0.70049zm-60.931-1.0994c0-0.54245 1.2391-1.4182 2.7535-1.9462 2.4469-0.85298 2.9167-1.6774 4.2188-7.4019 1.8355-8.0699 1.8482-10.291 0.05896-10.291-2.2061 0-1.6446-1.6119 0.7728-2.2186 1.8697-0.46925 2.4147-1.6436 3.8389-8.271 1.6528-7.6915 1.6515-7.7308-0.30405-9.3144-2.7024-2.1883-2.4591-3.6316 0.61425-3.6434 1.418-0.00545 9.8448-0.27874 18.726-0.60732 18.569-0.68699 17.913-1.0006 15.995 7.6447-1.3852 6.2441-2.8981 7.4397-4.3054 3.4025-1.4579-4.1821-4.4257-6.6818-7.9158-6.6672-6.3623 0.02673-6.8895 0.52911-8.5673 8.1647-0.85664 3.8985-1.3679 7.2779-1.1361 7.5097 0.8466 0.8466 4.5161-0.92309 7.6871-3.7072 1.7881-1.57 3.5075-2.5981 3.8209-2.2848 0.90766 0.90767-2.7591 17.496-3.8585 17.456-0.54612-0.01987-1.8454-1.391-2.8873-3.0469-1.2902-2.0506-2.6247-3.0108-4.1843-3.0108-2.0824 0-2.4343 0.63597-3.8833 7.0186-0.87635 3.8602-1.3644 7.3891-1.0845 7.8419 0.79864 1.2922 9.2696 0.12921 11.976-1.6443 1.3434-0.88024 3.5822-3.2488 4.9752-5.2634 2.3596-3.4128 5.647-5.2197 4.618-2.5382-0.25241 0.65777-0.97958 3.7164-1.616 6.7969-0.63636 3.0805-1.6351 5.9109-2.2195 6.2897-1.7379 1.1266-38.094 0.87011-38.094-0.26879zm241-2.2256c-2.1545-2.2934-1.9745-4.2882 0.38695-4.2882 1.8627 0 6.8952-4.4855 8.4878-7.5651 0.75492-1.4598 1.3726-4.3627 1.3726-6.4508v-3.7966h-9.375-9.375v-3.2812-3.2812h8.8509c10.517 0 10.399 0.09136 10.694-8.2597l0.14279-4.041 7.0312 0.58193 0.9375 11.25 16.406 0.54175v3.2096 3.2096l-17.344 0.53911-0.65974 5.9821c-0.74179 6.7261-3.4318 11.614-8.5325 15.505-3.9579 3.0189-6.289 3.0564-9.0238 0.14525zm296.72-0.63313c-2.9035-3.4506-2.3656-4.1896 3.7194-5.1102 4.1992-0.63532 11.842-4.1704 12.357-5.7157 0.18212-0.54636-2.0038-2.6015-4.8577-4.5671-2.8539-1.9655-5.1888-3.8519-5.1888-4.1919 0-0.34004 1.0149-1.5717 2.2553-2.737 2.554-2.3993 3.802-2.0442 10.067 2.8651 1.8789 1.4723 3.6868 2.6768 4.0177 2.6768 0.76435 0 4.2849-8.1517 4.2849-9.9215 0-1.0454-1.7485-1.328-8.2031-1.3258-8.0966 0.0026-8.2275 0.03962-10.078 2.8468-1.0312 1.5643-3.7445 4.3109-6.0293 6.1036l-4.1544 3.2595-5.395-5.1688 2.1644-1.6996c7.1082-5.582 10.862-10.607 13.272-17.766 0.58435-1.7358 3.9358-2.1784 6.102-0.80588 0.8788 0.55683 1.0732 1.7118 0.62865 3.7356l-0.64346 2.9296h10.387c11.657 0 11.062-0.4897 9.3421 7.6882-2.53 12.029-9.7668 21.48-19.967 26.077-9.394 4.2339-11.128 4.3357-14.08 0.82695zm-435.97-0.36812-2.7785-2.2707 1.9696-2.1487c4.2899-4.6801 8.242-14.561 10.194-25.488 0.72733-4.0711 1.4583-7.5379 1.6243-7.7039 0.16603-0.16603 1.8679 0.17875 3.7819 0.76618 2.4671 0.75717 3.3556 1.4987 3.0526 2.5477-0.23508 0.81379-0.72049 3.589-1.0787 6.1671-1.4482 10.423-9.9414 30.522-12.861 30.435-0.61929-0.01854-2.3763-1.0555-3.9045-2.3044zm35.347 1.1662c-3.4672-4.3101-10.328-21.943-11.946-30.703-0.33335-1.8047-0.78691-3.9343-1.0079-4.7324-0.26859-0.97007 0.63141-1.8248 2.7147-2.5781 4.2664-1.5428 4.1444-1.6142 4.8822 2.8574 1.366 8.2796 5.2552 18.45 9.4435 24.696l4.3051 6.42-2.9166 2.606c-3.2581 2.9111-4.1079 3.1337-5.4751 1.4341zm59.817-1.3325c-1.0835-1.3774-1.6414-2.7997-1.2399-3.1607 0.4015-0.36101 3.2288-1.4241 6.2829-2.3625 11.414-3.5071 17.808-11.631 18.973-24.108l0.58847-6.3019h3.5591c1.9575 0 3.7628 0.32955 4.0117 0.73233 0.79657 1.2889-1.9496 14.799-3.9081 19.227-2.7809 6.2866-9.152 12.72-15.653 15.807-7.1201 3.3802-10.057 3.4192-12.615 0.16755zm78.055 0.49672-2.0076-2.0076 3.1927-4.6414c4.1196-5.9889 4.9246-9.3046 5.2526-21.635 0.14825-5.5744 0.51744-10.536 0.82044-11.027 0.303-0.49027 1.9411-0.61336 3.6402-0.27353l3.0893 0.61786-0.41919 12.284c-0.44409 13.013-1.9004 18.696-6.535 25.503-2.509 3.6849-4.2378 3.9748-7.0334 1.1792zm18.466-18.963v-21.216h3.2812 3.2812v15.882c0 9.3059 0.37851 16.116 0.91411 16.447 0.50275 0.31072 2.8001-1.1735 5.1052-3.2983 3.377-3.1128 4.4121-4.8508 5.3288-8.9471 1.2323-5.5064 1.4054-5.6401 5.1145-3.9501 2.3019 1.0488 2.4453 1.4479 1.9138 5.3258-0.31602 2.3056-1.7566 6.3306-3.2014 8.9443-2.1939 3.9692-3.6244 5.2582-8.6811 7.8224-3.3298 1.6886-7.6298 3.3258-9.5554 3.6383l-3.5011 0.56816v-21.216zm68.451 16.792c-0.62566-1.8958-0.99005-3.5673-0.80975-3.7146 0.18029-0.1473 4.3604-1.1854 9.2892-2.307 5.0651-1.1526 10.412-3.0246 12.297-4.3056 3.537-2.4034 8.9905-10.035 11.072-15.494 0.68823-1.8047 1.6-3.6764 2.0261-4.1595 0.92739-1.0511 5.4872 2.9529 5.4872 4.8184 0 1.9843-5.1816 11.657-8.1191 15.157-5.2154 6.2132-15.344 11.178-26.227 12.855-3.8133 0.58758-3.8967 0.54022-5.0153-2.8493zm-12.201 1.4473c0-0.6142-5.2412-1.0645-14.297-1.2285l-14.297-0.25879-0.28949-3.4909-0.2895-3.4909 28.704-0.51818 0.53664-18.281h-14.565-14.565v-3.2812-3.2812h18.302 18.302l-0.25553 17.109-0.25552 17.109-3.5156 0.29097c-1.984 0.16421-3.5156-0.13147-3.5156-0.67871zm57.783-1.0866-2.4702-1.943v-18.213-18.213h3.181c3.8585 0 4.319 0.96455 4.319 9.0461 0 5.3495 0.19717 6.0223 1.6406 5.5977 0.90235-0.2654 4.3828-1.1762 7.7344-2.0241s7.4648-2.1142 9.1406-2.8141c2.7998-1.1693 3.0469-1.6158 3.0469-5.5061 0-3.3082 0.42-4.4584 1.9214-5.2619 3.2478-1.7382 6.826-0.74784 8.2759 2.2904 1.8457 3.8677 0.46553 7.2731-3.3966 8.3807-2.5197 0.72263-2.9323 1.2171-2.4893 2.9824 0.46581 1.8559-0.0836 2.345-4.4682 3.9772-2.7496 1.0236-8.1634 2.5843-12.031 3.4681-3.8672 0.88388-7.5586 1.764-8.2031 1.9558-0.75359 0.22428-1.1719 2.1933-1.1719 5.5166 0 4.8058 0.17369 5.2114 2.4792 5.7901 1.3636 0.34224 7.6917 0.34359 14.062 3e-3l11.583-0.61923v3.7649 3.7649h-15.342c-14.102 0-15.542-0.1571-17.812-1.943zm33.155-33.682c0-0.51562-0.65771-0.9375-1.4616-0.9375s-1.2008 0.42188-0.88217 0.9375 0.97639 0.9375 1.4616 0.9375 0.88217-0.42188 0.88217-0.9375zm5.5469 34.453c-0.70527-2.1158-0.23756-4.7199 0.96316-5.3625 0.83402-0.44636 5.6167-0.77589 10.628-0.73231 5.0115 0.04358 9.378-0.18695 9.7033-0.51229 0.32535-0.32535 0.80391-3.5597 1.0635-7.1875l0.47193-6.596h-8.9306c-8.8744 0-8.9345-0.01562-9.5529-2.4794-0.34225-1.3636-0.24868-2.853 0.20794-3.3096s6.4917-0.712 13.411-0.56752l12.581 0.2627-0.10579 2.3438c-0.0582 1.2891-0.43524 5.8242-0.83791 10.078-0.80306 8.4836-1.2193 7.8159 5.0506 8.1015 2.6103 0.11888 4.4124 2.471 3.5717 4.6617-0.51776 1.3493-2.8465 1.5337-19.368 1.5337-10.329 0-18.815-0.10547-18.858-0.23438zm-300.86-17.109v-3.3158l43.594 0.50331v2.8125 2.8125l-43.594 0.50331v-3.3158zm338.14 2.6734c-0.35319-0.35319-0.64216-1.8116-0.64216-3.241 0-2.3426 0.39275-2.6552 3.9844-3.1711 2.1914-0.31479 12-0.44611 21.797-0.29182l17.812 0.28052v3.2812 3.2812l-21.155 0.25153c-11.635 0.13834-21.444-0.03743-21.797-0.39062zm-290.25-11.137c-3.4283-7.6891-3.3471-8.1535 1.6591-9.484 2.559-0.6801 2.8521-0.3161 6.3632 7.9024 2.7271 6.3833 2.4935 7.3235-2.04 8.2114-2.7005 0.52892-2.8782 0.33202-5.9823-6.6299zm174.53-1.9798c-3.2226-2.3437-5.8442-4.5387-5.8257-4.8777 0.0186-0.33899 1.0076-1.8065 2.1978-3.2612l2.1641-2.6449 4.599 3.0307c2.5295 1.6669 5.5341 3.8665 6.677 4.8881l2.0779 1.8574-1.9074 2.6786c-1.049 1.4733-2.406 2.6588-3.0154 2.6345-0.60942-0.02431-3.7448-1.9618-6.9674-4.3055zm-232.02-1.5097c-2.88-2.2242-2.1558-8.3041 1.2032-10.102 4.0126-2.1475 8.3932 0.97827 8.3932 5.9888 0 4.5359-5.8195 7.03-9.5965 4.113zm5.317-4.5514c-0.65435-1.0587-3.2205-1.105-3.2205-0.058014 0 1.3193 1.0554 1.9272 2.43 1.3997 0.72006-0.27632 1.0758-0.88006 0.79052-1.3417z" fill="#666"/>
</svg>
