<?xml version="1.0" encoding="UTF-8"?>
<svg version="1.1" viewBox="0 0 1219.4 303.96" xmlns="http://www.w3.org/2000/svg" xmlns:cc="http://creativecommons.org/ns#" xmlns:dc="http://purl.org/dc/elements/1.1/" xmlns:rdf="http://www.w3.org/1999/02/22-rdf-syntax-ns#">
<metadata>
<rdf:RDF>
<cc:Work rdf:about="">
<dc:format>image/svg+xml</dc:format>
<dc:type rdf:resource="http://purl.org/dc/dcmitype/StillImage"/>
<dc:title/>
</cc:Work>
</rdf:RDF>
</metadata>
<path d="m660.93 303.04c-5.8712-0.97649-17.445-5.6213-21.396-8.5865-7.5155-5.6406-11.888-9.998-14.978-14.926-1.8651-2.9748-3.8271-5.1392-4.36-4.8099-0.53287 0.32933-0.69747 0.15965-0.36576-0.37706 0.3317-0.53671-0.61108-3.6605-2.0951-6.9417-9.4175-20.823-13.311-51.871-10.039-80.045 3.8234-32.915 13.48-52.021 32.835-64.966 10.219-6.8351 19.763-9.7053 31.954-9.6106 15.439 0.11993 22.945 1.7807 32.526 7.1967 3.0923 1.7479 5.773 3.178 5.9571 3.178 0.18412 0 2.516 2.0039 5.1818 4.4531 11.664 10.716 19.089 26.899 23.98 52.266 2.3041 11.95 2.2979 45.127-0.0109 57.656-3.364 18.256-7.5962 29.474-15.229 40.367-9.1867 13.11-20.458 21.192-34.555 24.775-6.1098 1.5531-21.156 1.7428-29.406 0.3707zm21.202-38.24c6.691-3.4417 10.611-9.3142 14.144-21.191 5.2195-17.544 5.0264-46.004-0.47301-69.73-3.325-14.345-12.34-24.53-21.647-24.457-6.3485 0.0502-13.93 5.9133-18.025 13.939-5.7152 11.203-8.6276 36.136-6.7336 57.647 2.3674 26.89 8.0615 40.476 18.529 44.207 5.0999 1.8181 10.15 1.6702 14.206-0.41588zm122.45 37.964c-12.065-2.766-20.658-7.498-28.973-15.954-6.1629-6.2673-7.3697-8.0502-12.243-18.087-14.129-29.099-16.489-77.567-5.3483-109.85 6.2833-18.209 17.389-31.69 32.708-39.704 8.7073-4.5551 16.151-6.3905 26.828-6.6147 27.171-0.57045 49.806 14.785 59.648 40.464 1.5107 3.9417 4.1382 13.073 5.8388 20.292 2.998 12.726 3.093 13.752 3.1238 33.75 0.0234 15.164-0.40247 23.392-1.608 31.074-1.6228 10.341-5.5489 23.364-9.2026 30.526-3.2187 6.3091-10.221 16.015-14.739 20.431-2.3741 2.3203-4.215 4.5665-4.091 4.9916 0.12403 0.42504-0.19934 0.51023-0.71862 0.1893s-2.5336 0.5022-4.4764 1.8292c-1.9427 1.327-6.9072 3.4854-11.032 4.7965-9.428 2.9966-26.824 3.9065-35.714 1.8681zm24.225-38.7c4.379-2.5352 9.3531-10.481 12.38-19.776 2.2088-6.7826 2.732-10.408 3.3344-23.106 2.1582-45.49-9.5954-74.938-28.495-71.393-6.9273 1.2996-14.045 8.9218-17.493 18.734-7.3592 20.938-6.299 63.959 2.0654 83.807 1.7768 4.2163 8.8287 11.861 12.334 13.372 3.0833 1.3285 12.414 0.3658 15.874-1.638zm-451.17 37.332c0-1.9406 1.9481-6.6697 7.9661-19.338 7.8614-16.549 10.721-22.892 14.999-33.272 2.3848-5.7863 4.1455-10.711 3.9128-10.944-0.23274-0.23273-4.5806-1.2725-9.6619-2.3105-5.0813-1.038-11.139-2.8457-13.462-4.0169-23.429-11.815-37.504-32.975-37.504-56.384 0-10.864 1.2061-16.776 5.201-25.494 1.713-3.7383 2.963-6.7969 2.7777-6.7969-1.5265 0 12.941-15.104 17.334-18.096 2.3203-1.5806 4.5287-3.3235 4.9075-3.8732 0.37883-0.54966 0.69523-0.63132 0.70313-0.18147 7e-3 0.44986 0.54169 0.40137 1.1862-0.10774 0.64454-0.50912 4.7578-2.3339 9.1406-4.0551 7.657-3.007 8.4822-3.1311 21.094-3.1735 10.348-0.0348 14.216 0.32134 18.281 1.6833 8.2521 2.7646 16.911 7.3999 20.057 10.736 1.7983 1.9076 3.5398 2.927 4.5538 2.6656 0.90306-0.2328 1.4381-0.0935 1.1889 0.30969-0.24914 0.40312 0.91043 2.5342 2.5768 4.7357 6.6216 8.7479 7.4599 9.9874 9.7175 14.368 5.9485 11.543 7.6584 29.434 4.1084 42.987-1.8792 7.1744-14.487 37.649-23.335 56.404-2.6425 5.601-4.8045 10.396-4.8045 10.655s-2.2886 5.1686-5.0857 10.91c-2.7971 5.7415-7.2011 15.291-9.7867 21.22-3.1833 7.3006-5.4004 11.155-6.8674 11.939-1.5066 0.80535-7.8056 1.1623-20.682 1.1719-17.477 0.013-18.516-0.0847-18.516-1.742zm38.398-105.21c15.408-6.813 19.014-26.808 7.0023-38.82-5.2229-5.2229-8.4557-6.529-15.951-6.4447-11.462 0.12892-20.426 6.653-23.48 17.088-3.6419 12.445 3.1018 24.846 15.998 29.42 5.4683 1.9393 10.011 1.5956 16.431-1.2433zm112.22 105.99c-17.237-2.8931-30.041-10.155-39.131-22.195-8.0928-10.719-12.084-22.413-12.101-35.454-0.0175-13.347 2.5812-21.061 11.618-34.489 2.3695-3.5208 4.3082-6.743 4.3082-7.1604s-1.529-2.9817-3.3977-5.6984c-11.605-16.87-12.973-36.617-3.8272-55.231 6.1495-12.515 21.654-24.784 34.435-27.248 16.74-3.2278 31.802-2.4527 44.387 2.2844 6.168 2.3216 16.153 9.1388 18.689 12.76 0.70841 1.0114 1.5666 1.6307 1.907 1.3761 0.34047-0.25453 0.42057-0.19401 0.17799 0.13451-0.45036 0.60992 2.9609 5.9693 4.4603 7.0075 0.4556 0.31547 0.805 0.83738 0.77644 1.1598-0.0286 0.32245 0.81675 2.5956 1.8785 5.0514 7.2014 16.657 5.6636 36.248-4.0217 51.233-1.9745 3.0549-3.59 6.3948-3.59 7.4219 0 1.0271 1.4109 3.5984 3.1354 5.714 8.027 9.8477 11.615 18.402 12.509 29.825 0.87061 11.127-2.7333 26.15-8.225 34.287-1.5174 2.2484-2.4767 4.5448-2.1316 5.103 0.36364 0.58839 0.19216 0.74608-0.408 0.37516-0.57245-0.35379-1.5463 0.31495-2.1783 1.4958-0.62863 1.1746-0.9662 2.2059-0.75016 2.2919 0.21603 0.086 8e-3 0.50781-0.46064 0.9375-0.50161 0.45919-0.55372 0.26304-0.1264-0.47581 0.39986-0.69138-1.9583 1.3147-5.2403 4.458-13.481 12.911-32.691 18.393-52.693 15.036zm18.887-40.175c15.685-8.0018 15.097-31.305-0.95972-38.012-4.4408-1.855-11.998-1.8668-16.404-0.0256-9.2417 3.8614-13.939 16.781-10.078 27.722 1.5587 4.4178 4.7102 8.3477 6.6942 8.3477 0.68356 0 1.2428 0.37675 1.2428 0.83724 0 0.46047 1.582 1.5179 3.5156 2.3499 4.3628 1.8772 10.897 1.379 15.99-1.2193zm-0.66973-77.949c11.955-6.0989 12.563-24.702 1.0296-31.497-5.5902-3.2935-12.058-3.4274-17.49-0.36193-6.5715 3.7085-9.274 9.0221-8.7183 17.142 0.43673 6.3819 3.9764 12.151 9.1405 14.898 4.3669 2.3229 11.283 2.2448 16.038-0.18111zm-339.93 117.16c-14.067-1.6501-27.463-6.2752-37.706-13.018-5.0634-3.3332-21.623-17.844-20.364-17.844 0.31423 0-0.63835-1.582-2.1168-3.5156-14.18-18.545-20.944-38.621-20.874-61.957 0.0572-19.128 4.0566-33.563 13.165-47.515 2.5595-3.9207 4.4026-7.5346 4.0959-8.0308-0.30671-0.49626-0.12972-0.78637 0.39331-0.6447 0.52303 0.14169 4.1403-3.2336 8.0384-7.5006 3.8981-4.267 7.0875-7.5393 7.0875-7.2719 0 0.26747 2.8477-1.4758 6.3281-3.8738 13.744-9.47 30.749-15.563 43.828-15.703 14.23-0.15284 22.928 0.6641 24.401 2.2919 1.0888 1.2031 1.4232 5.2976 1.6115 19.729l0.23755 18.211-11.301-0.33544c-8.1772-0.24272-12.9 0.0742-17.086 1.1464-16.966 4.3464-30.282 16.636-36.004 33.229-2.9086 8.4341-3.1368 27.802-0.42173 35.804 4.2999 12.672 9.8513 21 18.201 27.304 9.7742 7.3796 26.113 12.883 34.717 11.695 2.417-0.33387 5.6602-0.69087 7.2071-0.79333l2.8125-0.18629-0.35731 19.194c-0.23736 12.75-0.70946 19.425-1.4062 19.882-1.342 0.88121-15.959 0.70476-24.486-0.29559zm-168.75-2.7369c-0.35224-0.56995-7.3312-0.9375-17.801-0.9375-13.125 0-17.52-0.29814-18.475-1.2535-1.0252-1.0252-1.2952-17.208-1.4822-88.828-0.14525-55.618 0.10437-88.088 0.68409-88.981 0.78368-1.2073 5.5924-1.4012 33.993-1.3708 28.669 0.0307 34.081 0.26516 40.581 1.7576 4.125 0.94713 8.5139 1.71 9.7531 1.6954 1.6707-0.0198 1.913 0.18858 0.9375 0.8062-1.0935 0.69233-1.0689 0.83534 0.14582 0.84728 0.80377 8e-3 3.8624 1.4601 6.7969 3.2272 2.9345 1.7671 5.3355 3.0547 5.3355 2.8614 0-0.1933 2.8885 2.7003 6.4188 6.4302 10.728 11.334 15.461 23.905 15.412 40.933-0.0233 8.1007-0.44916 11.031-2.4055 16.55-6.5504 18.48-22.563 32.941-41.28 37.281-6.6902 1.5514-22.753 1.9986-24.813 0.69089-0.85424-0.54207-1.3674-5.2218-1.782-16.25-0.68395-18.194-0.42702-18.815 8.2704-20.005 6.6109-0.90435 9.1603-1.9276 12.375-4.967 8.0961-7.6539 9.0977-20.975 2.1564-28.679-4.9125-5.4519-9.2385-7.1212-18.455-7.1212-12.937 0-11.671-5.791-11.714 53.597-0.0427 59.446-0.97241 87.434-2.971 89.433-0.73193 0.73192-1.068 1.7559-0.74692 2.2755s0.37291 0.94469 0.1151 0.94469-0.72948-0.42188-1.0482-0.9375zm199.26-80.599c-3.9964-0.47321-4.2155-0.65974-4.9491-4.2124-0.42219-2.0445-0.64989-8.7945-0.506-15l0.26161-11.283 6.0938-0.64449c3.3516-0.35448 24.547-0.61262 47.102-0.57366 35.412 0.0611 41.169 0.26447 42.188 1.4898 0.78825 0.94853 1.2855 5.8526 1.4998 14.791 0.29917 12.479 0.19838 13.438-1.5084 14.351-1.9325 1.0342-82.427 1.999-90.181 1.0808zm667.7-24.153c-0.81815-0.28272-1.1719-2.8977-1.1719-8.664 0-6.6664 0.28594-8.3688 1.4829-8.8281 0.81562-0.31298 10.631-0.56905 21.811-0.56905 30.755 0 29.567 1.2826 30.562-33.012 0.4716-16.259 1.0289-23.924 1.7748-24.412 0.5982-0.39112 4.6735-0.60347 9.0563-0.47191l7.9688 0.23921-0.024 27.188c-0.021 23.211-0.2495 27.667-1.5629 30.469-4.6952 10.014-12.371 15.93-23.095 17.797-5.6864 0.99025-44.074 1.2068-46.802 0.26402zm80.588-0.2915c-2.0392-0.81857-2.1326-1.2706-1.875-9.0812l0.2712-8.2198 16.406-0.48132c18.223-0.53463 21.182-1.4014 23.82-6.9775 1.4361-3.0356 3.8167-47.81 2.7575-51.861-0.3383-1.2936-0.063-2.2371 0.7384-2.5274 2.1753-0.78832 18.556-1.1482 18.092-0.39751-0.2409 0.38963 0 0.97766 0.5302 1.3067 0.5324 0.32907 0.6448 1.0965 0.2497 1.7054-0.3952 0.60889-0.7184 13.131-0.7184 27.826 0 25.853-0.069 26.856-2.116 30.966-4.721 9.4765-11.706 15.105-21.652 17.446-6.0741 1.4297-33.132 1.6485-36.503 0.29516zm126.56-7.6916 0.2696-8.6719 5.625-0.5415c3.0937-0.29783 6.4687-1.0056 7.5-1.5727 2.51-1.3805 40.785-39.932 40.767-41.062-0.05-3.0775-1.5067-3.2726-26.304-3.5235l-24.775-0.25064-0.2738-7.7877c-0.1649-4.6914 0.1361-8.2816 0.7572-9.0299 0.8276-0.99731 6.1491-1.1516 26.992-0.78235 14.279 0.25291 27.286 0.87001 28.904 1.3713 10.128 3.1372 15.453 18.539 10.1 29.211-0.8362 1.6669-4.0933 5.6601-7.238 8.8737l-5.7177 5.843 2.4376 2.5945c5.9248 6.306 17.632 27.997 17.632 32.669 0 1.0559-1.8143 1.332-8.7528 1.332h-8.7528l-2.403-5.5692c-3.0137-6.9848-10.109-17.868-11.648-17.868-0.6374 0-5.0831 4.0271-9.8793 8.949-11.507 11.809-16.622 14.488-27.655 14.488h-7.8543l0.2696-8.6719zm-61.211-25.301c-0.2037-5.8511 0.2763-14.383 0.8413-14.954 0.3514-0.35495 15.739-0.82023 34.195-1.034 30.094-0.3485 33.64-0.23339 34.362 1.1159 0.4429 0.82748 0.7409 4.8787 0.6623 9.0027l-0.1428 7.4982-69.844 0.49157-0.074-2.1208zm-143.83-3.4084-3.75-0.5874 0.31031-7.9688c0.17063-4.3828 0.5925-8.2568 0.9375-8.6089 0.34491-0.35206 9.0647-0.75044 19.377-0.88526l18.75-0.24514 0.2716 8.7757c0.189 6.1063-0.073 8.9887-0.8615 9.476-1.3613 0.84128-29.718 0.87668-35.035 0.0438zm78.07-3.9308c-1.4765-0.86041-1.5684-2.5559-1.0533-19.425 0.3675-12.037 0.9316-18.729 1.6176-19.19 0.5793-0.38937 4.6392-0.60031 9.022-0.46875l7.9687 0.23921 0.1904 17.812c0.1046 9.7969-0.01 18.762-0.2523 19.922-0.4163 1.9838-0.9022 2.1077-8.1591 2.0809-4.244-0.0157-8.4443-0.45272-9.334-0.97119zm-77.75-21.241-3.4298-0.36264 0.1486-8.3656c0.0816-4.601 0.57046-8.5158 1.0861-8.6994 0.51562-0.18361 9.375-0.29829 19.687-0.25485l18.75 0.0789-0.3389 8.4375c-0.1865 4.6406-0.5279 8.7539-0.7585 9.1406-0.4168 0.69861-28.585 0.71889-35.145 0.0253zm283.03-5.1013c-1.4212-0.51895-2.3635-1.3002-2.0941-1.7362 0.2695-0.43596 0.061-1.0576-0.4629-1.3815-1.8878-1.1667-1.0492-7.0295 1.3483-9.4271 4.8081-4.8081 12.699-1.3472 12.699 5.5697 0 1.7977-0.4287 3.5335-0.9528 3.8574-0.524 0.32387-0.7036 0.99203-0.3991 1.4848 0.3046 0.49278 0.206 0.81738-0.2191 0.72134-0.425-0.096-1.9604 0.31538-3.4119 0.91427-3.0373 1.2532-3.0682 1.2531-6.5073-3e-3zm17.173-1.4865c-1.8494-1.4983-4.567-9.2518-2.8765-8.2071 0.4019 0.24838 0.9488-0.38233 1.2153-1.4016 0.665-2.5426 4.5144-3.8606 8.1937-2.8054 4.8256 1.384 5.7037 2.6128 5.4032 7.5612-0.1491 2.4548-0.4829 4.4301-0.7416 4.3894-0.2588-0.0406-1.6581 0.41617-3.1096 1.0151-3.6503 1.5061-5.7187 1.3649-8.0845-0.55173zm-1207-54.459c-0.26742-0.4327 1.3952-9.9589 3.6947-21.169s4.1809-21.213 4.1809-22.228c0-1.0152-1.4665-3.356-3.259-5.2016l-3.259-3.3557 1.8211-2.4572c3.4465-4.6504 12.877-14.176 14.035-14.176 1.3303 0 1.6512 0.33365 19.228 19.996 7.2038 8.0585 13.387 14.344 13.741 13.968 0.35377-0.37584 2.2301-8.0012 4.1695-16.945 2.3033-10.622 3.9888-16.439 4.8597-16.774 2.6131-1.0027 15.473 6.457 14.682 8.517-0.2688 0.7005-2.5902 2.2579-5.1587 3.4609-2.5685 1.203-5.0964 2.7011-5.6176 3.3291-0.52117 0.62798-3.2565 12.046-6.0785 25.373-6.1086 28.848-5.7238 27.512-7.9244 27.512-1.9212 0-5.162-3.2909-22.465-22.812-6.3221-7.1325-11.818-12.617-12.214-12.188-0.72155 0.78356-4.6863 18.017-4.6863 20.37 0 0.6904 1.6875 2.372 3.75 3.7369 5.6745 3.7552 5.0501 5.4888-3.2161 8.93-7.2048 2.9994-9.4515 3.461-10.284 2.1133zm153.53-0.17557c-5.3584-1.66-11.982-6.8889-15.582-12.3-5.8315-8.7662-6.5839-18.368-2.3342-29.787 5.2732-14.17 28.419-27.962 45.439-27.076l5.4166 0.28194 2.946 6.0938c4.4389 9.1817 4.5595 9.9585 1.8238 11.751-1.2951 0.84856-4.0092 1.7648-6.0315 2.036-3.6226 0.48589-3.7343 0.40856-7.5706-5.2407-2.5836-3.8045-4.5234-5.7338-5.765-5.7338-3.4628 0-10.885 4.5481-15.133 9.2736-6.7437 7.5006-7.8149 14.63-3.3986 22.618 4.9568 8.9654 14.626 10.438 27.807 4.2341 6.2601-2.9463 7.9592-3.4184 8.5957-2.3885 1.138 1.8414-9.5894 22.939-12.7 24.977-2.8455 1.8645-18.802 2.7204-23.512 1.2612zm688.75-0.8489c-1.1219-2.0963-1.3187-10.989-0.25773-11.644 0.39265-0.24268 7.6461-0.75181 16.119-1.1314 14.361-0.64342 15.551-0.83666 17.567-2.8527 2.3452-2.3452 3.0721-9.075 1.1111-10.287-0.57831-0.35741-6.0006-0.58062-12.049-0.49603-12.912 0.18058-13.393-0.1-12.966-7.5606l0.286-4.998 11.833-0.57382c6.5084-0.3156 12.309-0.86784 12.891-1.2272 1.3256-0.81926 1.3865-8.4882 0.0867-10.917-0.88275-1.6494-2.0674-1.8134-13.103-1.8134-14.081 0-13.762-0.20095-16.351 10.312-2.4884 10.105-2.6462 10.314-7.7579 10.3-6.574-0.0188-8.692-0.79946-8.692-3.2038 0-3.2424 6.2548-24.768 7.9478-27.352 0.83891-1.2803 2.5097-2.7022 3.713-3.1596 1.2032-0.45747 10.99-0.94249 21.748-1.0778 21.397-0.26921 23.253 0.0821 26.976 5.1064 1.8362 2.4782 1.9771 4.0373 2.2432 24.813 0.32512 25.387-0.174 27.952-6.4907 33.359-5.043 4.3166-8.9423 5.1193-27.744 5.711-15.282 0.48097-16.189 0.41163-17.109-1.3077zm-776.99 0.24328c-4.0765-0.56982-3.8424-1.879 0.65806-3.6797 4.188-1.6757 4.644-2.6663 7.0793-15.377 0.83969-4.3828 1.7382-8.7067 1.9967-9.6086 0.32518-1.1347-0.27147-1.9218-1.9367-2.5549-3.1524-1.1985-3.0109-2.0638 0.61735-3.7739 2.823-1.3306 3.0972-1.9357 5.0984-11.25 2.761-12.851 2.7334-14.027-0.38805-16.521-1.418-1.1333-2.227-2.4148-1.7978-2.8477 0.42916-0.43294 13.401-0.93013 28.826-1.1049 24.591-0.27857 28.114-0.13975 28.6 1.1273 0.30497 0.79474-0.22123 5.1512-1.1693 9.6811-1.3101 6.2592-2.1183 8.3118-3.3673 8.5514-0.957 0.1836-1.8713-0.39891-2.1888-1.3946-3.3145-10.392-5.8126-12.496-14.81-12.477-3.6687 8e-3 -7.2611 0.38833-7.983 0.84538-1.5326 0.97034-5.8474 21.711-4.7639 22.9 1.0982 1.2048 8.5394-2.5185 11.642-5.8254 5.143-5.4808 7.1776-3.6044 5.2629 4.8536-0.48943 2.1619-1.5729 7.2003-2.4077 11.196-1.8265 8.743-3.3076 9.292-7.4837 2.7743-2.8511-4.4497-7.1481-7.0205-8.8603-5.3007-1.0847 1.0895-5.6966 22.117-5.0724 23.127 0.62068 1.0043 12.848 0.91777 15.512-0.10974 3.0491-1.1761 10.49-8.4339 12.366-12.062 1.5255-2.9501 3.6726-3.9324 4.7576-2.1768 0.29293 0.47397-0.37068 5.1038-1.4747 10.289-1.4293 6.7125-2.444 9.5482-3.5241 9.8484-2.1677 0.60253-51.535 1.3814-55.189 0.87077zm130.7 6e-3c-0.84678-0.84677-0.7697-11.763 0.0924-13.098 0.37883-0.58658 2.2081-1.699 4.065-2.4721 1.8569-0.77305 4.2827-2.6786 5.3906-4.2345 1.9151-2.6896 2.0144-3.8525 2.0144-23.605 0-12.529 0.38525-21.496 0.97048-22.59 0.80115-1.497 1.9871-1.8109 6.7969-1.799 3.2045 8e-3 6.4424 0.40399 7.1952 0.8802 1.1384 0.72006 1.3752 4.782 1.4062 24.126l0.0374 23.26-2.642 5.3802c-3.0026 6.1146-8.6084 11.22-14.667 13.357-4.1784 1.4742-9.5775 1.8762-10.66 0.79362zm57.917-1.6003c-2.6068-1.2139-6.2753-4.0011-8.1522-6.1939-5.966-6.9699-6.5883-10.01-7.0373-34.372-0.28113-15.254-0.08-22.295 0.67761-23.71 0.98071-1.8325 1.7253-1.9888 8.2896-1.7405l7.212 0.27263 0.46875 22.2c0.55961 26.503 0.27462 25.723 11.25 30.783 1.5094 0.6958 2.4318 8.8904 1.4438 12.827-0.4707 1.8754-1.1254 2.1583-4.9772 2.1503-2.6735-6e-3 -6.3179-0.88582-9.1749-2.2162zm212.79 0.96046c-0.26696-0.69569-0.35919-4.1401-0.20495-7.6542 0.27511-6.268 0.33768-6.4086 3.2971-7.407 6.3605-2.1458 6.3093-1.9394 6.8271-27.534l0.46875-23.172 6.4361-0.8646c10.016-1.3455 9.4598-2.7065 9.7528 23.871 0.20392 18.495-0.0263 23.759-1.2189 27.861-1.9815 6.8161-7.8031 12.682-14.585 14.696-6.0715 1.803-10.13 1.8797-10.773 0.20345zm73.412 0.69512c-1.2396-1.2396-0.79461-14.418 0.49164-14.559 0.64454-0.0711 9.8203-0.38747 20.391-0.70313l19.219-0.57391v-17.812-17.812l-40.312-0.9375-0.28043-6.4696c-0.15424-3.5583 0.0573-6.8073 0.47-7.22 0.41275-0.41274 11.753-0.81902 25.2-0.90285 26.763-0.16684 27.052-0.11562 30.485 5.3927 1.6837 2.7021 1.9164 5.2587 2.4342 26.738 0.64919 26.933 0.33661 28.957-5.0377 32.618-3.4222 2.3311-3.5734 2.3453-27.91 2.6334-13.458 0.15929-24.775-0.0165-25.149-0.39062zm61.895 0.02c-0.38512-0.38574-0.70021-3.7345-0.70021-7.4423v-6.7414l5.7625-0.60229c3.1694-0.33127 11.811-0.60231 19.204-0.60231h13.441l3.0617-2.7335 3.0617-2.7334 0.46875-20.272c0.38478-16.64 0.72067-20.43 1.875-21.158 1.8107-1.142 13.784-1.1866 14.484-0.0539 0.29291 0.47395 0.60318 10.283 0.68948 21.797 0.14403 19.218 6.4e-4 21.285-1.7482 25.202-2.7514 6.1617-7.0803 10.648-12.716 13.179-4.6072 2.0688-6.2741 2.2343-25.557 2.5373-11.345 0.17829-20.943 9e-3 -21.328-0.37606zm78.22-0.8747c-5.2546-2.2823-8.5589-5.1219-10.708-9.2013-1.9694-3.7392-2.0583-4.9946-2.0882-29.486-0.0265-21.733 0.18033-25.718 1.375-26.49 0.77344-0.50015 4.5703-0.80117 8.4375-0.66893l7.0312 0.24045 0.24498 4.6875c0.51001 9.7586-1.4011 8.9063 19.97 8.9063h18.773l-0.27544 6.7969-0.27545 6.7969-18.75 0.5386c-10.312 0.29623-18.894 0.61264-19.07 0.70312-0.17584 0.0905-0.17584 4.5801 0 9.977 0.44919 13.786-0.77877 13.046 22.616 13.625l18.953 0.46875 0.28064 6.4786c0.19705 4.549-0.0822 6.7087-0.9375 7.2513-0.66997 0.42498-10.499 0.76264-21.843 0.75036-15.856-0.0172-21.344-0.33476-23.736-1.3734zm52.564 0.8036c-1.3003-0.5247-1.6394-10.317-0.42345-12.23 0.45141-0.71027 3.8535-1.2345 9.1263-1.4062l8.4066-0.27384 0.28239-4.8938c0.41927-7.2659-0.69567-8.7002-6.7631-8.7002-5.9516 0-7.3652-1.265-7.0188-6.2812 0.43561-6.307 1.0906-6.852 8.1418-6.7753 11.644 0.12659 16.157 1.1862 19.105 4.4855 2.498 2.7958 2.6587 3.4801 2.6587 11.322 0 11.174 0.0749 11.312 6.1611 11.312 4.0066 0 5.2193 0.36694 5.9934 1.8134 1.3264 2.4784 1.2255 9.7441-0.15452 11.124-0.81442 0.81442-7.0909 1.1046-22.734 1.051-11.885-0.0407-22.137-0.2868-22.781-0.54687zm-396.09-0.85114c-1.2104-1.2316-0.81021-13.21 0.47701-14.278 0.66072-0.54834 7.2307-1.1146 14.927-1.2867 13.155-0.29401 13.856-0.40821 16.284-2.651 3.962-3.6599 4.8568-6.8734 7.6024-27.305 1.4118-10.506 3.0101-19.411 3.5519-19.79 0.54175-0.37882 4.2545-0.69523 8.2506-0.70312l7.2656-0.0146v2.6377c0 1.4508-0.64687 7.4625-1.4375 13.359-0.79062 5.8969-2.0603 15.668-2.8216 21.713-0.76125 6.0453-1.884 12.162-2.4951 13.594-2.054 4.8112-7.2554 10.378-11.752 12.577-4.083 1.997-5.9383 2.2117-21.806 2.5225-9.5391 0.18685-17.66 0.0177-18.047-0.37576zm69.609-6.8315v-7.6346h5.6551c3.1103 0 7.063-0.58824 8.7837-1.3072 5.4669-2.2842 6.1862-4.2821 6.1862-17.183v-11.51h-12.249c-6.737 0-13.065-0.43672-14.062-0.97048-1.5218-0.81445-1.8134-2.0027-1.8134-7.3907 0-7.7974-0.53199-7.5456 15.978-7.5636l11.759-0.0128 0.89699-3.0469 0.897-3.0469h7.4164 7.4164l2.2053 6.5625 26.087 0.9375v7.0312 7.0312h-12.812c-7.0467 0-13.082 0.27007-13.413 0.60017-0.3303 0.33008-0.77821 6.1545-0.99535 12.943-0.4562 14.262-1.7287 18.218-7.82 24.309-5.3394 5.3394-9.2943 6.76-20.507 7.366l-9.6094 0.51939v-7.6346zm99.304 4.9474-2.2728-2.418-0.27105-30.342c-0.27091-30.327-0.27006-30.342 1.7679-31.433 1.9144-1.0245 13.309-0.92697 14.359 0.12294 0.25241 0.25242 0.53872 9.5147 0.63624 20.583 0.0975 11.068 0.43455 22.233 0.74894 24.811 0.64724 5.3076 0.67993 5.3183 11.587 3.8104l5.3906-0.74524v7.0245c0 4.7917-0.40678 7.3621-1.2798 8.0866-1.6072 1.3338-13.032 2.8504-21.76 2.8885-5.937 0.0259-6.8721-0.22493-8.9062-2.3891zm263.88-25.289c-0.69942-2.7867-0.0217-11.393 0.97573-12.392 0.84362-0.84459 52.283-1.5412 55.433-0.75065 2.1583 0.5417 2.2814 0.94495 2.2814 7.4688v6.8962l-2.9297 0.58593c-1.6113 0.32227-14.681 0.58594-29.045 0.58594h-26.115l-0.601-2.3946zm-483.93 0.75587-13.398-0.28824 0.27333-7.2039 0.27335-7.2039 2.9184-0.59418c1.6051-0.3268 14.578-0.39021 28.828-0.14092l25.91 0.45326v7.2705c0 5.7649-0.30709 7.3884-1.4829 7.8396-1.4126 0.54206-13.727 0.50448-43.322-0.13217zm49.136-8.4394c-0.96055-3.2662-3.5348-26.302-3.2338-28.938 0.3075-2.6924 0.33593-2.7035 7.5885-2.9766 5.2987-0.19948 7.401 0.0556 7.725 0.9375 0.70234 1.9113 4.2139 26.792 4.2139 29.857v2.7611h-7.9056c-6.7203 0-7.9779-0.24597-8.3881-1.6406zm395.34-11.868c-9.7876-4.4232-6.4398-19.673 4.5918-20.917 7.992-0.90082 13.655 4.5805 12.629 12.225-1.0165 7.5785-9.8353 12.029-17.221 8.6916zm8.8908-9.5418c0.15379-1.0764-0.36819-2.4947-1.1599-3.1518-2.8578-2.3718-6.6002 1.3707-4.2285 4.2285 1.6626 2.0033 5.0449 1.3275 5.3884-1.0767zm-476.06 8.3363c-4.1147-2.1215-6.9711-7.541-6.0897-11.554 2.7297-12.428 20.757-13.104 23.442-0.87817 2.0966 9.546-8.3853 17.056-17.353 12.432zm7.9688-10.129c0-2.1335-0.42802-2.8125-1.7728-2.8125-2.217 0-3.8806 2.5083-3.0681 4.6258 0.38504 1.0034 1.4014 1.4876 2.7273 1.2993 1.6567-0.23525 2.1136-0.90806 2.1136-3.1126zm331.24 6.7289c-0.84072-0.84072-1.2508-3.3399-1.1891-7.2463 0.0929-5.879 0.13599-5.9738 3.0606-6.7317 1.6315-0.42276 9.404-0.65218 17.272-0.50982l14.306 0.25885v7.5 7.5l-16.083 0.25613c-12.627 0.20109-16.359-0.0197-17.366-1.0272z" fill="#666"/>
</svg>
