<?xml version="1.0" encoding="UTF-8"?>
<!DOCTYPE svg [
	<!ENTITY ns_flows "http://ns.adobe.com/Flows/1.0/">
	<!ENTITY ns_extend "http://ns.adobe.com/Extensibility/1.0/">
	<!ENTITY ns_ai "http://ns.adobe.com/AdobeIllustrator/10.0/">
	<!ENTITY ns_graphs "http://ns.adobe.com/Graphs/1.0/">
	<!ENTITY ns_vars "http://ns.adobe.com/Variables/1.0/">
	<!ENTITY ns_imrep "http://ns.adobe.com/ImageReplacement/1.0/">
	<!ENTITY ns_sfw "http://ns.adobe.com/SaveForWeb/1.0/">
	<!ENTITY ns_custom "http://ns.adobe.com/GenericCustomNamespace/1.0/">
	<!ENTITY ns_adobe_xpath "http://ns.adobe.com/XPath/1.0/">
]>
<svg baseProfile="tiny" version="1.2" viewBox="0 0 566.94 274.33" xml:space="preserve" xmlns="http://www.w3.org/2000/svg">


	
		<path d="m57.9 201.66c-0.39 0-0.787-0.088-1.161-0.271-37.979-18.434-57.589-39.921-56.711-62.147 0.714-18.296 15.645-35.57 43.177-49.959 26.123-13.65 62.969-24.482 106.56-31.33 1.454-0.227 2.815 0.766 3.043 2.218 0.229 1.452-0.764 2.813-2.217 3.043-88.293 13.866-143.94 43.079-145.24 76.239-0.777 19.661 18.299 39.957 53.715 57.146 1.323 0.645 1.875 2.231 1.233 3.561-0.462 0.946-1.41 1.5-2.398 1.5z" fill="#C61717"/>
	
	
		<path d="m388.98 65.167c-0.145 0-0.289-0.011-0.436-0.035-28.057-4.606-57.67-7.681-88.022-9.133-1.472-0.069-2.604-1.317-2.533-2.787 0.07-1.468 1.341-2.589 2.787-2.531 30.558 1.463 60.379 4.557 88.636 9.196 1.447 0.238 2.434 1.607 2.193 3.06-0.216 1.305-1.343 2.23-2.625 2.23z" fill="#C61717"/>
	
	
		<path d="m305.16 247.03c-0.746 0-1.486 0-2.232-3e-3 -1.471-3e-3 -2.655-1.198-2.651-2.671 5e-3 -1.467 1.19-2.652 2.658-2.652h0.013c0.73 2e-3 1.479 2e-3 2.215 2e-3 142.5 2e-3 254.95-37.04 256.44-84.646 0.521-16.658-12.861-33.561-38.709-48.873-25.734-15.251-62.619-28.25-106.66-37.589-1.438-0.306-2.355-1.72-2.053-3.157 0.303-1.439 1.721-2.354 3.158-2.052 44.6 9.459 82.039 22.674 108.27 38.217 27.615 16.364 41.902 34.907 41.316 53.62-0.787 25.316-28.754 48.396-78.748 64.975-48.339 16.026-113.26 24.829-183.01 24.829z" fill="#C61717"/>
	
	<polygon points="353.38 108.4 423.68 54.818 341.11 87.776 317.91 63.624 325.31 97.091 255.01 150.68 337.58 117.71 360.78 141.86" fill="#C61717"/>
	<g fill="#C61717">
		<path d="m265.34 175.3c1.008-4.961 2.846-4.239 7.877-5.039l4.683-0.737-1.458 7.809-4.683 0.748c-5.031 0.797-7.246 2.143-6.419-2.781zm-10.153-7.148-3.645 19.605c-0.998 5.354 0.62 7.078 5.772 6.264l29.831-4.732 6.395-34.387-29.833 4.726c-5.155 0.817-7.531 3.172-8.52 8.524zm189.37-30.95-0.348 1.896 30.771-4.885c2.429-0.39 4.796-2.845 5.291-5.5 0.485-2.653-1.075-4.492-3.507-4.104l-7.902 1.248-12.609 2.007-3.195 0.5c-3.696 0.591-7.751 4.805-8.501 8.838zm-215.89 88.669 0.25-1.367c1.058 0.08 2.476 0.489 3.714 0.305l31.98-5.017c-1.188 6.38-9.615 7.979-22.475 10.017l-14.637 2.325-7.848 42.202 19.229-3.047c47.345-4.674 65.357-29.143 71.139-58.313l57.688-9.156 9.295-50.021 4.692-0.75c5.142-0.815 4.384-1.746 3.396 3.597l-8.508 45.77 41.416-6.572 0.567-3.033c3.126 1.379 6.778 1.865 10.646 1.258l71.625-11.36 6.68-35.953-4.643-3.306c4.023-4.764 7.158-10.593 8.066-15.485l1.129-5.67c3.572-21.207-15.979-26.838-24.9-25.42l-41.104 6.521c-7.279 1.156-15.295 6.229-21.127 12.949-5.395-5.342-13.721-7.418-18.563-6.649l-45.76 7.259 5.123 11.322 41.27-6.54c5.951-0.948 9.928 1.428 11.019 6.14-0.438 1.248-11.019 57.579-11.019 57.579l-14.797 2.349 7.934-42.646c0.982-5.34-0.633-7.067-5.771-6.25l-28.356 4.504-9.304 50.021-16.266 2.589 10.645-57.271-13.391-15.796-48.203 17.425 22.846-3.625 0.369-0.051-14.527 78.155c-3.691 19.854-24.877 38.84-43.668 41.823l-19.229 3.048 2.916-15.642 14.627-2.313c12.859-2.047 27.336-14.916 29.833-28.375l1.578-8.468-38.09 6.041c-8.167 1.298-12.6-3.663-10.993-12.291l6.83-36.741c1.208-6.529 5.282-11.951 10.733-14.769l0.09-0.979 19.109-14.707-11.163 1.877c-5.939 0.938-16.953 5.392-23.951 14.317-5.292-6.313-14.547-8.786-19.759-7.959l-41.055 6.521 6.69-35.962 29.953-4.752c15.944-2.526 33.586-20.458 36.721-37.301l4.503-24.232c3.135-16.854-8.716-30.104-24.661-27.576l-65.457 10.384-13.948 75.041-60.275 9.565c-5.102 0.81-10.064 5.841-11.062 11.231l-22.527 121.15c-0.999 5.394 2.326 9.112 7.429 8.31l115.01-18.252 9.305-50.021 4.682-0.748c5.152-0.81 4.393-1.735 3.395 3.604l-8.506 45.756 41.423-6.572zm-85.343-27.426-38.459 6.101 1.448-7.808 31.061-4.938 7.558-40.646-31.061 4.936 1.447-7.814 38.459-6.104-10.453 56.273zm-2.327 12.51-3.195 17.191-68.042 10.795 21.207-114.12 56.211-8.916-2.906 15.635-39.937 6.342-6.1 32.828 32.539-5.162-2.905 15.627-32.539 5.162-6.11 32.836 51.777-8.217zm78.156 4.296-16.274 2.571 7.927-42.633c0.999-5.344-0.619-7.078-5.771-6.262l-28.355 4.504-9.294 50.021-16.275 2.586 12.201-65.652 0.379-0.063 53.984-8.563c8.167-1.299 12.6 3.652 10.993 12.289l-9.515 51.202zm105.76-80.506 15.905-2.516-12.211 65.652-16.267 2.578 12.199-65.646 0.374-0.068zm98.686 30.943 5.647-30.372c1.791-9.604 12.113-19.04 20.908-20.438l38.049-6.029c6.412-1.021 10.865 6.14 9.557 13.147l-1.865 9.774c-1.311 7.009-8.469 14.458-14.875 15.476l-39.498 6.271-0.568 3.545c-0.75 4.03 1.926 7.18 5.621 6.59l44.147-7.029-2.976 16.02-49.801 7.896c-8.796 1.392-16.124-5.239-14.346-14.851zm-235.4-85.116 5.522-29.703 20.707-3.285c2.716-0.43 4.104 1.119 3.564 3.983l-3.774 20.329c-0.54 2.875-2.596 4.961-5.312 5.391l-20.707 3.285z"/>
		
			<path d="m320.56 94.466-4.396-17.412-2.479 0.299-0.797 4.293c-0.552 2.977-2.943 5.4-5.753 5.852l-17.015 2.695c-2.808 0.449-4.414-1.348-3.862-4.323l8.575-46.117c0.55-2.965 2.943-5.392 5.748-5.841l17.02-2.695c2.807-0.448 4.412 1.349 3.857 4.313l-1.098 5.87 34.396-5.462 1.308-7.029c3.296-17.741-8.767-31.229-25.562-28.574l-32.906 5.223c-16.782 2.666-34.753 20.917-38.047 38.658l-9.154 49.243c-3.295 17.741 8.766 31.229 25.56 28.564l11-1.737 33.605-25.82z"/>
			<path d="m344.95 83.962c0.897-2.416 1.519-3.334 1.979-5.812l1.168-6.26-13.688 2.176 10.541 9.896z"/>
		
	</g>

</svg>
