<?xml version="1.0" encoding="UTF-8"?>
<svg version="1.1" viewBox="0 0 207.64 35.647" xmlns="http://www.w3.org/2000/svg" xmlns:cc="http://creativecommons.org/ns#" xmlns:dc="http://purl.org/dc/elements/1.1/" xmlns:rdf="http://www.w3.org/1999/02/22-rdf-syntax-ns#">
<metadata>
<rdf:RDF>
<cc:Work rdf:about="">
<dc:format>image/svg+xml</dc:format>
<dc:type rdf:resource="http://purl.org/dc/dcmitype/StillImage"/>
<dc:title/>
</cc:Work>
</rdf:RDF>
</metadata>
<path d="m4.252 35.631c-2.3483 0-4.252-1.9037-4.252-4.252v-23.719c0-2.3483 1.9037-4.252 4.252-4.252h10c7.224 0 9.883 5.928 9.908 9.913v4.621c0 5.844-4.954 8.918-9.556 9.3-0.117 0.01-0.234 0.015-0.352 0.015h-0.123v4.123c0 2.3483-1.9037 4.252-4.252 4.252h-5.625z" color="#000000" color-rendering="auto" dominant-baseline="auto" image-rendering="auto" shape-rendering="auto" solid-color="#000000" stop-color="#000000" style="font-feature-settings:normal;font-variant-alternates:normal;font-variant-caps:normal;font-variant-east-asian:normal;font-variant-ligatures:normal;font-variant-numeric:normal;font-variant-position:normal;font-variation-settings:normal;inline-size:0;isolation:auto;mix-blend-mode:normal;shape-margin:0;shape-padding:0;text-decoration-color:#000000;text-decoration-line:none;text-decoration-style:solid;text-indent:0;text-orientation:mixed;text-transform:none;white-space:normal"/>
<path d="m28.677 35.639c-1.42 0-4.196-0.265-6.836-2.042-2.394-1.611-5.247-4.876-5.247-11.28 0-9.133 6.037-13.221 12.02-13.221 0 0 0.444 0 0.488 2e-3 5.812 0.146 12.059 4.342 12.059 13.219 0 9.596-7.145 13.204-12.024 13.313-0.107 4e-3 -0.262 9e-3 -0.46 9e-3z" color="#000000" color-rendering="auto" dominant-baseline="auto" image-rendering="auto" shape-rendering="auto" solid-color="#000000" stop-color="#000000" style="font-feature-settings:normal;font-variant-alternates:normal;font-variant-caps:normal;font-variant-east-asian:normal;font-variant-ligatures:normal;font-variant-numeric:normal;font-variant-position:normal;font-variation-settings:normal;inline-size:0;isolation:auto;mix-blend-mode:normal;shape-margin:0;shape-padding:0;text-decoration-color:#000000;text-decoration-line:none;text-decoration-style:solid;text-indent:0;text-orientation:mixed;text-transform:none;white-space:normal"/>
<path d="m48.314 35.643c-0.6852-1.71e-4 -1.3603-0.16551-1.968-0.482-0.60798 0.31774-1.284 0.48314-1.97 0.482h-5.089c-2.3483 0-4.252-1.9037-4.252-4.252v-25.119c0-2.3483 1.9037-4.252 4.252-4.252h5.089c2.3483 0 4.252 1.9037 4.252 4.252v2.827h5.123c3.4174 0.00217 5.4374 3.8293 3.511 6.652l-3.976 5.815 4.208 7.808c1.525 2.8328-0.52584 6.2676-3.743 6.269z" color="#000000" color-rendering="auto" dominant-baseline="auto" image-rendering="auto" shape-rendering="auto" solid-color="#000000" stop-color="#000000" style="font-feature-settings:normal;font-variant-alternates:normal;font-variant-caps:normal;font-variant-east-asian:normal;font-variant-ligatures:normal;font-variant-numeric:normal;font-variant-position:normal;font-variation-settings:normal;inline-size:0;isolation:auto;mix-blend-mode:normal;shape-margin:0;shape-padding:0;text-decoration-color:#000000;text-decoration-line:none;text-decoration-style:solid;text-indent:0;text-orientation:mixed;text-transform:none;white-space:normal"/>
<path d="m62.377 35.631c-7.816 0-12.033-6.86-12.033-13.314 0-8.279 4.347-13.221 11.627-13.221 4.69 0 8.335 2.225 10.264 6.264 1.269 2.657 1.332 5.196 1.332 5.677v3.312c0.0014 1.1756-0.48533 2.299-1.344 3.102v2.898c0 0.605-0.129 1.203-0.379 1.755-1.417 3.125-5.804 3.527-9.467 3.527z" color="#000000" color-rendering="auto" dominant-baseline="auto" image-rendering="auto" shape-rendering="auto" solid-color="#000000" stop-color="#000000" style="font-feature-settings:normal;font-variant-alternates:normal;font-variant-caps:normal;font-variant-east-asian:normal;font-variant-ligatures:normal;font-variant-numeric:normal;font-variant-position:normal;font-variation-settings:normal;inline-size:0;isolation:auto;mix-blend-mode:normal;shape-margin:0;shape-padding:0;text-decoration-color:#000000;text-decoration-line:none;text-decoration-style:solid;text-indent:0;text-orientation:mixed;text-transform:none;white-space:normal"/>
<path d="m58.79 15.687c-1.3813 0.0016-2.6771-0.66869-3.474-1.797l-1.922-2.718c-1.4679-2.0752-0.79916-4.9663 1.431-6.186l6.728-4.313c1.8291-1.1733 4.2487-0.7777 5.609 0.917l2.254 2.807c1.6146 2.012 1.0812 4.9865-1.132 6.312l-7.314 4.375c-0.6588 0.39437-1.4122 0.60276-2.18 0.603z" color="#000000" color-rendering="auto" dominant-baseline="auto" image-rendering="auto" shape-rendering="auto" solid-color="#000000" stop-color="#000000" style="font-feature-settings:normal;font-variant-alternates:normal;font-variant-caps:normal;font-variant-east-asian:normal;font-variant-ligatures:normal;font-variant-numeric:normal;font-variant-position:normal;font-variation-settings:normal;inline-size:0;isolation:auto;mix-blend-mode:normal;shape-margin:0;shape-padding:0;text-decoration-color:#000000;text-decoration-line:none;text-decoration-style:solid;text-indent:0;text-orientation:mixed;text-transform:none;white-space:normal"/>
<path d="m90.127 35.643c-0.83977 0.0014-1.6609-0.24717-2.359-0.714-0.69805 0.46683-1.5192 0.71538-2.359 0.714h-4.25c-0.85917 0.0016-1.6984-0.25865-2.406-0.746-0.70757 0.48735-1.5468 0.74757-2.406 0.746h-4.5c-2.3483 0-4.252-1.9037-4.252-4.252v-18.04c0-2.3483 1.9037-4.252 4.252-4.252h2.594c1.004 0 1.95 0.205 2.787 0.594 1.07-0.367 2.366-0.594 3.932-0.594 1.728 0 3.224 0.284 4.476 0.849 1.214-0.529 2.701-0.849 4.493-0.849 3.205 0 5.182 1.389 6.275 2.553 2.34 2.493 2.418 5.757 2.383 6.738v13c0 2.3483-1.9037 4.252-4.252 4.252h-4.408zm-0.46-14.431c9e-3 0-1e-3 -0.234-5e-3 -0.234l-1e-3 0.208c2e-3 0.018 5e-3 0.026 6e-3 0.026z" color="#000000" color-rendering="auto" dominant-baseline="auto" image-rendering="auto" shape-rendering="auto" solid-color="#000000" stop-color="#000000" style="font-feature-settings:normal;font-variant-alternates:normal;font-variant-caps:normal;font-variant-east-asian:normal;font-variant-ligatures:normal;font-variant-numeric:normal;font-variant-position:normal;font-variation-settings:normal;inline-size:0;isolation:auto;mix-blend-mode:normal;shape-margin:0;shape-padding:0;text-decoration-color:#000000;text-decoration-line:none;text-decoration-style:solid;text-indent:0;text-orientation:mixed;text-transform:none;white-space:normal"/>
<path d="m105.18 35.647c-1.42 0-4.196-0.265-6.836-2.042-2.394-1.611-5.247-4.876-5.247-11.28 0-9.132 6.037-13.22 12.02-13.22 0 0 0.44 0 0.481 2e-3 5.815 0.139 12.065 4.332 12.065 13.218 0 9.597-7.145 13.204-12.024 13.313-0.106 5e-3 -0.261 9e-3 -0.459 9e-3z" color="#000000" color-rendering="auto" dominant-baseline="auto" image-rendering="auto" shape-rendering="auto" solid-color="#000000" stop-color="#000000" style="font-feature-settings:normal;font-variant-alternates:normal;font-variant-caps:normal;font-variant-east-asian:normal;font-variant-ligatures:normal;font-variant-numeric:normal;font-variant-position:normal;font-variation-settings:normal;inline-size:0;isolation:auto;mix-blend-mode:normal;shape-margin:0;shape-padding:0;text-decoration-color:#000000;text-decoration-line:none;text-decoration-style:solid;text-indent:0;text-orientation:mixed;text-transform:none;white-space:normal"/>
<path d="m151.43 35.644c-0.93516 0.0014-1.8553-0.23503-2.674-0.687-0.31024-0.17293-0.60207-0.37698-0.871-0.609-0.879 0.787-2.061 1.295-3.493 1.295h-3.05c-0.105 0-0.212-4e-3 -0.316-0.012-2.357-0.176-4.863-2.087-4.863-5.281l1e-3 -15.183c0.069-2.791 2.1-5.767 5.847-6.056 0.108-8e-3 0.218-0.013 0.327-0.013h21.09c3.564 0 6.253 2.654 6.253 6.174v15.078c0 0.697-0.151 2.357-1.456 3.72-0.972 1.015-2.31 1.573-3.768 1.573l-3.152-1e-3c-1.2739-0.03981-2.4933-0.52616-3.445-1.374-0.881 0.828-2.071 1.375-3.523 1.375z" color="#000000" color-rendering="auto" dominant-baseline="auto" image-rendering="auto" shape-rendering="auto" solid-color="#000000" stop-color="#000000" style="font-feature-settings:normal;font-variant-alternates:normal;font-variant-caps:normal;font-variant-east-asian:normal;font-variant-ligatures:normal;font-variant-numeric:normal;font-variant-position:normal;font-variation-settings:normal;inline-size:0;isolation:auto;mix-blend-mode:normal;shape-margin:0;shape-padding:0;text-decoration-color:#000000;text-decoration-line:none;text-decoration-style:solid;text-indent:0;text-orientation:mixed;text-transform:none;white-space:normal"/>
<path d="m126.1 35.643c-0.96574 0.0015-1.9029-0.32738-2.656-0.932-0.75314 0.60447-1.6903 0.93332-2.656 0.932h-4.906c-2.3485 5.53e-4 -4.2526-1.9035-4.252-4.252v-18.04c0-2.3483 1.9037-4.252 4.252-4.252h3.531c0.947 0 1.842 0.225 2.63 0.65 1.14-0.404 2.483-0.65 4.058-0.65 2.436 0 4.559 0.841 6.14 2.432 2.57 2.586 2.679 6.112 2.675 6.792v13.068c5.5e-4 2.3485-1.9035 4.2526-4.252 4.252z" color="#000000" color-rendering="auto" dominant-baseline="auto" image-rendering="auto" shape-rendering="auto" solid-color="#000000" stop-color="#000000" style="font-feature-settings:normal;font-variant-alternates:normal;font-variant-caps:normal;font-variant-east-asian:normal;font-variant-ligatures:normal;font-variant-numeric:normal;font-variant-position:normal;font-variation-settings:normal;inline-size:0;isolation:auto;mix-blend-mode:normal;shape-margin:0;shape-padding:0;text-decoration-color:#000000;text-decoration-line:none;text-decoration-style:solid;text-indent:0;text-orientation:mixed;text-transform:none;white-space:normal"/>
<path d="m171.24 35.642c-2.534-0.066-5.154-2.063-5.154-5.292v-7.054c0-0.064 1e-3 -0.129 4e-3 -0.193 0.111-2.436 2.004-5.024 5.292-5.024 0.403 0 0.797 5e-3 1.134 0.01l0.502 5e-3c0.13474-0.01078 0.26983-0.01645 0.405-0.017 2.909 0 5.188 2.292 5.188 5.219v7.054c0 0.14-7e-3 0.278-0.021 0.417-0.273 2.779-2.5 4.876-5.178 4.876z" color="#000000" color-rendering="auto" dominant-baseline="auto" image-rendering="auto" shape-rendering="auto" solid-color="#000000" stop-color="#000000" style="font-feature-settings:normal;font-variant-alternates:normal;font-variant-caps:normal;font-variant-east-asian:normal;font-variant-ligatures:normal;font-variant-numeric:normal;font-variant-position:normal;font-variation-settings:normal;inline-size:0;isolation:auto;mix-blend-mode:normal;shape-margin:0;shape-padding:0;text-decoration-color:#000000;text-decoration-line:none;text-decoration-style:solid;text-indent:0;text-orientation:mixed;text-transform:none;white-space:normal"/>
<path d="m171.37 23.553c-0.8576-0.0047-1.7025-0.20726-2.469-0.592-1.768-0.897-2.823-2.642-2.823-4.666v-3.023c-1e-3 -0.65 0.146-2.333 1.537-3.727 0.981-0.983 2.322-1.525 3.774-1.525h2c2.565 0 5.214 1.964 5.214 5.252v2.903c0.054 1.352-0.431 2.718-1.325 3.708-0.975 1.077-2.351 1.67-3.873 1.67l-1.815-6e-3c-0.0733 0.0032-0.14664 0.0052-0.22 6e-3z" color="#000000" color-rendering="auto" dominant-baseline="auto" image-rendering="auto" shape-rendering="auto" solid-color="#000000" stop-color="#000000" style="font-feature-settings:normal;font-variant-alternates:normal;font-variant-caps:normal;font-variant-east-asian:normal;font-variant-ligatures:normal;font-variant-numeric:normal;font-variant-position:normal;font-variation-settings:normal;inline-size:0;isolation:auto;mix-blend-mode:normal;shape-margin:0;shape-padding:0;text-decoration-color:#000000;text-decoration-line:none;text-decoration-style:solid;text-indent:0;text-orientation:mixed;text-transform:none;white-space:normal"/>
<path d="m190.38 35.643c-1.354 0-2.599-0.471-3.549-1.334-0.98026 0.83962-2.2225 1.3113-3.513 1.334h-2.938c-3.209 0-5.205-2.626-5.281-5.165-6e-3 -0.19594 2e-3 -0.39204 0.022-0.587 0.037-1.206 5e-3 -7.479-0.012-10.549-7e-3 -1.417-0.013-2.549-0.013-3.05 0-4.041 3.22-6.247 6.248-6.272h10.004c3.998 0 6.205 3.198 6.251 6.206l1e-3 14.124c0 3.236-2.539 5.138-4.929 5.285-0.0869 0.0052-0.17394 0.0078-0.261 8e-3z" color="#000000" color-rendering="auto" dominant-baseline="auto" image-rendering="auto" shape-rendering="auto" solid-color="#000000" stop-color="#000000" style="font-feature-settings:normal;font-variant-alternates:normal;font-variant-caps:normal;font-variant-east-asian:normal;font-variant-ligatures:normal;font-variant-numeric:normal;font-variant-position:normal;font-variation-settings:normal;inline-size:0;isolation:auto;mix-blend-mode:normal;shape-margin:0;shape-padding:0;text-decoration-color:#000000;text-decoration-line:none;text-decoration-style:solid;text-indent:0;text-orientation:mixed;text-transform:none;white-space:normal"/>
<path d="m200.27 35.642c-2.534-0.066-5.154-2.063-5.154-5.292v-7.054c0-0.064 1e-3 -0.129 4e-3 -0.193 0.111-2.436 2.004-5.024 5.292-5.024 0.403 0 0.797 5e-3 1.134 0.01l0.502 5e-3c0.13474-0.01078 0.26983-0.01645 0.405-0.017 2.909 0 5.188 2.292 5.188 5.219v7.054c0 0.14-7e-3 0.278-0.021 0.417-0.273 2.779-2.5 4.876-5.178 4.876z" color="#000000" color-rendering="auto" dominant-baseline="auto" image-rendering="auto" shape-rendering="auto" solid-color="#000000" stop-color="#000000" style="font-feature-settings:normal;font-variant-alternates:normal;font-variant-caps:normal;font-variant-east-asian:normal;font-variant-ligatures:normal;font-variant-numeric:normal;font-variant-position:normal;font-variation-settings:normal;inline-size:0;isolation:auto;mix-blend-mode:normal;shape-margin:0;shape-padding:0;text-decoration-color:#000000;text-decoration-line:none;text-decoration-style:solid;text-indent:0;text-orientation:mixed;text-transform:none;white-space:normal"/>
<path d="m200.4 23.553c-0.8576-0.0047-1.7025-0.20726-2.469-0.592-1.768-0.897-2.823-2.642-2.823-4.666v-3.023c-1e-3 -0.65 0.146-2.333 1.537-3.727 0.981-0.983 2.322-1.525 3.774-1.525h2c2.565 0 5.214 1.964 5.214 5.252v2.903c0.054 1.353-0.431 2.719-1.325 3.708-0.975 1.077-2.351 1.67-3.873 1.67l-1.815-6e-3c-0.0733 0.0032-0.14664 0.0052-0.22 6e-3z" color="#000000" color-rendering="auto" dominant-baseline="auto" image-rendering="auto" shape-rendering="auto" solid-color="#000000" stop-color="#000000" style="font-feature-settings:normal;font-variant-alternates:normal;font-variant-caps:normal;font-variant-east-asian:normal;font-variant-ligatures:normal;font-variant-numeric:normal;font-variant-position:normal;font-variation-settings:normal;inline-size:0;isolation:auto;mix-blend-mode:normal;shape-margin:0;shape-padding:0;text-decoration-color:#000000;text-decoration-line:none;text-decoration-style:solid;text-indent:0;text-orientation:mixed;text-transform:none;white-space:normal"/>
<path d="m115.88 31.391h4.906v-10.369s-0.125-2.727 2.594-2.727 2.719 2.727 2.719 2.727v10.369h4.563v-13.096s0.031-4.945-4.563-4.945-5.313 2.942-5.313 2.942 0.438-2.942-1.375-2.942h-3.531z" color="#000000" color-rendering="auto" dominant-baseline="auto" fill="#fff" image-rendering="auto" shape-rendering="auto" solid-color="#000000" stop-color="#000000" style="font-feature-settings:normal;font-variant-alternates:normal;font-variant-caps:normal;font-variant-east-asian:normal;font-variant-ligatures:normal;font-variant-numeric:normal;font-variant-position:normal;font-variation-settings:normal;inline-size:0;isolation:auto;mix-blend-mode:normal;shape-margin:0;shape-padding:0;text-decoration-color:#000000;text-decoration-line:none;text-decoration-style:solid;text-indent:0;text-orientation:mixed;text-transform:none;white-space:normal"/>
<path d="m105.47 17.951s2.906-0.469 2.906 4.375c0 4.487-2.906 4-2.906 4s-3.031 0.034-3.031-4c0-4.861 3.031-4.319 3.031-4.375zm-0.344-4.594c-1.555-3e-3 -7.781 0.492-7.781 8.969 0 9.688 8.125 9.063 8.125 9.063s7.938-0.083 7.938-9.063-7.848-8.962-7.938-8.969z" color="#000000" color-rendering="auto" dominant-baseline="auto" fill="#fff" image-rendering="auto" shape-rendering="auto" solid-color="#000000" stop-color="#000000" style="font-feature-settings:normal;font-variant-alternates:normal;font-variant-caps:normal;font-variant-east-asian:normal;font-variant-ligatures:normal;font-variant-numeric:normal;font-variant-position:normal;font-variation-settings:normal;inline-size:0;isolation:auto;mix-blend-mode:normal;shape-margin:0;shape-padding:0;text-decoration-color:#000000;text-decoration-line:none;text-decoration-style:solid;text-indent:0;text-orientation:mixed;text-transform:none;white-space:normal"/>
<path d="m71.846 31.391h4.5v-10.369s0.188-2.727 2.5-2.727 2.313 2.727 2.313 2.727v10.369h4.25v-10.369s0.094-2.727 2.406-2.727c2.313 0 2.313 2.727 2.313 2.727v10.369h4.406v-13.096s0.313-4.945-4.406-4.945-4.719 2.942-4.719 2.942 0.563-2.942-4.25-2.942-4.813 2.942-4.813 2.942 0.688-2.942-1.906-2.942h-2.594z" color="#000000" color-rendering="auto" dominant-baseline="auto" fill="#fff" image-rendering="auto" shape-rendering="auto" solid-color="#000000" stop-color="#000000" style="font-feature-settings:normal;font-variant-alternates:normal;font-variant-caps:normal;font-variant-east-asian:normal;font-variant-ligatures:normal;font-variant-numeric:normal;font-variant-position:normal;font-variation-settings:normal;inline-size:0;isolation:auto;mix-blend-mode:normal;shape-margin:0;shape-padding:0;text-decoration-color:#000000;text-decoration-line:none;text-decoration-style:solid;text-indent:0;text-orientation:mixed;text-transform:none;white-space:normal"/>
<path d="m56.864 8.7157 1.922 2.718 7.314-4.375-2.254-2.806-6.894 4.419z" color="#000000" color-rendering="auto" dominant-baseline="auto" fill="#fff" image-rendering="auto" shape-rendering="auto" solid-color="#000000" stop-color="#000000" style="font-feature-settings:normal;font-variant-alternates:normal;font-variant-caps:normal;font-variant-east-asian:normal;font-variant-ligatures:normal;font-variant-numeric:normal;font-variant-position:normal;font-variation-settings:normal;inline-size:0;isolation:auto;mix-blend-mode:normal;shape-margin:0;shape-padding:0;text-decoration-color:#000000;text-decoration-line:none;text-decoration-style:solid;text-indent:0;text-orientation:mixed;text-transform:none;white-space:normal"/>
<path d="m62.315 17.285c2.536 0 2.562 1 2.562 1v2.75h-5.094v-2.75s-4e-3 -1 2.532-1zm-0.344-3.938c-6.002 0-7.375 4.582-7.375 8.969s2.655 9.063 7.781 9.063 5.594-1.031 5.594-1.031v-3.031c-0.036-0.011-4.197 0-6.406 0s-1.781-2.969-1.781-2.969h9.531v-3.313s2e-3 -7.688-7.344-7.688z" color="#000000" color-rendering="auto" dominant-baseline="auto" fill="#fff" image-rendering="auto" shape-rendering="auto" solid-color="#000000" stop-color="#000000" style="font-feature-settings:normal;font-variant-alternates:normal;font-variant-caps:normal;font-variant-east-asian:normal;font-variant-ligatures:normal;font-variant-numeric:normal;font-variant-position:normal;font-variation-settings:normal;inline-size:0;isolation:auto;mix-blend-mode:normal;shape-margin:0;shape-padding:0;text-decoration-color:#000000;text-decoration-line:none;text-decoration-style:solid;text-indent:0;text-orientation:mixed;text-transform:none;white-space:normal"/>
<path d="m39.288 6.2717h5.089v13.719l3.938-6.64h5.438l-5.438 7.953 5.438 10.088h-5.438l-3.938-8.397v8.397h-5.089z" color="#000000" color-rendering="auto" dominant-baseline="auto" fill="#fff" image-rendering="auto" shape-rendering="auto" solid-color="#000000" stop-color="#000000" style="font-feature-settings:normal;font-variant-alternates:normal;font-variant-caps:normal;font-variant-east-asian:normal;font-variant-ligatures:normal;font-variant-numeric:normal;font-variant-position:normal;font-variation-settings:normal;inline-size:0;isolation:auto;mix-blend-mode:normal;shape-margin:0;shape-padding:0;text-decoration-color:#000000;text-decoration-line:none;text-decoration-style:solid;text-indent:0;text-orientation:mixed;text-transform:none;white-space:normal"/>
<path d="m28.971 17.941s2.906-0.469 2.906 4.375c0 4.487-2.906 4-2.906 4s-3.031 0.034-3.031-4c0-4.86 3.031-4.319 3.031-4.375zm-0.344-4.594c-1.555-3e-3 -7.781 0.492-7.781 8.969 0 9.688 8.125 9.063 8.125 9.063s7.938-0.083 7.938-9.063-7.848-8.962-7.938-8.969z" color="#000000" color-rendering="auto" dominant-baseline="auto" fill="#fff" image-rendering="auto" shape-rendering="auto" solid-color="#000000" stop-color="#000000" style="font-feature-settings:normal;font-variant-alternates:normal;font-variant-caps:normal;font-variant-east-asian:normal;font-variant-ligatures:normal;font-variant-numeric:normal;font-variant-position:normal;font-variation-settings:normal;inline-size:0;isolation:auto;mix-blend-mode:normal;shape-margin:0;shape-padding:0;text-decoration-color:#000000;text-decoration-line:none;text-decoration-style:solid;text-indent:0;text-orientation:mixed;text-transform:none;white-space:normal"/>
<path d="m9.877 12.254c8e-3 2e-3 2.107 0 3 0 1.54 0.456 1.375 2.031 1.375 2.031v2c0 1.663-1.375 2-1.375 2h-3zm-5.625-4.594v23.719h5.625v-8.375h4.375s5.656-0.469 5.656-5.063v-4.594s-0.036-5.688-5.656-5.688z" color="#000000" color-rendering="auto" dominant-baseline="auto" fill="#fff" image-rendering="auto" shape-rendering="auto" solid-color="#000000" stop-color="#000000" style="font-feature-settings:normal;font-variant-alternates:normal;font-variant-caps:normal;font-variant-east-asian:normal;font-variant-ligatures:normal;font-variant-numeric:normal;font-variant-position:normal;font-variation-settings:normal;inline-size:0;isolation:auto;mix-blend-mode:normal;shape-margin:0;shape-padding:0;text-decoration-color:#000000;text-decoration-line:none;text-decoration-style:solid;text-indent:0;text-orientation:mixed;text-transform:none;white-space:normal"/>
<path d="m200.41 19.301s-1.044 0.018-1.044-1.005v-3.023s-2e-3 -1 1.06-1h2s0.962-0.02 0.962 1v3.023s0.101 1.005-0.946 1.005-2-0.013-2.032 0z" color="#000000" color-rendering="auto" dominant-baseline="auto" fill="#f1d941" image-rendering="auto" shape-rendering="auto" solid-color="#000000" stop-color="#000000" style="font-feature-settings:normal;font-variant-alternates:normal;font-variant-caps:normal;font-variant-east-asian:normal;font-variant-ligatures:normal;font-variant-numeric:normal;font-variant-position:normal;font-variation-settings:normal;inline-size:0;isolation:auto;mix-blend-mode:normal;shape-margin:0;shape-padding:0;text-decoration-color:#000000;text-decoration-line:none;text-decoration-style:solid;text-indent:0;text-orientation:mixed;text-transform:none;white-space:normal"/>
<path d="m202.41 22.33s0.977-0.074 0.977 0.965v7.054s-0.102 1.042-0.946 1.042h-2.063s-1.013-0.027-1.013-1.042v-7.054s0.044-0.965 1.044-0.965c1.001 0 1.939 0.036 2.001 0z" color="#000000" color-rendering="auto" dominant-baseline="auto" fill="#f1d941" image-rendering="auto" shape-rendering="auto" solid-color="#000000" stop-color="#000000" style="font-feature-settings:normal;font-variant-alternates:normal;font-variant-caps:normal;font-variant-east-asian:normal;font-variant-ligatures:normal;font-variant-numeric:normal;font-variant-position:normal;font-variation-settings:normal;inline-size:0;isolation:auto;mix-blend-mode:normal;shape-margin:0;shape-padding:0;text-decoration-color:#000000;text-decoration-line:none;text-decoration-style:solid;text-indent:0;text-orientation:mixed;text-transform:none;white-space:normal"/>
<path d="m179.35 30.349s0.031 1.042 1.031 1.042h2.938s1.031-0.058 1.031-1.042v-9.327s0.031-1.191 1-1.191h3s1.031-0.117 1.031 1.191v9.327s-0.063 1.042 1 1.042h2.031s0.938-0.058 0.938-1.042v-14.057s-0.031-2.02-2-2.02h-9.969s-2.031 0.017-2.031 2.02 0.093 14.168 0 14.057z" color="#000000" color-rendering="auto" dominant-baseline="auto" fill="#f1d941" image-rendering="auto" shape-rendering="auto" solid-color="#000000" stop-color="#000000" style="font-feature-settings:normal;font-variant-alternates:normal;font-variant-caps:normal;font-variant-east-asian:normal;font-variant-ligatures:normal;font-variant-numeric:normal;font-variant-position:normal;font-variation-settings:normal;inline-size:0;isolation:auto;mix-blend-mode:normal;shape-margin:0;shape-padding:0;text-decoration-color:#000000;text-decoration-line:none;text-decoration-style:solid;text-indent:0;text-orientation:mixed;text-transform:none;white-space:normal"/>
<path d="m171.38 19.301s-1.044 0.018-1.044-1.005v-3.023s-2e-3 -1 1.06-1h2s0.962-0.02 0.962 1v3.023s0.101 1.005-0.946 1.005-2.001-0.013-2.032 0z" color="#000000" color-rendering="auto" dominant-baseline="auto" fill="#f1d941" image-rendering="auto" shape-rendering="auto" solid-color="#000000" stop-color="#000000" style="font-feature-settings:normal;font-variant-alternates:normal;font-variant-caps:normal;font-variant-east-asian:normal;font-variant-ligatures:normal;font-variant-numeric:normal;font-variant-position:normal;font-variation-settings:normal;inline-size:0;isolation:auto;mix-blend-mode:normal;shape-margin:0;shape-padding:0;text-decoration-color:#000000;text-decoration-line:none;text-decoration-style:solid;text-indent:0;text-orientation:mixed;text-transform:none;white-space:normal"/>
<path d="m173.38 22.33s0.977-0.074 0.977 0.965v7.054s-0.102 1.042-0.946 1.042h-2.063s-1.013-0.027-1.013-1.042v-7.054s0.044-0.965 1.044-0.965c1.001 0 1.939 0.036 2.001 0z" color="#000000" color-rendering="auto" dominant-baseline="auto" fill="#f1d941" image-rendering="auto" shape-rendering="auto" solid-color="#000000" stop-color="#000000" style="font-feature-settings:normal;font-variant-alternates:normal;font-variant-caps:normal;font-variant-east-asian:normal;font-variant-ligatures:normal;font-variant-numeric:normal;font-variant-position:normal;font-variation-settings:normal;inline-size:0;isolation:auto;mix-blend-mode:normal;shape-margin:0;shape-padding:0;text-decoration-color:#000000;text-decoration-line:none;text-decoration-style:solid;text-indent:0;text-orientation:mixed;text-transform:none;white-space:normal"/>
<path d="m142.34 13.35h21.059s2.033-0.078 2.033 1.922v15.077s0.044 1.042-0.972 1.042h-3.049s-1.016-0.025-1.016-1.042v-9.327s-0.088-1.191-0.972-1.191h-3.049s-1.016-0.117-1.016 1.191v9.327s-0.133 1.042-1.016 1.042h-2.873s-1.105 0.063-1.105-1.042v-9.327s0.309-1.191-1.061-1.191h-2.873s-1.016-0.117-1.016 1.191v9.327s0 1.042-1.016 1.042h-3.049s-0.928-0.069-0.928-1.042v-15.077s0.04-1.776 1.919-1.922z" color="#000000" color-rendering="auto" dominant-baseline="auto" fill="#f1d941" image-rendering="auto" shape-rendering="auto" solid-color="#000000" stop-color="#000000" style="font-feature-settings:normal;font-variant-alternates:normal;font-variant-caps:normal;font-variant-east-asian:normal;font-variant-ligatures:normal;font-variant-numeric:normal;font-variant-position:normal;font-variation-settings:normal;inline-size:0;isolation:auto;mix-blend-mode:normal;shape-margin:0;shape-padding:0;text-decoration-color:#000000;text-decoration-line:none;text-decoration-style:solid;text-indent:0;text-orientation:mixed;text-transform:none;white-space:normal"/>
</svg>
