<?xml version="1.0" encoding="UTF-8"?>
<!DOCTYPE svg  PUBLIC '-//W3C//DTD SVG 1.1//EN'  'http://www.w3.org/Graphics/SVG/1.1/DTD/svg11.dtd'>
<svg enable-background="new 0 0 566.926 179.318" version="1.1" viewBox="0 0 566.93 179.32" xml:space="preserve" xmlns="http://www.w3.org/2000/svg">

	
		<linearGradient id="c" x1="478.71" x2="478.71" y1="416.16" y2="513.92" gradientTransform="translate(-.0898 -416.16)" gradientUnits="userSpaceOnUse">
		<stop stop-color="#33438A" offset="0"/>
		<stop stop-color="#0098DF" offset="1"/>
	</linearGradient>
	<polygon points="559.93 6.986 559.93 45.387 390.31 45.387 390.31 97.762 566.93 97.762 566.93 90.777 397.3 90.777 397.3 52.375 566.93 52.375 566.93 0 390.31 0 390.31 6.986" fill="url(#c)"/>
	
		<linearGradient id="b" x1="270.46" x2="270.46" y1="416.16" y2="513.92" gradientTransform="translate(-.0898 -416.16)" gradientUnits="userSpaceOnUse">
		<stop stop-color="#33438A" offset="0"/>
		<stop stop-color="#0098DF" offset="1"/>
	</linearGradient>
	<polygon points="364.13 0 364.13 6.986 274.04 6.986 274.04 97.762 176.62 97.762 176.62 90.777 266.71 90.777 266.71 0" fill="url(#b)"/>
	
		<linearGradient id="a" x1="88.399" x2="88.399" y1="416.16" y2="513.92" gradientTransform="translate(-.0898 -416.16)" gradientUnits="userSpaceOnUse">
		<stop stop-color="#33438A" offset="0"/>
		<stop stop-color="#0098DF" offset="1"/>
	</linearGradient>
	<polygon points="6.986 97.762 6.986 52.375 176.62 52.375 176.62 0 0 0 0 6.873 169.64 6.986 169.64 45.387 0 45.387 0 97.762" fill="url(#a)"/>
	<path d="m143.99 131.76v34.387h5.37v-31.087h4.972s3.604-0.015 4.842 1.604c1.046 1.375 1.238 3.858 1.238 5.541 0 1.803-0.11 4.575-0.717 5.594-0.915 1.551-2.41 1.859-3.791 1.859h-3.28v3.048h4.712s4.255 0.188 6.09-1.676c2.243-2.29 2.81-5.348 2.81-9.446 0-3.736-1.35-7.494-4.116-8.763-2.288-1.063-6.414-1.063-6.414-1.063l-11.716 2e-3z" fill="#7F7F7F"/>
	<polygon points="170.45 166.15 175.83 166.15 175.83 131.76 170.45 131.76" fill="#7F7F7F"/>
	<polygon points="204.36 139.78 214.19 165.52 208.55 179.32 213 179.32 229.23 139.78 224.26 139.78 217.19 159.05 210.61 139.78" fill="#7F7F7F"/>
	<path d="m233.28 165.93v-3.242s5.674 0.221 6.853 0.221c2.623 0 3.927-0.563 4.909-1.609 0.583-0.627 1.111-3.439 1.111-4.433 0-1.008-0.187-3.164-0.579-4.039-0.404-0.868-1.316-1.675-2.692-1.786-0.973-0.09-2.494-0.277-4.253-0.364-2.478-0.113-4.115-1.414-4.91-2.336-0.776-0.938-1.827-2.321-1.827-6.629 0-4.286 1.11-6.683 2.219-7.805 1.118-1.121 2.753-1.612 3.999-1.829 1.432-0.254 3.791-0.271 3.791-0.271l7.516 0.225v3.245s-5.484-0.211-6.661-0.211c-2.623 0-3.408 0.552-4.39 1.604-0.574 0.634-1.027 2.363-1.027 3.368 0 0.988 0.117 3 0.506 3.868 0.392 0.875 1.312 1.676 2.679 1.799 0.975 0.073 2.495 0.271 4.256 0.357 2.49 0.124 4.124 1.407 4.908 2.344 0.784 0.935 1.836 2.898 1.836 7.187s-1.118 7.354-2.229 8.458c-1.11 1.133-2.74 1.626-3.99 1.841-1.44 0.261-3.798 0.261-3.798 0.261l-8.227-0.224z" fill="#7F7F7F"/>
	<path d="m262.55 135.06h-5.361v25.23s0.129 2.3 0.257 3.104c0.135 0.813 1.315 2.75 4.388 2.75l5.561-0.12v-3.237s-1.514 0.113-2.418 0.113c-0.921 0-2.041-0.067-2.229-1.629-0.199-1.543-0.199-3.408-0.199-3.408v-14.857h6.056v-3.236h-6.056l1e-3 -4.71z" fill="#7F7F7F"/>
	<polygon points="314.33 166.15 319.7 166.15 319.7 139.78 314.33 139.78" fill="#7F7F7F"/>
	<polygon points="314.33 136.55 319.7 136.55 319.7 131.76 314.33 131.76" fill="#7F7F7F"/>
	<path d="m336.65 139.56c3.65 0 6.482 0.821 8.005 2.052 1.535 1.236 3.418 3.829 3.418 11.353s-1.883 10.114-3.418 11.363c-1.522 1.229-4.354 2.049-8.005 2.049-3.658 0-6.482-0.82-8.01-2.049-1.527-1.249-3.414-3.839-3.414-11.363 0-7.521 1.887-10.114 3.414-11.353 1.527-1.229 4.352-2.052 8.01-2.052zm-3.672 5.058c-0.741 0.905-1.637 2.824-1.637 8.346 0 5.538 0.896 7.44 1.637 8.345 0.729 0.901 2.083 1.515 3.838 1.515 1.764 0 3.111-0.611 3.859-1.515 0.733-0.902 1.636-2.807 1.636-8.345 0-5.521-0.901-7.438-1.636-8.346-0.748-0.901-2.097-1.501-3.859-1.501-1.755 0-3.11 0.6-3.838 1.501z" fill="#7F7F7F"/>
	<path d="m359.2 143.49 5.255-0.225c1.385 0 2.997 0.373 3.778 1.361 0.737 0.941 1.198 2.056 1.198 3.858v17.626h5.371v-18.065c0-3.419-1.049-5.396-2.627-6.644-2.254-1.789-6.279-1.629-6.279-1.629l-12.03 0.229v26.106h5.334v-22.617z" fill="#7F7F7F"/>
	<path d="m303.66 135.06h-5.374v25.23s0.127 2.3 0.26 3.104c0.131 0.813 1.303 2.75 4.381 2.75l5.566-0.12v-3.237s-1.509 0.113-2.424 0.113c-0.907 0-2.029-0.067-2.223-1.629-0.188-1.543-0.188-3.408-0.188-3.408v-14.857h6.042v-3.236h-6.041v-4.71h1e-3z" fill="#7F7F7F"/>
	<path d="m196.18 148.49c0-1.803-0.46-2.917-1.194-3.858-0.787-0.988-2.407-1.359-3.784-1.359l-7.079 0.223v-3.486l8.522-0.229s4.03-0.16 6.284 1.629c1.565 1.245 2.621 3.225 2.621 6.644v17.813l-10.288 0.221s-4.662 0.023-7.001-0.935c-2.29-0.93-3.537-3.485-3.537-7.021 0-3.415 1.052-5.411 2.622-6.659 2.255-1.783 6.275-1.61 6.275-1.61h3.288v3.048h-1.844c-1.375 0-2.795 0.253-3.577 1.236-0.744 0.944-1.136 1.749-1.136 3.55 0 2.362 0.46 3.422 1.572 4.227 0.981 0.714 2.741 0.87 4.71 0.87l3.546-0.22v-14.084z" fill="#7F7F7F"/>
	<path d="m286.66 148.49c0-1.803-0.453-2.917-1.188-3.858-0.793-0.988-2.409-1.359-3.782-1.359l-7.072 0.223v-3.486l8.505-0.229s4.032-0.16 6.285 1.629c1.571 1.245 2.614 3.225 2.614 6.644v17.813l-10.272 0.221s-4.664 0.023-7.013-0.935c-2.28-0.93-3.534-3.485-3.534-7.021 0-3.415 1.058-5.411 2.619-6.659 2.257-1.783 6.288-1.61 6.288-1.61h3.278v3.048h-1.843c-1.367 0-2.801 0.253-3.58 1.236-0.734 0.944-1.135 1.749-1.135 3.55 0 2.362 0.471 3.422 1.572 4.227 0.981 0.714 2.749 0.87 4.713 0.87l3.545-0.22v-14.084z" fill="#7F7F7F"/>
	<path d="m422.93 136.21c0.068 3.962-0.125 6.048-1.457 8.031-1.174 1.742-3.498 3.331-8.635 3.331l-6.373-0.189c-1.008 0.019-3.607 0.313-4.84 1.632-1.055 1.14-1.138 1.993-1.244 5.026v8.896h21.66v4.357h-23.678l-1.138-7e-3c-1.609 0-3.191-1.092-3.191-3.277v-6.636c0.113-7.752 0.667-8.863 2.351-10.897 1.168-1.405 3.912-2.979 7.24-3.146 0.656-0.029 1.885-0.113 3.614-0.066 1.259 0.056 2.519 0.092 3.071 0.102 2.951 0.03 4.025-0.514 4.833-1.571 0.921-1.188 1.416-2.595 1.416-4.896 0-2.156-0.44-4.188-1.263-5.131-0.994-1.093-1.948-1.822-4.717-1.822-7.007-0.019-15.182 0.167-15.182 0.167v-4.116s7.99-0.34 16.139-0.46c5.074-0.087 7.872 1.262 9.295 3.118 1.503 1.932 2.032 3.761 2.099 7.554z" fill="#7F7F7F"/>

</svg>
