<?xml version="1.0" encoding="UTF-8"?>
<svg baseProfile="tiny" version="1.2" viewBox="0 0 566.93 185.06" xml:space="preserve" xmlns="http://www.w3.org/2000/svg">

<g transform="translate(2.3223 -490.73)" fill="#0895FF">
	<path d="m100.92 651.64c5.332 0 8.531-1.087 8.531-6.155 0-3.752-2.327-5.76-7.658-5.76h-7.368v11.915h6.495zm-9.306 15.655v-29.984h10.955c7.755 0 9.792 3.878 9.792 8.375 0 6.699-6.011 8.366-11.537 8.366h-6.399v13.242l-2.811 1e-3"/>
	<path d="m116.14 667.29h2.424v-29.984h-2.424v29.984z"/>
	<path d="m138.92 655.96c-2.132 0.872-4.362 1.047-6.494 1.213-3.782 0.289-6.107 1.666-6.107 4.575 0 2.637 2.327 3.878 4.654 3.878 3.974 0 7.949-1.92 7.949-6.292l-2e-3 -3.374zm-4.265-1.241c0.969-0.087 2.521-0.339 3.296-0.718 0.873-0.369 0.969-1.492 0.969-2.238 0-2.54-1.551-4.372-5.428-4.372-3.393 0-5.816 1.124-6.302 4.867h-2.521c0.388-5.081 4.168-7.126 8.919-7.126 4.362 0 7.756 1.716 7.756 6.708v11.741c0 1.957 0.581 2.414 2.617 1.666v1.959c-0.291 0.126-1.163 0.416-1.938 0.416-0.389 0-0.679-0.038-1.066-0.125-1.745-0.242-2.037-1.706-2.037-3.21-2.037 2.338-4.944 3.588-8.046 3.588-3.781 0-7.175-2.046-7.175-6.204 0-3.616 2.521-5.826 7.562-6.495l3.394-0.457"/>
	<path d="m147.55 673.16c0.679 0.126 1.356 0.262 2.036 0.262 2.909 0 3.296-4.09 4.265-5.962l-8.434-21.735h2.812l6.98 18.536 6.882-18.536h2.715l-8.047 21.279c-2.037 5.409-3.393 8.784-6.883 8.784-0.873 0-1.648-0.125-2.327-0.29l1e-3 -2.338"/>
	<path d="m170.72 658.33c0.485 5.37 3.976 7.328 8.628 7.328 5.332 0 7.562-2.906 7.562-6.204 0-9.287-18.226-3.121-18.226-14.898 0-4.171 3.393-8.038 10.179-8.038 6.689 0 10.082 4.071 9.985 8.959h-2.617c0-4.587-3.587-6.544-7.368-6.544-5.817 0-7.853 3.537-7.368 6.62 1.26 7.736 18.323 2.161 18.323 13.775 0 5.508-4.072 8.746-10.955 8.746-6.302 0-10.955-3.238-10.955-9.743l2.812-1e-3"/>
	<path d="m202.81 667.37c-0.582 0.125-1.648 0.504-2.909 0.504-2.424 0-3.781-1.086-3.781-4.294v-15.783h-3.103v-2.074h3.103v-6.001h2.521v6.001h3.975v2.074h-3.975v14.785c0 2.133 0 3.043 2.132 3.043 0.679 0 1.356-0.126 2.037-0.29v2.035"/>
	<path d="m221.52 655.96c-2.132 0.872-4.264 1.047-6.398 1.213-3.78 0.289-6.107 1.666-6.107 4.575 0 2.637 2.327 3.878 4.655 3.878 3.974 0 7.851-1.92 7.851-6.292l-1e-3 -3.374zm-4.168-1.241c0.873-0.087 2.425-0.339 3.297-0.718 0.776-0.369 0.872-1.492 0.872-2.238 0-2.54-1.454-4.372-5.332-4.372-3.489 0-5.816 1.124-6.301 4.867h-2.521c0.387-5.081 4.168-7.126 8.821-7.126 4.364 0 7.853 1.716 7.853 6.708v11.741c0 1.957 0.486 2.414 2.619 1.666v1.959c-0.389 0.126-1.262 0.416-1.939 0.416-0.388 0-0.775-0.038-1.164-0.125-1.648-0.242-1.939-1.706-1.939-3.21-2.134 2.338-4.943 3.588-8.046 3.588-3.781 0-7.271-2.046-7.271-6.204 0-3.616 2.521-5.826 7.562-6.495l3.489-0.457"/>
	<path d="m238.78 667.37c-0.581 0.125-1.649 0.504-2.908 0.504-2.423 0-3.781-1.086-3.781-4.294v-15.783h-3.006v-2.074h3.006v-6.001h2.521v6.001h3.975v2.074h-3.975v14.785c0 2.133 0 3.043 2.132 3.043 0.678 0 1.358-0.126 2.037-0.29v2.035"/>
	<path d="m246.24 667.29h-2.425v-21.569h2.425v21.569zm-2.619-26.283v-3.701h2.812v3.701h-2.812"/>
	<path d="m260.98 647.39c-5.235 0-7.271 4.449-7.271 9.112 0 5.371 2.521 9.122 7.271 9.122 5.234 0 7.368-4.498 7.368-9.122 0-5.08-2.036-9.112-7.368-9.112zm-9.985 9.111c0-6.281 3.393-11.371 9.985-11.371 6.785 0 10.082 5.04 10.082 11.371 0 6.837-3.975 11.372-10.082 11.372-5.429-0.086-9.985-3.829-9.985-11.372"/>
	<path d="m277.07 667.29h-2.521v-21.569h2.521v2.995c1.938-2.123 3.975-3.587 6.883-3.587 2.713 0 5.041 0.833 6.592 3.083 1.064 1.552 1.162 3.169 1.162 4.953v14.124h-2.521v-14.076c0-3.866-1.647-5.825-5.623-5.825-3.103 0-5.235 1.996-6.01 4.196-0.486 1.377-0.486 2.59-0.486 4.092v11.614"/>
	<path d="m301.5 660.28c-0.291-0.136-0.678-0.204-1.258-0.204h-0.777v1.997h0.875c0.386 0 0.773-0.038 0.968-0.114 0.387-0.155 0.582-0.445 0.582-0.873 0-0.399-0.195-0.671-0.39-0.806zm-1.065-0.883c0.681 0 1.164 0.059 1.551 0.193 0.582 0.243 0.775 0.708 0.775 1.416 0 0.494-0.099 0.854-0.484 1.086-0.194 0.126-0.483 0.215-0.774 0.271 0.387 0.067 0.678 0.262 0.871 0.553 0.194 0.301 0.291 0.593 0.291 0.873v0.407c0 0.135 0 0.281 0.098 0.418v0.299 0.068h-0.873v-0.049-0.078l-0.096-0.173v-0.447c0-0.658-0.195-1.086-0.486-1.289-0.193-0.126-0.58-0.185-1.066-0.185h-0.773v2.221h-0.971v-5.584h1.937zm-3.004-0.29c-0.873 0.853-1.263 1.89-1.263 3.091 0 1.231 0.39 2.27 1.263 3.123 0.872 0.863 1.841 1.289 3.103 1.289s2.229-0.426 3.103-1.289c0.872-0.854 1.263-1.891 1.263-3.123 0-1.201-0.391-2.238-1.263-3.091-0.872-0.854-1.841-1.281-3.103-1.281-1.262-1e-3 -2.231 0.426-3.103 1.281zm6.689 6.687c-0.97 0.99-2.229 1.493-3.586 1.493-1.359 0-2.619-0.504-3.586-1.493-0.972-0.987-1.455-2.189-1.455-3.597 0-1.386 0.483-2.588 1.455-3.567 0.967-0.998 2.227-1.482 3.586-1.482 1.356 0 2.616 0.483 3.586 1.482 0.969 0.97 1.455 2.172 1.455 3.567 0 1.409-0.487 2.61-1.455 3.597"/>
	<path d="m322.63 651.64c5.332 0 8.627-1.087 8.627-6.155 0-3.752-2.422-5.76-7.754-5.76h-7.369v11.915h6.496zm-9.304 15.655v-29.984h10.955c7.756 0 9.789 3.878 9.789 8.375 0 6.699-5.914 8.366-11.535 8.366h-6.4v13.242l-2.809 1e-3"/>
	<path d="m345.22 647.39c-5.234 0-7.365 4.449-7.365 9.112 0 5.371 2.615 9.122 7.365 9.122 5.236 0 7.369-4.498 7.369-9.122-0.097-5.08-2.037-9.112-7.369-9.112zm-9.984 9.111c0-6.281 3.297-11.371 9.984-11.371 6.787 0 9.986 5.04 9.986 11.371 0 6.837-3.975 11.372-9.986 11.372-5.525-0.086-9.984-3.829-9.984-11.372"/>
	<path d="m361.41 667.29h-2.521v-21.569h2.521v4.044h0.098c1.354-3.463 3.393-4.635 6.98-4.635v2.716c-5.625-0.126-7.076 4.032-7.076 8.86v10.584"/>
	<path d="m382.45 667.37c-0.582 0.125-1.648 0.504-2.813 0.504-2.52 0-3.879-1.086-3.879-4.294v-15.783h-3.004v-2.074h3.004v-6.001h2.521v6.001h4.072v2.074h-4.072v14.785c0 2.133 0.098 3.043 2.133 3.043 0.682 0 1.455-0.126 2.037-0.29v2.035"/>
	<path d="m400.38 655.96c-2.133 0.872-4.266 1.047-6.398 1.213-3.781 0.289-6.107 1.666-6.107 4.575 0 2.637 2.328 3.878 4.652 3.878 3.977 0 7.854-1.92 7.854-6.292v-3.374h-1e-3zm-4.17-1.241c0.871-0.087 2.424-0.339 3.297-0.718 0.777-0.369 0.873-1.492 0.873-2.238 0-2.54-1.455-4.372-5.332-4.372-3.488 0-5.816 1.124-6.301 4.867h-2.521c0.387-5.081 4.17-7.126 8.822-7.126 4.363 0 7.854 1.716 7.854 6.708v11.741c0 1.957 0.482 2.414 2.617 1.666v1.959c-0.389 0.126-1.262 0.416-1.938 0.416-0.389 0-0.777-0.038-1.164-0.125-1.646-0.242-1.938-1.706-1.938-3.21-2.135 2.338-4.945 3.588-8.051 3.588-3.777 0-7.27-2.046-7.27-6.204 0-3.616 2.52-5.826 7.561-6.495l3.491-0.457"/>
	<path d="m420.16 665.62c4.168 0 7.27-3.043 7.369-8.452 0.191-5.41-2.23-9.782-7.369-9.782-4.557 0-7.271 4.158-7.271 9.026-3e-3 5.214 2.521 9.208 7.271 9.208zm-7.274 1.668h-2.52v-29.984h2.52v11.865c1.555-2.618 4.654-4.043 7.66-4.043 6.59 0 9.598 5.38 9.598 11.42 0 6.359-2.715 11.323-9.693 11.323-2.813 0-6.01-1.541-7.561-4.372v3.791"/>
	<path d="m435.67 667.29h2.52v-29.984h-2.52v29.984z"/>
	<path d="m459.91 655c0-4.198-2.326-7.61-6.785-7.61s-6.787 3.538-7.271 7.61h14.056zm-14.057 2.093c0 4.654 2.521 8.532 7.271 8.532 3.199 0 5.816-1.794 6.494-4.953h2.811c-1.26 4.07-3.779 7.203-9.305 7.203-6.885 0-9.891-4.915-9.891-11.282 0-6.293 3.686-11.461 9.891-11.461 5.914 0 9.5 4.218 9.5 11.962l-16.771-1e-3"/>
	<path d="M-2.322,490.726H174.31v52.38H4.657v45.398h-6.979v-52.38H167.33v-38.42H-2.322V490.726"/>
	<path d="m394.96 543.11v45.398h-6.98v-52.38h169.65v-38.42h-169.65v-6.979h176.63v52.38h-169.65"/>
	<path d="m264.37 490.73v90.798h-90.061v6.98h97.428v-90.8h90.062v-6.979h-97.429"/>
</g>
</svg>
