<?xml version="1.0" encoding="UTF-8"?>
<svg width="315mm" height="100mm" version="1.1" viewBox="0 0 315 100" xmlns="http://www.w3.org/2000/svg" xmlns:cc="http://creativecommons.org/ns#" xmlns:dc="http://purl.org/dc/elements/1.1/" xmlns:rdf="http://www.w3.org/1999/02/22-rdf-syntax-ns#">
<metadata>
<rdf:RDF>
<cc:Work rdf:about="">
<dc:format>image/svg+xml</dc:format>
<dc:type rdf:resource="http://purl.org/dc/dcmitype/StillImage"/>
<dc:title/>
</cc:Work>
</rdf:RDF>
</metadata>
<g transform="translate(0,-197)">
<g transform="translate(-.37418 2.4266)" fill="#0895FF" stroke-width=".26458">
<path d="m221.05 294.17c-0.097-0.097-0.17639-7.1812-0.17639-15.743v-15.566h10.319v31.485h-4.983c-2.7406 0-5.0624-0.0794-5.1594-0.17639zm-213.88-0.2923-5.0823-0.0718-0.18045-0.96186c-0.30197-1.6097 0.16678-22.179 0.56621-24.846 0.87741-5.8577 3.0873-10.45 6.8684-14.275 2.6599-2.6903 4.5935-4.0553 7.5635-5.3394 3.7698-1.6298 5.6358-1.9734 11.527-2.1224 9.8478-0.24904 15.343 0.71278 19.905 3.4841 1.8571 1.1281 5.0708 4.0473 5.8582 5.3213 0.31097 0.50316 0.70731 0.91484 0.88076 0.91484 0.17345 0 1.2651-0.96282 2.4258-2.1396 3.4826-3.5307 7.3589-5.7825 11.796-6.8524 4.6557-1.1227 13.655-1.2997 18.589-0.36578 7.963 1.5072 14.613 6.4108 17.894 13.194 1.4479 2.9937 1.9938 4.9751 2.3688 8.599 0.29719 2.8716 0.77845 15.337 0.82743 21.431l0.033 4.101-10.562 0.143-0.15204-12.242c-0.13572-10.928-0.2095-12.51-0.68718-14.735-1.4454-6.7316-5.0336-10.698-11.327-12.519-1.8088-0.52363-2.6351-0.59487-6.6937-0.57711-3.8786 0.017-4.967 0.11275-6.7051 0.59001-5.7378 1.5756-9.2803 4.7894-11.101 10.071-0.97237 2.821-1.2165 6.7706-1.2328 19.943l-0.0114 9.1943h-10.319l-0.02416-1.3891c-0.44784-25.766-0.40208-24.566-1.0165-26.652-1.7911-6.0831-5.5033-9.62-11.861-11.301-3.5075-0.92735-8.3276-0.97482-11.826-0.11648-5.2647 1.2916-9.0137 4.0441-11.001 8.0771-1.8067 3.6658-1.8748 4.2816-2.0671 18.682l-0.17132 12.832zm140.78-0.50295c-0.24943-0.99383 0.10632-21.047 0.43103-24.296 0.929-9.2958 5.5835-16.33 13.362-20.195 4.2076-2.0903 7.5013-2.7068 14.479-2.7103 11.308-6e-3 16.913 1.7241 22.261 6.8705 4.4753 4.3064 6.8984 9.5078 7.5796 16.27 0.36756 3.649 0.64857 18.745 0.40809 21.923l-0.19522 2.5797h-10.269l-5e-3 -11.179c-3e-3 -6.1483-0.11542-12.231-0.25075-13.517-0.97456-9.2635-6.854-14.566-17.075-15.398-3.503-0.28536-8.0397 0.52956-11.239 2.0188-4.9989 2.327-7.872 6.5753-8.7512 12.94-0.18888 1.3672-0.33505 6.7614-0.37281 13.758l-0.0621 11.509-10.121 0.1436-0.18031-0.71844zm97.269-3.3597v-4.1353l3.5057-5.3e-4c4.8524-8e-4 10.237-0.44527 12.826-1.0585 6.1197-1.4495 10.191-5.4703 11.573-11.43 0.52986-2.2846 0.92528-7.1383 0.93054-11.422 7e-3 -5.9219 1.1301-11.442 3.1824-15.644 3.4583-7.0821 9.1396-10.809 18.538-12.161 5.5794-0.80262 13.37-1.0398 16.847-0.51298l0.8599 0.1303v7.574l-5.2255 0.1818c-8.6572 0.3012-11.44 0.76878-15.023 2.5241-3.9936 1.9566-6.9484 5.8511-7.9408 10.466-0.2327 1.0821-0.50382 4.5585-0.65212 8.3616-0.27432 7.0344-0.50967 9.2292-1.3371 12.47-1.2236 4.7925-3.0713 8.4844-5.6028 11.195-4.9974 5.3512-11.175 7.1829-25.139 7.4545l-7.3422 0.14278v-4.1353zm-121.97-11.676v-15.478h10.054v30.956h-10.054zm97.808-24.65c-0.097-0.097-0.17639-1.8234-0.17639-3.8365v-3.6601h10.319v7.6729h-4.983c-2.7406 0-5.0624-0.0794-5.1594-0.17639zm-97.808-3.7924v-3.7042h10.054v7.4083h-10.054z"/>
<g transform="translate(54.577 54.154)">
<path d="m32.015 141.56h46.734v13.859h-44.887v12.012h-1.8465v-13.859h44.887v-10.165h-44.887v-1.8465"/>
<path d="m137.13 155.42v12.012h-1.8468v-13.859h44.887v-10.165h-44.887v-1.8465h46.734v13.859h-44.887"/>
<path d="m102.58 141.56v24.024h-23.829v1.847h25.778v-24.024h23.829v-1.8465h-25.778"/>
</g>
</g>
</g>
</svg>
