<?xml version="1.0" encoding="utf-8"?>
<!-- Generator: Adobe Illustrator 18.0.0, SVG Export Plug-In . SVG Version: 6.00 Build 0)  -->
<!DOCTYPE svg PUBLIC "-//W3C//DTD SVG 1.1//EN" "http://www.w3.org/Graphics/SVG/1.1/DTD/svg11.dtd">
<svg version="1.1"
	 id="svg2" xmlns:cc="http://creativecommons.org/ns#" xmlns:svg="http://www.w3.org/2000/svg" xmlns:dc="http://purl.org/dc/elements/1.1/" xmlns:rdf="http://www.w3.org/1999/02/22-rdf-syntax-ns#"
	 xmlns="http://www.w3.org/2000/svg" xmlns:xlink="http://www.w3.org/1999/xlink" x="0px" y="0px" viewBox="0.3 0 483.9 113"
	 enable-background="new 0.3 0 483.9 113" xml:space="preserve">
<g id="g3" transform="translate(-61.6856, -312.868)">
	<path id="path7" fill="#DE0029" d="M142.2,336.4l-0.1,89.5l-24-7.8V312.9l30.6,8.1c19.6,5.3,31.6,15.5,31.4,33.5
		c-0.2,20.9-9.8,29.3-28.7,23.8v-41.2C151.5,332.1,142.2,331.8,142.2,336.4L142.2,336.4z"/>
	<path id="path9" fill="#F3C202" d="M107.1,400.7l-11.3,3.8c-7.3,2.5-13.6-3.4-6.8-5.9l5.5-1.9l-20.6-6.5
		c-6.3,2.1-12.3,6.7-11.9,13.2c0.4,6.5,15.3,8.1,26.8,9.9c10.7,1.8,20.5,0.8,29.4-2.3v-6.7L107.1,400.7L107.1,400.7z M142.3,425.9
		l21-7.3l-21.2-6.7v13.6L142.3,425.9L142.3,425.9z"/>
	<path id="path11" fill="#326DB3" d="M198.1,406.3l0.4-0.1c9.2-3.2,13.1-7.7,12.1-11.9c-1.6-7-12.8-10.8-30-12.1
		c-12.4-0.9-24.6,1.9-36.5,5.9l-1.9,0.7l21.4,6.6l12.5-4.2c13.1-2.4,18.3,1.9,5.8,5.9l-6.2,2.1L198.1,406.3L198.1,406.3z
		 M118.1,375.3l-9.5,3.2l9.5,2.9V375.3L118.1,375.3z"/>
	<path id="path13" fill="#00AA9E" d="M163.3,418.6l34.8-12.3l-22.6-7l-33.3,11.4v1.2L163.3,418.6L163.3,418.6z M118.1,397l-11,3.7
		l11,3.5V397L118.1,397z M142.1,402.8v-13.9l21.4,6.6L142.1,402.8L142.1,402.8z M94.4,396.7l23.7-8.5v-6.8l-9.5-2.9l-34.3,11.6
		c-0.1,0-0.3,0.1-0.5,0.1L94.4,396.7L94.4,396.7z"/>
</g>
<g>
	<path fill="#777777" d="M199.6,30.6c-1.1-1.4-2.7-2.4-4.6-2.9c-1.9-0.5-4.3-0.7-7.1-0.7h-22.2v60.6h9.9V33.1h11.2
		c1.2,0,2.2,0.2,3,0.5c0.7,0.3,1.3,0.8,1.7,1.7c0.5,0.9,0.8,2.1,1,3.8c0.2,1.7,0.3,3.9,0.3,6.5c0,2.6-0.1,4.8-0.3,6.4
		c-0.2,1.6-0.5,2.9-1,3.7c-0.4,0.8-1,1.4-1.7,1.6c-0.8,0.3-1.8,0.4-3,0.4h-8.7v6h9.8c2.9,0,5.3-0.2,7.1-0.7c1.9-0.4,3.5-1.3,4.6-2.7
		c1.1-1.3,1.9-3.2,2.3-5.6c0.4-2.3,0.6-5.4,0.6-9.2c0-3.8-0.2-6.9-0.6-9.3C201.5,34,200.7,32,199.6,30.6z"/>
	<path fill="#777777" d="M236.9,55.5c-1.1-1.3-2.6-2.1-4.4-2.6c-1.7-0.5-3.7-0.7-6-0.7h-6c-1.5,0-2.7-0.1-3.5-0.4
		c-0.8-0.3-1.4-0.7-1.8-1.3c-0.4-0.6-0.7-1.6-0.9-2.8c-0.2-1.2-0.3-2.9-0.3-4.8c0-2,0.1-3.7,0.4-5c0.3-1.3,0.7-2.2,1.2-2.9
		c0.5-0.7,1.2-1.2,1.9-1.5c0.8-0.3,1.8-0.4,2.9-0.4h15V27h-17.1c-5,0-8.5,1.5-10.6,4.6c-2,3-3,7.2-3,12.5c0,3.1,0.2,5.7,0.6,7.8
		c0.4,2.1,1.1,3.9,2,5.2c1,1.4,2.2,2.3,3.8,2.9c1.5,0.6,3.4,0.9,5.6,0.9h6.5c1.6,0,3,0.1,4,0.4c0.9,0.2,1.7,0.7,2.2,1.3
		c0.5,0.6,0.9,1.6,1.1,2.8c0.2,1.3,0.3,3,0.3,5.1c0,2.4-0.2,4.3-0.5,5.8c-0.3,1.4-0.7,2.6-1.3,3.3c-0.5,0.8-1.2,1.3-2,1.5
		c-0.9,0.3-1.9,0.4-3,0.4h-17.8v6.1h19.5c5.2,0,8.9-1.5,11.1-4.5c2.1-3,3.2-7.6,3.2-13.9c0-3.4-0.3-6.3-0.8-8.4
		C238.8,58.5,238,56.7,236.9,55.5z"/>
	<path fill="#777777" d="M276.4,79.2c-1-1.6-1.5-4.1-1.5-7.5V43.3c0-4,0.5-6.8,1.4-8.2c0.9-1.4,2.4-2,4.6-2h15.1V27h-17.8
		c-4.7,0-8.2,1.5-10.2,4.3c-2,2.8-3,6.9-3,12v28.4c0,4.9,1,8.8,3,11.6c2,2.8,5.5,4.3,10.2,4.3h18v-6.1H281
		C278.9,81.5,277.4,80.7,276.4,79.2z"/>
	<rect x="301.6" y="25.3" fill="#777777" width="9.7" height="62.3"/>
	<path fill="#777777" d="M349.8,42.9c-1-1.2-2.5-2.1-4.2-2.7c-1.7-0.5-3.9-0.8-6.4-0.8h-15.8v6.1h12.7c1.5,0,2.7,0.1,3.6,0.3
		c0.8,0.2,1.4,0.6,1.9,1.1c0.5,0.6,0.8,1.4,1,2.5c0.2,1.2,0.3,2.7,0.3,4.5v27.5h-9.1c-1.5,0-2.7-0.1-3.6-0.3
		c-0.8-0.2-1.5-0.5-1.9-0.9c-0.4-0.4-0.8-1-0.9-1.8c-0.2-0.8-0.3-1.8-0.3-3.1V70c0-1.1,0.1-2.1,0.3-2.9c0.2-0.7,0.5-1.3,0.9-1.7
		c0.4-0.4,1.1-0.7,1.9-0.9c0.9-0.2,2.1-0.3,3.6-0.3h4.2v-5.9h-7.2c-2.6,0-4.7,0.3-6.4,0.7c-1.7,0.5-3.1,1.3-4.2,2.2
		c-1.1,1-1.8,2.2-2.2,3.7c-0.4,1.4-0.6,3.1-0.6,4.9v6c0,1.9,0.2,3.5,0.6,4.9c0.4,1.5,1.1,2.7,2.2,3.7c1,1,2.4,1.7,4.2,2.2
		c1.7,0.5,3.8,0.7,6.4,0.7h21.8V54.4c0-2.6-0.2-4.9-0.6-6.8C351.6,45.7,350.8,44.1,349.8,42.9z"/>
	<path fill="#777777" d="M389.9,61.9c-1.1-1.1-2.5-1.9-4.2-2.3c-1.7-0.4-3.8-0.7-6.2-0.7h-6c-1.4,0-2.6-0.1-3.5-0.2
		c-0.8-0.1-1.5-0.5-1.9-0.9c-0.4-0.5-0.8-1.1-0.9-2c-0.2-0.9-0.3-2.2-0.3-3.7c0-1.5,0.1-2.8,0.4-3.7c0.3-0.9,0.7-1.5,1.2-1.9
		c0.5-0.4,1.2-0.7,2-0.8c0.9-0.1,1.9-0.2,3-0.2h14.8v-6.1h-16.9c-4.9,0-8.4,1.2-10.4,3.6c-2,2.4-3,5.7-3,10c0,2.5,0.2,4.6,0.6,6.3
		c0.4,1.8,1.1,3.2,2.1,4.3c1,1.1,2.2,1.9,3.7,2.4c1.5,0.5,3.3,0.7,5.5,0.7h6.4c1.7,0,3.1,0.1,4.2,0.2c1,0.2,1.8,0.5,2.3,0.9
		c0.5,0.5,0.9,1.1,1,2c0.2,1,0.3,2.3,0.3,3.9c0,1.9-0.2,3.3-0.4,4.4c-0.3,1-0.7,1.7-1.3,2.2c-0.6,0.5-1.3,0.8-2.1,0.9
		c-0.9,0.1-2,0.2-3.1,0.2h-17.6v6.1h19.3c5.1,0,8.8-1.2,11-3.6c2.1-2.4,3.2-6.1,3.2-11.1c0-2.6-0.2-4.9-0.7-6.6
		C391.8,64.4,391,63,389.9,61.9z"/>
	<path fill="#777777" d="M428.6,61.9c-1.1-1.1-2.5-1.9-4.2-2.3c-1.7-0.4-3.8-0.7-6.2-0.7h-6c-1.4,0-2.6-0.1-3.5-0.2
		c-0.8-0.1-1.5-0.5-1.9-0.9c-0.4-0.5-0.8-1.1-0.9-2c-0.2-0.9-0.3-2.2-0.3-3.7c0-1.5,0.1-2.8,0.4-3.7c0.3-0.9,0.7-1.5,1.2-1.9
		c0.5-0.4,1.2-0.7,2-0.8c0.9-0.1,1.9-0.2,3-0.2H427v-6.1h-16.9c-4.9,0-8.4,1.2-10.4,3.6c-2,2.4-3,5.7-3,10c0,2.5,0.2,4.6,0.6,6.3
		c0.4,1.8,1.1,3.2,2.1,4.3c1,1.1,2.2,1.9,3.7,2.4c1.5,0.5,3.3,0.7,5.5,0.7h6.4c1.7,0,3.1,0.1,4.2,0.2c1,0.2,1.8,0.5,2.3,0.9
		c0.5,0.5,0.9,1.1,1,2c0.2,1,0.3,2.3,0.3,3.9c0,1.9-0.2,3.3-0.4,4.4c-0.3,1-0.7,1.7-1.3,2.2c-0.6,0.5-1.3,0.8-2.1,0.9
		c-0.9,0.1-2,0.2-3.1,0.2h-17.6v6.1h19.3c5.1,0,8.8-1.2,11-3.6c2.1-2.4,3.2-6.1,3.2-11.1c0-2.6-0.2-4.9-0.7-6.6
		C430.5,64.4,429.7,63,428.6,61.9z"/>
	<rect x="437.2" y="39.4" fill="#777777" width="9.7" height="48.2"/>
	<rect x="437.2" y="25.2" fill="#777777" width="9.7" height="9.2"/>
	<path fill="#777777" d="M463.8,49.5c0.2-1.1,0.5-2,1-2.5c0.4-0.6,1.1-0.9,1.9-1.1c0.9-0.2,2.1-0.3,3.6-0.3h13.9v-6.1h-17
		c-2.6,0-4.8,0.3-6.4,0.8c-1.7,0.5-3.1,1.4-4.2,2.7c-1,1.2-1.8,2.8-2.2,4.7c-0.4,1.9-0.6,4.1-0.6,6.8v18.3c0,2.7,0.2,5,0.6,6.8
		c0.4,1.9,1.1,3.5,2.1,4.7c1,1.2,2.5,2.1,4.2,2.7c1.7,0.5,3.8,0.8,6.4,0.8h17v-6.1h-13.9c-1.5,0-2.7-0.1-3.6-0.3
		c-0.8-0.2-1.4-0.6-1.9-1.1c-0.5-0.6-0.8-1.4-1-2.5c-0.2-1.1-0.3-2.7-0.3-4.5V54C463.5,52.2,463.6,50.7,463.8,49.5z"/>
</g>
</svg>
