<?xml version="1.0" encoding="UTF-8"?>
<!DOCTYPE svg  PUBLIC '-//W3C//DTD SVG 1.1//EN'  'http://www.w3.org/Graphics/SVG/1.1/DTD/svg11.dtd'>
<svg enable-background="new 0.3 0 483.9 113" version="1.1" viewBox=".3 0 483.9 113" xml:space="preserve" xmlns="http://www.w3.org/2000/svg">
<g transform="translate(-61.686 -312.87)">
	<path d="m142.2 336.4-0.1 89.5-24-7.8v-105.2l30.6 8.1c19.6 5.3 31.6 15.5 31.4 33.5-0.2 20.9-9.8 29.3-28.7 23.8v-41.2c0.1-5-9.2-5.3-9.2-0.7z" fill="#DE0029"/>
	<path d="m107.1 400.7-11.3 3.8c-7.3 2.5-13.6-3.4-6.8-5.9l5.5-1.9-20.6-6.5c-6.3 2.1-12.3 6.7-11.9 13.2s15.3 8.1 26.8 9.9c10.7 1.8 20.5 0.8 29.4-2.3v-6.7l-11.1-3.6zm35.2 25.2 21-7.3-21.2-6.7v13.6l0.2 0.4z" fill="#F3C202"/>
	<path d="m198.1 406.3 0.4-0.1c9.2-3.2 13.1-7.7 12.1-11.9-1.6-7-12.8-10.8-30-12.1-12.4-0.9-24.6 1.9-36.5 5.9l-1.9 0.7 21.4 6.6 12.5-4.2c13.1-2.4 18.3 1.9 5.8 5.9l-6.2 2.1 22.4 7.1zm-80-31-9.5 3.2 9.5 2.9v-6.1z" fill="#326DB3"/>
	<path d="m163.3 418.6 34.8-12.3-22.6-7-33.3 11.4v1.2l21.1 6.7zm-45.2-21.6-11 3.7 11 3.5v-7.2zm24 5.8v-13.9l21.4 6.6-21.4 7.3zm-47.7-6.1 23.7-8.5v-6.8l-9.5-2.9-34.3 11.6c-0.1 0-0.3 0.1-0.5 0.1l20.6 6.5z" fill="#00AA9E"/>
</g>
<g fill="#777">
	<path d="m199.6 30.6c-1.1-1.4-2.7-2.4-4.6-2.9s-4.3-0.7-7.1-0.7h-22.2v60.6h9.9v-54.5h11.2c1.2 0 2.2 0.2 3 0.5 0.7 0.3 1.3 0.8 1.7 1.7 0.5 0.9 0.8 2.1 1 3.8s0.3 3.9 0.3 6.5-0.1 4.8-0.3 6.4-0.5 2.9-1 3.7c-0.4 0.8-1 1.4-1.7 1.6-0.8 0.3-1.8 0.4-3 0.4h-8.7v6h9.8c2.9 0 5.3-0.2 7.1-0.7 1.9-0.4 3.5-1.3 4.6-2.7 1.1-1.3 1.9-3.2 2.3-5.6 0.4-2.3 0.6-5.4 0.6-9.2s-0.2-6.9-0.6-9.3c-0.4-2.2-1.2-4.2-2.3-5.6z"/>
	<path d="m236.9 55.5c-1.1-1.3-2.6-2.1-4.4-2.6-1.7-0.5-3.7-0.7-6-0.7h-6c-1.5 0-2.7-0.1-3.5-0.4s-1.4-0.7-1.8-1.3-0.7-1.6-0.9-2.8-0.3-2.9-0.3-4.8c0-2 0.1-3.7 0.4-5s0.7-2.2 1.2-2.9 1.2-1.2 1.9-1.5c0.8-0.3 1.8-0.4 2.9-0.4h15v-6.1h-17.1c-5 0-8.5 1.5-10.6 4.6-2 3-3 7.2-3 12.5 0 3.1 0.2 5.7 0.6 7.8s1.1 3.9 2 5.2c1 1.4 2.2 2.3 3.8 2.9 1.5 0.6 3.4 0.9 5.6 0.9h6.5c1.6 0 3 0.1 4 0.4 0.9 0.2 1.7 0.7 2.2 1.3s0.9 1.6 1.1 2.8c0.2 1.3 0.3 3 0.3 5.1 0 2.4-0.2 4.3-0.5 5.8-0.3 1.4-0.7 2.6-1.3 3.3-0.5 0.8-1.2 1.3-2 1.5-0.9 0.3-1.9 0.4-3 0.4h-17.8v6.1h19.5c5.2 0 8.9-1.5 11.1-4.5 2.1-3 3.2-7.6 3.2-13.9 0-3.4-0.3-6.3-0.8-8.4-0.4-2.3-1.2-4.1-2.3-5.3z"/>
	<path d="m276.4 79.2c-1-1.6-1.5-4.1-1.5-7.5v-28.4c0-4 0.5-6.8 1.4-8.2s2.4-2 4.6-2h15.1v-6.1h-17.8c-4.7 0-8.2 1.5-10.2 4.3s-3 6.9-3 12v28.4c0 4.9 1 8.8 3 11.6s5.5 4.3 10.2 4.3h18v-6.1h-15.2c-2.1 0-3.6-0.8-4.6-2.3z"/>
	<rect x="301.6" y="25.3" width="9.7" height="62.3"/>
	<path d="m349.8 42.9c-1-1.2-2.5-2.1-4.2-2.7-1.7-0.5-3.9-0.8-6.4-0.8h-15.8v6.1h12.7c1.5 0 2.7 0.1 3.6 0.3 0.8 0.2 1.4 0.6 1.9 1.1 0.5 0.6 0.8 1.4 1 2.5 0.2 1.2 0.3 2.7 0.3 4.5v27.5h-9.1c-1.5 0-2.7-0.1-3.6-0.3-0.8-0.2-1.5-0.5-1.9-0.9s-0.8-1-0.9-1.8c-0.2-0.8-0.3-1.8-0.3-3.1v-5.3c0-1.1 0.1-2.1 0.3-2.9 0.2-0.7 0.5-1.3 0.9-1.7s1.1-0.7 1.9-0.9c0.9-0.2 2.1-0.3 3.6-0.3h4.2v-5.9h-7.2c-2.6 0-4.7 0.3-6.4 0.7-1.7 0.5-3.1 1.3-4.2 2.2-1.1 1-1.8 2.2-2.2 3.7-0.4 1.4-0.6 3.1-0.6 4.9v6c0 1.9 0.2 3.5 0.6 4.9 0.4 1.5 1.1 2.7 2.2 3.7 1 1 2.4 1.7 4.2 2.2 1.7 0.5 3.8 0.7 6.4 0.7h21.8v-32.9c0-2.6-0.2-4.9-0.6-6.8s-1.2-3.5-2.2-4.7z"/>
	<path d="m389.9 61.9c-1.1-1.1-2.5-1.9-4.2-2.3s-3.8-0.7-6.2-0.7h-6c-1.4 0-2.6-0.1-3.5-0.2-0.8-0.1-1.5-0.5-1.9-0.9-0.4-0.5-0.8-1.1-0.9-2-0.2-0.9-0.3-2.2-0.3-3.7s0.1-2.8 0.4-3.7 0.7-1.5 1.2-1.9 1.2-0.7 2-0.8c0.9-0.1 1.9-0.2 3-0.2h14.8v-6.1h-16.9c-4.9 0-8.4 1.2-10.4 3.6s-3 5.7-3 10c0 2.5 0.2 4.6 0.6 6.3 0.4 1.8 1.1 3.2 2.1 4.3s2.2 1.9 3.7 2.4 3.3 0.7 5.5 0.7h6.4c1.7 0 3.1 0.1 4.2 0.2 1 0.2 1.8 0.5 2.3 0.9 0.5 0.5 0.9 1.1 1 2 0.2 1 0.3 2.3 0.3 3.9 0 1.9-0.2 3.3-0.4 4.4-0.3 1-0.7 1.7-1.3 2.2s-1.3 0.8-2.1 0.9c-0.9 0.1-2 0.2-3.1 0.2h-17.6v6.1h19.3c5.1 0 8.8-1.2 11-3.6 2.1-2.4 3.2-6.1 3.2-11.1 0-2.6-0.2-4.9-0.7-6.6-0.6-1.8-1.4-3.2-2.5-4.3z"/>
	<path d="m428.6 61.9c-1.1-1.1-2.5-1.9-4.2-2.3s-3.8-0.7-6.2-0.7h-6c-1.4 0-2.6-0.1-3.5-0.2-0.8-0.1-1.5-0.5-1.9-0.9-0.4-0.5-0.8-1.1-0.9-2-0.2-0.9-0.3-2.2-0.3-3.7s0.1-2.8 0.4-3.7 0.7-1.5 1.2-1.9 1.2-0.7 2-0.8c0.9-0.1 1.9-0.2 3-0.2h14.8v-6.1h-16.9c-4.9 0-8.4 1.2-10.4 3.6s-3 5.7-3 10c0 2.5 0.2 4.6 0.6 6.3 0.4 1.8 1.1 3.2 2.1 4.3s2.2 1.9 3.7 2.4 3.3 0.7 5.5 0.7h6.4c1.7 0 3.1 0.1 4.2 0.2 1 0.2 1.8 0.5 2.3 0.9 0.5 0.5 0.9 1.1 1 2 0.2 1 0.3 2.3 0.3 3.9 0 1.9-0.2 3.3-0.4 4.4-0.3 1-0.7 1.7-1.3 2.2s-1.3 0.8-2.1 0.9c-0.9 0.1-2 0.2-3.1 0.2h-17.6v6.1h19.3c5.1 0 8.8-1.2 11-3.6 2.1-2.4 3.2-6.1 3.2-11.1 0-2.6-0.2-4.9-0.7-6.6-0.6-1.8-1.4-3.2-2.5-4.3z"/>
	<rect x="437.2" y="39.4" width="9.7" height="48.2"/>
	<rect x="437.2" y="25.2" width="9.7" height="9.2"/>
	<path d="m463.8 49.5c0.2-1.1 0.5-2 1-2.5 0.4-0.6 1.1-0.9 1.9-1.1 0.9-0.2 2.1-0.3 3.6-0.3h13.9v-6.1h-17c-2.6 0-4.8 0.3-6.4 0.8-1.7 0.5-3.1 1.4-4.2 2.7-1 1.2-1.8 2.8-2.2 4.7s-0.6 4.1-0.6 6.8v18.3c0 2.7 0.2 5 0.6 6.8 0.4 1.9 1.1 3.5 2.1 4.7s2.5 2.1 4.2 2.7c1.7 0.5 3.8 0.8 6.4 0.8h17v-6.1h-13.9c-1.5 0-2.7-0.1-3.6-0.3-0.8-0.2-1.4-0.6-1.9-1.1-0.5-0.6-0.8-1.4-1-2.5s-0.3-2.7-0.3-4.5v-19.3c0.1-1.8 0.2-3.3 0.4-4.5z"/>
</g>
</svg>
