<?xml version="1.0" encoding="UTF-8" standalone="no"?>
<svg
   version="1.1"
   viewBox="0 0 268 68"
   id="svg12"
   sodipodi:docname="system.svg"
   inkscape:version="1.3.2 (091e20e, 2023-11-25, custom)"
   xmlns:inkscape="http://www.inkscape.org/namespaces/inkscape"
   xmlns:sodipodi="http://sodipodi.sourceforge.net/DTD/sodipodi-0.dtd"
   xmlns="http://www.w3.org/2000/svg"
   xmlns:svg="http://www.w3.org/2000/svg">
  <defs
     id="defs16" />
  <sodipodi:namedview
     id="namedview14"
     pagecolor="#ffffff"
     bordercolor="#666666"
     borderopacity="1.0"
     inkscape:pageshadow="2"
     inkscape:pageopacity="0.0"
     inkscape:pagecheckerboard="0"
     showgrid="false"
     inkscape:zoom="6.3507463"
     inkscape:cx="28.343126"
     inkscape:cy="34.090482"
     inkscape:window-width="1920"
     inkscape:window-height="1129"
     inkscape:window-x="-8"
     inkscape:window-y="-8"
     inkscape:window-maximized="1"
     inkscape:current-layer="svg12"
     inkscape:showpageshadow="2"
     inkscape:deskcolor="#d1d1d1" />
  <path
     d="M 44.878 14.763 C 46.084 18.035 46.689 21.384 46.689 24.813 C 46.689 27.812 46.221 30.559 45.287 33.051 C 43.727 37.257 41.254 40.763 37.866 43.567 C 34.36 46.449 30.424 48.124 26.061 48.591 L 26.061 54.609 C 26.061 54.844 25.886 55.777 25.535 57.414 C 24.834 60.647 24.192 64.329 23.608 68.458 C 21.659 59.809 20.588 55.213 20.393 54.668 L 20.393 48.532 C 16.148 48.104 12.309 46.468 8.882 43.626 C 2.959 38.72 0 32.447 0 24.813 C 0 21.619 0.526 18.503 1.578 15.465 C 2.551 12.583 4.032 9.994 6.019 7.695 C 8.161 5.164 10.577 3.41 13.264 2.436 C 10.421 4.11 8.064 6.234 6.193 8.804 C 3.662 12.309 2.396 16.304 2.396 20.782 C 2.396 22.417 2.551 24.034 2.864 25.631 C 3.526 28.981 5.143 32.096 7.715 34.977 C 10.363 37.978 13.303 39.867 16.537 40.645 C 18.213 41.229 19.497 41.544 20.394 41.581 L 20.394 35.502 C 20.394 34.88 20.374 34.177 20.336 33.399 C 20.064 32.114 19.324 31.374 18.115 31.179 C 18.039 31.101 17.939 31.061 17.824 31.061 L 28.4 31.061 C 28.672 31.061 28.789 31.101 28.75 31.179 C 27.309 31.413 26.471 32.153 26.238 33.399 C 26.119 34.023 26.062 34.744 26.062 35.561 L 26.062 41.581 C 28.05 41.151 29.412 40.841 30.153 40.645 C 33.309 39.828 36.191 38.016 38.801 35.211 C 42.464 31.237 44.293 26.428 44.293 20.78 C 44.293 16.923 43.318 13.388 41.371 10.175 C 39.423 6.962 36.755 4.381 33.366 2.432 C 38.703 4.462 42.54 8.572 44.878 14.763 Z"
     style="fill:#000000;fill-opacity:1"
     id="path2" />
  <path
     d="M 61.644 6.851 C 61.293 4.127 60.146 2.494 58.199 1.948 L 72.397 1.948 C 69.513 2.922 68.228 4.595 68.54 6.968 L 68.54 37.201 C 68.54 39.342 68.812 41.19 69.359 42.746 C 71.539 47.105 74.753 49.381 79 49.576 C 73.663 49.42 69.514 47.806 66.553 44.732 C 63.28 41.346 61.645 37.573 61.645 33.409 L 61.644 6.851 L 61.644 6.851 Z M 100.649 6.81 C 100.995 4.077 102.214 2.457 104.301 1.947 L 89.984 1.947 C 92.817 2.807 94.077 4.427 93.766 6.81 L 93.766 37.859 C 93.766 39.93 93.471 41.552 92.885 42.722 C 90.655 47.137 87.468 49.421 83.322 49.576 C 86.561 49.498 89.331 48.873 91.633 47.703 C 92.843 47.079 94.229 46.083 95.79 44.715 C 99.028 41.865 100.648 38.115 100.648 33.466 L 100.649 6.81 L 100.649 6.81 Z"
     style="fill:#000000;fill-opacity:1"
     id="path4" />
  <path
     d="M 146.398 45.205 L 144.061 39.478 C 142.735 36.206 140.963 34.219 138.742 33.518 C 137.963 33.442 136.912 33.363 135.588 33.285 C 135.237 33.246 135.022 33.226 134.944 33.226 L 135.935 32.934 C 137.955 32.349 138.966 31.376 138.966 30.011 C 138.966 29.583 138.809 28.999 138.5 28.258 C 136.943 24.557 135.797 21.77 135.058 19.901 C 133.619 16.552 132.532 14.662 131.792 14.234 C 131.208 13.923 130.257 15.092 128.935 17.739 C 127.534 20.584 126.641 22.493 126.253 23.467 L 124.271 28.55 C 123.999 29.251 123.862 29.855 123.862 30.362 C 123.862 32.155 125.102 33.11 127.581 33.227 C 124.309 33.227 122.049 34.063 120.805 35.737 C 119.478 38 118.368 40.666 117.473 43.744 L 117.122 45.789 C 117.357 47.268 118.233 48.146 119.753 48.418 L 110.403 48.418 C 112.117 47.638 114.201 45.027 116.656 40.584 C 117.981 38.245 119.596 34.99 121.505 30.819 C 124.349 24.583 126.025 20.861 126.531 19.651 C 128.479 15.131 129.764 12.128 130.387 10.647 L 133.835 1.643 L 142.075 21.134 L 142.016 21.134 C 142.951 23.12 143.535 24.366 143.77 24.873 C 145.835 29.197 148.463 34.785 151.659 41.642 C 153.255 45.108 155.125 47.367 157.268 48.418 L 143.535 48.418 C 145.678 48.302 146.632 47.23 146.398 45.205 Z"
     style="fill:#000000;fill-opacity:1"
     id="path6" />
  <path
     d="M 178.698 43.685 C 178.698 46.258 179.796 47.777 181.983 48.244 L 168.894 48.244 C 170.771 47.776 171.847 46.258 172.123 43.685 L 172.123 6.687 C 172.123 4.036 171.066 2.478 168.954 2.011 L 182.042 2.011 C 180.44 2.362 179.325 3.86 178.698 6.51 L 178.698 19.545 C 178.698 22.041 180.343 23.812 183.633 24.865 C 180.343 25.565 178.698 27.651 178.698 31.119 L 178.698 43.685 Z M 197.408 22.666 C 203.018 15.422 208.802 7.866 214.764 0 L 188.002 24.986 L 188.059 24.986 L 188.002 25.045 L 188.178 25.045 C 192.422 26.643 196.143 28.552 199.338 30.773 C 206.934 36.075 211.025 42.503 211.609 50.063 C 211.726 48.935 211.785 47.824 211.785 46.734 C 211.785 39.373 209.72 33.337 205.59 28.624 C 203.213 25.899 200.486 23.911 197.408 22.666 Z"
     style="fill:#000000;fill-opacity:1"
     id="path8" />
  <path
     d="M 238.966 26.668 C 237.875 27.528 237.33 28.716 237.33 30.235 L 237.33 34.271 C 237.33 35.441 237.661 37.838 238.325 41.463 C 238.827 42.592 239.509 43.665 240.367 44.678 C 242.273 46.899 244.492 48.088 247.022 48.245 C 243.133 48.128 239.517 46.764 236.173 44.152 C 232.479 41.345 230.629 38.051 230.629 34.271 L 230.629 6.673 C 229.96 3.904 228.763 2.23 227.036 1.644 L 240.77 1.644 C 238.476 2.189 237.331 3.924 237.331 6.847 L 237.331 20.062 C 237.331 21.854 237.818 23.142 238.792 23.923 C 238.828 24.311 241.494 24.622 246.789 24.857 C 243.285 24.973 240.679 25.578 238.966 26.668 Z M 249.712 1.644 L 265.546 1.644 L 265.603 17.39 C 265.134 13.058 263.405 9.507 260.403 6.736 C 257.718 4.278 254.152 2.581 249.712 1.644 Z M 252.459 48.42 C 257.833 47.992 263.014 42.929 268 33.227 L 268 48.42 C 267.261 47.367 266.092 46.842 264.496 46.842 C 263.365 46.842 262.039 47.105 260.52 47.629 C 259.002 48.156 256.315 48.42 252.459 48.42 Z"
     style="fill:#000000;fill-opacity:1"
     id="path10" />
  <path
     style="fill:#f2662e;stroke-width:0.346416"
     d="M 74.076589,48.822538 C 71.005984,48.028606 68.786593,46.781445 66.72857,44.693401 64.674718,42.609587 63.518297,40.849955 62.663626,38.508099 61.729991,35.94988 61.725029,35.855284 61.725029,20.614621 61.725029,11.050126 61.670572,6.4470763 61.55063,5.8732028 61.208134,4.2345009 60.318023,2.869083 59.20564,2.2760177 58.659956,1.985087 58.719708,1.9821505 65.26792,1.9780843 l 6.613396,-0.00411 -0.86604,0.4767886 C 70.538954,2.713 69.884107,3.1860987 69.56006,3.5020968 68.412509,4.6211454 68.47893,3.3667273 68.532381,22.910693 c 0.04653,17.01433 0.05777,17.591293 0.363436,18.666756 0.865964,3.046804 3.54456,6.102698 6.367163,7.264022 1.113798,0.458258 0.629288,0.450525 -1.186391,-0.01893 z"
     id="path1" />
  <path
     style="fill:#f2662e;stroke-width:0.346416"
     d="m 86.840188,48.930882 c 2.595444,-1.152704 4.895424,-3.493773 6.17207,-6.282334 0.816824,-1.784177 0.823685,-1.952972 0.827948,-20.367702 L 93.844162,5.1962397 93.474546,4.402496 C 93.05033,3.4914975 92.373948,2.8643413 91.249118,2.3390321 l -0.787309,-0.367683 6.604859,-0.00154 6.604862,-0.00154 -0.71877,0.455825 c -0.82975,0.5262169 -1.38895,1.2067163 -1.89692,2.3084257 l -0.35901,0.77864 -0.0907,15.1163332 c -0.0821,13.687591 -0.11693,15.227954 -0.36827,16.297297 -0.893415,3.800953 -2.713953,6.461932 -6.237499,9.117005 -2.113825,1.592815 -4.776416,2.74698 -7.081453,3.069631 l -0.708578,0.09918 z"
     id="path3" />
  <path
     style="fill:#f2662e;stroke-width:0.346416"
     d="m 111.26251,47.973935 c 2.08803,-1.514994 4.85011,-5.755632 8.11974,-12.466297 3.93027,-8.066584 10.08975,-22.159561 12.81778,-29.327262 0.84876,-2.2300529 1.58907,-4.0546416 1.64513,-4.0546416 0.0561,0 0.67744,1.3640129 1.38084,3.0311398 0.7034,1.6671269 2.6559,6.2905998 4.33887,10.2743828 1.68298,3.983784 4.26571,9.794125 5.73939,12.911869 1.47368,3.117743 3.636,7.706558 4.80514,10.197366 1.16914,2.49081 2.46167,5.067761 2.87228,5.726561 0.8896,1.427314 2.39932,3.087988 3.36936,3.706265 l 0.70004,0.446188 -6.28994,-0.0035 -6.28993,-0.0035 0.66596,-0.302311 c 0.88724,-0.402759 1.30096,-1.099265 1.30172,-2.191436 4.7e-4,-0.671283 -0.19323,-1.325537 -0.93237,-3.149236 -2.14932,-5.303081 -2.6974,-6.306679 -4.25622,-7.793533 -1.22648,-1.169867 -2.01358,-1.509068 -3.74757,-1.615027 -1.8673,-0.114107 -1.99724,-0.185355 -0.98815,-0.541822 1.04373,-0.368703 1.87501,-1.006144 2.2583,-1.731714 0.38542,-0.729603 0.26871,-1.787944 -0.3634,-3.295503 -0.27235,-0.64953 -1.24087,-2.987838 -2.15227,-5.196239 -2.49968,-6.056931 -3.85208,-8.502938 -4.70128,-8.502938 -0.41768,0 -1.3858,1.131993 -2.06374,2.413068 -2.29214,4.331404 -5.49351,11.934277 -5.67678,13.481706 -0.0494,0.417449 -0.006,1.00449 0.0973,1.317746 0.20853,0.631855 1.07052,1.469506 1.66599,1.618961 0.64646,0.16225 0.44868,0.300039 -0.68746,0.478936 -1.34295,0.211463 -2.6162,0.784237 -3.48189,1.566337 -1.29592,1.170789 -3.6201,6.55013 -4.17095,9.653733 -0.31065,1.750215 0.0264,2.681199 1.23239,3.40412 l 0.64909,0.389088 -4.23573,0.0015 -4.23573,0.0015 z"
     id="path5" />
  <path
     style="fill:#f2662e;stroke-width:0.346416"
     d="m 170.33952,47.638836 c 0.35362,-0.256161 0.82685,-0.779546 1.05161,-1.163081 0.87628,-1.495252 0.86646,-1.252909 0.86844,-21.439327 0.001,-11.255982 -0.0583,-18.9478448 -0.15078,-19.5123734 -0.2108,-1.2872456 -0.74298,-2.2775936 -1.55053,-2.8854108 l -0.68145,-0.5129094 h 5.71146 5.71146 l -0.53926,0.3978512 c -0.66438,0.4901609 -1.28665,1.3987169 -1.76023,2.5700228 -0.353,0.8730787 -0.36068,1.0206744 -0.40546,7.7899306 -0.0499,7.547916 0.001,8.112296 0.85248,9.398573 0.51205,0.773764 1.58516,1.582245 2.91967,2.199689 0.54854,0.253794 0.85563,0.465388 0.68242,0.470208 -0.55727,0.01551 -1.93036,0.751569 -2.66467,1.428428 -0.88004,0.811192 -1.45714,1.994756 -1.66135,3.407226 -0.21293,1.472787 -0.20749,13.85506 0.007,15.084621 0.21535,1.236585 0.6826,2.061095 1.5376,2.713224 l 0.68055,0.519075 h -5.62576 -5.62576 z"
     id="path7" />
  <path
     style="fill:#f2662e;stroke-width:0.346416"
     d="m 211.34113,47.553466 c -0.45808,-2.763571 -1.86681,-6.122312 -3.67685,-8.766532 -3.78766,-5.533215 -9.92921,-9.975881 -18.78127,-13.58596 l -0.62228,-0.25378 0.62228,-0.61797 c 1.34277,-1.333476 24.55935,-22.9554176 24.60386,-22.9139413 0.0509,0.047442 -6.79106,9.0457063 -12.62453,16.6032253 l -3.57706,4.634252 1.55055,0.79818 c 0.8528,0.438997 2.13645,1.220586 2.85256,1.736862 1.70091,1.226267 4.43832,4.064333 5.59075,5.796319 2.9888,4.4919 4.4441,9.729329 4.31965,15.545844 l -0.0489,2.283196 z"
     id="path9" />
  <path
     style="fill:#f2662e;stroke-width:0.346416"
     d="m 242.33372,47.339391 c -2.96285,-0.970101 -5.57795,-2.593716 -7.88462,-4.895253 -1.68569,-1.681932 -2.56621,-3.02935 -3.2467,-4.968227 l -0.44212,-1.259695 -0.0787,-15.116334 -0.0787,-15.1163333 -0.36487,-0.9034568 C 229.73303,3.8298796 228.99493,2.7815456 228.18929,2.170337 l -0.68146,-0.516988 6.35008,0.00148 6.35008,0.00148 -0.79643,0.4568167 c -0.91373,0.5241031 -1.51029,1.3347435 -1.86754,2.5377357 -0.37569,1.2650875 -0.3718,16.2147916 0.005,17.4820956 0.34979,1.177871 1.29029,2.112676 2.26576,2.252044 1.26304,0.180451 3.67839,0.409207 4.5664,0.432478 l 0.86604,0.02269 -1.0235,0.13137 c -1.73145,0.22224 -3.19544,0.601237 -4.25829,1.102387 -1.18011,0.556443 -1.7765,1.074116 -2.25143,1.954276 -0.32319,0.598928 -0.33967,0.826956 -0.33577,4.645123 0.004,3.672288 0.0409,4.221255 0.43494,6.426614 0.2391,1.338178 0.57868,2.704699 0.76303,3.070505 0.9628,1.91056 3.10947,4.20013 4.78476,5.103268 1.16316,0.62706 0.76546,0.652498 -1.02679,0.06568 z"
     id="path11" />
  <path
     style="fill:#f2662e;stroke-width:0.346416"
     d="m 255.20376,47.894726 c 1.27658,-0.492283 2.45482,-1.211259 3.97694,-2.426783 2.6753,-2.136426 5.03616,-5.275184 8.32082,-11.062538 l 0.49153,-0.86604 0.003,7.290622 0.003,7.290623 -0.52023,-0.396797 c -0.89754,-0.684589 -1.57386,-0.878954 -3.05697,-0.878528 -1.00259,2.88e-4 -1.79419,0.113417 -2.87874,0.411403 -2.54601,0.699536 -3.31954,0.833402 -5.3537,0.926506 l -1.96827,0.09009 z"
     id="path12" />
  <path
     style="fill:#f2662e;stroke-width:0.346416"
     d="m 265.25668,14.968839 c -0.17627,-0.939565 -0.73163,-2.490459 -1.29535,-3.617364 -2.26936,-4.5365443 -6.18565,-7.5120105 -12.24785,-9.3054983 l -1.27047,-0.3758659 7.5188,-0.00838 7.5188,-0.00838 v 6.9283196 c 0,3.8105756 -0.0275,6.9283196 -0.0612,6.9283196 -0.0337,0 -0.10689,-0.243517 -0.16272,-0.541149 z"
     id="path13" />
  <path
     style="fill:#f2662e;stroke-width:0.346416"
     d="m 22.044653,61.373214 -1.495887,-6.419043 -0.04535,-3.249936 -0.04535,-3.249936 -0.899425,-0.111625 C 11.439149,47.334996 3.4264529,40.172683 1.0347903,31.784745 -0.2386305,27.318657 -0.15339505,21.545109 1.2559208,16.80615 2.7858383,11.661656 5.9935781,6.9731672 9.730133,4.4200925 11.069837,3.5047133 11.394123,3.5326775 10.192219,4.4599397 9.7312549,4.8155712 8.855244,5.6227291 8.2455284,6.2536238 4.2797983,10.357109 2.3643045,15.097617 2.3625603,20.81293 c -0.00183,6.002933 1.7486296,10.452621 5.785122,14.705831 1.8069,1.903912 3.5275407,3.228498 5.2977287,4.078305 1.366794,0.656151 5.049365,1.823649 6.287544,1.993359 l 0.751551,0.103012 -0.0466,-4.313229 c -0.04314,-3.992677 -0.07068,-4.360037 -0.370648,-4.943075 -0.220582,-0.428744 -0.545462,-0.742968 -1.017501,-0.984137 l -0.693454,-0.354289 5.032777,0.0035 c 5.016691,0.0034 5.030764,0.0044 4.40293,0.294151 -0.726721,0.335403 -1.232874,0.840371 -1.516758,1.513202 -0.137745,0.326466 -0.218151,1.752185 -0.260299,4.615448 l -0.06099,4.143061 0.604099,-0.111332 c 1.666242,-0.307078 4.834014,-1.17973 5.903901,-1.626394 1.9032,-0.794562 3.954635,-2.244075 5.802054,-4.099644 3.077238,-3.090812 4.765204,-6.243001 5.695882,-10.636768 0.441554,-2.084594 0.484119,-6.264308 0.08425,-8.273533 C 43.208297,12.720366 41.203283,8.988263 38.167796,5.9821828 37.545005,5.3654244 36.675537,4.5863321 36.235645,4.2508666 35.000463,3.3089044 35.428827,3.3907768 36.916908,4.3810751 c 2.85038,1.8968897 4.952776,4.363512 6.688263,7.8469589 3.206934,6.436915 3.886468,13.908704 1.825614,20.073448 -2.807824,8.399202 -10.03374,14.765906 -18.189892,16.026986 l -1.180964,0.182598 -0.09049,3.536475 c -0.08598,3.360386 -0.122735,3.689367 -0.738129,6.606983 -0.356202,1.688778 -0.831791,4.239659 -1.056862,5.668625 -0.225071,1.428966 -0.459774,2.794092 -0.521565,3.033613 -0.08456,0.327806 -0.482243,-1.151787 -1.608232,-5.983548 z"
     id="path14" />
</svg>
