<?xml version="1.0" encoding="UTF-8"?>
<svg version="1.1" viewBox="0 0 268 68" xmlns="http://www.w3.org/2000/svg">
<path d="m44.878 14.763c1.206 3.272 1.811 6.621 1.811 10.05 0 2.999-0.468 5.746-1.402 8.238-1.56 4.206-4.033 7.712-7.421 10.516-3.506 2.882-7.442 4.557-11.805 5.024v6.018c0 0.235-0.175 1.168-0.526 2.805-0.701 3.233-1.343 6.915-1.927 11.044-1.949-8.649-3.02-13.245-3.215-13.79v-6.136c-4.245-0.428-8.084-2.064-11.511-4.906-5.923-4.906-8.882-11.179-8.882-18.813 0-3.194 0.526-6.31 1.578-9.348 0.973-2.882 2.454-5.471 4.441-7.77 2.142-2.531 4.558-4.285 7.245-5.259-2.843 1.674-5.2 3.798-7.071 6.368-2.531 3.505-3.797 7.5-3.797 11.978 0 1.635 0.155 3.252 0.468 4.849 0.662 3.35 2.279 6.465 4.851 9.346 2.648 3.001 5.588 4.89 8.822 5.668 1.676 0.584 2.96 0.899 3.857 0.936v-6.079c0-0.622-0.02-1.325-0.058-2.103-0.272-1.285-1.012-2.025-2.221-2.22-0.076-0.078-0.176-0.118-0.291-0.118h10.576c0.272 0 0.389 0.04 0.35 0.118-1.441 0.234-2.279 0.974-2.512 2.22-0.119 0.624-0.176 1.345-0.176 2.162v6.02c1.988-0.43 3.35-0.74 4.091-0.936 3.156-0.817 6.038-2.629 8.648-5.434 3.663-3.974 5.492-8.783 5.492-14.431 0-3.857-0.975-7.392-2.922-10.605-1.948-3.213-4.616-5.794-8.005-7.743 5.337 2.03 9.174 6.14 11.512 12.331z"/>
<path d="m61.644 6.851c-0.351-2.724-1.498-4.357-3.445-4.903h14.198c-2.884 0.974-4.169 2.647-3.857 5.02v30.233c0 2.141 0.272 3.989 0.819 5.545 2.18 4.359 5.394 6.635 9.641 6.83-5.337-0.156-9.486-1.77-12.447-4.844-3.273-3.386-4.908-7.159-4.908-11.323l-1e-3 -26.558zm39.005-0.041c0.346-2.733 1.565-4.353 3.652-4.863h-14.317c2.833 0.86 4.093 2.48 3.782 4.863v31.049c0 2.071-0.295 3.693-0.881 4.863-2.23 4.415-5.417 6.699-9.563 6.854 3.239-0.078 6.009-0.703 8.311-1.873 1.21-0.624 2.596-1.62 4.157-2.988 3.238-2.85 4.858-6.6 4.858-11.249l1e-3 -26.656z"/>
<path d="m146.4 45.205-2.337-5.727c-1.326-3.272-3.098-5.259-5.319-5.96-0.779-0.076-1.83-0.155-3.154-0.233-0.351-0.039-0.566-0.059-0.644-0.059l0.991-0.292c2.02-0.585 3.031-1.558 3.031-2.923 0-0.428-0.157-1.012-0.466-1.753-1.557-3.701-2.703-6.488-3.442-8.357-1.439-3.349-2.526-5.239-3.266-5.667-0.584-0.311-1.535 0.858-2.857 3.505-1.401 2.845-2.294 4.754-2.682 5.728l-1.982 5.083c-0.272 0.701-0.409 1.305-0.409 1.812 0 1.793 1.24 2.748 3.719 2.865-3.272 0-5.532 0.836-6.776 2.51-1.327 2.263-2.437 4.929-3.332 8.007l-0.351 2.045c0.235 1.479 1.111 2.357 2.631 2.629h-9.35c1.714-0.78 3.798-3.391 6.253-7.834 1.325-2.339 2.94-5.594 4.849-9.765 2.844-6.236 4.52-9.958 5.026-11.168 1.948-4.52 3.233-7.523 3.856-9.004l3.448-9.004 8.24 19.491h-0.059c0.935 1.986 1.519 3.232 1.754 3.739 2.065 4.324 4.693 9.912 7.889 16.769 1.596 3.466 3.466 5.725 5.609 6.776h-13.733c2.143-0.116 3.097-1.188 2.863-3.213z"/>
<path d="m178.7 43.685c0 2.573 1.098 4.092 3.285 4.559h-13.089c1.877-0.468 2.953-1.986 3.229-4.559v-36.998c0-2.651-1.057-4.209-3.169-4.676h13.088c-1.602 0.351-2.717 1.849-3.344 4.499v13.035c0 2.496 1.645 4.267 4.935 5.32-3.29 0.7-4.935 2.786-4.935 6.254v12.566zm18.71-21.019c5.61-7.244 11.394-14.8 17.356-22.666l-26.762 24.986h0.057l-0.057 0.059h0.176c4.244 1.598 7.965 3.507 11.16 5.728 7.596 5.302 11.687 11.73 12.271 19.29 0.117-1.128 0.176-2.239 0.176-3.329 0-7.361-2.065-13.397-6.195-18.11-2.377-2.725-5.104-4.713-8.182-5.958z"/>
<path d="m238.97 26.668c-1.091 0.86-1.636 2.048-1.636 3.567v4.036c0 1.17 0.331 3.567 0.995 7.192 0.502 1.129 1.184 2.202 2.042 3.215 1.906 2.221 4.125 3.41 6.655 3.567-3.889-0.117-7.505-1.481-10.849-4.093-3.694-2.807-5.544-6.101-5.544-9.881v-27.598c-0.669-2.769-1.866-4.443-3.593-5.029h13.734c-2.294 0.545-3.439 2.28-3.439 5.203v13.215c0 1.792 0.487 3.08 1.461 3.861 0.036 0.388 2.702 0.699 7.997 0.934-3.504 0.116-6.11 0.721-7.823 1.811zm10.746-25.024h15.834l0.057 15.746c-0.469-4.332-2.198-7.883-5.2-10.654-2.685-2.458-6.251-4.155-10.691-5.092zm2.747 46.776c5.374-0.428 10.555-5.491 15.541-15.193v15.193c-0.739-1.053-1.908-1.578-3.504-1.578-1.131 0-2.457 0.263-3.976 0.787-1.518 0.527-4.205 0.791-8.061 0.791z"/>
<path d="m74.077 48.823c-3.0706-0.79393-5.29-2.0411-7.348-4.1291-2.0539-2.0838-3.2103-3.8434-4.0649-6.1853-0.93364-2.5582-0.9386-2.6528-0.9386-17.893 0-9.5645-0.054457-14.168-0.1744-14.741-0.3425-1.6387-1.2326-3.0041-2.345-3.5972-0.54568-0.29093-0.48593-0.29387 6.0623-0.29793l6.6134-0.00411-0.86604 0.47679c-0.47632 0.26224-1.1312 0.73534-1.4552 1.0513-1.1476 1.119-1.0811-0.13537-1.0277 19.409 0.04653 17.014 0.05777 17.591 0.36344 18.667 0.86596 3.0468 3.5446 6.1027 6.3672 7.264 1.1138 0.45826 0.62929 0.45052-1.1864-0.01893z" fill="#f2662e" stroke-width=".34642"/>
<path d="m86.84 48.931c2.5954-1.1527 4.8954-3.4938 6.1721-6.2823 0.81682-1.7842 0.82368-1.953 0.82795-20.368l0.003956-17.085-0.36962-0.79374c-0.42422-0.911-1.1006-1.5382-2.2254-2.0635l-0.78731-0.36768 13.21-0.00308-0.71877 0.45582c-0.82975 0.52622-1.389 1.2067-1.8969 2.3084l-0.35901 0.77864-0.0907 15.116c-0.0821 13.688-0.11693 15.228-0.36827 16.297-0.89342 3.801-2.714 6.4619-6.2375 9.117-2.1138 1.5928-4.7764 2.747-7.0815 3.0696l-0.70858 0.09918z" fill="#f2662e" stroke-width=".34642"/>
<path d="m111.26 47.974c2.088-1.515 4.8501-5.7556 8.1197-12.466 3.9303-8.0666 10.09-22.16 12.818-29.327 0.84876-2.2301 1.5891-4.0546 1.6451-4.0546 0.0561 0 0.67744 1.364 1.3808 3.0311s2.6559 6.2906 4.3389 10.274c1.683 3.9838 4.2657 9.7941 5.7394 12.912 1.4737 3.1177 3.636 7.7066 4.8051 10.197 1.1691 2.4908 2.4617 5.0678 2.8723 5.7266 0.8896 1.4273 2.3993 3.088 3.3694 3.7063l0.70004 0.44619-12.58-7e-3 0.66596-0.30231c0.88724-0.40276 1.301-1.0993 1.3017-2.1914 4.7e-4 -0.67128-0.19323-1.3255-0.93237-3.1492-2.1493-5.3031-2.6974-6.3067-4.2562-7.7935-1.2265-1.1699-2.0136-1.5091-3.7476-1.615-1.8673-0.11411-1.9972-0.18536-0.98815-0.54182 1.0437-0.3687 1.875-1.0061 2.2583-1.7317 0.38542-0.7296 0.26871-1.7879-0.3634-3.2955-0.27235-0.64953-1.2409-2.9878-2.1523-5.1962-2.4997-6.0569-3.8521-8.5029-4.7013-8.5029-0.41768 0-1.3858 1.132-2.0637 2.4131-2.2921 4.3314-5.4935 11.934-5.6768 13.482-0.0494 0.41745-6e-3 1.0045 0.0973 1.3177 0.20853 0.63186 1.0705 1.4695 1.666 1.619 0.64646 0.16225 0.44868 0.30004-0.68746 0.47894-1.343 0.21146-2.6162 0.78424-3.4819 1.5663-1.2959 1.1708-3.6201 6.5501-4.171 9.6537-0.31065 1.7502 0.0264 2.6812 1.2324 3.4041l0.64909 0.38909-8.4715 3e-3z" fill="#f2662e" stroke-width=".34642"/>
<path d="m170.34 47.639c0.35362-0.25616 0.82685-0.77955 1.0516-1.1631 0.87628-1.4953 0.86646-1.2529 0.86844-21.439 1e-3 -11.256-0.0583-18.948-0.15078-19.512-0.2108-1.2872-0.74298-2.2776-1.5505-2.8854l-0.68145-0.51291h11.423l-0.53926 0.39785c-0.66438 0.49016-1.2866 1.3987-1.7602 2.57-0.353 0.87308-0.36068 1.0207-0.40546 7.7899-0.0499 7.5479 1e-3 8.1123 0.85248 9.3986 0.51205 0.77376 1.5852 1.5822 2.9197 2.1997 0.54854 0.25379 0.85563 0.46539 0.68242 0.47021-0.55727 0.01551-1.9304 0.75157-2.6647 1.4284-0.88004 0.81119-1.4571 1.9948-1.6614 3.4072-0.21293 1.4728-0.20749 13.855 7e-3 15.085 0.21535 1.2366 0.6826 2.0611 1.5376 2.7132l0.68055 0.51908h-11.252z" fill="#f2662e" stroke-width=".34642"/>
<path d="m211.34 47.553c-0.45808-2.7636-1.8668-6.1223-3.6768-8.7665-3.7877-5.5332-9.9292-9.9759-18.781-13.586l-0.62228-0.25378 0.62228-0.61797c1.3428-1.3335 24.559-22.955 24.604-22.914 0.0509 0.047442-6.7911 9.0457-12.625 16.603l-3.5771 4.6343 1.5506 0.79818c0.8528 0.439 2.1364 1.2206 2.8526 1.7369 1.7009 1.2263 4.4383 4.0643 5.5908 5.7963 2.9888 4.4919 4.4441 9.7293 4.3196 15.546l-0.0489 2.2832z" fill="#f2662e" stroke-width=".34642"/>
<path d="m242.33 47.339c-2.9628-0.9701-5.578-2.5937-7.8846-4.8953-1.6857-1.6819-2.5662-3.0294-3.2467-4.9682l-0.44212-1.2597-0.1574-30.233-0.36487-0.90346c-0.50498-1.2502-1.2431-2.2985-2.0487-2.9098l-0.68146-0.51699 12.7 0.00296-0.79643 0.45682c-0.91373 0.5241-1.5103 1.3347-1.8675 2.5377-0.37569 1.2651-0.3718 16.215 5e-3 17.482 0.34979 1.1779 1.2903 2.1127 2.2658 2.252 1.263 0.18045 3.6784 0.40921 4.5664 0.43248l0.86604 0.02269-1.0235 0.13137c-1.7314 0.22224-3.1954 0.60124-4.2583 1.1024-1.1801 0.55644-1.7765 1.0741-2.2514 1.9543-0.32319 0.59893-0.33967 0.82696-0.33577 4.6451 4e-3 3.6723 0.0409 4.2213 0.43494 6.4266 0.2391 1.3382 0.57868 2.7047 0.76303 3.0705 0.9628 1.9106 3.1095 4.2001 4.7848 5.1033 1.1632 0.62706 0.76546 0.6525-1.0268 0.06568z" fill="#f2662e" stroke-width=".34642"/>
<path d="m255.2 47.895c1.2766-0.49228 2.4548-1.2113 3.9769-2.4268 2.6753-2.1364 5.0362-5.2752 8.3208-11.063l0.49153-0.86604 3e-3 7.2906 3e-3 7.2906-0.52023-0.3968c-0.89754-0.68459-1.5739-0.87895-3.057-0.87853-1.0026 2.88e-4 -1.7942 0.11342-2.8787 0.4114-2.546 0.69954-3.3195 0.8334-5.3537 0.92651l-1.9683 0.09009z" fill="#f2662e" stroke-width=".34642"/>
<path d="m265.26 14.969c-0.17627-0.93956-0.73163-2.4905-1.2954-3.6174-2.2694-4.5365-6.1856-7.512-12.248-9.3055l-1.2705-0.37587 15.038-0.01676v6.9283c0 3.8106-0.0275 6.9283-0.0612 6.9283s-0.10689-0.24352-0.16272-0.54115z" fill="#f2662e" stroke-width=".34642"/>
<path d="m22.045 61.373-1.4959-6.419-0.0907-6.4999-0.89942-0.11162c-8.1195-1.0077-16.132-8.17-18.524-16.558-1.2734-4.4661-1.1882-10.24 0.22113-14.979 1.5299-5.1445 4.7377-9.833 8.4742-12.386 1.3397-0.91538 1.664-0.88742 0.46209 0.039847-0.46096 0.35563-1.337 1.1628-1.9467 1.7937-3.9657 4.1035-5.8812 8.844-5.883 14.559-0.00183 6.0029 1.7486 10.453 5.7851 14.706 1.8069 1.9039 3.5275 3.2285 5.2977 4.0783 1.3668 0.65615 5.0494 1.8236 6.2875 1.9934l0.75155 0.10301-0.0466-4.3132c-0.04314-3.9927-0.07068-4.36-0.37065-4.9431-0.22058-0.42874-0.54546-0.74297-1.0175-0.98414l-0.69345-0.35429 5.0328 0.0035c5.0167 0.0034 5.0308 0.0044 4.4029 0.29415-0.72672 0.3354-1.2329 0.84037-1.5168 1.5132-0.13774 0.32647-0.21815 1.7522-0.2603 4.6154l-0.06099 4.1431 0.6041-0.11133c1.6662-0.30708 4.834-1.1797 5.9039-1.6264 1.9032-0.79456 3.9546-2.2441 5.8021-4.0996 3.0772-3.0908 4.7652-6.243 5.6959-10.637 0.44155-2.0846 0.48412-6.2643 0.08425-8.2735-0.83585-4.2-2.8409-7.9321-5.8764-10.938-0.62279-0.61676-1.4923-1.3959-1.9322-1.7313-1.2352-0.94196-0.80682-0.86009 0.68126 0.13021 2.8504 1.8969 4.9528 4.3635 6.6883 7.847 3.2069 6.4369 3.8865 13.909 1.8256 20.073-2.8078 8.3992-10.034 14.766-18.19 16.027l-1.181 0.1826-0.09049 3.5365c-0.08598 3.3604-0.12274 3.6894-0.73813 6.607-0.3562 1.6888-0.83179 4.2397-1.0569 5.6686s-0.45977 2.7941-0.52156 3.0336c-0.08456 0.32781-0.48224-1.1518-1.6082-5.9835z" fill="#f2662e" stroke-width=".34642"/>
</svg>
