<?xml version="1.0" encoding="UTF-8"?>
<!DOCTYPE svg  PUBLIC '-//W3C//DTD SVG 1.1//EN'  'http://www.w3.org/Graphics/SVG/1.1/DTD/svg11.dtd'>
<svg width="568.93px" height="116.14px" enable-background="new -1 -1 568.929 116.145" version="1.1" viewBox="-1 -1 568.93 116.14" xml:space="preserve" xmlns="http://www.w3.org/2000/svg">
<path d="m58.2 42.874c-0.475-9.773 2.562-15.749 7.685-17.931 5.124-2.183 18.975-3.227 30.455-1.804s29.223 6.452 31.404 24.383c3.511-1.897 13.757-4.744 21.537-4.269 7.779 0.475 16.413 3.985 19.639 8.633 7.305-7.4 27.229-9.866 34.724-3.604-1.707-12.524 9.013-19.26 17.173-18.596 8.159 0.664 16.224 4.744 16.508 18.121 5.978-5.502 13.094-4.079 15.75-4.079-0.569-13.377 4.555-21.443 14.516-21.252 9.963 0.19 17.268 6.926 17.078 20.208 4.934-1.139 12.524-0.664 14.516 2.751 5.124-4.08 20.683-6.167 25.807 4.08 10.626-10.721 26.185-7.4 31.213-3.605-0.854-12.809 6.737-22.202 21.728-18.312-0.759-10.247 7.59-16.128 15.56-14.231s12.854 10.104 27.894 39.563c0.094-32.353-0.474-36.716 2.182-41.271 2.656-4.554 9.202-6.831 14.421-6.451 5.218 0.379 12.619 3.984 12.903 12.144 7.353-8.539 19.022 3.842 31.974 19.497 6.261-24.383 14.42-31.261 22.104-30.692 7.686 0.569 10.911 5.598 13.283 15.844s10.152 51.897 11.575 59.582 0.474 15.086-6.263 17.078c-6.735 1.992-20.112 3.7-25.615-8.539-0.854 1.044-7.116 3.226-11.48 2.183-0.189 9.962-7.307 16.413-13.377 16.792-6.072 0.38-16.225 0.761-19.07-12.712s-4.27-20.02-4.364-20.399c-1.897 12.998-2.42 27.04-11.338 31.878-8.918 4.839-17.409 5.124-26.612-8.537-9.203-13.663-23.529-41.937-23.814-42.601-0.854 1.043-0.854 2.656-0.854 6.072s0.096 17.362 1.044 28.178-3.7 16.698-8.918 17.362c-5.219 0.665-11.671 0.285-14.896-2.087-3.7 2.562-12.618 4.459-16.128 1.138-2.941 1.424-12.43 4.744-22.771-2.655-1.139-0.949-3.131-1.328-4.934 0.759-1.803 2.088-10.531 5.029-16.698 0.949-2.088 0.759-9.014 3.984-15.465-0.285s-7.874-4.174-8.918-3.131c-1.044 1.044-6.452 5.502-12.714 5.028s-5.502-1.328-8.442 0c-2.942 1.328-10.343 2.277-19.45-2.941-2.088-1.138-5.029-2.655-6.926-0.854-1.897 1.803-5.313 4.269-10.911 4.269s-9.962-1.517-11.385-2.655c-1.423-1.139-3.511-1.613-7.59-0.095-4.08 1.518-15.56 3.984-23.34 0.569-7.78-3.416-11.385-5.504-11.955-6.263-3.794 3.036-13.946 7.496-20.778 8.35-6.831 0.854-15.844-1.613-18.975-4.839-4.27 3.511-4.838 4.554-11.575 4.648s-17.647 1.139-21.252-5.882c-0.854-1.233-2.277-0.19-2.656 0.948-0.38 1.139-2.562 4.27-8.729 4.648-6.167 0.38-24.572 1.899-24.383-10.34 0.19-12.239 1.138-24.952 1.233-32.923 0.094-7.967-0.856-12.143-1.33-21.82z"/>

	
		<path d="m110.9 77.172c-3.131-4.412 1.85-7.685 6.831-12.381 4.98-4.697 5.977-19.497-3.558-26.755s-31.024-8.397-39.421-7.4c-8.396 0.996-8.396 6.689-7.685 14.089 0.712 7.4 0.657 20.912-0.285 50.094-0.285 8.823 5.266 6.974 11.243 7.116s7.542-1.566 7.685-5.55c0.142-3.985 1.281-9.82 5.55-10.104 4.269-0.285 6.689 5.407 8.823 10.673 2.135 5.266 5.266 4.981 17.505 4.554 12.24-0.428-3.557-19.925-6.688-24.336zm-19.212-11.954c-7.685-0.285-7.827-6.405-7.685-8.824s2.704-8.823 7.116-8.681c4.27 0 6.974 1.281 8.396 5.692 1.423 4.412-0.142 12.097-7.827 11.813z" fill="#DBBD3B"/>
	


	
		<path d="m163.56 84.003c-2.277-3.559-8.112-1.708-16.224 1.281-3.843 1.28-5.978 1.992-6.832 0.427-0.853-1.565 3.558-3.273 10.105-5.267 6.546-1.992 13.662-5.834 14.374-11.953 0.711-6.12-5.265-14.374-19.924-14.943-14.658-0.569-20.778 11.527-23.055 18.216-2.276 6.688 0.427 19.64 8.54 25.617 8.112 5.977 17.931 3.415 27.039-1.139s8.254-8.681 5.977-12.239zm-25.189-10.958c-2.277-3.842 0-7.4 2.703-9.108 2.704-1.708 7.828-1.423 9.251 1.565 1.422 2.989 0 6.547-3.131 7.97s-7.685 1.423-8.823-0.427z" fill="#DBBD3B"/>
	

<path d="m195.44 69.061c4.82 3.686 10.531 4.554 11.955 2.419 1.423-2.135 2.846-7.97-2.135-11.955-4.98-3.985-15.369-5.977-23.909-3.131-8.539 2.847-12.523 10.104-10.815 16.082 1.707 5.977 10.962 8.671 13.946 10.104 3.558 1.707 5.124 2.988 4.27 4.27-0.854 1.28-4.127-0.285-7.259-1.708-3.13-1.424-8.112-3.7-10.104-0.996s-3.7 8.538 3.415 12.666c7.116 4.126 16.793 5.977 25.048 2.276 8.254-3.7 9.108-10.674 7.257-15.37-1.85-4.696-8.254-7.826-12.239-10.246-3.984-2.42-7.116-3.416-6.404-5.123 0.712-1.708 4.554-1.139 6.974 0.712z" fill="#DBBD3B"/>
<path d="m213.23 65.645c-0.854-3.273 1.851-7.828 6.832-8.255 4.98-0.427 8.823 3.131 8.538 7.116-0.284 3.985-1.85 12.809-1.85 18.643 0 5.835 1.708 10.816 1.565 13.805s-3.559 5.408-7.97 5.408c-4.412 0-7.97-0.143-8.254-5.692-0.285-5.551 1.281-14.089 1.565-18.786 0.286-4.697-0.283-9.393-0.426-12.239z" fill="#DBBD3B"/>
<ellipse cx="221.12" cy="45.863" rx="8.752" ry="8.112" fill="#DBBD3B"/>

	
		<path d="m274.28 71.764c0.143-8.823 2.135-21.632 2.135-30.74s-4.98-10.673-9.393-10.247c-4.412 0.427-5.551 5.408-4.696 11.812 0 9.82-2.419 8.396-5.266 8.539-19.497 1.281-22.913 11.669-25.331 20.92-2.42 9.25 0.853 18.073 6.403 24.336 5.55 6.261 21.063 5.977 22.201 4.695 1.138-1.281 2.419-3.131 4.127-1.139 1.708 1.993 5.266 2.277 7.827 0.712s3.7-5.692 2.846-8.396c-0.853-2.703-0.996-11.669-0.853-20.492zm-21.916 13.662c-4.087 0-7.4-4.078-7.4-9.107 0-5.031 3.313-9.108 7.4-9.108s7.4 4.077 7.4 9.108c0 5.029-3.313 9.107-7.4 9.107z" fill="#DBBD3B"/>
	

<path d="m279.4 84.146c0.284-21.489 0.284-21.063 0.284-23.767 0-2.705 4.411-7.827 8.823-8.254 4.411-0.427 8.539-0.854 8.539 5.692s-0.285 19.355-0.285 21.774c0 2.42 4.127 5.835 4.554 0.284 0.428-5.55 0.428-18.927 0.569-22.627 0.143-3.7 3.842-5.265 7.685-5.408 3.843-0.142 9.393 1.423 8.396 7.827-0.996 6.404-0.996 12.666-0.996 18.073 0 5.408 1.992 12.809 1.565 17.506-0.427 4.695-3.7 6.973-7.115 6.83-3.416-0.142-5.835-1.992-7.115-2.419-1.281-0.427-8.966 4.839-16.081 0.142-7.116-4.695-9.108-10.531-8.823-15.653z" fill="#DBBD3B"/>

	
		<path d="m360.38 88.557c-1.52-9.115-0.854-15.085-0.285-21.631 0.569-6.547-2.277-10.675-8.254-12.951-5.978-2.277-18.358-0.142-22.771 5.266-4.411 5.408-7.542 16.082-6.688 22.771 0.854 6.688 1.281 15.37 12.238 19.069 10.959 3.7 11.955-2.419 14.374-2.562 2.42-0.143 3.7 3.131 6.546 3.273 2.847 0.143 5.979-2.847 6.689-5.835 0.713-2.988-1.422-4.839-1.849-7.4zm-18.358-2.562c-3.853 0-6.974-4.174-6.974-9.321 0-5.148 3.121-9.321 6.974-9.321 3.851 0 6.973 4.173 6.973 9.321s-3.122 9.321-6.973 9.321z" fill="#DBBD3B"/>
	

<path d="m385.85 30.493c-3.132-8.824 8.396-17.22 13.804-5.978 5.408 11.243 21.347 41.699 23.624 45.115 2.277 3.415 4.98 2.987 4.554-4.555-0.427-7.543 0.427-43.264 0.427-46.537s3.131-7.685 8.682-7.827c5.55-0.143 8.682 3.273 7.97 11.385s-2.135 54.222-2.847 65.892c-0.712 11.669-14.517 25.758-25.475 6.261-10.958-19.496-28.178-57.636-30.739-63.756z" fill="#9A5F1B"/>
<path d="m450.6 34.763c-1.139-9.678 2.419-13.378 6.119-13.805s17.505 14.374 25.189 27.182c4.412 6.404 5.55 8.396 6.831-1.708s5.692-24.051 7.827-28.463 12.239-10.389 14.516 2.846c2.277 13.236 11.813 50.665 12.809 57.21 0.996 6.547 2.277 13.235-2.135 14.801s-11.67 3.985-13.805-5.123c-2.134-9.108-4.554-32.875-5.407-34.583-0.854-1.708-2.135-0.711-2.562 3.7-0.428 4.412-1.993 20.778-2.563 23.909s-7.685 10.246-13.377-0.569-10.957-19.781-12.237-21.205c-1.281-1.423-1.851 0.854-1.424 3.985s3.559 16.081 6.546 23.197c2.989 7.115 2.704 15.654-3.272 17.22-5.978 1.565-10.389 2.135-13.235-13.521-2.847-15.652-8.824-46.819-9.82-55.073z" fill="#9A5F1B"/>
<path d="m364.17 40.313c0-4.649 2.751-7.306 7.21-7.211 4.46 0.096 11.292 0.475 10.911 6.927-0.38 6.451-1.233 30.265-1.043 39.279 0.189 9.014 0.379 15.37 0.379 17.837 0 2.466-2.087 4.174-6.641 4.174s-9.108 1.328-9.583-4.839c-0.475-6.166 0.285-23.813 0.285-31.024 1e-3 -7.212-1.612-20.685-1.518-25.143z" fill="#DBBD3B"/>
<path d="m68.431 52.027c-0.731-7.158-0.649-13.542 0.812-16.154 1.46-2.612 5.112-5.61 16.556-4.353s20.127 2.708 28.162 6.771c-11.281-3.771-29.542-4.933-36.197-4.353-6.655 0.581-8.846 2.419-9.333 18.089z" fill="#FFF8B6"/>
<path d="m100.54 57.343c-0.782 4.412-2.134 7.258-5.337 8.254-3.202 0.996-8.183-0.214-9.606-1.779 2.206 3.06 7.756 3.345 11.101 2.419 3.345-0.925 3.7-7.4 3.842-8.894z" fill="#F9D84B"/>
<path d="m123.81 69.155c5.479-9.464 9.251-12.453 13.52-13.876 4.27-1.422 8.112-1.422 15.725 0.214-8.254-0.64-14.942 0.142-18.216 2.206-3.272 2.063-9.606 9.321-11.029 11.456z" fill="#FFF8B6"/>
<path d="m151.34 69.368c-0.854 3.131-4.625 6.973-12.239 5.052 6.902 3.558 12.097-0.498 12.239-5.052z" fill="#FFF8B6"/>
<path d="m140.81 86.801c0.925 0.854 3.273 0.569 6.119-0.498 2.847-1.067 8.396-3.628 11.813-3.416-2.704 0.285-4.057 1.21-6.262 2.136-2.206 0.925-8.326 4.341-11.67 1.778z" fill="#FFF8B6"/>
<path d="m171.13 69.012c1.637-9.463 11.385-13.875 21.276-13.235-7.045-0.427-18.573 4.483-21.276 13.235z" fill="#FFF8B6"/>
<path d="m170.2 89.79c0.783-4.483 2.064-7.97 8.041-5.408-2.99-1.067-6.547-0.214-8.041 5.408z" fill="#FFF8B6"/>
<path d="m223.85 58.552c-3.201-1.566-10.887 0.356-9.819 8.681 0.64-7.471 6.334-9.677 9.819-8.681z" fill="#FFF8B6"/>
<path d="m212.96 47.096c-0.07-4.483 4.198-10.816 11.741-7.827-5.478-1.494-11.313 2.419-11.741 7.827z" fill="#FFF8B6"/>
<path d="m233.46 68.656c6.334-13.519 11.67-16.224 24.977-16.865-12.31 1.496-19.781 7.473-24.977 16.865z" fill="#FFF8B6"/>
<path d="m247.76 84.097c4.697 4.341 10.887 1.139 12.097-4.197-0.854 8.04-9.25 8.894-12.097 4.197z" fill="#FFF8B6"/>
<path d="m269.46 31.512c-2.562-0.569-6.404 0.854-6.476 7.543 0.997-5.835 4.056-7.329 6.476-7.543z" fill="#FFF8B6"/>
<path d="m280.35 65.668c0.428-10.673 5.052-12.738 10.959-12.88-5.551 0.427-10.033 4.341-10.959 12.88z" fill="#FFF8B6"/>
<path d="m297.57 82.817c1.851 1.707 4.483 1.139 4.839-4.91 0.498 6.688-3.131 8.041-4.839 4.91z" fill="#FFF8B6"/>
<path d="m302.48 60.26c0-6.261 3.558-7.969 6.831-7.685-3.06 0.285-6.404 3.273-6.831 7.685z" fill="#FFF8B6"/>
<path d="m324.33 70.507c4.697-11.528 8.824-15.797 21.489-16.651-7.97 1.209-14.587 3.558-21.489 16.651z" fill="#FFF8B6"/>
<path d="m336.99 84.382c3.487 3.345 9.393 3.486 11.741-2.49-0.783 5.55-6.974 8.112-11.741 2.49z" fill="#FFF8B6"/>
<path d="m365.03 45.459c-0.212-7.471 0.285-12.666 9.892-11.456-4.768-0.284-9.536 0.498-9.892 11.456z" fill="#FFF8B6"/>
<path d="m386.23 27.385c0.427-5.408 4.839-9.393 10.389-6.12-3.842-1.279-8.325-0.426-10.389 6.12z" fill="#E08A34"/>
<path d="m428.57 24.255c0.355-8.468 2.775-12.381 8.04-12.808-4.554 0.996-7.329 6.759-8.04 12.808z" fill="#E08A34"/>
<path d="m451.48 28.24c1.922-5.977 4.696-8.396 9.962-3.344-4.721-3.938-7.613-1.78-9.962 3.344z" fill="#E08A34"/>
<path d="m490.9 38.273c5.621-19.354 6.902-22.059 10.318-23.695 3.414-1.637 6.403 0.711 6.403 0.711-3.201-1.565-6.617-0.569-8.681 2.917-2.064 3.487-7.685 18.643-8.04 20.067z" fill="#E08A34"/>
<path d="m484.86 53.784c1.708 1.068 3.559 0.711 4.697-5.55-0.64 5.195-0.926 8.183-4.697 5.55z" fill="#E08A34"/>
<path d="m423.23 71.288c2.988 2.277 5.337 2.207 5.764-6.19 1.138 9.18-2.562 10.104-5.764 6.19z" fill="#E08A34"/>
</svg>
