<?xml version="1.0" encoding="UTF-8"?>
<svg width="573.72" height="79.405" version="1.2" viewBox="-9.413 -17.166 573.72 79.405" xml:space="preserve" xmlns="http://www.w3.org/2000/svg" xmlns:ns="&amp;ns_sfw;">
<metadata>
	<ns:sfw>
		<ns:slices/>
		<ns:sliceSourceBounds x="629.001" y="503.325" width="573.717" height="134.637" bottomLeftOrigin="true"/>
	</ns:sfw>
</metadata>


<g transform="translate(-21.852 -63.426)">
	
		<path d="m39.574 123.66c-16.756 0-25.135-8.378-25.135-25.135v-25.133c0-16.756 8.378-25.135 25.135-25.135h33.513c16.756 0 25.135 8.378 25.135 25.135v25.134c0 16.757-6.983 25.135-20.946 25.135h-37.702zm0-16.756h33.513c5.584 0 8.378-2.793 8.378-8.379v-25.133c0-5.585-2.793-8.378-8.378-8.378h-33.513c-5.586 0-8.378 2.793-8.378 8.378v25.134c0 5.585 2.792 8.378 8.378 8.378z" fill="#d12c00"/>
		<path d="m77.275 125.66h-37.701v-4h37.701c6.609-0.024 11.115-1.918 14.173-5.564 3.064-3.657 4.776-9.451 4.774-17.57l-2e-3 -25.134c-6e-3 -8.072-2.003-13.744-5.697-17.436-3.692-3.694-9.366-5.691-17.436-5.699h-33.513c-8.072 8e-3 -13.744 2.005-17.438 5.699-3.694 3.692-5.691 9.364-5.697 17.436v25.134c6e-3 8.071 2.003 13.743 5.697 17.438 3.694 3.692 9.366 5.688 17.438 5.697v4c-8.685 8e-3 -15.58-2.185-20.265-6.87-4.686-4.686-6.878-11.578-6.87-20.265v-25.134c-8e-3 -8.685 2.185-15.58 6.87-20.265s11.58-6.876 20.265-6.87h33.513c8.685-6e-3 15.58 2.185 20.265 6.87s6.876 11.58 6.87 20.265v25.134c-4e-3 8.637-1.782 15.412-5.701 20.133-3.902 4.705-9.827 7.002-17.128 7.002-0.039-1e-3 -0.079-1e-3 -0.118-1e-3zm-4.188-16.755h-33.513v-4.002h33.513c2.484-6e-3 3.969-0.606 4.869-1.509 0.9-0.898 1.501-2.383 1.509-4.869l-2e-3 -25.134c-6e-3 -2.484-0.607-3.969-1.507-4.869-0.9-0.902-2.385-1.501-4.869-1.509h-33.513c-2.486 8e-3 -3.971 0.607-4.871 1.509-0.9 0.9-1.501 2.385-1.507 4.869v25.134c6e-3 2.486 0.607 3.971 1.507 4.869 0.9 0.902 2.385 1.503 4.871 1.511v3.998c-3.102 8e-3 -5.805-0.787-7.698-2.679-1.893-1.893-2.688-4.6-2.68-7.699v-25.133c-8e-3 -3.099 0.787-5.804 2.68-7.698 1.894-1.892 4.597-2.687 7.698-2.68h33.513c3.1-6e-3 5.805 0.789 7.696 2.68 1.894 1.894 2.688 4.599 2.68 7.698v25.134c8e-3 3.1-0.787 5.807-2.68 7.699-1.884 1.885-4.575 2.681-7.66 2.681-0.012-1e-3 -0.024-1e-3 -0.036-1e-3z"/>
	
	
		<path d="m106.6 123.66v-75.403h58.647c16.756 0 25.135 7.708 25.135 23.124 0 15.304-8.378 22.956-25.135 22.956h-41.891v29.323h-16.756zm67.025-46.079v-12.568h-50.269v12.567h50.269z" fill="#d12c00"/>
		<path d="m106.6 125.66v-1.998h2.001-2.001v1.998h-2.001v-79.402h60.65c8.66-2e-3 15.499 1.988 20.205 6.31 4.71 4.324 6.942 10.771 6.93 18.815 0.015 7.987-2.224 14.398-6.936 18.692-4.706 4.289-11.539 6.264-20.198 6.264l-39.892-3e-3v29.323h-18.758zm2.001-3.999 12.755-2e-3v-29.321h43.893c8.096-2e-3 13.831-1.853 17.501-5.216 3.667-3.357 5.617-8.425 5.631-15.738-0.013-7.376-1.968-12.489-5.637-15.873-3.673-3.388-9.401-5.251-17.496-5.253h-56.647zm12.756-42.078v-16.568h54.267v16.568zm52.269-2v-2.001zm-48.271-2.001h46.271l-2e-3 -8.567h-46.27v8.567z"/>
	
	
		<path d="m198.76 48.261h83.782v16.756h-33.513v58.647h-16.756v-58.647h-33.513z" fill="#d12c00"/>
		<path d="m230.27 125.66v-58.646h-33.513v-20.756h87.782v20.756h-33.513v58.646h-20.756zm-29.513-62.645h33.513v58.645h12.757v-58.645l33.513-2e-3v-12.755h-79.782v12.757z"/>
	
	
		<path d="m290.92 123.66v-75.403h16.756v75.403h-16.756z" fill="#d12c00"/>
		<path d="m290.92 125.66v-1.998h2-2v1.998h-2.001v-79.402h20.756v79.402zm2-3.999 12.755-2e-3v-71.401h-12.755z"/>
	
	
		<path d="m341.19 123.66c-16.757 0-25.135-8.378-25.135-25.135v-25.133c0-16.756 8.378-25.135 25.135-25.135h33.513c16.757 0 25.135 8.378 25.135 25.135v25.134c0 16.757-6.982 25.135-20.945 25.135h-37.703zm0-16.756h33.513c5.585 0 8.378-2.793 8.378-8.379v-25.133c0-5.585-2.793-8.378-8.378-8.378h-33.513c-5.586 0-8.378 2.793-8.378 8.378v25.134c1e-3 5.585 2.793 8.378 8.378 8.378z" fill="#d12c00"/>
		<path d="m378.89 125.66h-37.701v-4h37.701c6.608-0.023 11.113-1.918 14.173-5.563 3.063-3.658 4.776-9.451 4.772-17.57v-25.134c-9e-3 -8.072-2.004-13.745-5.697-17.437-3.693-3.695-9.366-5.691-17.437-5.697h-33.512c-8.072 6e-3 -13.745 2.002-17.438 5.697-3.693 3.691-5.689 9.364-5.697 17.437v25.134c8e-3 8.069 2.004 13.744 5.697 17.436 3.693 3.693 9.366 5.691 17.438 5.698v4c-8.687 8e-3 -15.582-2.185-20.267-6.87s-6.875-11.579-6.869-20.264v-25.134c-6e-3 -8.685 2.184-15.58 6.869-20.267 4.685-4.683 11.58-6.875 20.267-6.869h33.512c8.685-6e-3 15.579 2.186 20.265 6.869 4.685 4.687 6.877 11.582 6.869 20.267v25.134c-4e-3 8.637-1.783 15.411-5.7 20.129-3.902 4.708-9.827 7.005-17.128 7.005-0.038-1e-3 -0.078-1e-3 -0.117-1e-3zm-4.189-16.756h-33.512v-4h33.512c2.484-8e-3 3.969-0.608 4.867-1.509 0.902-0.9 1.503-2.385 1.51-4.869v-25.133c-7e-3 -2.484-0.607-3.969-1.51-4.87-0.898-0.903-2.383-1.503-4.867-1.509h-33.512c-2.486 6e-3 -3.971 0.606-4.87 1.509-0.902 0.898-1.503 2.385-1.509 4.87v25.134c6e-3 2.484 0.607 3.969 1.509 4.869 0.899 0.9 2.383 1.501 4.87 1.509v4c-3.102 7e-3 -5.805-0.789-7.7-2.681-1.89-1.893-2.687-4.599-2.679-7.697v-25.134c-8e-3 -3.1 0.789-5.805 2.679-7.698 1.895-1.892 4.598-2.689 7.7-2.681h33.512c3.1-8e-3 5.803 0.789 7.697 2.681 1.891 1.893 2.688 4.598 2.679 7.698v25.134c9e-3 3.099-0.788 5.805-2.679 7.697-1.887 1.885-4.577 2.681-7.661 2.681-0.011-1e-3 -0.024-1e-3 -0.036-1e-3z"/>
	
	
		<path d="m408.22 123.66v-75.403h58.647c16.757 0 25.135 8.378 25.135 25.135v50.269h-16.757v-50.269c0-5.585-2.793-8.378-8.378-8.378h-41.891v58.647h-16.756z" fill="#d12c00"/>
		<path d="m473.24 125.66v-52.269c-7e-3 -2.485-0.607-3.969-1.51-4.869-0.898-0.902-2.385-1.503-4.867-1.509h-39.891v58.647h-18.758v-2.001h2-2v2.001h-2.001v-79.404h60.649c8.686-6e-3 15.579 2.186 20.265 6.871 4.684 4.686 6.877 11.579 6.869 20.265v52.269h-20.756zm1.321-59.966c1.891 1.892 2.687 4.597 2.68 7.697v48.267h12.756v-48.267c-7e-3 -8.07-2.004-13.743-5.696-17.436-3.693-3.695-9.366-5.692-17.437-5.699h-56.648v71.402h12.757v-58.646h43.892 0.036c3.081 0 5.773 0.797 7.66 2.682z"/>
	
	
		<path d="m500.38 106.91h67.025v-12.567h-41.89c-16.757 0-25.135-7.568-25.135-22.705 0-15.583 8.378-23.375 25.135-23.375h58.647v16.756h-67.025v12.567h41.891c16.757 0 25.135 7.68 25.135 23.04 0 15.361-8.378 23.04-25.135 23.04h-58.647v-16.756z" fill="#d12c00"/>
		<path d="m559.02 125.66h-60.648v-20.757h67.025v-8.566h-39.888c-8.657 0-15.483-1.949-20.192-6.192-4.714-4.248-6.96-10.602-6.944-18.512-0.013-8.124 2.216-14.626 6.923-18.997 4.703-4.367 11.548-6.381 20.214-6.379h60.646v20.757h-67.027v8.566h39.892c8.661 0 15.498 1.983 20.203 6.286 4.711 4.31 6.946 10.739 6.932 18.755 0.015 8.016-2.221 14.445-6.932 18.753-4.703 4.303-11.534 6.286-20.189 6.286h-0.015zm-56.646-4h56.646c8.096-2e-3 13.827-1.858 17.5-5.234 3.668-3.37 5.621-8.46 5.634-15.805-0.013-7.345-1.966-12.435-5.634-15.806-3.673-3.374-9.404-5.232-17.5-5.234h-43.89v-16.567h67.023v-12.757h-56.644c-8.094 2e-3 -13.815 1.881-17.489 5.308-3.673 3.423-5.633 8.606-5.646 16.067 0.015 7.228 1.96 12.225 5.624 15.544 3.668 3.325 9.41 5.16 17.511 5.16h43.89v16.568h-67.024v12.756z"/>
	
</g>
</svg>
