<?xml version="1.0" encoding="UTF-8"?>
<svg width="1739.9pt" height="286.31pt" version="1.1" viewBox="0 0 1739.9 286.31" xmlns="http://www.w3.org/2000/svg" xmlns:cc="http://creativecommons.org/ns#" xmlns:dc="http://purl.org/dc/elements/1.1/" xmlns:rdf="http://www.w3.org/1999/02/22-rdf-syntax-ns#" xmlns:xlink="http://www.w3.org/1999/xlink">
<metadata>
<rdf:RDF>
<cc:Work rdf:about="">
<dc:format>image/svg+xml</dc:format>
<dc:type rdf:resource="http://purl.org/dc/dcmitype/StillImage"/>
<dc:title/>
</cc:Work>
</rdf:RDF>
</metadata>
<path d="m290.93 143.04c0.76733-16.453 15.789-30.368 32.184-30.28 43.708-0.059 87.431 0 131.14-0.0148-0.14756 9.4293-0.0885 18.873-0.10329 28.317-35.799 0-71.583 0-107.38-0.0148-5.9911-0.0148-12.868 0.75257-16.94 5.6959-3.6743 4.3088-3.3349 10.285-3.394 15.568 0.059 5.2828-0.28037 11.23 3.3644 15.538 3.7334 4.5745 9.99 5.6369 15.568 5.6959 30.487 0.0885 60.988-0.059 91.474 0.059 16.38-0.0295 31.357 13.871 32.124 30.324 0.29513 11.805 0.1033 23.64 0.1033 35.459 0.14756 12.838-8.2045 25.1-20.039 29.955-7.5552 3.3792-16.011 2.5676-24.068 2.6414-44.741 0-89.482 0.0147-134.24-0.1033v-28.214c40.845-0.0148 81.676 0.0147 122.52-0.0148 5.8435-0.0295 12.499-0.75257 16.571-5.4451 4.058-4.5302 3.6005-11.008 3.6448-16.66 0.0295-5.0909-0.2361-10.831-4.058-14.683-4.176-4.3384-10.551-4.9139-16.232-4.9729-30-0.0295-60.014 0.0443-90.028-0.0295-16.424 0.11805-31.49-13.856-32.213-30.339-0.20659-12.823-0.20659-25.661 0-38.484z" fill="#777" fill-opacity=".94118" stroke-width="1.4756"/>
<path d="m641.92 112.1h35.15c0 17.368-0.0148 34.722 0 52.09 8.662 0.0295 17.339 0.14756 26.001 0.11805v28.126c-8.6767 0-17.339-0.0148-26.001 0.0147-0.0148 20.437-0.0148 40.875 0 61.312h22.961c0 9.444 0 18.873-0.0148 28.303-14.948-0.059-29.896 0.14756-44.83-0.059-7.2454 0.22135-13.591-6.1534-13.354-13.399-0.0885-25.381 0.059-50.776 0-76.172-4.9876 0.0147-9.9605-0.0148-14.948-0.0148 0-9.4293 0-18.873 0.0148-28.303 5.0024 0 10.005-0.0147 15.022 0 0.0148-17.339 0-34.677 0-52.016z" fill="#777" fill-opacity=".94118" stroke-width="1.4756"/>
<path d="m1297.7 112.88c10.138-3.4677 22.164 3.512 23.964 14.107 2.2725 10.049-5.445 20.674-15.597 21.869-9.4735 1.638-19.464-5.209-21.087-14.742-2.0217-9.0014 3.9104-18.696 12.72-21.234z" fill="#777" fill-opacity=".94118" stroke-width="1.4756"/>
<path d="m865.11 282.62c0.0738-56.104 0.0885-112.21 0.19183-168.31 11.702 0 23.418-0.0148 35.12 0 0.0148 56.103 0.0148 112.21 0.0148 168.31-11.776 0.0147-23.551 0-35.327 0z" fill="#777" fill-opacity=".94118" stroke-width="1.4756"/>
<path d="m918.97 114.31c11.717-0.0148 23.418 0 35.135 0 0.0148 56.103 0 112.21 0 168.31-11.776 0-23.551 0.0147-35.327 0 0.1033-56.104 0.11805-112.21 0.19183-168.31z" fill="#777" fill-opacity=".94118" stroke-width="1.4756"/>
<path d="m490.21 163.65c27.462-0.0148 54.908 0.0148 82.37-0.0148 7.1125 0 14.55-0.4722 21.249 2.3905 12.13 4.6925 20.836 17.147 20.6 30.25 0.0148 17.663 0.0148 35.341 0.0148 53.005 0.20659 12.69-7.9094 24.835-19.508 29.823-5.6074 2.6561-11.923 2.966-18.017 2.907-21.131-0.11805-42.262 0.059-63.393-0.0885-12.528 0.0295-24.599-7.7913-29.69-19.227-3.6743-7.7766-3.2169-16.704-2.2282-25.027 0.35415-3.2464 2.5381-5.932 5.15-7.7323 5.7697-4.1023 12.882-5.4156 19.626-7.0978 24.141-5.9911 48.283-11.938 72.409-17.988-1.4314-7.8208-8.7357-12.868-16.483-12.735-24.023-0.3689-48.061-0.0443-72.099-0.16232-0.0148-9.4293-0.0148-18.873 0-28.303m26.856 83.447c1.5937 4.2351 5.0762 7.8799 9.8425 8.0274 11.731 0.67879 23.507 0.0738 35.268 0.30988 5.0762-0.0443 11.539 0.0443 14.461-4.9581 2.966-5.7254 1.9478-12.513 2.2134-18.726-20.6 5.1057-41.2 10.182-61.785 15.347z" fill="#777" fill-opacity=".94118" stroke-width="1.4756"/>
<path d="m713.65 194.78c0.32464-16.498 15.11-30.855 31.534-31.047 22.636-0.19183 45.287-0.0148 67.938-0.0738 11.451-0.38367 22.872 5.5631 28.937 15.317 5.755 8.78 5.9025 19.936 4.2203 29.955-2.0806 7.083-9.99 9.8425-16.365 11.776-26.871 6.7289-53.787 13.295-80.643 20.039 1.3871 7.8946 8.78 12.897 16.557 12.764 26.975 0.3689 53.949 0.0443 80.924 0.16232 0.0148 9.4293 0.0148 18.873 0 28.303-33.32 0-66.64 0.0443-99.974-0.0148-12.572 0.22135-24.85-7.3929-30.103-18.844-2.848-5.6222-3.2612-12.056-3.1283-18.254 0.13281-16.689-0.11805-33.394 0.10329-50.083m37.776 0.29513c-3.0398 5.7254-1.9183 12.528-2.1692 18.755 20.556-5.0909 41.126-10.138 61.667-15.317-1.5937-4.0875-4.8106-7.7913-9.4883-7.9832-11.303-0.90013-22.68-0.16232-34.028-0.42793-5.5041 0.16232-12.646-0.44269-15.981 4.9729z" fill="#777" fill-opacity=".94118" stroke-width="1.4756"/>
<path d="m977.91 163.65c30.619 0.0295 61.253-0.0738 91.873 0.0443 16.645-0.13281 31.8 14.225 32.242 30.9 0.2951 14.815 0.015 29.616 0.1181 44.431-0.074 7.2011 0.6197 14.683-2.0659 21.544-4.4859 12.425-17.058 21.323-30.28 21.352-22.577 0.11805-45.169 0.0295-67.746 0.0295-12.233 0.28037-24.245-6.7731-29.808-17.678-4.2941-7.9684-4.1613-17.398-3.2021-26.148 1.1805-7.6438 9.3112-10.979 15.848-12.971 27.152-6.8912 54.392-13.428 81.529-20.319-1.151-2.907-1.9626-6.1681-4.4121-8.293-4.1908-3.9547-10.3-4.5302-15.774-4.5745-22.769-0.0295-45.553 0.0148-68.322-0.0148-0.0148-9.4293-0.0148-18.873 0-28.303m26.812 83.491c1.3428 2.2725 2.3167 5.0467 4.781 6.3895 3.512 2.0659 7.7619 1.7855 11.702 1.9183 10.831-0.14756 21.648 0.11805 32.464-0.11805 4.1613-0.0295 8.9866-1.3281 10.92-5.4008 2.5528-5.6812 1.6674-12.115 1.874-18.165-20.585 5.1204-41.2 10.123-61.74 15.376z" fill="#777" fill-opacity=".94118" stroke-width="1.4756"/>
<path d="m1102.2 163.65c13.133-0.0148 26.266-0.0148 39.399 0.0148 15.612 30.413 30.959 60.958 46.733 91.283 16.276-30.088 31.18-60.929 46.94-91.297 13.133 0 26.266-0.0148 39.399 0-17.545 34.604-35.194 69.148-52.695 103.77-5.1647 9.7687-15.642 16.498-26.694 17.058-8.3374 0.17708-17.147 0.98868-24.879-2.8184-7.2453-3.1283-13.015-9.0751-16.453-16.114-17.235-33.969-34.53-67.909-51.75-101.89z" fill="#777" fill-opacity=".94118" stroke-width="1.4756"/>
<path d="m1285.7 282.62c0.044-39.872 0.03-79.743 0.2066-119.61 11.702 0 23.404-0.0147 35.105 0 0.015 39.872 0 79.728 0.015 119.6-11.776 0.0443-23.551 0.0148-35.327 0.0148z" fill="#777" fill-opacity=".94118" stroke-width="1.4756"/>
<path d="m1337.7 194.82c0.2804-16.542 15.11-30.914 31.578-31.092 22.636-0.19183 45.287-0.0295 67.938-0.0738 11.495-0.36891 22.946 5.6517 28.981 15.479 5.6664 8.7652 5.814 19.862 4.117 29.837-2.0954 7.0092-9.8867 9.7539-16.202 11.672-26.916 6.7732-53.875 13.34-80.791 20.098 1.3428 7.9389 8.8537 12.912 16.63 12.764 26.945 0.38366 53.905 0.0443 80.865 0.16232v28.303c-33.836-0.0443-67.658 0.11805-101.49-0.0738-16.527-0.17708-31.416-14.624-31.623-31.239-0.1033-18.608-0.118-37.23 0-55.838m37.319 1.0477c-2.3757 5.6517-1.5936 11.997-1.8002 17.988 20.585-5.1057 41.17-10.167 61.74-15.347-1.6822-5.3861-6.847-8.6177-12.425-8.2783-11.805-0.22135-23.64-0.13281-35.445-0.0295-4.5302 0-9.99 1.092-12.071 5.6664z" fill="#777" fill-opacity=".94118" stroke-width="1.4756"/>
<path d="m1469.2 165.32c13.133-0.0147 26.281-0.0443 39.444 0.0148 15.553 30.191 31.047 60.412 46.851 90.486 10.624-30.073 20.659-60.353 30.988-90.515 12.026 0.0147 24.053-0.0148 36.094 0.0147 10.256 30.191 20.364 60.427 30.944 90.5 15.834-30.059 31.283-60.324 46.881-90.515 13.148-0.0148 26.281 0 39.429 0-17.412 34.264-34.795 68.528-52.237 102.78-4.5892 8.7948-12.587 17.147-22.99 18.003-6.8616 0.17708-13.797 0.54598-20.614-0.35415-11.215-2.4938-18.239-12.823-22.887-22.562-6.8174-15.199-11.082-31.357-16.586-47.043-4.9433 14.225-9.0751 28.745-14.697 42.734-3.9843 9.3998-9.2818 19.08-18.357 24.407-7.1125 4.2498-15.716 2.7152-23.581 2.966-11.967 0.56074-21.751-8.7505-26.797-18.8-17.294-34.043-34.618-68.071-51.883-102.11z" fill="#777" fill-opacity=".94118" stroke-width="1.4756"/>
<path d="m69.086 0.075711c8.8493-0.14999 17.704-0.023527 26.554-0.0647 10.793 0.0029409 21.589-0.0029409 32.38 0.0029409 0.63524-0.047055 1.1087 0.4382 1.6204 0.73229 9.0728 6.0289 17.416 13.075 25.483 20.375 17.169 15.707 32.738 33.088 47.305 51.216 13.543 16.89 26.386 34.382 37.762 52.819 2.8409 4.6555 5.6084 9.361 8.1993 14.164 1.8146 3.4056 3.6614 6.8112 5.1407 10.376 0.10587 2.641 0.0118 5.2907 0.0412 7.9346-4.7996-8.6346-10.179-16.94-15.805-25.057-13.078-18.743-27.745-36.379-43.835-52.61-27.392-27.692-59.248-51.14-94.457-67.909-8.5669-4.035-17.31-7.7317-26.298-10.737-1.3528-0.44996-2.7086-0.89404-4.0908-1.2411z" stroke-width=".29409"/>
<path d="m161.88 0.011011h26.398c6.7141 8.1758 12.94 16.743 19.01 25.404 6.7818 9.7786 13.39 19.684 19.522 29.883 6.2789 10.464 12.14 21.175 17.698 32.036 3.1027 6.1377 6.2112 12.284 9.0198 18.56 0.097 4.0085 0.0147 8.0258 0.0382 12.037-11.849-19.128-24.227-37.932-37.235-56.295-6.6759-9.4169-13.522-18.728-20.992-27.533-10.299-12.158-21.339-23.733-33.459-34.091z" stroke-width=".29409"/>
<path d="m204.47 0.011011c16.366 0.0029409 32.733-0.0029409 49.099 0v50.002c-0.0353 4.9702 0.0706 9.9433-0.0529 14.913-5.6995-10.92-12.314-21.339-19.263-31.5-5.5084-8.0817-11.461-15.893-18.228-22.969-3.5997-3.7438-7.367-7.3611-11.555-10.446z" stroke-width=".29409"/>
<g transform="matrix(.29409 0 0 .29409 -.22907 -.28308)">
<path d="m205.47 116.77c45.02-3.94 90.45 1.66 134.13 12.71 53.38 13.69 104.45 35.6 152.36 62.71 64.85 36.84 124.08 83.29 176.49 136.29 48.06 48.74 90.45 103.27 124.24 162.86 29.31 51.93 52.3 107.87 63.81 166.54 7.13 36.83 9.58 74.83 4.46 112.09-5.02 36.98-18.18 73.27-40.74 103.22-21.71 29.22-51.92 51.73-85.61 65.32-40.88 16.64-85.84 21.09-129.61 18.13-61.38-4.26-121.14-22.29-177.01-47.56-64.15-29.14-123.54-68.24-177.23-113.77-55.86-47.56-105.85-102.16-147.26-162.77-41.65-61.27-75.02-128.99-92.09-201.34-10.61-45.79-14.52-93.78-5.95-140.24 6.8-37.26 22.48-73.29 47.49-101.95 22.68-26.35 52.63-46.02 85.27-57.74 21.63-7.84 44.36-12.45 67.25-14.5z"/>
</g>
<path d="m21.543 207.06c11.131 10.579 22.722 20.684 34.835 30.124 7.6905 5.973 15.622 11.655 23.972 16.675 16.096 9.8521 32.606 19.025 49.416 27.601h-125.28c4.4673-1.4558 8.6993-3.5938 12.602-6.2024 6.7641-4.5378 12.511-11.017 14.966-18.89 1.8734-6.6494 1.0264-13.687-0.29115-20.354-2.1557-10.037-5.8054-19.707-10.223-28.953z" stroke-width=".29409"/>
<g transform="matrix(.29409 0 0 .29409 -.22907 -.28308)">
<path d="m194.25 313.18c18.77-12.29 41.54-17.35 63.78-17.08 23.32 0.35 46.39 6.39 67.36 16.49 36.2 17.08 66.77 44.68 90.1 76.97 8.1 12.16 16.81 24.09 22.15 37.81 6.31 12.87 11.26 26.48 13.51 40.7 1.73 12.55 3.9 25.22 2.54 37.94-1.05 9.84-3.3 19.81-8.49 28.35-3.78 6.02-7.71 12.14-13.24 16.73-4.99 4.4-10.72 7.94-16.83 10.57-11.6-15.47-25.05-29.47-39.66-42.11-29.43-26-64.24-46.64-102.46-56.47-24.64-6.17-51.52-7.67-75.5 1.95-10.9-14.85-21.18-30.42-27.75-47.72-6.78-16.14-10.08-33.85-8.59-51.34 1.45-9.67 4.26-19.25 9.02-27.81 6.32-9.76 14.68-18.15 24.06-24.98z" fill="#0a12ff"/>
<path d="m527.76 359.73c19.66-7.15 41.35-7.35 61.67-3.05 34.75 7.45 66.75 25.22 93.34 48.56 27.46 24.34 50.18 54.8 62.41 89.61 6.41 16.51 8.96 34.45 8.02 52.11-0.27 15.18-4.51 30.5-13.48 42.88-7.03 10.33-17.06 18.57-28.54 23.48-10.72-16.34-23.6-31.26-38.19-44.27-25.35-23.03-55.54-41.61-88.97-50.02-21.6-5.41-45.16-6.21-66 2.55-5.72-7.98-10.44-16.61-15.63-24.93-5.17-9.51-10.55-19.07-13.54-29.54-3.52-11.02-5.67-22.49-6.18-34.05-1.78-15.93 2.53-32.14 10.33-46 7.98-12.78 20.66-22.24 34.76-27.33z" fill="#fb0f19"/>
<path d="m319.45 564.63c11.8-0.78 23.67-1.66 35.48-0.31 20.87 1.76 41.88 7.46 59.31 19.41 12.04 8.34 22.65 19.88 26.8 34.21 4.66 13.83 1.88 29.28-5.03 41.87-6.34 12.68-16.59 22.88-27.42 31.8-25.91 19.32-57.6 29.94-89.54 33.44-12.96 1.87-26.12 1.92-39.16 1.1-20.61-1.54-41.48-6.05-59.5-16.52-12.94-7.52-24.53-19.2-28.06-34.14-1.08-6.13-2.19-12.44-0.97-18.63 2.56-16.84 11.88-31.89 23.55-43.99 12.78-13.85 29.06-23.97 46.04-31.87 18.47-8.52 38.33-13.88 58.5-16.37z" fill="#2cd324"/>
<path d="m614.43 617.54c18.84-0.83 37.92 1.35 55.91 7.12 18.56 6.23 36.63 16.59 47.93 33 7.55 10.69 11.3 24.23 8.99 37.23-1.98 14.65-10.57 27.36-20.4 37.98-10.72 11.23-24.41 19-38.23 25.76-31.25 14.54-66.34 21.21-100.72 18.22-17.33-1.85-34.72-6.5-49.45-16.08-13.92-8.99-25.48-23.04-28.23-39.74-2.72-12.43-0.59-25.55 4.87-36.95 4.62-9.47 10.47-18.49 18.17-25.77 26.71-26.18 64.26-39.09 101.16-40.77z" fill="#f8fa1a"/>
</g>
<path d="m381.36 89.448v-85.476h-25.707v59.769l-37.918-59.769h-27.635v85.476h25.707v-61.697l39.846 61.697z" fill="#777" stroke-width="6.4267"/>
<path d="m423.14 89.448v-57.841h-25.707v57.841z" fill="#777" stroke-width="6.4267"/>
<path d="m423.14 19.397v-15.424h-25.707v15.424z" fill="#777" stroke-width="6.4267"/>
<path id="a" d="m513.11 89.448v-39.846c0-8.3548-16.067-19.923-24.422-19.923h-7.7121c-5.7841 0-12.211 5.1414-17.995 7.7121v-5.7841h-25.707v57.841h25.707v-39.846c0-3.856 8.9975-8.3548 12.854-8.3548 3.856 0 10.925 4.4987 10.925 8.3548v39.846z" fill="#777" stroke-width="6.4267"/>
<use transform="translate(215.08 1.9915)" width="467" height="187" fill="#777777" xlink:href="#a" href="#3162"/>
<path d="m554.89 89.448v-57.841h13.496v-7.7121h-13.496v-12.211h-26.35v12.211h-13.496v7.7121h13.496v57.841z" fill="#777" stroke-width="6.4267"/>
<path d="m604.37 29.68c-20.566 0-37.918 14.139-37.918 31.491 0 17.995 17.352 32.134 37.918 32.134 17.995 0 32.776-10.283 36.632-23.779h-26.35v7.7121c0 6.4267-4.4987 8.3548-10.283 8.3548-5.7841 0-9.6401-1.928-9.6401-8.3548v-16.067h47.558c0-17.352-16.71-31.491-37.918-31.491zm0 5.7841c5.7841 0 10.283 3.856 10.283 10.283v5.7841h-19.923v-5.7841c0-6.4267 3.856-10.283 9.6401-10.283z" fill="#777"/>
<path d="m857.59 29.68c-21.208 0-37.918 14.139-37.918 31.491 0 17.995 16.71 32.134 37.918 32.134 20.566 0 37.918-14.139 37.918-32.134 0-17.352-17.352-31.491-37.918-31.491zm0 5.7841c5.7841 0 9.6401 3.856 9.6401 10.283v31.491c0 6.4267-3.856 8.3548-9.6401 8.3548-6.4267 0-10.283-1.928-10.283-8.3548v-31.491c0-6.4267 3.8561-10.283 10.283-10.283z" fill="#777"/>
<path d="m783.68 3.9727v31.491s-7.7121-5.7841-17.995-5.7841c-16.067 0-29.563 14.139-29.563 29.563 0 16.067 13.496 32.134 29.563 32.134 10.283 0 17.995-3.856 17.995-3.856v1.928h25.707v-85.476zm-9.6401 35.347c5.7841 0 9.6401 4.4987 9.6401 10.283v23.779c0 5.7841-3.856 7.7121-9.6401 7.7121-6.4268 0-10.283-1.928-10.283-7.7121v-23.779c0-5.7841 3.856-10.283 10.283-10.283z" fill="#777" stroke-width="6.4267"/>
<path d="m910.93 17.469c0 6.4267-5.7841 12.211-12.211 12.211-7.0694 0-12.211-5.7841-12.211-12.211 0-7.0694 5.1414-12.853 12.211-12.853 6.4267 0 12.211 5.7841 12.211 12.853zm-8.9974 5.1414-2.5707-4.4987h-4.4987 4.4987c3.856 0 3.856-6.4267 0-6.4267h-4.4987v10.925" fill="none" stroke="#777" stroke-width="2.0527"/>
<path transform="scale(.75)" d="m223.64 372.81c-42.734-6.619-87.848-29.375-129.18-65.16-46.549-40.303-81.158-95.387-91.209-145.16-1.7495-8.6648-2.0734-13.02-2.0649-27.77 0.0086696-15.139 0.28077-18.564 2.0223-25.454 16.508-65.313 89.477-82.867 173.78-41.806 74.298 36.186 137.41 109.13 155.66 179.9 7.1981 27.917 6.8689 52.777-0.98361 74.293-3.7102 10.166-8.9838 18.563-16.791 26.735-12.769 13.365-26.966 20.663-47.601 24.467-9.3702 1.7276-32.352 1.7058-43.633-0.0414zm23.787-70.389c22.667-5.3865 37.644-18.752 37.645-33.593 9e-4 -19.168-26.97-31.792-55.415-25.938-8.7057 1.7917-14.272 4.1023-21.922 9.0994-22.809 14.9-21.686 40.664 2.168 49.728 9.9626 3.7855 23.487 4.039 37.523 0.7033zm-116.49-19.181c29.059-5.6815 48.134-25.154 41.545-42.409-4.8545-12.711-20.228-20.416-40.344-20.219-17.958 0.17593-35.678 6.8558-46.588 17.563-23.248 22.816-8.7592 46.118 28.791 46.303 5.5072 0.0272 12.975-0.52977 16.596-1.2376zm152.13-45.3c7.173-5.1961 10.901-11.944 11.801-21.359 1.2848-13.45-2.1552-26.013-10.678-38.996-9.1942-14.005-21.049-24.593-35.809-31.982-11.2-5.6068-19.913-7.6478-30.421-7.1257-18.512 0.91972-29.392 11.73-29.2 29.011 0.12212 10.98 3.0049 19.854 10.099 31.086l3.7415 5.9243 4.1584-1.2515c13.153-3.9584 33.153 1.6958 49.459 13.983 7.3327 5.5253 16.018 14.257 19.901 20.007 1.2335 1.8265 2.4849 3.3236 2.7809 3.327 0.29602 4e-3 2.1719-1.1773 4.1687-2.6238zm-115.59-20.731c12.731-9.2223 14.057-30.616 3.2232-52.014-9.3233-18.415-25.43-34.567-42.887-43.007-9.4157-4.5524-17.855-6.5111-27.974-6.4929-26.066 0.047-41.5 17.297-36.278 40.549 1.165 5.188 8.1335 19.343 11.36 23.076l2.491 2.8818 4.9339-1.3816c5.856-1.6398 17.274-1.18 25.567 1.0295 7.5304 2.0065 22.07 9.1619 30.052 14.79 3.7004 2.609 10.765 8.8959 15.699 13.971 4.9339 5.075 9.2129 9.2495 9.509 9.2766 0.29601 0.0271 2.2329-1.1784 4.3042-2.6789z" fill="#777" stroke="#777" stroke-width=".89708"/>
<path transform="scale(.75)" d="m15.071 371.88c12.499-6.3683 20.679-14.131 25.812-24.497 2.5358-5.1208 2.9005-6.8226 3.201-14.94 0.48869-13.202-3.6228-31.175-10.735-46.927-1.4274-3.1616-2.4908-5.8518-2.3631-5.9782 0.12771-0.12645 5.6819 4.6218 12.343 10.552 14.039 12.498 33.619 28.34 45.56 36.861 14.674 10.472 31.705 20.497 75.545 44.468l6.7281 3.6789-162.37-0.018 6.2795-3.1993z" fill="#777" stroke="#777" stroke-width=".89708"/>
<path transform="scale(.75)" d="m334.79 79.831c-5.1063-10.009-20.487-33.823-30.311-46.929-7.2631-9.6899-18.376-22.101-24.6-27.473l-6.1064-5.2704h63.795v41.714c0 22.943-0.19364 41.714-0.43031 41.714s-1.2925-1.6901-2.3463-3.7557z" fill="#777" stroke="#777" stroke-width=".89708"/>
<path transform="scale(.75)" d="m323.24 133.05c-37.153-57.832-62.957-91.239-92.773-120.11l-13.202-12.783h33.215l4.8688 6.0553c12.677 15.767 36.157 50.057 48.575 70.94 8.1778 13.752 18.864 33.624 26.996 50.2l6.7282 13.715-0.26137 6.7978-0.26137 6.7978z" fill="#777" stroke="#777" stroke-width=".89708"/>
<path transform="scale(.75)" d="m334.05 202.27c-11.016-18.661-30.726-45.954-47.482-65.752-13.226-15.627-40.291-42.958-55.63-56.178-39.717-34.229-84.857-61.445-127.95-77.146l-8.0737-2.9413 75.901-0.089577 5.2322 3.5531c13.942 9.4681 38.125 31.121 56.789 50.85 39.273 41.512 82.608 100.54 101.53 138.31 2.603 5.1946 3.2372 7.4141 3.0234 10.582l-0.27057 4.0084z" fill="#777" stroke="#777" stroke-width=".89708"/>
</svg>
