<?xml version="1.0" encoding="UTF-8"?>
<svg width="574.78px" height="83.5px" baseProfile="tiny" version="1.2" viewBox="-2.153 -3.275 574.78 83.5" xml:space="preserve" xmlns="http://www.w3.org/2000/svg">
<rect x="-2.153" y="-3.275" width="553" height="83.5"/>

	<g fill="#C6AF75">
		<path d="m77.651 26.489-1.553-0.719c0.097-0.32 0.194-0.719 0.194-1.119 0-1.039-9.127-6.633-24.953-6.633-15.146 0-21.651 3.836-21.651 8.79 0 13.104 57.186-6.072 57.186 22.854 0 10.548-12.428 18.699-37.283 18.699-23.689 0-30.486-6.233-32.719-6.233-0.583 0-0.874 0.397-1.359 0.64l-1.262-0.24 8.058-13.586 1.554 0.64c0 0.321-0.195 0.642-0.195 1.28 0 4.716 12.525 8.068 24.953 8.068 17.671 0 23.69-4.152 23.69-8.55 0-15.66-56.41 3.755-56.41-22.771 0-13.425 17.185-19.019 36.021-19.019 16.894 0 28.739 6.073 29.904 6.073 1.262 0 1.456-0.319 1.748-0.559l1.553 0.399-7.476 11.986z"/>
		<path d="m94.346 66.441c2.136 0 2.524-0.639 2.524-2.397v-51.139c0-1.758-0.389-2.397-2.524-2.397v-1.119h63.012c2.33 0 3.301-0.64 3.301-1.758h1.359v13.265h-1.359c0-1.438-0.971-2.077-3.301-2.077h-46.701v14.224h30.487c2.33 0 3.301-0.64 3.301-2.078h1.359v13.422h-1.359c0-0.639-0.194-1.117-0.777-1.438-0.485-0.319-1.359-0.48-2.524-0.48h-30.487v15.664h47.575c2.33 0 3.301-0.641 3.301-1.918h1.359v13.104h-1.359c0-1.118-0.971-1.758-3.301-1.758h-63.886v-1.12z"/>
		<path d="m249 36.877v1.119c-0.971 0.16-1.845 0.799-1.845 2.557v15.741c0 1.279 0.486 1.757 1.748 1.997v1.119c-6.117 2.876-21.069 8.951-37.866 8.951-22.331 0-41.943-9.112-41.943-29.886 0-20.776 22.913-29.886 43.108-29.886 7.962 0 15.535 1.518 21.069 2.957 5.146 1.838 8.932 3.277 9.612 3.277 0.874 0 1.748-0.4 2.136-0.879l1.359 0.479-9.417 13.104-1.36-0.719c0.097-0.319 0.194-0.799 0.194-1.358 0-2.478-10.485-7.432-23.398-7.432-16.311 0-29.515 6.633-29.515 20.138 0 14.143 13.204 20.773 28.156 20.773 12.234 0 19.418-3.437 22.331-5.193v-6.631h-16.699c-1.942 0-3.107 0.799-3.107 1.916h-1.36v-14.061h1.36c0 1.118 1.165 1.917 3.107 1.917h32.33z"/>
		<path d="m253.85 67.563v-1.119c1.748-0.08 2.33-0.479 3.689-3.037l26.506-49.063c0.484-0.799 1.066-1.678 1.066-2.396 0-0.879-0.774-1.279-2.039-1.438v-1.12h21.167v1.119c-1.457 0.16-2.041 0.639-2.041 1.199 0 0.639 0.39 1.278 0.875 2.078l28.156 49.621c1.357 2.478 1.748 3.037 3.785 3.037v1.119h-19.32v-1.119c1.264 0 1.748-0.4 1.748-0.799 0-0.879-0.873-1.998-7.379-13.426h-33.303c-5.631 10.387-7.087 11.986-7.087 13.025 0 0.719 0.582 1.119 1.456 1.197v1.119h-17.281v3e-3zm50.585-24.454-11.651-20.936-11.457 20.936h23.108z"/>
	</g>
	
		<path d="M547.578,77.074H1.117V-0.125h546.46V77.074z M6.034,72.157h536.627V4.792H6.034V72.157z" fill="#C6AF75"/>
	
	<path d="m351.85 9.389v58.171h186.86v-58.171h-186.86zm7.922 40.836c-1.555-10.357 32.85-24.163 77.67-31.438-1.012 0.261-2.969 0.762-2.969 0.762s-4.404 1.076-5.623 1.374c-22.863 5.587-38.881 15.652-37.545 24.577 1.369 9.137 20.469 14.083 44.766 12.393 1.35-0.096 6.139-0.326 7.182-0.373-44.989 6.179-81.93 3.064-83.481-7.295zm112.04 2.237c-9.932 2.257-22.346 4.173-22.346 4.173v-25.959l6.4 21.124s15.242-2.474 26.844-7.304c10.084-4.199 16.34-9.466 15.918-15.077-0.684-9.115-20.068-13.978-44-12.439-1.596 0.103-6.895 0.375-7.936 0.421 44.98-6.181 81.916-3.064 83.471 7.293 1.321 8.81-23.371 20.109-58.351 27.768z" fill="#C6AF75"/>

<g fill="#C6AF75">
	<polygon points="553.89 -1.576 557.21 -1.576 557.21 7.272 558.84 7.272 558.84 -1.576 562.16 -1.576 562.16 -3 553.89 -3"/>
	<polygon points="570.56 -3 567.51 5.09 564.48 -3 562.4 -3 562.4 7.272 563.96 7.272 563.96 -0.4 566.84 7.272 568.19 7.272 571.07 -0.397 571.07 7.272 572.63 7.272 572.63 -3"/>
</g>
</svg>
