<?xml version="1.0" encoding="UTF-8"?>
<svg version="1.1" viewBox="0 0 1924.7 277.26" xmlns="http://www.w3.org/2000/svg" xmlns:cc="http://creativecommons.org/ns#" xmlns:dc="http://purl.org/dc/elements/1.1/" xmlns:rdf="http://www.w3.org/1999/02/22-rdf-syntax-ns#">
<metadata>
<rdf:RDF>
<cc:Work rdf:about="">
<dc:format>image/svg+xml</dc:format>
<dc:type rdf:resource="http://purl.org/dc/dcmitype/StillImage"/>
<dc:title/>
</cc:Work>
</rdf:RDF>
</metadata>
<g transform="translate(-4.3835 -772.49)" fill="#f00" stroke="#000">
<path d="m262.07 994.09c-2.9e-4 16.49-5.0038 29.806-15.011 39.95-10.007 10.144-23.528 15.214-40.562 15.214h-197.15v-55.164h197.15v-55.177h-146.85c-16.226 0-29.41-5.1377-39.554-15.413-10.143-10.274-15.215-23.525-15.215-39.751v-55.586c-2.54e-5 -7.8404 1.4876-15.14 4.4629-21.9 2.9752-6.7593 6.9636-12.573 11.965-17.443 5.0014-4.869 10.816-8.7238 17.443-11.562 6.6273-2.8396 13.593-4.2584 20.897-4.2594h183.77v55.165h-183.77v55.586h146.85c7.8403 0 15.142 1.4188 21.906 4.2584 6.7633 2.8386 12.646 6.6914 17.647 11.556 5.0012 4.8659 8.9214 10.68 11.761 17.443 2.8388 6.7634 4.2584 14.065 4.2587 21.906z"/>
<path d="m582.56 1049.2h-221.08c-36.785 0-55.177-18.388-55.177-55.164v-165.93c-3e-5 -7.8404 1.4876-15.14 4.4629-21.9 2.9753-6.7593 6.9657-12.573 11.971-17.443 5.0055-4.869 10.82-8.7238 17.443-11.562 6.6231-2.8396 13.723-4.2584 21.299-4.2594h211.76v55.165h-211.76v165.93h165.51v-55.177h-109.93v-55.164h165.51z"/>
<path d="m790.12 938.91h-165.52v-55.164h165.52z"/>
<path d="m982.27 1049.2h-165.52v-55.164h55.573v-165.93h-55.573v-55.165h110.75v221.09h54.768z"/>
<path transform="translate(4.3835 772.49)" d="m1069.7 0.5c-7.2959 0.00101-14.248 1.4104-20.875 4.25-6.6272 2.8386-12.436 6.6935-17.437 11.562-5.0015 4.87-8.9935 10.678-11.969 17.438-2.9752 6.7593-4.4688 14.066-4.4688 21.906v165.94c0 36.776 18.246 55.156 54.75 55.156h165.53c36.776 0 55.156-18.38 55.156-55.156v-165.94c-4e-4 -7.5676-1.4112-14.709-4.25-21.469-2.8394-6.7593-6.7489-12.65-11.75-17.656-5.0018-5.0048-10.893-8.9426-17.656-11.781-6.7637-2.8396-13.932-4.249-21.5-4.25h-165.53zm0 55.156h165.53v165.94h-165.53v-165.94z"/>
<path transform="translate(4.3835 772.49)" d="m1386.6 0.5c-7.296 0.00101-14.248 1.4104-20.875 4.25-6.6273 2.8386-12.436 6.6935-17.438 11.562-5.0013 4.87-8.9934 10.678-11.969 17.438-2.9753 6.7593-4.4687 14.066-4.4687 21.906v165.94c0 36.776 18.246 55.156 54.75 55.156h165.53c36.776 0 55.156-18.38 55.156-55.156v-165.94c-2e-4 -7.5676-1.4112-14.709-4.25-21.469-2.8393-6.7593-6.78-12.65-11.781-17.656-5.0017-5.0048-10.893-8.9426-17.656-11.781-6.7637-2.8396-13.901-4.249-21.469-4.25h-165.53zm0 55.156h165.53v165.94h-165.53v-165.94z"/>
<path transform="translate(4.3835 772.49)" d="m1703.5 0.5c-7.2959 0.00101-14.279 1.4104-20.906 4.25-6.6273 2.8386-12.436 6.6935-17.438 11.562-5.0014 4.87-8.9934 10.678-11.969 17.438-2.9753 6.7593-4.4688 14.066-4.4688 21.906v165.94c0 36.776 18.277 55.156 54.781 55.156h165.5c36.776 0 55.156-18.38 55.156-55.156v-165.94c-3e-4 -7.5676-1.4111-14.709-4.25-21.469-2.8393-6.7593-6.7488-12.65-11.75-17.656-5.0017-5.0048-10.893-8.9426-17.656-11.781-6.7636-2.8396-13.932-4.249-21.5-4.25h-165.5zm0 55.156h165.5v165.94h-165.5v-165.94z"/>
</g>
</svg>
