<?xml version="1.0" encoding="UTF-8"?>
<svg width="399.49px" height="98.438px" baseProfile="tiny" version="1.2" viewBox="74.938 2 399.49 98.438" xml:space="preserve" xmlns="http://www.w3.org/2000/svg">

	<path d="m94.393 2c-3.758 0-7.412 3.09-8.083 6.918v0.205l-0.068 0.068v0.207l-0.069 0.137v0.138l-0.069 0.137v0.206l-0.068 0.137v0.206l-0.069 0.205-0.069 0.206-0.068 0.41-0.137 0.479-0.067 0.479-0.138 0.479-0.069 0.547-0.138 0.548-0.136 0.616-0.138 0.548-0.205 1.165-0.138 0.617-0.137 0.547-0.067 0.548-0.138 0.547-0.136 0.549-0.069 0.548-0.069 0.479-0.138 0.411-0.069 0.479v0.206l-0.067 0.137v0.343l-0.068 0.206v0.275l-0.069 0.137v0.136c-0.07 1.675 0.163 3.96 0.685 4.385 0.665 3.688 12.958 20.759 12.604 23.358-0.332 2.606-1.781 10.276-1.781 10.276-0.446 2.585-2.21 4.656-4.794 4.656-2.586 0-4.351-2.064-3.905-4.656l2.329-12.741h-9.179l-3.083 17.674c-0.628 3.588 1.801 6.438 5.411 6.438h13.085c3.624 0 7.076-2.851 7.739-6.438 0 0 3.372-16.508 3.356-17.674-0.013-1.174-0.341-1.302-0.341-1.302 0-1.343-10.939-19.4-12.056-20.072-0.481-0.281-0.877-2.069-0.892-3.15-0.021-1.074 1.439-8.289 1.439-8.289 0.444-2.585 2.894-4.657 5.48-4.657 2.585 0 3.664 2.072 3.219 4.657l-1.986 11.439h9.247l3.22-17.194c0.729-3.826-1.721-6.916-5.479-6.916h-13.562zm25.207 0-10.959 63.16c-0.628 3.588 1.802 6.438 5.412 6.438h13.084c3.624 0 7.138-2.851 7.809-6.438l11.712-63.16h-8.219l-11.167 61.377c-0.163 0.893-1.028 1.646-1.917 1.646h-6.509c-0.911 0-1.519-0.747-1.371-1.646l10.894-61.377h-8.769zm31.511 0-13.221 69.597h8.768l6.029-31.511h11.166c3.632 0 7.074-2.871 7.739-6.438l4.795-24.73c0.724-3.835-1.72-6.918-5.477-6.918h-19.799zm31.306 0-13.699 69.598h19.727l1.37-8.632h-9.727l3.974-23.495h9.727l1.369-7.262h-9.725l4.315-21.578h9.728l1.367-8.631h-18.426zm23.564 0-13.151 69.597h8.769l5.96-31.511h6.234c0.818 0.764 0.916 2.171 1.025 2.877 0.162 1.025 0.334 2.333 0.207 3.357-0.113 1.017-4.797 25.276-4.797 25.276h8.77s4.932-26.429 4.932-26.853c0.016-0.431 0-1.785-0.477-2.534-0.322-0.479-0.873-1.583-1.51-1.985-1.223-0.785-2.604-1.304-2.604-1.304h-0.619c2.512-0.988 7.24-2.617 7.744-5.273l4.793-24.73c0.729-3.834-1.72-6.917-5.478-6.917h-19.798zm46.925 0-13.223 69.598h10.07l8.15-40.347 3.221 40.347h8.77l13.221-69.598h-10.07l-6.85 36.375-4.522-36.375h-8.767zm34.797 0-13.219 69.598h8.768l13.218-69.598h-8.767zm13.355 0-13.219 69.598h10.139l8.152-40.347 3.219 40.347h8.77l13.22-69.598h-10.139l-6.781 36.375-4.521-36.375h-8.84zm33.981 0-1.646 8.632h5.48l-10.824 60.966h10.004l11.027-60.966h5.273l1.371-8.632h-20.685zm24.111 0-13.699 69.598h19.727l1.371-8.632h-9.727l4.043-23.495h9.725l1.371-7.262h-9.727l4.244-21.578h9.729l1.371-8.631h-18.428zm22.264 0-13.221 69.598h10.137l8.154-40.347 3.219 40.347h8.768l13.222-69.598h-10.139l-6.783 36.375-4.521-36.375h-8.836zm34.869 0-13.225 69.598h20.004c3.633 0 7.137-2.851 7.811-6.438l10.615-56.241c0.72-3.836-1.721-6.919-5.479-6.919h-19.726zm37.605 0c-3.76 0-7.344 3.09-8.016 6.918l-9.797 56.241c-0.635 3.588 1.74 6.438 5.346 6.438h14.453c3.623 0 7.137-2.851 7.811-6.438l10.615-56.241c0.729-3.828-1.728-6.918-5.478-6.918h-14.934zm-30.14 8.015h4.043c2.584 0 4.348 2.072 3.902 4.657l-8.631 45.555c-0.451 2.585-2.963 4.727-5.549 4.727h-3.973l10.208-54.939zm35.277 0h0.275c2.584 0 4.281 2.072 3.834 4.657l-8.217 45.555c-0.449 2.577-2.83 4.727-5.412 4.727-2.588 0-3.666-2.142-3.223-4.727l8.152-45.555 0.066-0.206 0.07-0.206 0.066-0.273 0.068-0.206 0.07-0.274 0.066-0.206 0.07-0.206 0.135-0.204 0.068-0.206 0.139-0.206 0.068-0.205 0.137-0.206 0.139-0.137 0.135-0.205 0.139-0.206 0.205-0.138 0.137-0.138 0.139-0.137 0.203-0.138 0.207-0.137 0.139-0.137 0.203-0.138 0.207-0.068 0.205-0.137 0.139-0.069 0.271-0.069 0.205-0.067h0.205l0.205-0.069h0.275l0.21-0.063zm-299.49 0.274h4.248c0.933 0 2.911 2.136 2.741 3.083l-3.632 17.194c-0.169 0.89-1.37 2.944-2.258 2.944h-5.276l-0.069-0.067h-0.274v-0.069h-0.137l-0.07-0.067h-0.068l-0.068-0.069-0.068-0.068h-0.068v-0.07l-0.069-0.068-0.069-0.069v-0.068l-0.068-0.068-0.07-0.069v-0.138l-0.068-0.068v-0.136l-0.07-0.068v-0.068c0-0.114-0.012-0.285 0-0.412l4.111-21.03c0.377-0.311 0.837-0.549 1.302-0.549zm54.594 0h4.249c0.934 0 2.922 2.136 2.738 3.083l-3.633 17.125c-0.158 0.897-2.389 3.014-3.285 3.014h-3.769c-0.777 0-1.313-0.511-1.369-1.23 0-0.114-0.017-0.278 0-0.412l4.042-21.03 0.066-0.068 0.07-0.068 0.135-0.069h0.067l0.069-0.068 0.068-0.068h0.068l0.068-0.069h0.07l0.135-0.067h0.202v-0.069h9e-3zm-139.19 67.337v22.812h391v-22.812h-391zm287.44 2.397h3.352c0.813 0 1.396 0.65 1.232 1.507l-0.754 3.838h-1.848l0.408-2.535c0.094-0.573-0.244-1.028-0.822-1.028-0.572 0-1.137 0.453-1.232 1.028l-0.34 1.851c-0.059 0.109 0.113 0.629 0.203 0.686 0.254 0.146 2.672 4.153 2.672 4.451 0.057 0.148 0.09 0.22 0.066 0.275-0.068 0.501-0.754 3.902-0.754 3.902-0.146 0.781-0.906 1.438-1.711 1.438h-2.877c-0.799 0-1.313-0.657-1.166-1.438l0.688-3.902h1.986l-0.476 2.808c-0.092 0.571 0.24 1.095 0.818 1.095 0.555 0 1.145-0.52 1.236-1.095l0.41-2.261c-0.367-0.945-2.791-4.389-2.947-5.207-0.105-0.093-0.15-0.587-0.135-0.959 0.021-0.407 0.547-2.946 0.547-2.946h0.071v-0.202l0.066-0.138v-0.067l0.066-0.07v-0.067l0.068-0.067v-0.07l0.068-0.067 0.07-0.07v-0.066h0.066l0.07-0.068 0.066-0.07 0.068-0.066v-0.07h0.068l0.066-0.066 0.066-0.068h0.07l0.068-0.067h0.068l0.068-0.067h0.205l0.086-0.082zm15.752 0h2.467l0.342 5.824 3.15-5.824h2.469l-5.07 8.906-1.232 6.507h-2.191l1.098-6.988-1.033-8.425zm22.402 0h3.352c0.813 0 1.381 0.65 1.232 1.507l-0.754 3.838h-1.85l0.412-2.535c0.092-0.573-0.242-1.028-0.822-1.028-0.572 0-1.143 0.453-1.232 1.028l-0.342 1.851c-0.072 0.109 0.092 0.629 0.203 0.686 0.242 0.146 2.672 4.153 2.672 4.451 0.072 0.148 0.07 0.22 0.07 0.275-0.094 0.501-0.686 3.902-0.686 3.902-0.148 0.781-0.916 1.438-1.715 1.438h-2.943c-0.799 0-1.314-0.657-1.168-1.438l0.686-3.902h1.988l-0.479 2.809c-0.094 0.571 0.264 1.095 0.822 1.095 0.57 0 1.119-0.52 1.232-1.095l0.41-2.261c-0.375-0.945-2.787-4.389-2.945-5.207-0.105-0.093-0.148-0.587-0.137-0.959 0.021-0.407 0.549-2.946 0.549-2.946l0.066-0.068v-0.134l0.068-0.138v-0.067l0.068-0.07v-0.067l0.068-0.067v-0.071l0.068-0.067 0.068-0.07v-0.066h0.07l0.064-0.068 0.068-0.07 0.068-0.066 0.068-0.07 0.068-0.066 0.068-0.068h0.068l0.07-0.067h0.066l0.068-0.067h0.203l0.09-0.082zm15.959 0h4.592l-0.344 1.851h-1.166l-2.396 13.563h-2.26l2.396-13.563h-1.164l0.342-1.851zm17.947 0h4.109l-0.344 1.851h-2.123l-0.957 4.864h2.191l-0.344 1.574h-2.125l-0.889 5.206h2.121l-0.271 1.918h-4.385l3.017-15.413zm16.92 0h2.535l0.408 8.906 3.906-8.837 2.465-0.069-2.6 15.413h-1.918l1.23-8.15-3.426 8.15h-1.371l-0.408-8.358-1.508 8.358h-2.262l2.949-15.413zm-367.92 0.55h4.042l-0.275 1.916h-2.191l-0.89 4.797h2.124l-0.275 1.645h-2.192l-0.821 5.207h2.123l-0.343 1.917h-4.384l3.082-15.482zm18.906 0h1.918l1.027 8.083 1.506-8.083h2.262l-2.947 15.479h-1.917l-0.754-8.976-1.78 8.976h-2.262l2.947-15.479zm20.551 0h4.521l-0.273 1.916h-1.165l-2.466 13.564h-2.19l2.396-13.564h-1.233l0.41-1.916zm19.934 0h4.11l-0.343 1.916h-2.124l-0.959 4.797h2.124l-0.274 1.645h-2.123l-0.89 5.207h2.123l-0.273 1.917h-4.384l3.013-15.482zm19.318 0h4.383c0.813 0 1.327 0.719 1.165 1.574l-1.027 5.479c-0.114 0.594-1.157 1.078-1.714 1.303h0.276v0.067h0.274l0.068 0.067h0.206v0.067h0.138v0.07h0.068c0.092 0.165 0.136 0.659 0.136 0.753 0 0.092-1.097 6.097-1.097 6.097h-1.986s1.061-5.394 1.097-5.616c0.022-0.24-0.026-0.529-0.068-0.753-0.016-0.166-0.024-0.45-0.206-0.618h-1.371l-1.301 6.987h-1.987l2.946-15.477zm19.59 0h4.589l-0.273 1.916h-1.163l-2.467 13.564h-2.192l2.397-13.564h-1.232l0.341-1.916zm22.811 0h2.604l-0.822 15.479h-2.604l0.342-3.563h-1.574l-1.303 3.563h-2.327l5.684-15.479zm18.223 0h1.986l-2.947 15.479h-1.918l2.879-15.479zm17.672 0h1.92l1.025 8.083 1.51-8.083h2.191l-2.877 15.479h-1.986l-0.686-8.976-1.783 8.976h-2.258l2.944-15.479zm22.676 0h2.535l0.408 8.974 3.908-8.904h2.463l-2.602 15.412h-1.918l1.232-8.152-3.428 8.152h-1.369l-0.41-8.356-1.506 8.356h-2.193l2.88-15.482zm24.865 0h4.041l-0.275 1.916h-2.191l-0.889 4.797h2.123l-0.275 1.645h-2.189l-0.891 5.207h2.189l-0.342 1.917h-4.314l3.013-15.482zm19.863 0h1.918l1.029 8.083 1.506-8.083h2.191l-2.875 15.479h-1.918l-0.754-8.976-1.783 8.976h-2.26l2.946-15.479zm20.346 0h4.59l-0.342 1.916h-1.164l-2.398 13.564h-2.193l2.4-13.564h-1.232l0.339-1.916zm-164.2 1.847c-0.108 0-0.198 0.064-0.276 0.139l-0.89 4.656v0.07c0 0.149 0.104 0.273 0.274 0.273h0.821c0.204 0 0.717-0.411 0.755-0.617l0.751-3.836c0.036-0.221-0.342-0.687-0.547-0.687l-0.888 2e-3zm40.551 4.658-1.438 3.905h1.096l0.342-3.905z" fill="#C40000"/>

</svg>
