<?xml version="1.0" encoding="UTF-8"?>
<svg enable-background="new 0 0 450 120" version="1.1" viewBox="0 0 450 120" xml:space="preserve" xmlns="http://www.w3.org/2000/svg">
<path d="m436.96 82.68c0.26-0.18 0.52-0.36 0.77-0.54 6.75-5.01 10.32-12.35 10.32-21.21 0-7.19-1.92-13.07-5.72-17.48-3.55-4.12-9.13-7.38-17.05-9.98-2.39-0.81-4.17-1.48-5.48-2.01-0.59-0.24-0.08-0.8 0.91-0.8 2.31 0 4.45 0.32 6.37 0.75 1.94 0.44 3.84 0.98 5.65 1.81l9.35 4.28 0.95-10.24 1.18-12.72 0.52-5.65-5.35-1.89c-2.4-0.85-5.23-1.56-8.65-2.17-3.36-0.59-6.89-0.89-10.51-0.89-9.74 0-17.74 2.16-23.79 6.41v-5.24h-30.63v46.62c0 5.59-1.16 8.09-1.86 9.08-0.32 0.47-1 1.43-3.96 1.43s-3.68-0.97-4.02-1.44c-1.15-1.57-1.79-4.59-1.79-8.48v-47.21h-30.63v4.86c-5.38-3.26-12.32-4.86-21.16-4.86h-33.42v37.14l-14.66-37.14h-28.83l-21.75 56.15h-14.82v-56.15h-30.63v25.12c-9.09-17.13-27.11-28.83-47.82-28.83-25.4 0-46.75 17.6-52.54 41.24-3.57-3.74-8.92-6.74-16.31-9.17-2.42-0.82-4.22-1.5-5.53-2.03-0.56-0.23-0.32-0.48-0.32-0.48s0.29-0.31 1.28-0.31c2.32 0 4.46 0.33 6.37 0.76 1.97 0.44 3.82 0.96 5.67 1.8l9.35 4.27 2.63-28.6-5.35-1.88c-2.41-0.86-5.24-1.56-8.65-2.17-3.36-0.59-6.89-0.89-10.5-0.89-10.04 0-18.23 2.29-24.35 6.8-6.7 4.96-10.24 12.27-10.24 21.13 0 7.69 2.38 13.8 7.07 18.16 3.99 3.7 9.59 6.68 17.12 9.12 3.72 1.24 5.95 2.23 5.8 2.6-0.15 0.38-1.57 0.59-3.04 0.59-2.75 0-6.63-0.57-10.32-1.94s-13.3-8.62-13.3-8.62l-2.97 32.25 5.75 1.7c1.79 0.53 3.88 1.05 6.33 1.57l-12.27 31.67h17.88l2.08-5.57h2.45l2.03 5.57h41v-32.81h12.72l-0.01 0.02-12.69 32.79h17.88l2.07-5.57h2.46l2.04 5.57h47.68v-9.45c1.84-0.23 3.51-0.71 5.01-1.43 1.15 3.02 2.89 5.12 4.46 6.5 3.6 3.19 8.43 4.81 14.37 4.81 1.99 0 4.01-0.19 6-0.55 1.91-0.35 3.32-0.68 4.45-1.03l3.86-1.19v-28.67l8.5-0.01c-2.42 2.45-4.89 6.52-4.89 12.9 0 7.19 3.11 11.45 5.72 13.75 3.6 3.19 8.43 4.81 14.37 4.81 1.74 0 3.5-0.15 5.23-0.43h16.2l2.07-5.57h2.45l2.04 5.57h70.71v-36.29h-0.67v-19.42l7.03 19.41h-2.18v36.29h54.61v-3.52c3.48 2.61 7.93 3.95 13.29 3.95 2.01 0 4.03-0.19 6-0.55 0.91-0.17 1.71-0.33 2.42-0.49v0.62h66.37v-36.3h-10.18z" fill="#3e2d72"/>
<g fill="#fff">
	<path d="m323.51 61.52-0.4-0.88c-0.97-2.67-2.13-5.44-3.47-8.31s-3.44-4.7-6.31-5.48c4.76-0.98 8.25-3 10.46-6.06 2.21-3.07 3.33-6.46 3.33-10.18 0-6.2-2.12-10.78-6.35-13.75-4.25-2.97-10.38-4.45-18.39-4.45h-26.13v68.19h16.05v-27.69h4.89c2.68 0 4.73 0.83 6.16 2.5 1.43 1.66 2.58 3.77 3.42 6.31l6.85 18.88h17.21l-7.32-19.08zm-15.86-22.46c-2.09 1.41-4.95 2.11-8.6 2.11h-6.75v-17.03h6.26c4.04 0 7.09 0.67 9.14 2 2.05 1.34 3.09 3.51 3.09 6.51 0 2.88-1.05 5.01-3.14 6.41z"/>
	<path d="m53.12 48.21c-2.64-3.07-7.26-5.67-13.84-7.83-5.94-2.02-9.68-3.65-11.21-4.89s-2.29-2.74-2.29-4.5c0-2.54 1-4.45 3.03-5.72 2.02-1.27 4.76-1.91 8.22-1.91 2.87 0 5.53 0.28 7.98 0.83s4.81 1.35 7.09 2.4l1.17-12.72c-2.02-0.72-4.51-1.33-7.48-1.86-2.96-0.52-6.05-0.78-9.24-0.78-8.49 0-15.16 1.79-20.02 5.38s-7.28 8.67-7.28 15.26c0 5.61 1.58 9.88 4.74 12.82 3.16 2.93 7.97 5.45 14.43 7.53 4.89 1.63 8.15 3.21 9.78 4.74s2.45 3.21 2.45 5.04c0 2.34-1.1 4.2-3.28 5.57-2.19 1.37-5.01 2.05-8.46 2.05-3.53 0-7.05-0.57-10.57-1.71s-5.84-2.1-6.95-2.89l-1.27 13.7c2.21 0.65 5.08 1.32 8.61 2.01 3.52 0.68 7.21 1.03 11.06 1.03 8.34 0 14.98-1.82 19.9-5.48 4.92-3.65 7.39-8.77 7.39-15.36 0.01-5.41-1.31-9.64-3.96-12.71z"/>
	<path d="m436.8 48.21c-2.64-3.07-7.26-5.67-13.84-7.83-5.94-2.02-9.68-3.65-11.21-4.89s-2.29-2.74-2.29-4.5c0-2.54 1-4.45 3.03-5.72 2.02-1.27 4.76-1.91 8.22-1.91 2.87 0 5.53 0.28 7.98 0.83s4.81 1.35 7.09 2.4l1.18-12.72c-2.02-0.72-4.52-1.33-7.48-1.86-2.96-0.52-6.05-0.78-9.24-0.78-8.49 0-15.16 1.79-20.01 5.38-4.86 3.59-7.29 8.67-7.29 15.26 0 5.61 1.59 9.88 4.75 12.82 3.17 2.93 7.98 5.45 14.44 7.53 4.89 1.63 8.15 3.21 9.78 4.74 1.62 1.53 2.45 3.21 2.45 5.04 0 2.34-1.1 4.2-3.28 5.57-2.2 1.37-5.02 2.05-8.47 2.05-3.52 0-7.04-0.57-10.56-1.71s-5.84-2.1-6.96-2.89l-1.26 13.7c2.21 0.65 5.08 1.32 8.6 2.01 3.52 0.68 7.21 1.03 11.07 1.03 8.34 0 14.98-1.82 19.9-5.48 4.92-3.65 7.37-8.77 7.37-15.36-0.02-5.41-1.32-9.64-3.97-12.71z"/>
	<path d="m249.34 12.41h-18.87l-21.75 56.15h-27.1v-56.15h-16.05v68.19h54.92l5.57-14.97h27.11l5.48 14.97h17.61l-26.92-68.19zm-19.07 41.38 9.58-27.69 9.2 27.69h-18.78z"/>
	<path d="m373.1 12.41v39.33c0 5.81-1.05 10.22-3.17 13.26-2.12 3.03-5.43 4.55-9.94 4.55-4.44 0-7.72-1.47-9.89-4.4-2.15-2.93-3.22-7.21-3.22-12.81v-39.93h-16.05v42.95c0 8.68 2.52 15.25 7.53 19.71 5.03 4.47 12.26 6.7 21.72 6.7 9.65 0 16.91-2.32 21.77-6.94 4.86-4.63 7.29-11.61 7.29-20.94v-41.48h-16.04z"/>
</g>
<g fill="#fff">
	<path d="m143.88 90.09c-1.79-1.29-4.39-1.94-7.81-1.94h-7.79v25.35h5.96v-9.28h2.69c3.03 0 5.4-0.7 7.09-2.12 1.7-1.42 2.55-3.44 2.55-6.05 0.01-2.67-0.89-4.65-2.69-5.96zm-4.45 8.79c-0.76 0.65-1.81 0.97-3.14 0.97l-2.04-0.06v-7.28h2.04c1.31 0 2.35 0.32 3.13 0.94 0.78 0.64 1.16 1.53 1.16 2.66 0 1.2-0.38 2.12-1.15 2.77z"/>
	<path d="m85.38 88.15-9.81 25.35h6.1l2.07-5.57h10.08l2.04 5.57h6.54l-10-25.35h-7.02zm-0.08 15.38 3.57-10.29 3.42 10.29h-6.99z"/>
	<path d="m19.93 88.15-9.82 25.35h6.1l2.08-5.57h10.08l2.03 5.57h6.54l-10-25.35h-7.01zm-0.07 15.38 3.56-10.29 3.42 10.29h-6.98z"/>
	<path d="m122.39 106.08c-0.36-0.99-0.79-2.02-1.29-3.09-0.49-1.07-1.28-1.75-2.35-2.04 1.78-0.37 3.07-1.11 3.9-2.26 0.81-1.13 1.23-2.39 1.23-3.77 0-2.31-0.78-4.01-2.36-5.11s-3.86-1.66-6.84-1.66h-9.71v25.35h5.96v-10.3h1.81c0.99 0 1.77 0.32 2.29 0.94 0.53 0.6 0.96 1.4 1.28 2.34l2.55 7.02h6.39l-2.71-7.09-0.15-0.33zm-5.75-8.02c-0.77 0.53-1.84 0.78-3.2 0.78h-2.5v-6.32h2.32c1.51 0 2.64 0.25 3.42 0.75 0.76 0.49 1.14 1.31 1.14 2.42 0 1.06-0.4 1.86-1.18 2.37z"/>
	<polygon points="56.51 106.22 47.23 88.15 39.82 88.15 39.82 113.5 45.42 113.5 45.42 95.57 54.66 113.1 54.87 113.5 62.1 113.5 62.1 88.15 56.51 88.15"/>
	<path d="m162.07 103.31h4.59v5.6c-0.35 0.13-0.75 0.24-1.22 0.33-0.48 0.1-1.06 0.14-1.76 0.14-2.57 0-4.65-0.78-6.22-2.33-1.58-1.56-2.38-3.61-2.38-6.19 0-2.66 0.88-4.76 2.59-6.31 1.73-1.53 4.06-2.31 7.02-2.31 1.19 0 2.36 0.13 3.49 0.38 1.15 0.26 2.18 0.64 3.14 1.15l0.4-4.65v-0.25c-0.92-0.37-2.04-0.65-3.34-0.86s-2.78-0.3-4.45-0.3c-4.68 0-8.35 1.15-11 3.44-2.65 2.28-3.98 5.51-3.98 9.68 0 4.14 1.29 7.37 3.87 9.65 2.59 2.29 6.17 3.44 10.75 3.44 1.7 0 3.37-0.16 5.01-0.46 1.63-0.3 2.91-0.59 3.84-0.88v-13.66h-10.33v4.39z"/>
	<path d="m370.85 103.31h4.59v5.6c-0.34 0.13-0.73 0.24-1.21 0.33-0.48 0.1-1.07 0.14-1.77 0.14-2.56 0-4.65-0.78-6.21-2.33-1.58-1.56-2.37-3.61-2.37-6.19 0-2.66 0.86-4.76 2.58-6.31 1.72-1.53 4.06-2.31 7.02-2.31 1.19 0 2.36 0.13 3.49 0.38 1.15 0.26 2.18 0.64 3.14 1.15l0.38-4.65v-0.25c-0.91-0.37-2.02-0.65-3.31-0.86-1.31-0.21-2.79-0.3-4.46-0.3-4.68 0-8.34 1.15-11 3.44-2.66 2.28-3.98 5.51-3.98 9.68 0 4.14 1.29 7.37 3.87 9.65 2.6 2.29 6.18 3.44 10.75 3.44 1.69 0 3.38-0.16 5-0.46 1.64-0.3 2.91-0.59 3.84-0.88v-13.66h-10.33v4.39z"/>
	<rect x="386.24" y="88.15" width="5.97" height="25.35"/>
	<path d="m200.07 103.31h4.57v5.6c-0.34 0.13-0.74 0.24-1.21 0.33-0.48 0.1-1.07 0.14-1.76 0.14-2.58 0-4.66-0.78-6.23-2.33-1.58-1.56-2.36-3.61-2.36-6.19 0-2.66 0.86-4.76 2.58-6.31 1.73-1.53 4.06-2.31 7.02-2.31 1.19 0 2.35 0.13 3.49 0.38 1.14 0.26 2.18 0.64 3.13 1.15l0.4-4.65v-0.25c-0.92-0.37-2.03-0.65-3.33-0.86s-2.78-0.3-4.45-0.3c-4.68 0-8.34 1.15-11 3.44-2.65 2.28-3.99 5.51-3.99 9.68 0 4.14 1.29 7.37 3.87 9.65 2.59 2.29 6.17 3.44 10.75 3.44 1.7 0 3.37-0.16 5-0.46 1.64-0.3 2.91-0.59 3.84-0.88v-13.66h-10.32v4.39z"/>
	<polygon points="347.99 106.22 338.72 88.15 331.3 88.15 331.3 113.5 336.89 113.5 336.89 95.57 346.13 113.1 346.36 113.5 353.59 113.5 353.59 88.15 347.99 88.15"/>
	<polygon points="414.09 106.22 404.82 88.15 397.41 88.15 397.41 113.5 403 113.5 403 95.57 412.24 113.1 412.46 113.5 419.69 113.5 419.69 88.15 414.09 88.15"/>
	<polygon points="430.84 109.09 430.84 102.66 440.68 102.66 440.68 98.3 430.84 98.3 430.84 92.52 441.46 92.52 441.46 88.15 424.87 88.15 424.87 113.5 441.66 113.5 441.66 109.09"/>
	<polygon points="257.88 105.83 251.99 88.15 242.75 88.15 242.75 113.5 248.53 113.5 248.45 93.36 255.12 113.1 260.43 113.1 267.23 93.39 267.16 113.5 272.89 113.5 272.89 88.15 263.91 88.15"/>
	<path d="m222.89 88.15-9.81 25.35h6.11l2.07-5.57h10.08l2.04 5.57h6.54l-10-25.35h-7.03zm-0.06 15.38 3.57-10.29 3.41 10.29h-6.98z"/>
	<polygon points="283.96 102.66 293.8 102.66 293.8 98.3 283.96 98.3 283.96 92.52 294.58 92.52 294.58 88.15 277.99 88.15 277.99 113.5 294.79 113.5 294.79 109.09 283.96 109.09"/>
	<polygon points="315.89 102.66 325.74 102.66 325.74 98.3 315.89 98.3 315.89 92.52 326.49 92.52 326.49 88.15 309.92 88.15 309.92 113.5 326.72 113.5 326.72 109.09 315.89 109.09"/>
</g>
<path d="m110.45 6.87c-26.86 0-48.64 21.77-48.64 48.64 0 9.23 2.61 17.73 7.08 25.09h2.79c9.46-9.46 31.04-30.95 36.9-36.82 3.38 3.38 8.01-1.17 9.35-2.65-0.73-0.72-1.51-1.51-2.32-2.32-3.21-3.2-5.97 1.7-5.97 1.7l-7.03-7.04s10.97-5 16.93 0.96l4.47 4.47 8.17-8.17c-0.78-2.15-0.33-4.64 1.39-6.37 2.37-2.37 6.21-2.37 8.57 0 2.38 2.36 2.38 6.2 0 8.57-1.71 1.71-4.19 2.17-6.31 1.4l-8.19 8.18c0.93 0.94 2.32 2.33 4.44 4.45 5.98 5.97 0.96 16.94 0.96 16.94l-7.03-7.04s4.89-2.76 1.69-5.96l-2.32-2.32c-1.48 1.35-6.03 5.98-2.65 9.35-3.68 3.68-13.55 13.46-22.74 22.65h51.98c4.47-7.36 7.08-15.86 7.08-25.09 0.04-26.85-21.73-48.62-48.6-48.62z" fill="#FFBC00"/>
</svg>
