<?xml version="1.0" encoding="UTF-8"?>
<svg viewBox="0 0 400 120" xmlns="http://www.w3.org/2000/svg">
<defs>
<linearGradient id="A" x1="25%" x2="75%" y2="75%">
<stop stop-color="#111d2e" offset="0"/>
<stop stop-color="#051839" offset=".012"/>
<stop stop-color="#0a1b48" offset=".207"/>
<stop stop-color="#132e62" offset=".381"/>
<stop stop-color="#144b7e" offset=".538"/>
<stop stop-color="#136497" offset=".673"/>
<stop stop-color="#1387b8" offset="1"/>
</linearGradient>
</defs>
<path d="m189.57 8.0293a28.75 28.75 0 0 0-28.75 28.75 28.75 28.75 0 0 0 0.30274 3.4609l-18.422 27.24a17.623 17.623 0 0 0-7.5254 2.0879c-29.229-11.961-58.476-23.879-87.715-35.816a17.624 17.624 0 0 0-17.209-12.395 17.624 17.624 0 0 0-0.93359 0.044922 17.624 17.624 0 0 0-16.307 17.574 17.624 17.624 0 0 0 25.514 15.707c29.557 12.088 59.125 24.157 88.705 36.188a17.623 17.623 0 0 0 33.637-3.7461l28.875-21.611a28.75 28.75 0 0 0 28.578-28.734 28.75 28.75 0 0 0-28.75-28.75zm-1.6445 6.8008a22.011 22.011 0 0 1 23.654 21.949 22.011 22.011 0 0 1-44.021 0 22.011 22.011 0 0 1 20.367-21.949zm1.6445 4.4043a17.555 17.555 0 0 0-17.555 17.555 17.555 17.555 0 0 0 35.109 0 17.555 17.555 0 0 0-17.555-17.555zm-158.94 6.9121a13.23 12.83 0 0 1 10.49 5.0176c-0.94126-0.38448-1.883-0.76779-2.8242-1.1523l-0.58789-0.23242-0.57617-0.20703c-6.1032-2.7498-14.17 0.17072-16.16 6.7852-2.3041 6.2117 2.7734 12.141 8.1816 14.498 0.76292 0.31205 1.5261 0.6235 2.2891 0.93555a13.23 12.83 0 0 1-14.043-12.814 13.23 12.83 0 0 1 13.23-12.83zm209.32 0.13086c-3.5153 0-6.2106 0.86251-8.0859 2.5898-1.8747 1.728-2.8105 4.1975-2.8105 7.4082 0 2.5633 0.6691 4.6019 2.0098 6.1133 1.3547 1.512 3.4915 2.6134 6.4082 3.3047l2.9102 0.71094c1.77 0.43267 2.9485 0.92208 3.5352 1.4688 0.59866 0.54733 0.89648 1.3247 0.89648 2.332 0 1.1233-0.43464 1.9891-1.3066 2.5938-0.87266 0.60467-2.1295 0.90625-3.7695 0.90625-1.6153 0-3.2964-0.27365-5.041-0.82031-1.732-0.562-3.5286-1.3897-5.3906-2.4844v7.0215c1.862 0.76333 3.7239 1.3379 5.5859 1.7266 1.862 0.38867 3.719 0.58398 5.5684 0.58398 3.9193 0 6.8291-0.8638 8.7305-2.5918 1.9133-1.742 2.8691-4.3926 2.8691-7.9492 0-2.7067-0.68217-4.7931-2.0488-6.2617-1.3673-1.4687-3.6721-2.5632-6.9141-3.2832l-3.2051-0.71289c-1.5227-0.34533-2.5774-0.7558-3.1641-1.2305-0.57334-0.49-0.85938-1.166-0.85938-2.0293 0-1.1527 0.42906-2.0041 1.2891-2.5508 0.85934-0.54733 2.1877-0.82031 3.9844-0.82031 1.3547 0 2.795 0.20214 4.3184 0.60547s3.0842 1.001 4.6855 1.793v-6.8242-0.001953c-1.8093-0.53267-3.5606-0.92817-5.2539-1.1875-1.6927-0.27333-3.3401-0.41016-4.9414-0.41016zm17.914 0.58203v6.2871h9.6875v25.959h7.5195v-25.959h9.668v-6.2871h-26.875zm33.402 0v32.246h20.723v-6.2852h-13.203v-7.3848h12.012v-6.2852h-12.012v-6.0039h12.773v-6.2871h-20.293zm63.602 0v32.246h7.1289v-23.586l6.7188 17.387h4.7656l6.7188-17.387v23.586h7.1094v-32.244h-9.5508l-6.6797 17.256-6.6406-17.258h-9.5703zm-26.271 0.001953-10.801 32.244h7.5586l1.8555-5.875h11.756 0.00195l1.8359 5.875h7.5566l-10.799-32.244h-8.9648zm4.4902 7.5586 3.9844 12.828h-7.9883l4.0039-12.828zm-189.61 37.039a13.158 13.558 0 0 1 13.156 13.557h0.00195a13.158 13.558 0 0 1-23.414 8.3008c1.1653 0.47363 2.3288 0.95232 3.4941 1.4258 6.1032 2.7498 14.17-0.17268 16.16-6.7871 2.3041-6.2117-2.7734-12.141-8.1816-14.498-1.3256-0.54308-2.6528-1.0822-3.9785-1.625a13.158 13.558 0 0 1 2.7617-0.37305z" fill="url(#A)"/>
</svg>
