<?xml version="1.0" encoding="UTF-8"?>
<svg width="566.93px" height="154.09px" enable-background="new -0.003 -0.001 566.931 154.093" version="1.1" viewBox="-.003 -.001 566.93 154.09" xml:space="preserve" xmlns="http://www.w3.org/2000/svg" xmlns:cc="http://creativecommons.org/ns#" xmlns:dc="http://purl.org/dc/elements/1.1/" xmlns:rdf="http://www.w3.org/1999/02/22-rdf-syntax-ns#"><metadata><rdf:RDF><cc:Work rdf:about=""><dc:format>image/svg+xml</dc:format><dc:type rdf:resource="http://purl.org/dc/dcmitype/StillImage"/></cc:Work></rdf:RDF></metadata><defs><filter id="a" x="-.088692" y="-.18547" width="1.1774" height="1.3709" color-interpolation-filters="sRGB"><feGaussianBlur stdDeviation="0.756603"/></filter></defs><g transform="translate(2384.4 -866.45)"><g transform="matrix(1.3924 0 0 1.3924 2014 -625.35)"><path d="m-2847.2 1179.2c-0.6868-0.4057-2.3567-1.8086-3.7099-3.12-2.9446-2.8535-3.8764-3.1689-5.5315-1.8707-1.0299 0.8071-1.1934 1.1901-1.1085 2.5864 0.054 0.9012-0.058 1.6385-0.2443 1.6385-0.7351 0-2.9603-2.6788-3.9521-4.7586-2.0263-4.2484-2.3567-8.3066-0.7799-9.5745 0.4409-0.3561 1.612-0.5058 3.4877-0.4508 3.974 0.1159 6.0388 1.3081 10.635 6.1383 3.8321 4.0274 4.4021 4.3283 6.6396 3.5042 1.4691-0.5411 1.6078-1.6915 0.6942-5.7641-0.8851-3.9451-1.7329-6.1598-2.6365-6.8863-0.4877-0.3932-0.7448-0.2442-1.4274 0.8246-0.4574 0.7166-1.386 1.817-2.0632 2.4445l-1.2311 1.1413-4.2072-2.5194c-2.3141-1.3855-5.6597-3.0869-7.4348-3.7807-1.7746-0.6934-3.3903-1.4195-3.5907-1.6133-0.5266-0.5104-0.4897-1.7436 0.2071-6.861 0.8456-6.2322 0.8646-22.932 0.041-25.181-0.3229-0.8723-0.5925-1.7126-0.5962-1.8674-0.041-0.4537 1.9225-2.129 7.1512-6.2008 4.5615-3.5518 9.7295-8.2229 11.332-10.243 1.0949-1.3789 2.2371-0.7629 3.6297 1.9564 1.7779 3.4728 3.7782 6.0348 8.2672 10.588 2.194 2.2262 3.9898 4.3698 3.9898 4.7626 0 0.3933-0.4889 1.025-1.0866 1.4046l-1.0871 0.6901 0.2773 8.3774c0.1532 4.6074 0.4513 10.162 0.6628 12.343 0.6226 6.4247 0.5108 14.009-0.2401 16.484-2.3223 7.6301-8.2371 14.783-13.358 16.153-1.1939 0.3188-1.6944 0.2567-2.7131-0.3435zm3.426-40.223c0-14.128-0.041-14.296-0.9489-16.142-0.9164-1.8028-3.3485-4.2804-4.2017-4.2804-0.2277 0-0.7194 0.6689-1.0895 1.4869-0.5725 1.2635-0.6972 3.5759-0.8297 15.366l-0.1572 13.879 1.0697 1.3851c1.3258 1.7172 3.3125 2.7942 4.9278 2.6729l1.2278-0.095zm-226.82 30.12c-0.4967-0.3352-1.4948-1.4522-2.2184-2.4783-1.9261-2.7302-6.3452-6.9323-8.9288-8.4909-3.6188-2.1824-9.4565-3.8611-11.608-3.3378-2.3485 0.5713-3.2249 2.6932-2.3431 5.6738 0.4624 1.5615-0.2028 1.9373-1.7171 0.9737-3.4243-2.1767-7.2482-9.6537-7.2489-14.173 0-3.9011 0.5265-4.8383 3.4408-6.1188 4.718-2.0727 8.3302-2.343 15.959-1.1925 3.4252 0.5162 4.0541 0.3518 5.134-1.341 1.5392-2.4142 1.3045-2.7172-3.5609-4.5929-13.233-5.102-21.616-11.607-23.587-18.302-0.9074-3.0824-0.8342-4.3388 0.4314-7.4058 2.6452-6.4103 7.7394-13.457 22.123-30.602l2.8278-3.3705 2.7078-0.1201c2.2064-0.095 3.4897 0.1366 6.9288 1.249 2.322 0.7509 5.0533 1.7158 6.0696 2.1443 5.9755 2.5202 11.421 3.5505 13.383 2.5331 0.4819-0.2485 3.4538-4.3872 3.9347-5.0422 1.1993-1.6318 3.0626-2.0338 4.7118-0.2152 2.9781 4.5229-3.6176 19.597-8.7267 26.597-1.2754 1.6754-1.3052 2.5675-0.1119 3.3759 8.053 5.4578 10.369 7.1877 13.003 9.7137 1.7117 1.6414 3.89 4.2547 4.8397 5.807 2.3633 3.862 2.8132 6.3842 2.1679 12.158-0.895 8.0081-2.8808 13.055-6.2806 15.963-9.6214 8.2279-22.73 17.808-27.633 20.195-2.435 1.1848-2.5223 1.1943-3.6975 0.3974zm18.834-17.054c1.7022-1.2105 3.2015-2.4711 3.332-2.801 0.3104-0.7873-0.7791-2.7933-2.1465-3.9479-0.5985-0.505-2.1964-1.4456-3.5509-2.0901-2.3481-1.1169-4.2436-1.718-13.444-4.2613l-4.0382-1.1165-1.5884 1.6501c-1.6223 1.6852-2.0359 3.2111-1.0776 3.9744 0.2816 0.2236 1.487 0.7149 2.6793 1.0912 3.1741 1.0022 10.73 6.0166 13.344 8.8555 1.3474 1.463 3.0182 1.1144 6.4893-1.3544zm11.105-13.699c0.6383-3.868-1.0337-7.2659-5.8406-11.87-3.9903-3.8218-8.8543-6.8491-12.154-7.5648-2.6639-0.5775-3.1498-0.4016-4.4551 1.6004-1.472 2.2602-1.3702 3.2967 0.4057 4.1172 0.7956 0.3684 1.7858 0.6686 2.2006 0.6686 1.6546 0 9.5741 3.7149 12.522 5.8737 1.5888 1.1633 2.4581 2.2785 4.0088 5.1423 1.0887 2.011 2.2192 3.6561 2.512 3.6561 0.3063 0 0.6461-0.6884 0.8006-1.624zm-30.651-16.921c1.2207-0.8676 3.0687-3.4185 3.0687-4.2352 0-1.2324-2.5794-2.4705-6.6421-3.1888-3.948-0.6971-6.0232-1.3698-9.8449-3.1895-3.9476-1.8803-9.6068-6.2282-10.672-8.1986-1.0605-1.9626-2.0838-1.4961-2.4539 1.1185-0.3478 2.4499 0.7086 4.2163 4.7312 7.9183 2.6709 2.4586 8.9784 6.5096 10.136 6.5096 0.24 0 0.7534 0.1698 1.1446 0.3767 2.2589 1.1996 7.6326 2.9362 9.7132 3.1395 0.2236 0.041 0.594-0.091 0.8193-0.2525zm11.139-20.02c1.1802-1.2439 2.5699-3.8892 2.5699-4.8922 0-0.7907-0.2691-0.8532-4.6042-1.0812-5.3661-0.2815-6.3886-0.5622-13.962-3.8243-6.7207-2.8944-8.9346-3.298-11.072-2.0185-2.6055 1.5607-2.4921 3.9828 0.2608 5.6216 3.1035 1.8468 9.2707 3.6218 20.517 5.9048 1.9928 0.4058 3.7269 0.8363 3.8532 0.9592 0.503 0.4868 1.6318 0.178 2.4353-0.6694zm140.3 65.304c-0.3353-0.3229-2.1489-2.5028-4.0311-4.8409-6.4099-7.9606-7.2378-9.5692-5.647-10.964 0.8371-0.7339 0.8512-1.0279 0.8512-18.159 0-11.245-0.149-17.685-0.4239-18.18-0.2733-0.4939-0.8566-0.7672-1.6369-0.7672-2.4713 0-1.5437-1.5469 7.1703-11.954 1.5785-1.8856 3.4049-4.1827 4.0581-5.105l1.1881-1.6765 0.7103 0.9123c0.9062 1.1641 1.2104 3.3701 1.2104 8.7719 0 4.7755 0.05 4.872 3.2741 6.8126 2.0491 1.232 2.8729 3.159 3.1552 7.3773 0.2815 4.2208 0.05 4.3897-3.2268 2.3517-3.3486-2.0826-3.2492-2.545-3.1138 14.415l0.1159 14.647 1.1483 0.9566c0.6313 0.5262 1.5983 0.9567 2.1481 0.9567 0.6188 0 1.0005 0.2276 1.0005 0.5982 0 0.5253-1.5958 4.1413-5.1977 11.775-1.1678 2.4763-1.8256 2.9714-2.7533 2.0723zm-98.686-1.2601c-0.6338-0.818-1.2592-1.576-1.39-1.6852-0.5428-0.453-5.6486-7.047-6.4517-8.3323-1.7283-2.7649-1.8438-3.4848-0.7133-4.4373l1.0163-0.8565v-16.683c0-10.341-0.1655-17.248-0.4285-18.17-0.3891-1.3516-0.5546-1.487-1.8392-1.487-0.7775 0-1.4129-0.1117-1.4129-0.2483 0-0.8143 2.9711-4.9742 6.6322-9.286 2.3227-2.736 4.8541-5.9268 5.6249-7.0908l1.4021-2.1167 0.9455 1.0656c0.8962 1.0097 0.9463 1.3743 0.9463 6.9227 0 6.5506-0.087 6.3329 3.4281 8.3741 2.047 1.1881 2.9478 3.2144 3.3071 7.4381 0.3436 4.0461-0.054 4.3582-3.1631 2.4854-3.5096-2.1145-3.3672-2.6949-3.3672 13.756 0 11.395 0.1159 14.479 0.5659 15.297 0.5104 0.924 1.186 1.3222 3.4226 2.0186 0.6719 0.2069 0.664 0.3559-0.1241 2.4055-0.4633 1.2005-1.5362 3.5704-2.384 5.2669-0.8479 1.6964-1.8956 3.9313-2.3282 4.9667-0.998 2.3902-2.0511 2.5037-3.683 0.3974zm244.96-0.8548c-2.9325-2.9595-4.7515-3.5796-7.0671-2.4098-0.8561 0.4327-1.7279 0.7861-1.937 0.7861-0.6123 0-2.0984-1.6777-2.7118-3.0612-0.5523-1.2451-0.4774-1.4484 3.0459-8.3277 1.9866-3.878 3.7203-7.4583 3.8528-7.956 0.3146-1.1769-0.7175-1.8367-4.196-2.6845-3.8275-0.9331-3.8685-1.0006-2.9971-4.975 0.7903-3.6044 1.0499-14.168 0.4057-16.465-0.4057-1.4411-0.3684-1.4825 3.416-3.816 3.1805-1.9605 8.1928-6.7318 8.9615-8.5305 0.7195-1.6832 1.3346-1.6244 2.8883 0.2731 0.8962 1.0975 1.965 1.8132 3.5824 2.3998 2.7934 1.0126 4.27 0.9194 4.8243-0.3064 0.6438-1.4223 1.5077-0.88 2.9744 1.865 1.0494 1.9647 1.2969 2.8199 1.0879 3.7637-0.2029 0.9212-4.5818 10.19-5.7728 12.22-0.095 0.1615 0.4372 0.6504 1.1794 1.0892 1.0242 0.6048 2.0666 0.7981 4.3172 0.799h2.9665l-0.041 1.2887c-0.041 0.7087-0.2815 1.6352-0.6139 2.0586-0.4566 0.5853-0.6011 2.0057-0.6011 5.9218 0 2.8332-0.207 6.736-0.4657 8.6725-0.3478 2.6333-0.3478 3.635 0 3.9728 1.391 1.3479-0.2608 3.6971-4.8239 6.8636-1.9022 1.3197-4.4179 3.6022-6.1342 5.5661-1.6003 1.831-3.1208 3.3287-3.3783 3.3287-0.2567 0-1.513-1.054-2.7897-2.3422zm5.5521-12.939c0.4559-1.0559 0.5767-2.7333 0.491-6.798-0.095-4.6335-0.2153-5.4581-0.83-5.8336-0.5025-0.3064-0.9182-0.3146-1.3947-0.041-0.6325 0.3849-3.0178 4.4289-3.5484 6.0148-0.1283 0.385-0.8884 1.8641-1.6857 3.2819-0.7973 1.4175-1.4505 2.9711-1.4517 3.4526 0 0.8093 0.2193 0.8849 2.9652 1.0116 1.6318 0.075 3.3904 0.1698 3.9086 0.2153 0.7257 0.062 1.0804-0.2442 1.5457-1.323zm-2.6013-21.301c1.1119-0.8399 4.8198-7.5354 4.8198-8.7036 0-0.9757-0.3147-1.241-2.716-2.2967-2.7844-1.2232-3.6441-1.4174-3.9683-0.8961-0.099 0.1614-0.3146 2.7184-0.4785 5.6779-0.2609 4.7535-0.2153 5.4581 0.3932 6.0475 0.8234 0.7977 1.0883 0.8209 1.9485 0.1698zm-190.54 33.994c-1.2506-0.9868-2.4187-2.0404-2.5951-2.3405-0.178-0.3022-1.2953-1.5582-2.4858-2.7947-2.7467-2.8526-2.95-3.8208-2.9532-14.042-9e-4 -4.2779-0.1947-8.4407-0.4244-9.2504-0.2773-0.9769-1.037-1.9609-2.2482-2.923-1.8194-1.4447-2.4755-3.1896-1.3148-3.498 0.2815-0.075 1.5238-0.3602 2.7624-0.6342 4.4257-0.9798 4.6493-1.8756 0.7559-3.034-1.8186-0.541-2.6088-1.005-3.029-1.7808-0.5191-0.9583-0.4636-1.2523 0.6417-3.3709 3.1975-6.1354 12.542-16.003 15.154-16.003 1.5446 0 5.5207 2.7098 8.7807 5.9834 2.9979 3.0108 7.0216 5.8207 8.8485 6.1785 1.5266 0.298 3.0024 2.9226 2.5988 4.6202-0.1656 0.6938-0.4297 7.061-0.5887 14.149-0.1572 7.0888-0.4326 13.29-0.6085 13.78-0.2774 0.7708-0.1821 0.8921 0.7075 0.8921 2.483 0 1.5672 2.4043-3.3242 8.7243-3.6623 4.7329-5.5082 6.5622-6.202 6.1466-0.2607-0.1573-1.1114-1.2473-1.8873-2.423-0.8151-1.2341-1.7083-2.1352-2.1149-2.1331-0.385 0-2.2486 1.2514-4.1371 2.776-1.8885 1.5242-3.5754 2.7715-3.7476 2.7715-0.1739 0-1.3376-0.8076-2.5886-1.795zm9.7278-10.634 1.2696-1.5229 0.1201-12.519c0.066-6.885-0.041-12.667-0.2236-12.849-0.4715-0.4571-5.5724 1.5068-6.5038 2.5036-0.6826 0.7294-0.7725 1.7167-0.8962 9.7857-0.1781 11.433-0.041 12.586 1.8487 14.714 1.7743 2.0093 2.6362 1.9869 4.3852-0.1119zm-4.8135-31.366c2.2577-1.037 3.8324-1.9973 3.8324-2.3385-1.5491-3.1647-8.0189-6.0215-10.629-4.2378-1.5598 1.076-1.8843 2.3158-1.2261 4.6837 0.6304 2.2714 1.8339 3.6515 3.1829 3.6515 0.5535 0 2.7314-0.7914 4.8394-1.7589zm63.165 42.81c-0.7857-0.5419-2.9747-2.6104-4.8653-4.5963-2.7168-2.855-3.5055-3.957-3.7666-5.2611-0.1822-0.9073-0.3396-5.2184-0.3478-9.5807-0.041-4.3619-0.2111-8.598-0.445-9.4131-0.2608-0.9087-1.2207-2.2416-2.4817-3.4442-1.7966-1.7138-1.9995-2.0662-1.6049-2.781 0.2483-0.4504 0.832-0.8188 1.2957-0.8188 0.464 0 1.8388-0.2815 3.055-0.6231 3.142-0.8851 3.0427-1.826-0.2939-2.7951-1.6174-0.4693-2.7281-1.0543-3.13-1.6488-0.5717-0.8453-0.5423-1.0887 0.3602-2.9722 1.9556-4.0888 9.1229-12.654 12.744-15.231 1.6376-1.1644 2.2072-1.3652 3.2835-1.1566 1.9336 0.3767 4.1624 1.9754 8.3704 6.0116 3.4677 3.3262 7.6575 6.1217 9.1751 6.1217 0.9016 0 2.5566 3.3862 2.1745 4.4501-0.178 0.4968-0.4566 6.7029-0.6189 13.791-0.1614 7.0888-0.4255 13.364-0.5857 13.946-0.2484 0.9077-0.1532 1.0763 0.6698 1.1897 1.7925 0.2483 1.4795 1.9679-1.0172 5.598-2.8563 4.1533-7.5569 9.4955-8.1811 9.2985-0.2608-0.083-1.1778-1.1199-2.0317-2.303-0.8541-1.1834-1.8199-2.2088-2.146-2.2788-0.6835-0.149-2.0781 0.7613-5.4039 3.52-1.2961 1.0746-2.4502 1.9559-2.5658 1.9576-0.1159 0-0.8519-0.4397-1.638-0.9811zm8.071-10.615c2.1176-2.2437 2.1655-2.5889 2.1655-15.522 0-6.6504-0.1532-12.186-0.3519-12.301-0.4057-0.2443-5.237 1.5221-6.2946 2.2987-1.0665 0.7829-1.7007 7.4626-1.398 14.718 0.298 7.1901 0.6267 8.6232 2.3624 10.359 1.5698 1.5693 2.3613 1.6703 3.5151 0.447zm-7.3432-30.794c0.3891-0.1987 2.0396-0.9451 3.664-1.6621 1.624-0.7165 3.0372-1.5164 3.1403-1.7767-1.0478-3.6483-8.4221-6.2166-10.769-4.2969-1.4083 1.1487-1.6152 2.5445-0.7289 4.9216 0.9678 2.5959 1.4707 3.1721 2.764 3.1721 0.6706 0 1.5387-0.1614 1.9295-0.3602zm-102.5 41.104c-1.121-1.1889-8.7144-12.227-8.7144-12.667 0-0.1904 0.3933-1.4551 0.8743-2.8112 0.8052-2.2714 0.8901-3.5158 1.0776-15.78l0.2028-13.314-1.0772-0.8213c-0.5923-0.4516-1.077-1.0374-1.077-1.3019 0-0.4491 3.4499-5.449 7.0365-10.198 0.89-1.1786 1.7887-1.9846 2.0876-1.8732 0.2898 0.1076 0.8864 1.1069 1.3276 2.2214 0.9629 2.4328 3.4624 5.3276 4.3234 5.0077 0.8313-0.3105 2.7943-3.1366 3.4384-4.9523 0.294-0.8291 0.7477-1.5081 1.0072-1.5081 0.5055 0 7.342 12.306 7.3653 13.258 0.041 0.3104-1.0395 1.8996-2.3265 3.5282-3.6234 4.5842-3.9049 4.7605-4.7047 2.9432-0.2608-0.5998-1.3905-2.3061-2.5032-3.7915-1.4448-1.9273-2.1502-2.5781-2.4644-2.2739-0.298 0.2898-0.445 5.5981-0.455 16.58l-0.041 16.154 1.1257 1.5793c1.5631 2.1936 1.4476 3.0261-0.6525 4.6935-1.3321 1.0578-2.0048 2.0144-2.6821 3.8152-1.0039 2.6675-1.7663 3.028-3.1954 1.5113zm181.17-2.2263c-1.6882-1.6654-4.7002-4.4555-6.693-6.2007l-3.6239-3.1723 0.063-15.069c0.041-8.288 0.2318-15.783 0.4355-16.656 0.3146-1.3251 0.2484-1.7076-0.3809-2.324-0.6354-0.621-0.6904-0.9679-0.3435-2.1816 1.28-4.4977 6.5025-12.019 7.8375-11.287 0.8677 0.4756 4.1442 3.0377 5.6768 4.4385 1.8602 1.7006 1.9423 2.7582 0.4056 5.2077l-1.1206 1.7841-0.1159 15.758c-0.087 11.03 0.041 16.005 0.3353 16.583 0.5485 0.9927 3.9492 3.1515 4.9647 3.1515 0.3974 0 0.9149-0.3436 1.1479-0.7671 0.2733-0.4959 0.4198-6.9024 0.414-18.142l-0.041-17.376-1.2167-1.1566c-1.9522-1.8566-1.6662-2.7574 2.0256-6.3775 1.7792-1.7453 3.4255-3.1726 3.6573-3.1726 0.4173 0 5.0321 5.3785 7.7246 9.0033 1.0701 1.4401 1.2957 2.0271 0.9922 2.5772-0.7699 1.3951-1.2927 9.5345-1.2927 20.129 0 9.8424 0.066 10.88 0.7902 12.255 0.7803 1.4825 0.7803 1.5259 0 3.2782-1.032 2.3332-3.8333 6.9381-5.8687 9.6471l-1.6261 2.1646-1.3516-2.7595c-0.7439-1.518-1.7242-3.0058-2.1791-3.3068-0.7497-0.4951-0.9522-0.4181-2.153 0.8173-0.7291 0.75-1.8782 2.4588-2.5534 3.7972-0.9091 1.8016-1.4402 2.4267-2.0462 2.4089-0.4583-0.041-2.1708-1.3579-3.8884-3.0518z" color="#000000" enable-background="accumulate" fill="#a40000" fill-rule="evenodd"/></g><g transform="translate(-512.03 364.45)"><g transform="matrix(.90626 0 0 .90626 -746.49 91.513)"><g transform="matrix(1.6281 0 0 1.6281 -1395 577.92)"><path transform="matrix(.62996 0 0 .62996 906.64 -453.23)" d="m-1218.8 674.13-27.301 0.60157c-4.8012 6.6184-34.195 2.3816-20.516 53.978 2.6044 9.8239-4.9572 8.8624-6.5 17.465-0.2665 1.4857-4.3295 2.6065-6.9453 0.14453-0.9874 2.8531-0.9557 6.7856 2.0547 9.1348l5.8398-4.9531c4.9664 0.52923-0.5234 6.9316-0.5234 6.9316l78.773 0.375c2.0599-31.851-16.232-53.963-24.883-83.678z" fill="#c00"/><path d="m118.29-18.875c-2.2095 0.74391-7.7706 2.9641-8.9348 4.8404-1.6339 7.5451 2.5318 15.589 1.8808 23.616-0.26759 1.9055-1.612 3.3503-2.8116 4.748 1.084-0.54479 2.35-1.7272 3.4667-2.5661 1.4374-1.0964 2.0703-3.0456 1.4702-4.7661-0.27725-1.8242 1.3212-3.2088 2.426-4.4347 2.7412-2.6108 5.8502-4.8721 9.2471-6.553-2.324-4.4-3.2491-9.4141-5.6882-13.764-0.28049-0.42489-0.55739-0.92589-1.0562-1.121zm-11.126 32.359c-0.92197 2.3447-2.7618 4.4606-5.231 5.2918-1.5805 0.2787 0.0845 2.8952 1.2891 1.6079 2.5395-1.2423 3.6981-4.2832 3.9419-6.8996z" opacity=".2"/><path d="m139.06-28.556-17.197 0.3789c-3.0245 4.1693-20.791 1.1875-12.174 33.691 1.6407 6.1886-3.78 6.4578-4.752 11.002-0.10094 0.47196 1.2875-1.7159 1.3945-2.3125 1.6594-3.388 5.8444-1.9071 4.2037-8.0957-8.6172-32.504 9.01-30.116 12.035-34.285l16.494-0.36328c-2e-3 -0.0052-2e-3 -0.01043-4e-3 -0.01562z" fill="#fff" opacity=".4"/></g><g transform="matrix(1.5784 0 0 1.5784 -1287 100.04)"><path transform="matrix(1.0315 0 0 1.0315 78.966 389.26)" d="m16.094-96.93c-0.37003-0.0126-0.91154 0.11025-0.99609 0.4707l-8.209 33.445c-0.054192 0.23025 2.0984 2.4046 3.0098 3.3184h5.2129l0.74881-3.1534-0.41703-1.7571 0.95676-0.9315 0.7884-3.5744-1.2562-1.3 1.5013-0.65487 5.1897-24.707c0.11287-0.47693-0.23869-0.9366-0.72852-0.95312z" color="#000000" enable-background="accumulate" fill="#2d3c50"/><path transform="matrix(1.0315 0 0 1.0315 78.966 389.26)" d="m16.881-96.154-8.3144 35.092 1.334 1.3672h3.5938l0.90772-3.8013-0.45922-1.4181 0.97247-1.1147 0.65956-2.94-1.3217-1.8407 1.8861-1.0116 5.2984-23.241z" color="#000000" enable-background="accumulate" fill="#618599"/><path d="m101.74 272.36c-2.0865-4.5e-4 -3.7954 1.7084-3.7949 3.7949 5.09e-4 1.1432 0.60385 2.133 1.4688 2.8457l-2.5353 8.0488c-2.5504-0.38628-4.7915-0.75846-7.3046-1.127-0.32459-0.0481-0.64506 0.10979-0.80469 0.39648l-2.5528 4.8557c-0.28286 0.5105 0.06749 1.1407 0.65039 1.1699l8.0098 0.42967c-0.39995 2.0618-1.9784 15.125-0.95326 17.11 1.8831-0.80574 6.0579-14.857 6.6989-16.243l1.0567 0.40784 0.23686 0.0914 6.4122 2.2464c0.56583 0.20796 1.1463-0.27002 1.0508-0.86524l-0.49212-5.2208c-0.0488-0.30223-0.26807-0.54893-0.5625-0.63281 0 0-4.0425-1.3119-6.668-1.8829l1.4452-8.1523c1.4291-0.56221 2.4309-1.9059 2.4336-3.4766v-2e-3c4.5e-4 -2.0866-1.7084-3.7954-3.7949-3.7949z" color="#000000" enable-background="accumulate" fill="#2d3c50"/><path d="m101.74 273.14c-1.6602-3.6e-4 -3.0062 1.3456-3.0059 3.0059 4.84e-4 1.089 0.59004 2.0925 1.541 2.623l-2.2129 9.4746c-2.7884-0.44065-5.5117-0.75794-8.2812-1.1641l-2.1645 3.8887 8.5121 0.72262c-1.048 4.8976-2.3416 18.353-2.1025 17.699 0.0636 0.67326 5.6872-15.478 6.0778-17.18l8.2392 2.9105-0.75084-4.64s-5.0095-1.5277-7.3953-1.9654l2.954-9.9494c1.3592-0.31621 1.5924-1.025 1.5948-2.4204 3.6e-4 -1.6602-1.3456-3.0062-3.0059-3.0059z" color="#000000" enable-background="accumulate" fill="#425b68"/></g><path d="m-1136.9 561.25-12.713 52.56 1.8484 1.9706c1.5955-7.0527 8.3439-29.049 8.3439-29.049 1.1234-17.104 2.5204-25.482 2.5204-25.482z" fill="#fff" fill-rule="evenodd"/><path d="m-1130.1 547.88c-0.6838 0.0116-1.1242 0.16734-1.1684 0.41309-0.075 0.3981 0.8957 0.91058 2.1672 1.1437 1.2708 0.23349 2.3604 0.0995 2.4323-0.29904 0.075-0.39809-0.8957-0.91058-2.1672-1.1437-0.4406-0.081-0.8794-0.12061-1.2639-0.11412zm-0.8355 3.0704c-0.6837 0.0116-1.1241 0.16734-1.1683 0.41309-0.07 0.39783 0.8996 0.90813 2.1672 1.1406 1.269 0.23263 2.3564 0.0988 2.4291-0.29903 0.07-0.39783-0.8996-0.90812-2.1671-1.1406-0.4394-0.0808-0.877-0.12037-1.2609-0.11411zm-13.934 1.8497-0.3946 1.1838 28.312 4.7351c-3.8705-1.568-7.8405-2.5746-11.85-3.354 0.3934-0.0627 0.63-0.19308 0.6659-0.36686 0.076-0.39776-0.8932-0.91014-2.1641-1.1437-0.4406-0.081-0.8794-0.12061-1.264-0.11412-0.6837 0.0116-1.1241 0.16734-1.1683 0.41309-0.031 0.18456 0.1646 0.40295 0.5456 0.61039-4.2196-0.70018-8.4653-1.2493-12.682-1.9637z" color="#000000" enable-background="accumulate" fill="#fff" opacity=".4"/><path d="m-1123.2 523.2c-4.4305 0.1616-9.1185 1.1816-9.1185 1.1816l-18.964-0.51345c-3.2262 11.751 1.6794 17.576 5.453 27.407 0.3613-0.43507 9.1322-8.9992 12.159-12.184 0 0 1.7444 5.369 2.5193 5.9502 1.2593 0.64578 5.3334 2.3911 8.6966-0.94082l0.628-1.1788 9.3993-3.1994c1.3274-7.6401-4.1426-15.483-4.1426-15.483-1.4065-0.92375-3.9716-1.1358-6.6301-1.0389z" color="#000000" enable-background="accumulate" fill="#2d3c50"/><path d="m-1174.9 525.43c-1.8522 0.0329-3.843 0.59781-6.1118 0.59781-4.3658 0-8.4199 2.3243-11.772 6.2803-5.1767-0.4115-9.8283-2.2832-13.537-0.69624-19.199 6.3775-24.626 19.435-25.808 26.998 7.0287-0.47912 10.629-1.2785 19.341-2.5371l10.761-5.7504c2.8297 13.018-1.5245 33.558-3.5589 42.773-1.2016 2.6346-2.2153 4.2468-1.7267 5.2691 1.8528 2.1567 4.5397 1.2584 8.1279 1.326-0.8368 2.85-1.4023 6.1808-1.0558 8.8751-4.9278 1.3222-9.4518 4.8988-10.398 9.3062h63.054c-5.4264-5.276-13.663-9.1954-20.412-9.9262 2.3535-3.0614 3.449-6.0594 4.1688-9.4857 5.3211-0.76188 11.509-1.5627 12.549-3.3674-0.3793-13.304-3.5757-33.34-4.8446-41.915-0.078-0.52889-0.739-5.2206-0.819-5.6609l1.2163 3.9765 10.177-4.5748c1.9381 1.0052-1.356-17.967-3.8969-17.897-2.7175 0.75323-12.319 1.6615-14.915 2.3779-1.4888 0.41076-3.8681-3.7786-5.2595-3.3802-1.7131-2.1224-3.4265-2.6214-5.2787-2.5884zm-1.8157 74.105v3e-3c-0.6474 2.818-0.6703 5.5412-0.067 7.6286-4.455-0.29154-8.6541 0.54035-12.777 0.35933-0.095-3e-3 -0.1853-6e-3 -0.2798-0.01 1.1588-2.4776 1.8902-5.1856 2.1051-7.7367 3.5647-0.0169 7.3166-0.0901 11.018-0.24486z"/><path d="m-1178.2 482.63c-5.242-0.0211-12.483 1.0307-18.429 2.7375-2.9723 0.8532-5.6107 1.8567-7.5682 3.0735-0.9766 0.60713-1.8088 1.2697-2.4045 2.0993-0.5374 0.7485-0.7922 1.7011-0.6844 2.6666 1.489 12.716 3.181 25.512 4.7988 38.248 0.067 0.52283 0.403 0.976 0.8847 1.1899 6.1343 2.7188 12.067 4.1537 17.14 4.584 5.0707 0.43011 9.2743-0.0857 12.121-1.5814 0.6073-0.31827 0.9264-1.0124 0.7707-1.6801l-0.01-0.0462 2.7005 0.74294c0.1153 0.0315 0.2386 0.0124 0.3391-0.0524l7.8518-5.0773c0.3694-0.21001 0.548-0.58374 0.6288-0.94331 0.081-0.35958 0.071-0.72907-0.032-1.0605-0.1488-0.48522-0.9576-3.6013-1.9853-7.6884-1.0278-4.0875-2.3197-9.2847-3.5852-14.393-2.5311-10.217-4.954-20.09-4.954-20.09-0.013-0.0467-0.026-0.0949-0.043-0.14174-0.2388-0.67751-0.6971-1.1649-1.2361-1.492-0.5402-0.3278-1.159-0.51557-1.7788-0.66588-1.2567-0.3048-2.779-0.42146-4.5254-0.4285zm4.917 21.65 0.5117 2.5124-2.5093 1.4982c-0.5565 0.33202-0.8387 0.98548-0.6998 1.6184l-0.01-0.0246 2.5679 16.11-3.6191-15.589c-0.1683-0.72288-0.8445-1.219-1.5846-1.1622l-6.819 0.52099-0.7152-3.0365c3.4243 0.16602 6.5134-0.18457 8.9338-0.87549 1.6932-0.48334 2.9132-1.0328 3.9397-1.5722z" color="#000000" enable-background="accumulate" fill="#2c3e46"/><path d="m-1194.9 501.3 5.7674 33.496 8.5591 0.50005c3.0089-1.8243 6.1541-2.3374 9.5447-2.9244l2.5355-1.0642-1.8872-35.321z" fill-rule="evenodd"/><path d="m-1178.2 484.13c-10.059-0.0405-28.752 4.155-27.615 9.0972l4.8313 38.029c11.968 5.3046 23.133 5.576 27.951 3.045l-5.1537-23.179-8.4187 0.23847-3.4279-6.182c8.233 1.0057 18.329-3.327 19.88-4.5434l-0.1117 0.71059 0.1932 5.9848-4.4301 2.2469 5.4361 23.311c1.2765-1.0533 7.5407-4.9227 7.5407-4.9227-0.8462-2.7584-10.549-42.255-10.549-42.255-0.3804-1.0836-2.7723-1.5679-6.1254-1.5815z" fill="#425b68"/><path d="m-1170.2 501.32-1.131 0.7055-0.113 4.6541-4.3204 2.0412 4.577 23.656 2.2251 0.49324-4.4963-23.163 3.5916-2.2439zm-9.0053 8.1781-7.5678 1.0175 0.3407 1.5384 8.243-0.87531z" fill="#70979f"/><path d="m-1171.7 484.84c0.3426 1.6925-6.8757 5.5984-15.753 7.2311-8.8768 1.6327-18.251 1.3908-18.593-0.30169-0.3426-1.6925 7.6845-5.0581 16.561-6.6908 8.8769-1.6328 17.442-1.9311 17.784-0.23854z" color="#000000" enable-background="accumulate" fill="#2c3e46"/><path d="m-1198.5 531.9c-3.7636-36.596 4.9008-44.658 10.658-47.167-6.0237 0.39336-14.778 2.584-18.367 7.4117 0.3624 1.6309 5.6453 38.502 5.6453 38.502z" opacity=".3"/><path d="m-1148.7 526.23c2.3317 2.9266 5.7525 12.646 4.9994 20.633 3.2654-4.3096 5.4327-6.2064 9.8372-10.353 2.3126 0.69447 4.07 6.2871 4.07 6.2871 1.9272 1.0858 4.946 1.7443 6.5337-1.5846 0 0-2.8452-5.0357-3.4702-7.2894 2.1875 1.4057 8.1533-1.5033 8.1533-1.5033 0.1926 0.18283-3.5231 2.2969-3.7908 2.8642-0.051 0.10573 2.9025-0.11817 2.8712 0.0393-0.038 0.19088-2.7783 1.0061-2.8018 1.2314-0.1538 1.4753 1.1629 2.9576 1.4851 2.8286l6.2643-2.5075c1.04-1.3307-2.9972-11.234-2.9972-11.234-0.1652-0.82599-8.3021-0.95249-14.189 0.9577-4.6287 0.0941-16.462-0.97367-16.965-0.36971z" color="#000000" enable-background="accumulate" fill="#618599"/><path d="m-1148.8 526.03 2.5053 4.0338 15.1-1.4789s2.3507-1.6032 13.137-2.9756l-13.911 1.0591z" color="#000000" enable-background="accumulate" fill="#fff" fill-rule="evenodd" opacity=".6"/><g transform="matrix(1.6281 0 0 1.6281 -1388.6 585.4)"><g transform="translate(23.423 -3.9775)" fill-rule="evenodd"><path transform="matrix(1.9613 0 0 1.9613 -274.66 -10.474)" d="m189.06-32.21c-3.3091-0.24255-7.6514 0.31098-8.5322 2.5412-6e-3 0.02516 1.0135-0.10871 1.7238-0.13792-0.91854 0.07454-4.6517 1.0918-4.7719 3.3636-0.16274 0.12634 1.6978-0.27987 1.6978-0.27987-3.4596 1.9729-4.4954 3.0766-3.8203 5.4016 8e-3 0.19866 0.47749-0.37786 1.4658-1.0421-3.1782 4.0764 2.4087 9.2084 6.3399 11.098 0.49486 0.2895-0.73314-1.2801 0.32786-3.8881 0.13853-0.3405-1.2846-1.1403-1.3646-1.4534-0.14661-0.78973 1.9209-0.88538 0.37999-2.7525 0.83206-1.1028 2.5546-0.83331 3.7568-1.613 0.63792-0.42408 0.97114-0.95032 1.1953-1.3438 0.22418-0.39343 0.34334-0.62375 0.625-0.82617 0.28167-0.20242 0.7962-0.41411 1.8535-0.51758 0.50828-0.04974 0.77946-0.2787 1.0098-0.38672 0.2303-0.10802 0.25394-0.0822 0.21875-0.10156 0.20861 0.11433 0.46227 0.10912 0.66601-0.01367 4.7714-1.8255 0.92405-7.5945-2.7713-8.0478z" fill="#800000"/><path d="m100.9-58.985c4.905-0.02871 4.8311-8.0735-0.83677-11.9-3.4414-2.3233-11.155-1.9867-18.858 1.5386-0.20262 0.09272 6.9306-1.391 10.146 0.58285-4.9551-1.4238-14.319 1.804-16.434 5.317 3.4624-0.9628 8.9553-2.5465 9.8334-2.8056-6.5679 2.9814-13.04 6.9138-13.999 11.124-0.25461 0.48331 5.4124-2.5817 9.9965-4.6669-5.5221 4.0218-9.033 3.5144-8.954 10.553 0.18727 8.3713 12.344 15.907 12.344 15.907s-2.0544-4.1493-0.96596-6.2414c0.89232-1.7152-1.7796-1.985-2.0796-3.4601-0.11919-1.0497 0.83579-1.9177 0.83579-1.9177-0.63947 0.56911-3.6571 0.40451-3.5587 0.14745 0.10966-0.23566 1.8975-0.50444 2.8272-3.7078-0.78747 1.1279-2.27 0.80777-2.27 0.80777-0.11994-1.7807 1.6568-1.8536 4.0693-3.3302 11.523 7.0001 14.694-3.9044 15.135-7.2317 0.90422-0.14894 1.7648-1.2682 2.7701-0.71534z" fill="#c00"/><path transform="translate(142.85 83.852)" d="m-47.812-154.36c0.63234 1.0062 1.9513 1.8373 3.1934 2.9004-1.8802-1.1388-11.392 0.41009-13.174-0.19922 2.3027 2.096 15.781 0.27028 15.133 8.416l0.25195-0.0899c0.42939-3.2166 0.12604-5.1036-0.60547-6.4492 1.1486 1.587 1.9498 3.0077 0.71289 6.3887l0.25391-0.13868c5.985-10.387-2.2017-8.981-5.7656-10.828zm-2.8984 6.0859c-4.3535-0.14824-9.8195 1.1503-14.707 3.6367 3.0215 0.75262 19.255-6.0387 22.549 1.4395l0.18945-0.0332c-0.43694-3.3006-3.6778-4.8947-8.0312-5.043z" color="#000000" enable-background="accumulate" opacity=".2"/><path transform="translate(142.85 83.852)" d="m-49.402-156.22c-3.5774 0.0593-7.9148 1.0326-12.248 3.0156-0.1311 0.06 2.8069-0.52746 5.7695-0.42383 2.7924-0.80617 5.426-1.6209 9.8008-2.3438-1.0029-0.18365-2.1185-0.26798-3.3223-0.24804zm-9.5488 3.8848c-3.924 0.97148-7.7316 2.9468-8.9863 5.0312 0.79642-0.22146 1.7733-0.42523 2.7037-0.68872zm-5.5443 5.6497c-4.6264 2.2177-7.1732 5.7917-7.608 7.6999-0.11825 0.22446 1.1111-0.35635 2.8457-1.209 0.12302-2.1171 3.8685-4.9867 4.7623-6.491zm-4.7389 7.6667c-1.2087 1.202-1.8627 2.8371-1.8281 5.918 0.06887 3.0785 1.7608 6.0413 3.8672 8.5605-2.5733-4.5158-2.8213-9.6173-2.0391-14.478z" fill="#fff" opacity=".3"/><path d="m83.397-51.611c0.0818-0.10629 8.4804 3.8567 13.939-4.5618-0.32871 1.1396-4.4022 11.281-13.939 4.5618z" color="#000000" enable-background="accumulate" opacity=".3"/><path d="m94.976-55.9c-1.9722 4.5679-7.6318 3.3212-11.415 2.6309-2.4104 1.602-6.9662 5.3018-8.2107 0.36588-0.4091-3.9805 4.7549-3.5866 6.2273-6.6923 3.1807-2.1897 6.4346 2.2127 10.039 0.80854 1.9574-0.51581 5.8936 0.23176 3.3591 2.887z" color="#000000" enable-background="accumulate" fill="#fff" filter="url(#a)" opacity=".3"/></g><g transform="translate(-3.2704 -4.773)"><path d="m124.83-55.639 0.0459-3.1153 2.6607-0.55321 1.6342 2.9071c-1.2472 0.91349-2.8231 1.337-4.3408 0.76144z" color="#000000" enable-background="accumulate" fill="#888a85"/><path d="m127.78-60.103c1.0002 0.42131 0.6989 1.4234 0.4011 1.7127-1.2777 1.0683-2.9008 0.86915-3.6601 0.46836l-0.20697-1.1004c0.46218-0.57018 2.3498 0.30469 3.4659-1.0807z" color="#000000" enable-background="accumulate" fill="#d3d7cf"/></g></g><ellipse transform="matrix(.50381 .86382 -.86382 .50381 0 0)" cx="-157.46" cy="1273.2" rx="1.3228" ry="1.1193" color="#000000" enable-background="accumulate" fill="#fff"/><ellipse transform="matrix(.11978 .9928 -.9928 .11978 0 0)" cx="360.12" cy="1227.7" rx="1.3228" ry="1.1193" color="#000000" enable-background="accumulate" fill="#fff"/><g transform="matrix(.99678 .080233 -.080233 .99678 126.54 14.616)"><g transform="matrix(.85612 -.16382 .16382 .85612 -301.29 -120.18)"><path d="m-1279.5 637.1c-10.083-2.2101-22.978 7.1079-30.276 12.581 6.7242 3.7191 5.2015 13.692 21.423 12.294 0 0 0.2641 0.40834 0.6156 1.1231-1.3454-0.80858-5.0581 3.1554-5.0581 3.1554-1.3301 4.1325 4.2638 8.1636 4.2638 8.1636 1.2494 3.4923 5.3965 4.7716 6.1999 4.7324 2.5164-0.12265 6.2159-0.67289 9.2466-1.6821 0.3167-0.10547 0.377-1.217 0.6935-1.3136 1.6302-0.49705 3.4899-0.38133 4.932-1.0279 0.3616-0.16212 0.1722-1.1286 0.5186-1.2971 2.0331-0.98877 3.7044-1.2796 5.052-2.3402l1.2376-10.794c-3.5159-4.2863-13.256-8.871-13.256-8.871z" color="#000000" enable-background="accumulate" fill="#2d3c50"/><path d="m-1305.9 649.85c2.413-2.1087 8.4629-10.071 25.45-10.748 0 0 3.0045 11.457 5.9583 14.046 7.3207 4.7671 10.742 7.1133 12.043 8.049l-1.158 8.8469c-0.1597 1.2201-1.598 1.7706-3.3196 2.178l0.4956-5.0993c-0.5757 1.8304-1.9145 4.4871-2.4026 6.1217-1.2867 1.1746-3.2165 1.3099-4.1313 1.3167-0.2864 0.11131 1.7253-3.5838 0.3676-5.4584-0.4115 0.91244-1.9952 5.7951-2.4589 6.0264-4.7565 2.2337-11.14 1.3472-11.702-2.5294-2.1928-1.4042-3.9182-3.7635-3.5207-5.1738 0 0 2.0508-2.0591 4.0732-1.732 0.327-0.17328 0.4405 3.468 2.427 5.0587 1.9916-6.9258-3.7291-5.7436-3.8646-14.221l-0.609 3.5592c-15.2-1.4465-12.496-7.2996-17.648-10.24z" color="#000000" enable-background="accumulate" fill="#618599"/><path d="m-1281 639.31c-8.0581-0.91114-18.455 5.435-23.858 10.166 2.5834 2.9428 2.3624 6.1565 8.0403 8.4274 4.6362-6.0223-4.1352-14.062 15.986-17.127 0.5942-0.76857 0.1931-0.65092-0.1679-1.4661z" color="#000000" enable-background="accumulate" fill="#fff" fill-rule="evenodd" opacity=".4"/></g><path d="m-1302.6 640.32c0.1802 0.33467-7.9387 5.4332-9.671 9.2564 5.1691 6.1281 9.1852 6.4546 16.04 6.4055 0.1951-1e-3 -0.1381-3.4718 0.063-3.4735 0 0 0.8303 3.3997 1.2142 3.3967l2.0322 2.5829c2.3269 2.2722 2.7546 3.2964 2.4349 6.3059l-3.1037-4.2603c-1.7568 0.48671-2.0065 1.2246-2.8708 1.8601 0.3995 1.1256-0.3513 2.1406 3.891 4.141 1.5624 2.219 3.2738 2.3454 4.2813 2.25 1.4837-0.14051 1.1414-1.3308 2.2111-2.4914l0.8964-8.2926c-5.4311-2.9959-3.4349-3.9122-6.7331-6.1964-0.2911-0.2016 5.9911-3.7022 5.9911-3.7022s-8.9205 2.6478-9.1552 2.6002c-9.6426 0.4826-17.193-1.126-7.5218-10.382z" color="#000000" enable-background="accumulate" fill="#fff" fill-rule="evenodd" opacity=".3"/><path d="m-1284.5 657.91c3.1322 0.57279 9.4548-1.8043 10.626-5.5104l1.2313 9.5255c-4.4282 3.5461-10.615 5.5224-15.043 7.4573 0.3863-0.45531 1.7594-1.4316 2.0324-2.424 0.7907-2.8739 1.1532-9.0484 1.1532-9.0484z" color="#000000" enable-background="accumulate" fill="#2d3c50" opacity=".7"/></g></g></g><g transform="matrix(1.1406 0 0 1.1406 -575.32 189.48)"><g transform="matrix(1.1731 0 0 1.1731 710.55 145.67)"><path d="m-1914.9 442.17-0.513 0.0642-0.4442 0.70639c-2.2802 3.5711-3.0628 5.0219-3.3944 6.3118-0.1584 0.61724-0.1352 0.86669 0.1212 1.4509 0.5563 1.269 2.329 2.3915 4.9896 3.1646 0.978 0.28423 1.0269 0.3419 0.7984 0.83667-0.1601 0.34697-0.2755 0.39002-0.9423 0.34623-1.4855-0.0975-2.1666 0.0103-3.0101 0.49245-0.5212 0.29702-0.595 0.48748-0.4899 1.246 0.1226 0.8786 1.0529 2.271 1.7644 2.6375 0.315 0.1623 0.428 0.0784 0.2977-0.21757-0.2484-0.56482-0.1355-0.99339 0.2966-1.1432 0.3962-0.13725 1.5561 0.0904 2.3049 0.45479 0.5348 0.26027 1.4878 1.0068 1.9286 1.5058 0.1659 0.18756 0.3867 0.38954 0.4903 0.44684 0.2455 0.13569 0.2645 0.13088 0.6968-0.13967 0.8705-0.54502 3.1066-2.6247 4.7192-4.3834 0.5697-0.62146 0.8118-1.6358 0.7665-3.2075-0.032-1.1331-0.1834-1.6181-0.738-2.3298-0.2231-0.28616-0.711-0.7528-1.0817-1.0436-0.5702-0.4475-1.0525-0.746-2.7348-1.6739-0.2492-0.13746-0.2697-0.31486-0.072-0.66167 0.4667-0.81736 0.9002-2.7034 0.8439-3.6638-0.034-0.57892-0.039-0.59252-0.3255-0.85124-0.3637-0.32663-0.603-0.3217-0.7875 0.0154-0.075 0.13527-0.2079 0.2929-0.2928 0.34941-0.3469 0.23035-1.4133 0.12238-2.6204-0.26874-0.2054-0.0665-0.7524-0.21019-1.2153-0.31781-0.6858-0.15942-0.938-0.18204-1.3561-0.12715zm-0.629 2.9442c0.3375-0.0164 0.8298 0.10111 1.6793 0.38342 1.532 0.50902 1.7308 0.54827 2.7616 0.51438 0.8329-0.0272 0.8871-0.0208 0.9084 0.13284 0.029 0.19505-0.1654 0.73504-0.3571 0.99639-0.1303 0.1778-0.3357 0.25726-0.4446 0.17082-0.029-0.0218-0.3761-0.0794-0.767-0.12534-2.2056-0.25799-3.4258-0.50344-4.0674-0.81116-0.5696-0.27313-0.6591-0.74013-0.2044-1.0866 0.1401-0.10626 0.2887-0.16443 0.4911-0.17484zm-1.9773 2.6314c0.075-0.0154 0.1722 0.0542 0.2838 0.21344 0.256 0.36548 1.4544 1.1175 2.2576 1.4177 0.7779 0.29066 1.192 0.38103 1.9633 0.45137 0.794 0.0726 1.3158 0.27166 1.349 0.51122 0.022 0.15886-0.2584 0.68495-0.4677 0.87376-0.04 0.0349-0.1083 0.0667-0.1514 0.066-0.4022-5e-3 -1.4736-0.25778-1.9365-0.45366-0.08-0.034-0.1829-0.0569-0.2284-0.053-0.2205 0.0192-1.5314-0.66641-2.1068-1.1002-0.8665-0.65327-1.1187-0.97499-1.1187-1.4569 0-0.28935 0.061-0.44937 0.1558-0.46977zm7.2946 2.7531c0.1019-0.0192 0.2352-4e-3 0.4313 0.022 0.6483 0.0845 1.6609 0.59187 2.525 1.2689 1.0403 0.81549 1.4481 1.4477 1.4307 2.2102-0.013 0.18443-0.051 0.32176-0.1083 0.32682-0.056 5e-3 -0.313-0.29796-0.5749-0.67093-0.3728-0.53105-0.5715-0.73329-0.9057-0.93322-0.62-0.37092-2.2293-0.95729-2.5448-0.92992-0.08 7e-3 -0.2731-0.0362-0.4347-0.0945-0.3607-0.13018-0.4106-0.33313-0.1906-0.79681 0.1213-0.2569 0.2019-0.37085 0.3724-0.40262zm-1.526 3.9081 0.7978 0.15563c1.8226 0.34242 2.2022 0.42249 2.6799 0.60083 0.2756 0.1029 0.6038 0.26487 0.7316 0.35316 0.2919 0.20182 0.5542 0.57073 0.5159 0.72896-0.015 0.0665-0.2677 0.33385-0.5597 0.59734-0.5952 0.53737-0.9032 0.63728-1.1993 0.37514-0.5749-0.50871-2.1529-1.3619-2.785-1.5042-0.2375-0.0535-0.4786-0.12611-0.5382-0.16495-0.2033-0.13248-0.1666-0.44092 0.097-0.79532l0.2597-0.34654z" color="#000000" enable-background="accumulate" fill="#f57900"/></g></g></g></svg>
