<?xml version="1.0" encoding="UTF-8"?>
<svg width="316.58px" height="154.87px" baseProfile="tiny" version="1.2" viewBox="122.28 6.458 316.58 154.87" xml:space="preserve" xmlns="http://www.w3.org/2000/svg">


<polygon points="167.22 6.458 135.96 6.458 122.28 22.092 122.28 55.313 137.91 70.946 151.59 70.946 151.59 49.45 145.73 49.45 145.73 26 161.36 26 161.36 41.634 182.86 41.634 182.86 22.092" fill="#008FA9"/>
<polygon points="137.91 115.89 171.13 115.89 184.81 100.26 184.81 65.084 169.18 49.45 155.5 49.45 155.5 70.946 161.36 70.946 161.36 94.396 145.73 94.396 145.73 78.762 122.28 78.762 122.28 100.26" fill="#008FA9"/>
<polygon points="188.72 100.26 205.33 115.89 218.03 115.89 218.03 96.351 212.17 96.351 212.17 6.458 188.72 6.458" fill="#008FA9"/>
<polygon points="251.25 100.26 234.64 115.89 221.94 115.89 221.94 96.351 227.8 96.351 227.8 6.458 251.25 6.458" fill="#008FA9"/>
<polygon points="284.47 6.458 284.47 26 292.29 26 292.29 59.221 284.47 59.221 284.47 80.717 300.1 80.717 315.74 65.084 315.74 23.069 299.13 6.458" fill="#008FA9"/>
<rect x="257.11" y="6.458" width="23.45" height="109.43" fill="#008FA9"/>
<polygon points="345.05 27.955 370.46 27.955 370.46 6.458 323.56 6.458 323.56 115.89 370.46 115.89 370.46 96.351 345.05 96.351" fill="#008FA9"/>
<rect x="348.96" y="49.45" width="15.634" height="19.542" fill="#008FA9"/>
<polygon points="405.63 6.458 423.22 6.458 438.85 22.092 438.85 51.404 428.1 62.152 438.85 72.9 438.85 115.89 417.36 115.89 417.36 72.9 405.63 72.9 405.63 51.404 415.4 51.404 415.4 26 405.63 26" fill="#008FA9"/>
<rect x="378.27" y="6.458" width="23.448" height="109.43" fill="#008FA9"/>
<polygon points="169.18 127.62 164.29 132.5 164.29 154.98 170.64 161.33 206.31 161.33 206.31 141.3 186.76 141.3 186.76 147.16 200.44 147.16 200.44 154.98 173.08 154.98 173.08 133.48 206.31 133.48 206.31 127.62" fill="#008FA9"/>

	<path d="m253.21 142.27v-8.794l-5.862-5.863h-33.221v33.221h7.816v-13.678h13.679l9.771 13.678h7.817l-9.771-13.678h3.909l5.862-4.886zm-7.817-0.977h-23.45v-7.816h23.45v7.816z" fill="#008FA9"/>

<polygon points="257.11 160.84 272.75 127.62 288.38 127.62 305.97 160.84 296.2 160.84 282.52 135.43 278.61 135.43 266.88 160.84" fill="#008FA9"/>
<polygon points="307.92 127.62 307.92 160.84 315.74 160.84 315.74 147.16 341.14 147.16 341.14 141.3 315.74 141.3 315.74 133.48 345.05 133.48 345.05 127.62" fill="#008FA9"/>
<polygon points="348.96 127.62 364.59 143.25 347.01 160.84 358.73 160.84 370.46 149.11 382.18 160.84 393.9 160.84 376.32 143.25 393.9 127.62 382.18 127.62 370.46 139.34 358.73 127.62" fill="#008FA9"/>
</svg>
