<?xml version="1.0" encoding="UTF-8"?>
<svg enable-background="new 0 0 566.929 129.21" version="1.1" viewBox="0 0 566.93 129.21" xml:space="preserve" xmlns="http://www.w3.org/2000/svg" xmlns:cc="http://creativecommons.org/ns#" xmlns:dc="http://purl.org/dc/elements/1.1/" xmlns:rdf="http://www.w3.org/1999/02/22-rdf-syntax-ns#"><metadata><rdf:RDF><cc:Work rdf:about=""><dc:format>image/svg+xml</dc:format><dc:type rdf:resource="http://purl.org/dc/dcmitype/StillImage"/><dc:title/></cc:Work></rdf:RDF></metadata>



<g transform="translate(-25.573 3.5689)" fill="#f00"><path d="m110.14 115.55c0.38085-0.14615 0.41972-5.1971 0.41972-54.526v-54.365l-0.62518-0.1569c-0.34386-0.0863-6.8219-0.11169-14.396-0.0564l-13.771 0.10049-2.5343 0.68606c-5.3063 1.4364-9.5092 3.8281-13.143 7.479-4.6298 4.6518-7.3877 10.425-8.0644 16.881-0.36964 3.527-0.36056 55.761 0.0104 59.086 1.0392 9.3193 6.5094 17.354 14.842 21.8 2.4522 1.3083 6.4256 2.5903 9.0443 2.918 2.1749 0.27218 27.548 0.4104 28.217 0.15371zm-26.786-8.8561c-6.3042-0.93523-11.848-4.8804-14.55-10.355-2.1161-4.2866-2.0187-2.5911-2.0239-35.24-5e-3 -32.385-0.0841-30.9 1.8583-34.947 1.8873-3.932 4.922-6.9712 8.8841-8.8971 3.5848-1.7424 4.3867-1.8416 14.927-1.846l9.3546-4e-3 -0.0671 45.708-0.0671 45.708-8.4915 0.035c-4.6703 0.0193-9.0913-0.054-9.8245-0.16271zm6.4377-58.363c2.0323-1.0892 3.8564-2.9928 4.7958-5.0046 0.61051-1.3076 0.7088-1.8658 0.71116-4.0382 3e-3 -2.2845-0.0762-2.6877-0.83962-4.299-1.0717-2.2622-2.8128-4.0033-5.0749-5.075-4.9158-2.076-10.729-0.47475-13.46 4.7924-0.63575 1.2804-0.777 1.9411-0.86605 4.0509-0.0885 2.0983-0.0127 2.7656 0.45302 3.9804 1.1221 2.9276 3.3556 5.1302 6.257 6.1706 1.009 0.3618 1.9306 0.45585 3.8477 0.3927 2.2677-0.0747 2.6872-0.17216 4.176-0.97007zm55.264 66.763c11.331-2.7421 19.715-11.418 21.627-22.379 0.60035-3.4427 0.59412-59.929-7e-3 -63.376-2.0533-11.774-11.793-20.926-24.141-22.681-2.7817-0.39547-20.375-0.35837-20.778 0.0438-0.47523 0.47523-0.46207 108.23 0.0133 108.71 0.52055 0.5304 20.931 0.25141 23.285-0.31829zm-5.3313-38.098c-6.2894-2.0123-9.3936-9.3484-6.4775-15.309 2.5941-5.3021 9.0872-7.6438 14.357-5.1778 2.2911 1.0721 4.4081 3.1199 5.4833 5.3041 0.80985 1.645 0.85807 1.9073 0.85807 4.6675 0 2.7308-0.0549 3.0388-0.82943 4.6494-1.0542 2.1922-2.3056 3.6151-4.1579 4.7277-2.7405 1.6461-6.2811 2.0823-9.2335 1.1377zm323.35 35.231c5.6698 0 11.209-4.5271 15.006-8.507 1.7998-1.8868 3.2722-3.6733 3.2722-3.9699 0-0.47524-3.365-3.5325-7.5136-6.8266l-1.3958-1.1083-2.6682 2.7063c-4.0876 4.1461-7.1056 5.3867-13.104 5.3867-4.0979 0-5.5146-0.25571-7.888-1.4238-3.692-1.8171-6.8074-4.9378-8.5968-8.6115-1.9443-3.9918-1.9522-10.488-0.0177-14.491 3.9898-8.2552 13.359-12.274 22.167-9.508 2.6162 0.82158 4.2532 1.8675 6.8092 4.3508l3.3649 3.2692 4.4214-3.7502c2.4318-2.0626 4.4215-4.0111 4.4215-4.33 0-0.31889-1.697-2.2769-3.7712-4.3511-12.027-12.027-31.577-11.727-43.167 0.66266-5.8986 6.3056-8.3009 12.339-8.3009 20.847 0 8.9604 2.9704 15.888 9.4222 21.974 7.697 7.261 17.329 7.6804 27.539 7.6804zm-239.91-0.56345c10.467-2.0027 16.353-7.3532 17.088-15.532 0.57665-6.4232-2.2836-11.511-8.1397-14.478-3.5713-1.8097-11.415-4.0834-18.071-5.2382-9.7528-1.6921-13.586-3.5348-13.586-6.5307 0-2.2535 0.64847-3.1827 3.1577-4.5249 2.1671-1.1592 3.2688-1.2942 10.358-1.2688 6.9876 0.02502 8.4925 0.21548 12.624 1.597 2.58 0.86274 4.8823 1.3772 5.1162 1.1433 0.49492-0.49491 4.0867-9.0765 3.8608-9.2244-2.2555-1.4768-13.346-3.9241-19.302-4.2592-17.934-1.0091-30.918 8.9708-27.533 21.162 1.798 6.4748 8.8225 9.9383 26.997 13.311 11.193 2.0771 14.387 4.491 12.15 9.1815-1.5338 3.2164-5.0752 4.5618-12.738 4.8394-7.1191 0.25786-12.818-0.73171-18.248-3.1688-2.1061-0.94515-3.757-1.3751-4.0655-1.0588-0.89669 0.91928-4.718 7.9571-4.718 8.6892 0 0.9781 7.5586 3.8274 13.516 5.0951 6.199 1.3191 15.435 1.4333 21.534 0.26632zm54.413-3.675c0.44891-1.5352 2.7686-9.7338 5.155-18.219 2.3863-8.4852 4.5205-15.228 4.7426-14.985 0.22211 0.2434 2.4526 7.847 4.9566 16.897 2.504 9.0498 4.7758 17.049 5.0486 17.776 0.47581 1.2688 0.77552 1.3207 7.4153 1.3158l6.9194-7e-3 7.895-27.876c4.3423-15.332 7.8461-28.088 7.7864-28.348-0.0597-0.25937-2.7984-0.47159-6.0859-0.47159h-5.9773l-4.018 14.985c-2.2099 8.2418-4.5989 17.299-5.3089 20.127-0.71007 2.8281-1.4407 5.1419-1.6236 5.1419-0.18293 0-4.0292-8.803-6.2116-20.127l-5.8789-20.127-4.7998-0.17008c-4.1204-0.146-4.8778-0.02215-5.3503 0.88148-0.30276 0.5784-3.0065 9.5138-6.0082 19.856-3.0018 10.343-5.6317 19.01-5.8443 19.261-0.2126 0.25069-2.5483-7.6826-5.1904-17.63-2.6421-9.9469-6.0885-19.224-5.4189-20.289l-0.61509-2.2037h-6.1823c-5.6066 0-6.1554 0.09567-5.8923 1.0284 0.15945 0.56562 3.6338 12.928 7.7208 27.473 4.087 14.544 7.5621 26.907 7.7225 27.473 0.25675 0.9052 1.1264 1.0284 7.2596 1.0284h6.968zm77.288-25.563-0.15259-28.354-12.634-0.33351v57.042h12.94zm44.215 6.0234v-22.331h17.63v-12.354l-47.894 0.30694-0.16742 6.0234-0.16742 6.0234h18.258v44.661h12.341zm107.54 11.165v-11.165h26.444v22.331h11.753v-57.002h-11.728l-0.15966 11.312-0.15968 11.312-26.125 0.31624-0.15967-11.323-0.15967-11.323-11.459-0.33661-9e-3 27.2c-5e-3 14.96-0.16742 27.795-0.36234 28.522-0.35118 1.3104-0.29866 1.3222 5.8845 1.3222h6.2389v-11.165zm29.363-60.87c6.3295 0 11.185-8.7702 11.185-15.23 0-6.4604-5.1149-13.46-11.125-15.224-6.5069-1.9098-11.745-0.61877-16.256 4.0063-6.6472 6.8162-6.6154 15.789 0.0795 22.484 4.5827 4.5827 9.4769 3.964 16.116 3.964zm-9.8288-7.2939c-2.7776-1.6935-4.2507-4.4439-4.2507-7.9365 0-5.4578 3.6464-9.1042 9.1042-9.1042 5.4578 0 9.1042 3.6464 9.1042 9.1042 0 5.4578-3.6464 9.1042-9.1042 9.1042-1.8976 0-3.6166-0.41359-4.8535-1.1677zm-329.68-2.7621 0.16099-9.8108 7.332 9.8108 7.332 9.8107h6.1976v-29.97h-6.435l-0.16144 9.5142-0.16145 9.5142-14.104-19.02-6.4642 0.28523-0.1579 14.092c-0.0868 7.7506-0.0287 14.428 0.12844 14.838 0.17872 0.46568 1.3925 0.74619 3.2288 0.74619h2.9425zm50.405-5.2037v-15.014l-6.5124 0.35256 0.0134 14.544c7e-3 7.9994 0.0177 14.677 0.0242 14.838 7e-3 0.16166 1.4654 0.29383 3.243 0.29383h3.232v-15.014zm28.928 5.1713 0.16099-9.8432 14.675 19.686h6.187v-29.97h-6.435l-0.16143 9.4892-0.16144 9.4892-14.104-18.972-6.1703-0.00886v29.97h5.8481zm58.632-1.9099v-11.753h9.4024v-6.4641h-25.155l-0.20353 2.9875c-0.11207 1.6432-0.0934 3.0976 0.0412 3.2321 0.13464 0.13442 2.3163 0.24455 4.8481 0.24455h4.6032v23.506h6.4641zm55.239 9.1243v-2.6287l-17.336-0.3251-0.17562-3.3622-0.17584-3.3622 16.218-0.32731v-5.2889l-16.221-0.32731 0.17693-3.0684 0.17695-3.0684 17.336-0.3251v-5.2574h-23.506v29.97h23.506zm31.278-7.1631 0.16123-9.7918 14.482 19.584h6.38v-29.97h-6.4351l-0.16143 9.5493-0.16145 9.5493-14.425-19.099h-6.4366v29.97h6.4357zm65.39 8.4092c3.8672-1.8047 7.0453-5.3989 8.194-9.2667 1.1403-3.84 1.1403-4.8314 0-8.6715-1.1486-3.8678-4.3268-7.462-8.194-9.2667-2.6279-1.2263-3.7918-1.3718-11.018-1.3769l-8.0802-0.00671v29.97l8.0802-0.0067c7.2266-0.0044 8.3906-0.15059 11.018-1.3769zm-12.634-13.602v-8.5209l4.5543 0.0021c3.53 0.0017 4.9916 0.26878 6.4983 1.1874 1.9648 1.1979 4.2005 5.1 4.2005 7.3313 0 2.2313-2.2358 6.1334-4.2005 7.3313-1.5067 0.91866-2.9683 1.1857-6.4983 1.1874l-4.5543 0.0017z"/><g stroke-width=".28159px" aria-label="TM"><path d="m551.42 106.31h3.7839v0.80023h-1.3612v3.3054h-1.0587v-3.3054h-1.364z"/><path d="m555.75 106.31h1.3475l0.93498 2.1972 0.94047-2.1972h1.3447v4.1056h-1.001v-3.0029l-0.94597 2.2137h-0.67098l-0.94598-2.2137v3.0029h-1.0037z"/></g></g></svg>
