<?xml version="1.0" encoding="UTF-8"?>
<!DOCTYPE svg  PUBLIC '-//W3C//DTD SVG 1.1//EN'  'http://www.w3.org/Graphics/SVG/1.1/DTD/svg11.dtd'>
<svg width="580px" height="130px" enable-background="new -7.371 -3.275 580 130" version="1.1" viewBox="-7.371 -3.275 580 130" xml:space="preserve" xmlns="http://www.w3.org/2000/svg">

	
		<g opacity=".5">
			<polygon points="7 6.352 33.421 6.352 33.421 14.128 25.688 14.128 25.688 119.66 16.342 119.66 16.342 14.128 7 14.128"/>
			<path d="m57.354 111.93h10.313v-73.937h9.02v73.937c0 4.784-4.349 8.175-8.806 8.175h-10.527c-4.71 0-8.914-3.833-8.914-8.271v-73.84h8.914v73.936z"/>
			<path d="m251.32 56.057h13.776v64.123h-19.412c-4.151 0-9.264-3.177-9.264-7.997v-96.933c0-4.072 4.267-8.409 9.06-8.409h10.594c4.698 0 8.961 4.296 8.961 8.313v22.963h-9.285v-22.643h-10.55v96.781h10.794v-48.353h-4.675v-7.845z"/>
			<path d="m384.53 80.826v38.868h-8.697v-74.441c0-3.362 3.343-7.026 7.571-7.026h14.339v7.175h-13.213v27.502h10.877v7.957l-10.877-0.035z"/>
			<path d="m415.38 38.247h9.129v29.65l5.154 5.183 5.047-5.039v-29.794h9.019v28.208c0 3.445-8.91 12.52-8.91 12.52s9.021 9.071 9.021 12.746v28.137h-8.484v-29.294l-5.478-5.538-5.478 5.465v29.369h-9.02v-28.07c0-3.452 9.554-12.885 9.554-12.885s-9.554-8.975-9.554-12.591v-28.067z"/>
			<path d="m115.78 81.011c3.061 0 7.13-3.659 7.13-8.556v-26.756c0-3.85-4.392-7.434-9.386-7.434h-18.526v81.757h8.54v-38.41h3.222l9.504 38.265h8.377l-8.861-38.866zm-1.69-7.993h-10.231v-26.832h10.231v26.832z"/>
			<path d="m304.75 80.797c3.061 0 7.133-3.666 7.133-8.56v-26.754c0-3.848-4.394-7.437-9.387-7.437h-18.525v81.762h8.532v-38.416h3.227l9.506 38.265h8.376l-8.862-38.86zm-1.814-8.088h-10.224v-26.825h10.224v26.825z"/>
			<path d="m168.56 82.937c-0.039-3.663-3.864-5.98-3.864-5.98s3.864-2.501 3.864-5.979v-24.958c0-4.712-4.147-7.777-8.375-7.777h-19.494v81.615h19.494c3.947 0 8.375-2.466 8.375-7.773 0 1e-3 0.044-25.487 0-29.148zm-8.779 28.925h-10.228v-30.42h10.228v30.42zm0-38.866h-10.228v-26.829h10.228v26.829z"/>
			<path d="m205.89 37.642h-10.149c-5.115 0-8.84 4.372-8.84 7.7v66.281c0 4.285 4.772 8.169 8.801 8.169h11.035c4.309 0 8.618-4.45 8.618-7.998v-66.678c0-2.99-4.069-7.474-9.465-7.474zm0.322 73.725h-9.881v-65.652h9.881v65.652z"/>
			<path d="m349.19 38.226h-11.271c-5.076 0-8.056 4.184-8.056 7.473v73.996h8.537v-38.869h10.792v38.868h8.538v-73.548c0-4.882-3.378-7.92-8.54-7.92zm-0.243 34.53h-10.226v-26.307h10.226v26.307z"/>
		</g>
	
	
		
			<polygon points="9.822 4 36.243 4 36.243 11.774 28.51 11.774 28.51 117.31 19.165 117.31 19.165 11.774 9.822 11.774" fill="#F79226"/>
			<path d="m60.177 109.58h10.313v-73.935h9.021v73.936c0 4.785-4.349 8.175-8.807 8.175h-10.527c-4.711 0-8.914-3.833-8.914-8.27v-73.841h8.914v73.935z" fill="#F79226"/>
			<path d="m254.14 53.704h13.777v64.124h-19.412c-4.151 0-9.264-3.178-9.264-7.998v-96.933c0-4.071 4.267-8.409 9.06-8.409h10.593c4.698 0 8.962 4.298 8.962 8.314v22.965h-9.285v-22.645h-10.55v96.78h10.794v-48.351h-4.675v-7.847z" fill="#E3E800"/>
			<path d="m387.35 78.475v38.868h-8.697v-74.443c0-3.362 3.343-7.026 7.571-7.026h14.339v7.175h-13.213v27.503h10.877v7.957l-10.877-0.034z" fill="#E3E800"/>
			<path d="m418.21 35.894h9.13v29.65l5.155 5.183 5.046-5.038v-29.795h9.02v28.21c0 3.445-8.91 12.521-8.91 12.521s9.019 9.07 9.019 12.746v28.137h-8.483v-29.295l-5.478-5.539-5.478 5.467v29.368h-9.021v-28.071c0-3.452 9.556-12.885 9.556-12.885s-9.556-8.975-9.556-12.59v-28.069z" fill="#E3E800"/>
			<path d="m118.6 78.658c3.061 0 7.129-3.659 7.129-8.555v-26.756c0-3.849-4.39-7.435-9.385-7.435h-18.527v81.758h8.54v-38.41h3.223l9.504 38.266h8.377l-8.861-38.868zm-1.691-7.993h-10.231v-26.831h10.231v26.831z" fill="#F79226"/>
			<path d="m307.57 78.445c3.062 0 7.133-3.666 7.133-8.561v-26.753c0-3.85-4.393-7.437-9.385-7.437h-18.526v81.761h8.533v-38.416h3.226l9.506 38.266h8.376l-8.863-38.86zm-1.813-8.088h-10.225v-26.828h10.225v26.828z" fill="#E3E800"/>
			<path d="m171.38 80.584c-0.04-3.663-3.864-5.98-3.864-5.98s3.864-2.501 3.864-5.979v-24.958c0-4.712-4.146-7.775-8.375-7.775h-19.494v81.616h19.494c3.947 0 8.375-2.467 8.375-7.775 0 0 0.043-25.488 0-29.149zm-8.779 28.927h-10.229v-30.421h10.229v30.421zm0-38.866h-10.229v-26.829h10.229v26.829z" fill="#F79226"/>
			<path d="m208.72 35.288h-10.15c-5.116 0-8.84 4.374-8.84 7.7v66.282c0 4.285 4.772 8.171 8.801 8.171h11.035c4.309 0 8.619-4.45 8.619-7.997v-66.68c0-2.988-4.07-7.476-9.465-7.476zm0.322 73.728h-9.881v-65.653h9.881v65.653z" fill="#F79226"/>
			<path d="m352.01 35.874h-11.271c-5.078 0-8.058 4.184-8.058 7.474v73.996h8.537v-38.869h10.793v38.868h8.538v-73.549c0-4.881-3.378-7.92-8.539-7.92zm-0.245 34.53h-10.223v-26.307h10.223v26.307z" fill="#E3E800"/>
		
	
	<g opacity=".5">
		
			<path d="m528.86 92.37h20.746v-38.898h-20.746v38.898zm-10.373-72.606c-28.642 0-51.862 23.218-51.862 51.861s23.221 51.863 51.862 51.863c28.644 0 51.863-23.221 51.863-51.863 1e-3 -28.643-23.219-51.861-51.863-51.861zm-2.591 38.896h-5.188v-2.593l-2.593-2.595h-20.745v38.898h20.745l2.593-2.594v-2.592h5.188v5.186l-5.188 5.186h-25.932l-2.592-2.592v-44.084l2.592-2.594h25.932l5.188 5.186v5.188zm38.896 33.71-5.186 5.186h-28.525v-5.186h2.592v-38.898h-2.592v-5.186h28.525l5.186 5.186v38.898z"/>
		
	</g>
	
		
			<path d="m521.08 17.169c-28.644 0-51.863 23.22-51.863 51.863 0 28.644 23.22 51.863 51.863 51.863s51.862-23.22 51.862-51.863c0-28.642-23.219-51.863-51.862-51.863zm-2.594 38.898h-5.187v-2.595l-2.593-2.592h-20.746v38.896h20.746l2.593-2.592v-2.594h5.187v5.186l-5.187 5.188h-25.931l-2.594-2.594v-44.083l2.594-2.594h25.931l5.187 5.188v5.186zm38.897 33.709-5.185 5.188h-28.526v-5.188h2.595v-38.896h-2.595v-5.188h28.526l5.185 5.188v38.896zm-25.931 0h20.746v-38.896h-20.746v38.896z" fill="#F79226"/>
		
	

</svg>
