<?xml version="1.0" encoding="UTF-8"?>
<!DOCTYPE svg  PUBLIC '-//W3C//DTD SVG 1.1//EN'  'http://www.w3.org/Graphics/SVG/1.1/DTD/svg11.dtd'>
<svg enable-background="new 0 0 1894 384" version="1.1" viewBox="0 0 1894 384" xml:space="preserve" xmlns="http://www.w3.org/2000/svg">


	
		
			
				<linearGradient id="a" x1="948.81" x2="948.81" y1="43.098" y2="337.08" gradientUnits="userSpaceOnUse">
					<stop stop-color="#E2E3E4" offset=".0045"/>
					<stop stop-color="#B3B5B8" offset="1"/>
				</linearGradient>
				<rect x="36.907" y="37.907" width="1823.8" height="303.97" fill="url(#a)"/>
			
			<path d="m29.5 349.28v-318.78h1838.6v318.78h-1838.6zm1831.2-7.407v-7.405 7.405zm-1816.4-7.405h1809v-289.15h-1809v289.15z"/>
		
		
			
				
					<path d="m697.28 190.18c-7.363 0-13.332 5.969-13.332 13.333 0 7.362 5.969 13.332 13.332 13.332 7.361 0 13.332-5.97 13.332-13.332 0-7.364-5.969-13.333-13.332-13.333zm-463.95 0c-7.362 0-13.332 5.969-13.332 13.333 0 7.362 5.97 13.332 13.332 13.332 7.363 0 13.333-5.97 13.333-13.332 0-7.364-5.97-13.333-13.333-13.333zm77.325 13.333c0 7.362 5.969 13.332 13.332 13.332 7.362 0 13.332-5.97 13.332-13.332 0-7.363-5.97-13.333-13.332-13.333-7.363 0-13.332 5.969-13.332 13.333zm135.98-13.333c-7.362 0-13.332 5.969-13.332 13.333 0 7.362 5.97 13.332 13.332 13.332 7.363 0 13.332-5.97 13.332-13.332 0-7.364-5.97-13.333-13.332-13.333zm467.8-127.99h-828.94c-14.071 0-25.479 11.407-25.479 25.479v199.68c0 14.07 11.408 25.479 25.479 25.479h828.94c14.071 0 25.479-11.406 25.479-25.479v-199.68c1e-3 -14.072-11.406-25.479-25.478-25.479zm-742.44 170.65-15.999-26.664v26.664h-31.997v-101.32h47.995c15.998 0 31.997 10.666 31.997 31.997s-15.999 26.664-21.331 26.664l26.664 42.663h-37.329zm53.328 0c-10.665 0-21.331-10.666-21.331-26.664 0-18.175 15.998-21.332 21.331-21.263 1.944 0.026 9.087-0.069 10.666-0.069 10.666 0 5.333-10.666 0-10.666s-21.331 0-21.331 0v-21.331h42.662c10.666 0 14.665 10.666 14.665 21.331 0 10.666 1.333 58.66 1.333 58.66h-47.995v2e-3zm138.65 0h-42.661c-31.997 0-37.329-26.664-37.329-42.663 0-9.809 5.332-37.329 37.329-37.329h10.666v-21.332h31.997v101.32h-2e-3zm37.331 0h-26.664v-79.992h26.664v79.992zm45.328 0c-22.089 0-39.996-17.906-39.996-39.996 0-22.088 17.906-39.996 39.996-39.996s39.995 17.906 39.995 39.996c0 22.087-17.905 39.996-39.995 39.996zm135.98-69.327c-10.665 0-15.998 5.333-15.998 15.998s0 5.333 0 21.331c0 21.332-5.333 31.998-47.995 31.998v-31.998c10.666 0 21.331 0 21.331-15.998v-26.664s5.333-26.664 42.662-26.664v31.997zm79.991 69.327h-31.996v-47.996c0-5.333-10.666-5.333-10.666 0s0 47.996 0 47.996h-26.664v-101.32h26.664v26.664c10.666-10.666 42.662-5.333 42.662 15.998v58.662zm26.664 0c-10.666 0-21.331-10.666-21.331-26.664 0-18.175 15.998-21.332 21.331-21.263 1.942 0.026 9.087-0.069 10.666-0.069 10.666 0 5.333-10.666 0-10.666s-21.332 0-21.332 0v-21.331h42.662c10.666 0 14.665 10.666 14.665 21.331 0 10.666 1.332 58.66 1.332 58.66h-47.993v2e-3zm133.09-35.66-28.041-0.027c-2.259-4.155-6.661-6.976-11.722-6.976-7.362 0-13.332 5.968-13.332 13.332s5.969 13.332 13.332 13.332c5.137 0 9.596-2.906 11.821-7.164l24.47-2e-3c-6.354 13.68-20.216 23.164-36.291 23.164-22.09 0-39.996-17.906-39.996-39.994 0-22.089 17.906-39.997 39.996-39.997 22.088 0 39.995 17.906 39.995 39.997 1e-3 1.463-0.078 2.911-0.232 4.335zm42.895 35.66-10.666-31.998h-5.333v31.998h-21.331v-101.32h21.331v42.663h5.333l10.666-15.998h26.664l-15.999 26.664 21.332 47.995h-31.997zm-706.59-63.994c-7.363 0-13.332 5.969-13.332 13.332 0 7.362 5.969 13.332 13.332 13.332s13.332-5.969 13.332-13.332-5.968-13.332-13.332-13.332z" fill="#807F7F"/>
				
			
			<rect x="1005.9" y="214.4" width="239.98" height="53.328" fill="#807F7F"/>
			<rect x="1267.2" y="214.4" width="239.97" height="53.328" fill="#807F7F"/>
			<rect x="1528.5" y="214.4" width="239.98" height="53.328" fill="#807F7F"/>
			<g fill="#807F7F">
				
					<path d="m1138.7 110.02h78.117v15.623h-31.247v54.681h-15.623v-54.681h-31.247v-15.623z"/>
					<path d="m1251.7 152.99v27.34h-15.623v-70.304h54.683c15.624 0 23.435 7.135 23.435 21.403 0 6.771-1.119 11.745-3.357 14.92 2.238 3.698 3.357 8.515 3.357 14.452v19.529h-15.621v-19.529c0-5.207-2.605-7.812-7.813-7.812l-39.061 1e-3zm0-15.623h46.871v-11.718h-46.871v11.718z"/>
					<path d="m1429.2 152.99v-11.718h26.99v11.718h-26.99z"/>
					<path d="m1551.4 125.65h-62.024v11.718h39.06c15.623 0 23.434 7.161 23.434 21.48 0 14.322-7.812 21.482-23.434 21.482h-31.246c-13.229 0-20.857-5.207-22.89-15.623h61.946v-11.718h-39.058c-15.625 0-23.436-7.056-23.436-21.17 0-14.529 7.811-21.794 23.436-21.794h31.246c13.332 1e-3 20.987 5.21 22.966 15.625zm-77.101 39.058c-0.366-1.875-0.547-3.932-0.547-6.171 0-5.52 1.196-9.973 3.592-13.358 3.75 5.209 10.363 7.812 19.844 7.812h-7.813v11.718l-15.076-1e-3zm73.899-19.53c2.446-3.437 3.67-7.993 3.67-13.67 0-2.083-0.154-4.036-0.468-5.859h-15.154v11.718h-7.812c9.425 0 16.014 2.605 19.764 7.811z"/>
					<path d="m1564.5 156.89v-23.435c0-15.623 7.813-23.435 23.436-23.435h23.436c15.624 0 23.436 7.812 23.436 23.435v23.435c0 15.624-7.812 23.435-23.436 23.435h-23.436c-15.623 0-23.436-7.811-23.436-23.435zm46.87 7.812c5.207 0 7.813-2.604 7.813-7.812v-23.435c0-5.207-2.604-7.812-7.813-7.812h-23.436c-5.209 0-7.812 2.604-7.812 7.812v23.435c0 5.208 2.603 7.812 7.812 7.812h23.436z"/>
				
				<path d="m1330.8 156.99h20.17c0 5.042 2.836 8.51 6.776 8.51h36.323c2.839 0 3.783-2.049 3.783-4.886 0-2.836 1.26-8.982-4.412-8.982h-44.362s-18.438-4.57-18.438-20.013 10.084-21.116 17.177-21.116 47.116 0 53.576 0c6.461 0 12.449 2.994 12.449 19.541h-19.066c0-3.625-1.892-6.184-8.509-6.184h-28.446c-4.729 0-6.462 0.353-6.462 7.759s4.255 6.814 7.406 6.814 37.271 0 44.992 0 14.969 7.841 14.969 19.975c0 12.133-5.829 22.458-18.276 22.458h-53.421s-16.229-3.075-16.229-23.876z"/>
			</g>
		
		
			
				
					<path d="m314.5 207.66c0 7.362 5.969 13.332 13.332 13.332s13.332-5.97 13.332-13.332c0-7.363-5.969-13.332-13.332-13.332s-13.332 5.969-13.332 13.332zm135.98-13.332c-7.363 0-13.332 5.969-13.332 13.332 0 7.362 5.969 13.332 13.332 13.332s13.332-5.97 13.332-13.332c0-7.363-5.968-13.332-13.332-13.332zm250.64 0c-7.363 0-13.332 5.969-13.332 13.332 0 7.362 5.969 13.332 13.332 13.332s13.332-5.97 13.332-13.332c0-7.363-5.969-13.332-13.332-13.332zm-538.61-21.331c-7.363 0-13.332 5.969-13.332 13.332 0 7.361 5.969 13.332 13.332 13.332s13.332-5.969 13.332-13.332-5.969-13.332-13.332-13.332zm74.658 21.331c-7.363 0-13.332 5.969-13.332 13.332 0 7.362 5.969 13.332 13.332 13.332s13.332-5.97 13.332-13.332c0-7.363-5.969-13.332-13.332-13.332zm681.11-127.99h-828.94c-14.071 0-25.479 11.408-25.479 25.479v199.68c0 14.071 11.407 25.479 25.479 25.479h828.94c14.071 0 25.479-11.407 25.479-25.479v-199.68c1e-3 -14.072-11.408-25.479-25.479-25.479zm-742.44 170.65-15.998-26.663v26.663h-31.997v-101.32h47.994c15.999 0 31.997 10.666 31.997 31.997s-15.998 26.664-21.331 26.664l26.664 42.662-37.329-1e-3zm53.327 0c-10.665 0-21.331-10.665-21.331-26.663 0-18.174 15.999-21.332 21.331-21.262 1.944 0.025 9.087-0.069 10.666-0.069 10.666 0 5.333-10.665 0-10.665s-21.331 0-21.331 0v-21.331h42.662c10.665 0 14.665 10.666 14.665 21.331s1.333 58.66 1.333 58.66l-47.995-1e-3zm138.65 0h-42.661c-31.997 0-37.33-26.663-37.33-42.662 0-9.808 5.333-37.329 37.33-37.329h10.665v-21.331h31.996v101.32zm37.33 0h-26.664v-79.991h26.664v79.991zm45.328 0c-22.089 0-39.996-17.906-39.996-39.995s17.907-39.996 39.996-39.996 39.996 17.907 39.996 39.996-17.907 39.995-39.996 39.995zm135.98-69.325c-10.666 0-15.999 5.333-15.999 15.998v21.331c0 21.331-5.333 31.996-47.995 31.996v-31.996c10.666 0 21.332 0 21.332-15.999v-26.664c0-10.665 5.334-26.664 42.662-26.664v31.998zm79.991 69.325h-31.997v-47.994c0-5.333-10.666-5.333-10.666 0s0 47.995 0 47.995h-26.663v-101.32h26.664v26.664c10.666-10.665 42.662-5.333 42.662 15.999s0 58.659 0 58.659zm26.663 0c-10.665 0-21.331-10.665-21.331-26.663 0-18.174 15.999-21.332 21.331-21.262 1.943 0.025 9.087-0.069 10.666-0.069 10.666 0 5.333-10.665 0-10.665s-21.331 0-21.331 0v-21.331h42.662c10.666 0 14.665 10.666 14.665 21.331s1.333 58.66 1.333 58.66l-47.995-1e-3zm133.09-35.658-28.041-0.027c-2.258-4.156-6.661-6.977-11.723-6.977-7.362 0-13.332 5.969-13.332 13.332 0 7.361 5.969 13.332 13.332 13.332 5.137 0 9.596-2.906 11.822-7.164l24.47-2e-3c-6.355 13.679-20.216 23.164-36.292 23.164-22.088 0-39.995-17.906-39.995-39.995s17.907-39.996 39.995-39.996c22.089 0 39.996 17.907 39.996 39.996 1e-3 1.466-0.077 2.913-0.232 4.337zm42.895 35.658-10.666-31.996h-5.333v31.996h-21.331v-101.32h21.331v42.663h5.333l10.666-15.999h26.663l-15.998 26.664 21.33 47.995-31.995-1e-3z" fill="#E5E5E5"/>
				
			
			<rect x="1009.8" y="218.55" width="239.98" height="53.328" fill="#E5E5E5"/>
			<rect x="1271.1" y="218.55" width="239.98" height="53.328" fill="#E5E5E5"/>
			<rect x="1532.4" y="218.55" width="239.97" height="53.328" fill="#E5E5E5"/>
			<g fill="#E5E5E5">
				
					<path d="m1142.5 114.17h78.116v15.623h-31.246v54.682h-15.624v-54.682h-31.246v-15.623z"/>
					<path d="m1255.6 157.13v27.341h-15.622v-70.305h54.68c15.625 0 23.437 7.135 23.437 21.403 0 6.771-1.12 11.744-3.357 14.92 2.237 3.698 3.357 8.515 3.357 14.451v19.529h-15.623v-19.529c0-5.207-2.604-7.812-7.813-7.812h-39.058v2e-3zm0-15.623h46.87v-11.718h-46.87v11.718z"/>
					<path d="m1433.1 157.13v-11.717h26.988v11.717h-26.988z"/>
					<path d="m1555.3 129.79h-62.023v11.718h39.06c15.623 0 23.436 7.161 23.436 21.482 0 14.322-7.813 21.482-23.436 21.482h-31.247c-13.229 0-20.855-5.207-22.888-15.624h61.944v-11.717h-39.058c-15.624 0-23.435-7.056-23.435-21.169 0-14.53 7.811-21.794 23.435-21.794h31.247c13.331-1e-3 20.986 5.207 22.965 15.622zm-77.1 39.058c-0.366-1.875-0.547-3.931-0.547-6.17 0-5.52 1.195-9.973 3.593-13.358 3.75 5.208 10.363 7.812 19.843 7.812h-7.813v11.717l-15.076-1e-3zm73.898-19.529c2.445-3.438 3.67-7.994 3.67-13.67 0-2.083-0.155-4.035-0.469-5.859h-15.154v11.718h-7.812c9.428 0 16.015 2.604 19.765 7.811z"/>
					<path d="m1568.3 161.04v-23.435c0-15.624 7.813-23.435 23.437-23.435h23.437c15.623 0 23.434 7.811 23.434 23.435v23.435c0 15.623-7.812 23.435-23.434 23.435h-23.437c-15.625 0-23.437-7.812-23.437-23.435zm46.871 7.811c5.206 0 7.812-2.603 7.812-7.811v-23.435c0-5.208-2.604-7.812-7.812-7.812h-23.436c-5.209 0-7.813 2.604-7.813 7.812v23.435c0 5.208 2.604 7.811 7.813 7.811h23.436z"/>
				
				<path d="m1334.6 161.14h20.172c0 5.042 2.836 8.509 6.774 8.509h36.325c2.837 0 3.782-2.049 3.782-4.886 0-2.836 1.261-8.981-4.412-8.981h-44.362c-5.516 0-18.437-4.57-18.437-20.013s10.084-21.116 17.177-21.116h53.576c6.461 0 12.447 2.994 12.447 19.54h-19.065c0-3.625-1.892-6.183-8.509-6.183h-28.447s-6.46 0.353-6.46 7.759 4.255 6.813 7.405 6.813 37.271 0 44.992 0 14.97 7.841 14.97 19.975c0 12.133-5.83 22.458-18.278 22.458h-53.42c-6.303 0-16.23-3.074-16.23-23.875z"/>
			</g>
		
		
			
				
					<path d="m313.02 205.89c0 7.362 5.969 13.331 13.331 13.331 7.363 0 13.332-5.969 13.332-13.331 0-7.363-5.969-13.332-13.332-13.332-7.362 0-13.331 5.968-13.331 13.332zm386.62-13.332c-7.361 0-13.332 5.969-13.332 13.332 0 7.362 5.97 13.331 13.332 13.331 7.363 0 13.332-5.969 13.332-13.331 1e-3 -7.364-5.968-13.332-13.332-13.332zm-463.95 0c-7.363 0-13.332 5.969-13.332 13.332 0 7.362 5.969 13.331 13.332 13.331s13.332-5.969 13.332-13.331c0-7.364-5.969-13.332-13.332-13.332zm681.11-127.99h-828.94c-14.071 0-25.479 11.408-25.479 25.479v199.68c0 14.071 11.407 25.479 25.479 25.479h828.94c14.071 0 25.479-11.406 25.479-25.479v-199.68c0-14.071-11.407-25.479-25.478-25.479zm-742.44 170.65-15.999-26.664v26.664h-31.997v-101.32h47.995c15.998 0 31.996 10.666 31.996 31.997s-15.998 26.664-21.331 26.664l26.664 42.663-37.328-1e-3zm53.327 0c-10.666 0-21.331-10.666-21.331-26.664 0-18.174 15.998-21.331 21.331-21.262 1.943 0.025 9.087-0.069 10.666-0.069 10.665 0 5.333-10.666 0-10.666s-21.331 0-21.331 0v-21.332h42.662c10.666 0 14.665 10.666 14.665 21.332s1.333 58.661 1.333 58.661h-47.995zm138.65 0h-42.661c-31.998 0-37.33-26.664-37.33-42.662 0-9.81 5.333-37.331 37.33-37.331h10.666v-21.331h31.997v101.32h-2e-3zm37.329 0h-26.664v-79.992h26.664v79.992zm45.328 0c-22.089 0-39.996-17.906-39.996-39.996 0-22.089 17.907-39.996 39.996-39.996s39.996 17.907 39.996 39.996c0 22.09-17.907 39.996-39.996 39.996zm135.98-69.326c-10.666 0-15.999 5.333-15.999 15.999v21.331c0 21.331-5.332 31.997-47.994 31.997v-31.997c10.666 0 21.331 0 21.331-15.998v-26.664s5.333-26.664 42.662-26.664v31.996zm79.99 69.326h-31.996v-47.995c0-5.333-10.666-5.333-10.666 0v47.995h-26.664v-101.32h26.664v26.664c10.666-10.665 42.662-5.333 42.662 15.999v58.66zm26.664 0c-10.666 0-21.331-10.666-21.331-26.664 0-18.174 15.999-21.331 21.331-21.262 1.942 0.025 9.087-0.069 10.666-0.069 10.666 0 5.332-10.666 0-10.666h-21.331v-21.332h42.661c10.666 0 14.666 10.666 14.666 21.332s1.332 58.661 1.332 58.661h-47.994zm133.09-35.658-28.041-0.028c-2.258-4.155-6.661-6.976-11.723-6.976-7.362 0-13.332 5.969-13.332 13.332 0 7.362 5.97 13.331 13.332 13.331 5.138 0 9.597-2.905 11.822-7.163l24.47-2e-3c-6.354 13.678-20.216 23.164-36.292 23.164-22.089 0-39.996-17.906-39.996-39.996 0-22.089 17.906-39.996 39.996-39.996 22.088 0 39.996 17.907 39.996 39.996 1e-3 1.465-0.078 2.912-0.232 4.338zm42.895 35.658-10.666-31.996h-5.333v31.996h-21.33v-101.32h21.331v42.663h5.333l10.666-15.999h26.664l-15.999 26.664 21.331 47.995h-31.997zm-706.59-63.994c-7.363 0-13.332 5.969-13.332 13.332s5.969 13.332 13.332 13.332c7.362 0 13.332-5.969 13.332-13.332s-5.97-13.332-13.332-13.332zm287.97 21.332c-7.362 0-13.332 5.969-13.332 13.332 0 7.362 5.97 13.331 13.332 13.331 7.363 0 13.332-5.969 13.332-13.331 0-7.364-5.969-13.332-13.332-13.332z"/>
				
			
			<rect x="1008.3" y="216.77" width="239.98" height="53.328" fill="#CE2027"/>
			<rect x="1269.6" y="216.77" width="239.97" height="53.328" fill="#0F7C3E"/>
			<rect x="1530.9" y="216.77" width="239.97" height="53.328" fill="#233D98"/>
			
				
					<path d="m1141 112.39h78.116v15.623h-31.246v54.682h-15.624v-54.682h-31.246v-15.623z"/>
					<path d="m1254.1 155.36v27.341h-15.623v-70.305h54.681c15.624 0 23.436 7.135 23.436 21.404 0 6.771-1.12 11.744-3.358 14.92 2.238 3.698 3.358 8.515 3.358 14.452v19.529h-15.623v-19.529c0-5.208-2.604-7.812-7.813-7.812h-39.058zm0-15.623h46.869v-11.718h-46.869v11.718z"/>
					<path d="m1431.6 155.36v-11.717h26.988v11.717h-26.988z"/>
					<path d="m1553.8 128.02h-62.025v11.718h39.061c15.623 0 23.435 7.161 23.435 21.482 0 14.322-7.812 21.482-23.435 21.482h-31.247c-13.228 0-20.856-5.207-22.888-15.624h61.945v-11.717h-39.059c-15.623 0-23.436-7.056-23.436-21.169 0-14.53 7.813-21.794 23.436-21.794h31.247c13.331-1e-3 20.988 5.207 22.966 15.622zm-77.099 39.058c-0.366-1.875-0.547-3.931-0.547-6.171 0-5.52 1.196-9.972 3.592-13.358 3.75 5.208 10.363 7.812 19.843 7.812h-7.813v11.717h-15.075zm73.897-19.529c2.446-3.437 3.671-7.993 3.671-13.67 0-2.083-0.156-4.036-0.469-5.859h-15.154v11.718h-7.813c9.427-1e-3 16.015 2.603 19.765 7.811z"/>
					<path d="m1566.9 159.26v-23.435c0-15.624 7.812-23.435 23.435-23.435h23.437c15.623 0 23.435 7.812 23.435 23.435v23.435c0 15.623-7.812 23.435-23.435 23.435h-23.437c-15.623-1e-3 -23.435-7.812-23.435-23.435zm46.87 7.811c5.204 0 7.811-2.603 7.811-7.811v-23.435c0-5.208-2.604-7.812-7.811-7.812h-23.437c-5.209 0-7.812 2.604-7.812 7.812v23.435c0 5.208 2.603 7.811 7.812 7.811h23.437z"/>
				
				<path d="m1333.1 159.36h20.171c0 5.042 2.837 8.51 6.775 8.51h36.327c2.836 0 3.781-2.049 3.781-4.886 0-2.836 1.26-8.981-4.412-8.981h-44.363s-18.437-4.57-18.437-20.013 10.085-21.116 17.177-21.116h53.576s12.447 2.994 12.447 19.54h-19.064c0-3.624-1.893-6.183-8.511-6.183h-28.445c-4.728 0-6.46 0.353-6.46 7.759s4.254 6.813 7.404 6.813h44.992s14.971 7.841 14.971 19.975c0 12.133-5.832 22.458-18.278 22.458h-53.421c-6.301 1e-3 -16.23-3.075-16.23-23.876z"/>
			
		
	

</svg>
