<?xml version="1.0" encoding="UTF-8"?>
<svg width="313.4mm" height="31.114mm" version="1.1" viewBox="0 0 313.4 31.114" xmlns="http://www.w3.org/2000/svg" xmlns:cc="http://creativecommons.org/ns#" xmlns:dc="http://purl.org/dc/elements/1.1/" xmlns:rdf="http://www.w3.org/1999/02/22-rdf-syntax-ns#">
<metadata>
<rdf:RDF>
<cc:Work rdf:about="">
<dc:format>image/svg+xml</dc:format>
<dc:type rdf:resource="http://purl.org/dc/dcmitype/StillImage"/>
<dc:title/>
</cc:Work>
</rdf:RDF>
</metadata>
<g transform="translate(690.4 188.76)">
<g transform="translate(-334.66 -142.11)">
<path d="m-340.19-46.649h282.28c8.5572 0 15.557 7.0002 15.557 15.557 0 8.5572-7.0002 15.557-15.557 15.557h-282.28c-8.5572 0-15.557-7.0002-15.557-15.557 0-8.5557 7.0002-15.557 15.557-15.557z" fill="#5b5652" fill-rule="evenodd" stroke-width=".26458"/>
<g transform="translate(-.26727 70.056)" fill-rule="evenodd" stroke-width=".51362">
<polygon transform="matrix(.35789 0 0 .74146 -297.86 -415.02)" points="434.24 411.13 319.27 411.13 319.27 408.06 434.24 408.06" fill="#e2001a"/>
<polygon transform="matrix(.35789 0 0 .74146 -297.86 -414.49)" points="319.27 414.2 434.24 414.2 434.24 417.27 319.27 417.27" fill="#e95e38"/>
<polygon transform="matrix(.35789 0 0 .74146 -297.86 -413.95)" points="434.24 420.34 434.24 423.41 319.27 423.41 319.27 420.34" fill="#fc0"/>
<polygon transform="matrix(.35789 0 0 .74146 -297.86 -413.42)" points="434.24 426.48 434.24 429.54 319.27 429.54 319.27 426.48" fill="#57ab27"/>
<polygon transform="matrix(.35789 0 0 .74146 -297.86 -412.88)" points="319.27 435.68 319.27 432.61 434.24 432.61 434.24 435.68" fill="#009ee0"/>
</g>
<path d="m-209.05-35.684h-2.9369v8.426h3.0645v-4.4043c0-1.1485 0.7029-1.7239 1.9804-1.7239 1.2761 0 1.5964 0.38334 1.6594 1.4674h2.8739c0-2.8724-0.38334-3.9579-3.4478-3.9579-1.8522 0-2.4906 0.38334-3.1927 1.7877v-1.5949zm14.109 6.7674c-2.9354 0-3.3826-0.25581-3.3826-1.7246h8.0456c-0.12754-4.084-0.12754-5.0427-5.5551-5.0427-4.5986 0-5.6203 0.8297-5.6203 4.4688 0 3.384 1.342 4.2137 5.0449 4.2782 4.1507 0 6.1304-0.19205 6.1304-2.9369h-3.0022c-0.12754 0.63839-0.38185 0.95723-1.6609 0.95723zm-3.4471-3.5108c0.12753-0.8942 0.3826-1.2138 2.4261-1.2138 2.2363 0 2.5543 0.12828 2.6819 1.2138zm-114.16 0.31883h3.0645c-0.25506-2.8739-1.0855-3.5753-5.3623-3.5753-4.8529 0-5.9384 0.76445-5.9384 4.3413 0 3.5753 1.0217 4.405 5.555 4.405 4.7884 0 5.7463-0.6384 5.7463-3.6398h-3.0645c0 0.83044-0.31883 1.2145-2.6819 1.2145-2.0435 0-2.4898-0.51086-2.4898-2.171 0-1.5964 0.44636-1.5964 2.8739-1.5964 1.7862 0 2.105 0.19204 2.297 1.0217zm71.193 0.50939c0-3.4471-1.021-4.1485-5.9384-4.1485-5.2992 0-5.9369 0.89347-5.9369 4.4681 0 3.5761 0.89272 4.342 5.9369 4.342 5.3645 7.5e-4 5.9384-0.89272 5.9384-4.6616zm-8.747 0.19352c0-1.7246 0.38334-1.9152 2.6181-1.9152 2.4898 0 2.9362 0.06296 2.9362 1.9152 0 1.7239-0.31957 2.0435-2.6819 2.0435-2.5536 0-2.8724-0.25654-2.8724-2.0435zm36.266-0.19352c0-3.4471-0.95797-4.1485-5.8724-4.1485-5.2362 0-5.8746 0.82822-5.8746 4.405 0 3.6391 0.89346 4.405 5.8746 4.405 5.3615 7.5e-4 5.8724-0.89272 5.8724-4.6616zm-8.6825 0.19352c0-1.7246 0.38259-1.9152 2.6174-1.9152 2.4906 0 2.9369 0.06296 2.9369 1.9152 0 1.7239-0.31883 2.0435-2.6811 2.0435-2.5529 0-2.8732-0.25654-2.8732-2.0435zm-73.364-0.19352c0-3.4471-0.95797-4.1485-5.8739-4.1485-5.2992 0-5.9384 0.82822-5.9384 4.405 0 3.6391 0.89495 4.405 5.9384 4.405 5.3638 7.5e-4 5.8739-0.89272 5.8739-4.6616zm-8.621 0.19352c0-1.7246 0.38334-1.9152 2.5551-1.9152 2.4898 0 2.9369 0.06296 2.9369 1.9152 0 1.7239-0.32032 2.0435-2.6819 2.0435-2.4913 0-2.8102-0.25654-2.8102-2.0435zm73.812-7.8551v4.9167c-0.70217-0.95797-1.3406-1.4674-3.8942-1.4674-4.0862 0-4.8529 1.0855-4.8529 4.405 0 3.3848 1.0862 4.3405 5.0442 4.3405 2.4906 0 3.2565-0.63765 3.8311-1.7232v1.5304h3.0652v-12.003h-3.1935zm-2.2348 5.8754c1.7232 0 2.2993 0.25506 2.2993 1.5949 0 2.0442-0.12903 2.237-2.5536 2.237-2.4268 0-3.0652-0.06525-3.0652-1.7884 0-1.9797 0.76593-2.0435 3.3195-2.0435zm-58.104-2.2986h-2.8724v8.426h3.0645v-4.3413c0-1.2761 0.6384-1.7224 2.363-1.7224 1.5964 0 2.0435 0.57389 2.0435 2.1703v3.8934h3.1282v-4.4681c0-1.213 0.95723-1.5956 2.4253-1.5956 1.4051 0 2.0435 0.38333 2.0435 1.5956v4.4681h3.0645v-4.9797c0-2.4884-1.5326-3.6391-4.3413-3.6391-2.4268 0-3.321 0.8942-3.6406 1.8514-0.6384-1.0855-1.5319-1.8514-3.9587-1.8514-2.2985 0-2.9369 0.76593-3.3203 2.171v-1.9782zm20.624 0h-2.8732v8.426h3.0645v-4.3413c0-1.2761 0.76593-1.7224 2.2978-1.7224 1.5971 0 2.0435 0.51087 2.0435 2.1703v3.8934h3.1297v-4.4681c0-1.213 0.89421-1.5956 2.363-1.5956 1.4043 0 2.1058 0.44635 2.1058 1.5956v4.4681h3.0652v-4.9797c0-2.4884-1.5319-3.6391-4.3413-3.6391-2.4261 0-3.2572 0.8297-3.6391 1.8514-0.63914-1.0855-1.5334-1.8514-3.9594-1.8514-2.234 0-2.8087 0.76593-3.2558 2.171v-1.9782z" fill="#fff" stroke-width=".26458"/>
<path d="m-111.13-25.269c-0.12226-0.46906-0.15902-1.8355-0.15666-5.8226 3e-3 -5.6726 0.027-5.9081 0.71368-7.0776 0.80924-1.3784 3.0618-1.6414 8.4823-1.6428 5.0922-1e-3 6.4826 0.22841 7.2178 2.1807 0.28627 0.76019 0.44188 1.0272 0.44599 2.4702v1.687h-1.9866c-2.0287 0.0459-2.1976-0.03697-2.1976-0.76035 0-1.163-0.67923-1.3767-4.3637-1.3727-2.7512 4e-3 -3.2934 0.0937-3.7278 0.62389-0.45304 0.55295-0.56275 1.3693-0.56421 4.1982-3e-3 4.2951-0.0287 4.2678 4.2002 4.3404 4.1141 0.07062 4.5637-0.09332 4.6889-1.7099l0.06128-0.79173h3.8894v1.9153c-0.0017 1.5451 0.07552 2.0251-0.09873 2.4834-0.4136 1.0877-1.1099 1.8305-2.2513 2.1937h-9.8979c-1.3852 0.01395-3.9777-1.2078-4.4552-2.915zm45.109 2.915c-1.8323-0.26678-2.8641-1.0303-3.3628-2.6612-0.24876-0.81344-0.26774-1.1375-0.30865-5.2689-0.05822-5.8799 0.08388-6.9824 1.0559-8.1927 0.96148-1.1972 2.1548-1.3369 7.4357-1.3351 4.0187 1e-3 5.5047 0.05893 6.3349 0.53535 0.654 0.37526 1.2391 1.0791 1.5818 1.9028 0.24849 0.59719 0.25503 0.76019 0.25503 6.3589 0 6.3686 0.02035 6.1839-0.80928 7.3296-0.95592 1.32-1.4855 1.2791-6.8566 1.3314-2.4649 0.02398-4.8616 0.06757-5.3261 0zm8.0326-4.5489c0.31727-0.13954 0.54283-0.37578 0.70762-0.74112 0.22033-0.48844 0.24191-0.78919 0.24191-3.371 0-4.3967 0.05424-4.3403-4.1868-4.3564-2.4218-0.0103-2.8425 0.025-3.3342 0.27152-0.90151 0.45189-0.97046 0.73672-0.97046 4.0082 0 3.0843 0.09021 3.6087 0.69019 4.0118 0.19916 0.13381 0.62953 0.29925 0.95637 0.36765 0.92601 0.1938 5.3463 0.05078 5.8954-0.19073zm-73.266 4.5489c-0.14258-0.22563-4.9361-12.792-5.9303-15.518l-0.68452-1.9401h4.46c1.79 4.7916 3.1788 8.5533 4.9006 13.011h0.81214c1.7787-4.7829 3.1636-8.5704 4.8186-13.011h2.1675c1.5295 0 2.1675-0.12194 2.1675 0 0 0.18792-6.2131 17.144-6.4008 17.458zm13.935 0c-0.0237-6.072 0-10.951 0-17.458 1.3962-0.02793 2.7773 0.02793 4.1736 0-0.0203 5.7994 0.0203 11.659 0 17.458zm29.987 0c-0.15499-0.32584-0.28565-2.2224-0.18292-4.2662 0.10164-2.0222 0.24061-2.3656 0.53916-3.1411 0.39259-1.0199 0.99482-1.5737 2.1042-1.9351 0.38919-0.12677 2.3761-0.40715 4.4154-0.62307 4.0326-0.42696 4.5827-0.53424 4.8099-0.93808 0.28718-0.51024 0.22715-1.9974-0.09813-2.431-0.2198-0.29298-0.38516-0.30644-3.7614-0.30644-3.5175 0-3.5325 1e-3 -3.8 0.34892-0.2031 0.26391-0.2829 0.58124-0.3275 1.3024l-0.05897 0.86945h-3.8228c-0.14466 0-0.06815-1.0829 0-1.9954 0.14448-1.9346 0.37213-2.7238 1.1102-3.3878 0.95986-0.86347 1.4368-0.88378 6.6274-0.95464 2.9752-0.0405 5.0357-0.1008 5.5334 0 1.1505 0.23269 1.7844 0.8269 2.2275 1.9784 0.34595 0.89893 0.35381 0.97043 0.35381 3.2177 0 2.5946-0.13041 3.425-0.67187 4.2785-0.77201 1.2168-1.7348 1.495-6.6869 1.9319-2.2333 0.19704-3.7304 0.3953-3.9709 0.52587-0.43461 0.23593-0.67376 0.70004-0.61888 1.2011l0.03688 0.41346h12.148v3.911h-15.905 1.5e-5z" fill="#fff"/>
<path d="m-329.55-30.889h-4.9315v4.0447h8.8642zm3.932-4.8744h-8.8642v4.0439h4.8759zm-9.1408-0.27731v-5.2073c-1.0522-0.2773-1.7736-0.38853-2.825-0.38853-5.4853 0-10.305 4.5993-10.305 10.305 0 5.8731 4.8744 10.25 10.36 10.25 0.99727 0 1.5511-0.11117 2.7701-0.44488v-5.3178c-1.2197 0.60874-1.8277 0.77483-2.825 0.77483-3.0474 0-5.3756-2.5477-5.3756-5.3734 0-2.9355 2.2718-5.4297 5.3193-5.4297 1.0536 0 1.9397 0.27805 2.8813 0.83192z" fill="#fff" stroke-width=".26458"/>
</g>
</g>
</svg>
