<?xml version="1.0" encoding="UTF-8"?>
<!DOCTYPE svg  PUBLIC '-//W3C//DTD SVG 1.1//EN'  'http://www.w3.org/Graphics/SVG/1.1/DTD/svg11.dtd' [
	<!ENTITY ns_flows "http://ns.adobe.com/Flows/1.0/">
	<!ENTITY ns_extend "http://ns.adobe.com/Extensibility/1.0/">
	<!ENTITY ns_ai "http://ns.adobe.com/AdobeIllustrator/10.0/">
	<!ENTITY ns_graphs "http://ns.adobe.com/Graphs/1.0/">
	<!ENTITY ns_vars "http://ns.adobe.com/Variables/1.0/">
	<!ENTITY ns_imrep "http://ns.adobe.com/ImageReplacement/1.0/">
	<!ENTITY ns_sfw "http://ns.adobe.com/SaveForWeb/1.0/">
	<!ENTITY ns_custom "http://ns.adobe.com/GenericCustomNamespace/1.0/">
	<!ENTITY ns_adobe_xpath "http://ns.adobe.com/XPath/1.0/">
]>
<svg enable-background="new 0 0 566.929 142.564" version="1.1" viewBox="0 0 566.93 142.56" xml:space="preserve" xmlns="http://www.w3.org/2000/svg">

<g fill="#CE021B">
	<path d="M0,0.016l29.727,142.531L59.3,0.016H43.294L29.727,80.124L16.007,0.016H0L0,0.016z"/>
	<path d="m65.855 0.016h16.006v142.53h-16.006v-142.53z"/>
	<path d="M96.181,0v142.555h16.012V68.899l22.266,73.652h14.762l-17.813-67.397   c9.896-5.938,12.81-13.71,12.81-13.71V16.161C137.66,1.603,126.353,0,126.353,0H96.181z M112.193,14.51h16.012v49.536h-16.012   V14.51z"/>
	<path d="m149.24 0.016h47.867v14.48h-16.007v128.05h-16.006v-128.05h-15.854v-14.482z"/>
	<path d="m285.67 0-30.924 142.4v0.149h15.862l3.353-19.213h22.366l3.202 19.213h16.013l-29.872-142.55zm0 61.443 7.306 49.085h-15.813l8.507-49.085z"/>
	<path d="m321.96 0.016h16.008v128.05h23.936v14.481h-39.941l-3e-3 -142.53z"/>
	<path d="m493.15 0.016h14.635l14.938 61.435 13.568-61.435h16.156l-22.408 83.842v58.688h-16.006v-58.687l-20.883-83.843z"/>
	<path d="m464.42 0.016c-18.193 0-24.041 16.146-24.041 16.146 0.15 0.229 0 107.18 0 110.23 2.412 17.325 24.041 16.155 24.041 16.155 24 0 23.992-16.155 23.992-16.155v-110.23c-6.205-16.944-23.992-16.145-23.992-16.145zm-8.031 16.145h16.014v111.88h-16.014v-111.88z"/>
	<path d="m203.36 0.016h16.16v126.37h16.159v-126.37h15.853v126.37s-5.183 16.157-23.323 16.157-24.849-16.157-24.849-16.157v-126.37z"/>
	<path d="m379.59 0v142.56h32.174c14.934-3.89 15.859-14.513 15.859-14.513s-0.023-38.076-0.023-47.918c-1.121-6.213-6.229-6.422-6.229-6.422s-0.021-1.731 0-3.102c5.645-0.433 6.254-6.556 6.254-6.556s-0.023-38.039 0-47.885c-2.443-11.626-15.861-16.159-15.861-16.159h-32.174zm16.061 16.26h16.111v47.785h-16.111v-47.785zm-0.049 62.247h16.16v49.535h-16.16v-49.535z"/>
	<path d="m539.72 128.07h11.125v1.656h-4.725v12.825h-1.604v-12.825h-4.801v-1.656h5e-3z"/>
	<path d="m552.45 142.55v-14.481h1.602l5.717 12.92 5.486-12.92h1.678v14.481h-1.678v-11.209l-4.73 11.209h-1.615l-4.855-11.209v11.209h-1.605z"/>
</g>
</svg>
