<?xml version="1.0" encoding="UTF-8"?>
<!DOCTYPE svg  PUBLIC '-//W3C//DTD SVG 1.1//EN'  'http://www.w3.org/Graphics/SVG/1.1/DTD/svg11.dtd'>
<svg width="566.93px" height="300px" enable-background="new 0 -26.707 566.93 300" version="1.1" viewBox="0 -26.707 566.93 300" xml:space="preserve" xmlns="http://www.w3.org/2000/svg">
<g fill="#8A8A8A">
	<path d="m355.76 28.076c0 15.479 13.033 28.043 29.076 28.043 16.676 0 29.77-12.304 29.77-28.043-1e-3 -15.743-13.094-28.076-29.77-28.076-16.043 0-29.076 12.582-29.076 28.076"/>
	<rect x="360.59" y="84.227" width="49.639" height="160.61"/>
	<path d="m456.67 28.076c0 15.479 13.059 28.043 29.092 28.043 16.686 0 29.754-12.304 29.754-28.043 0-15.743-13.069-28.076-29.754-28.076-16.034 0-29.092 12.582-29.092 28.076"/>
	<rect x="461.48" y="84.227" width="49.652" height="160.61"/>
	<path d="m281.65 13.507-43.528 170.65s-33.281-128.1-38.695-146.27c-5.414-18.199-16.558-26.172-32.36-26.172-15.809 0-26.971 7.973-32.384 26.172-5.394 18.169-38.683 146.27-38.683 146.27l-43.557-170.65h-52.447s50.371 182.08 57.219 203.16c5.327 16.459 17.944 29.916 36.648 29.916 21.384 0 31.385-15.592 36.016-29.916 4.582-14.24 37.188-134.5 37.188-134.5s32.604 120.26 37.175 134.5c4.629 14.324 14.63 29.916 36.009 29.916 18.719 0 31.313-13.457 36.673-29.916 6.831-21.084 57.17-203.16 57.17-203.16h-52.444z"/>
	<polygon points="526.23 223.08 543.26 223.08 543.26 226.29 536.57 226.29 536.57 244.83 532.94 244.83 532.94 226.29 526.23 226.29"/>
	<polygon points="545.87 223.08 551.09 223.08 556.33 240.48 561.66 223.08 566.93 223.08 566.93 244.83 563.47 244.83 563.47 226.86 558.06 244.83 554.51 244.83 549.2 226.86 549.2 244.83 545.87 244.83"/>
</g>
</svg>
