<?xml version="1.0" encoding="UTF-8"?>
<svg baseProfile="tiny" version="1.2" viewBox="0 0 566.94 85.117" xml:space="preserve" xmlns="http://www.w3.org/2000/svg">
<g fill="#6B6B6B">
	<polygon points="110.91 61.863 118.65 29.436 126.44 23.255 134.17 23.255 126.44 55.682 134.17 51.055 140.38 27.912 145.03 23.255 155.93 23.255 148.16 55.682 155.93 49.529 160.56 29.436 166.79 23.255 176.13 23.255 168.37 54.158 159.06 61.863"/>
	<polygon points="425.39 61.863 429.34 43.35 436.37 36.604 445.4 36.604 440.09 56.953 447.88 52.324 449.86 41.797 455.05 36.604 465.89 36.604 460.58 56.953 467.92 52.042 470.01 43.35 476.78 36.604 484.85 36.604 480.34 54.158 469.76 61.863"/>
	<path d="m364.8 61.863 7.789-7.705h33.416s2.877 0.848 4.516-2.793c1.495-3.389-1.41-3.389-1.41-3.389h-15.522s-4.459-1.017-4.486-6.491c-0.085-13.461 10.979-16.934 10.979-16.934h32.621l-6.489 6.436h-17.104s-5.447 1.553-5.562 6.097c-0.084 2.06 2.455 1.637 2.455 1.637h13.941s8.07 1.354 6.209 10.047c-2.429 11.431-10.839 13.095-10.839 13.095h-50.514z"/>
	<path d="m338.27 61.863h13.94l4.233-16.029c0.509-1.863 5.419-3.979 4.121-3.754-1.271 0.226 4.459-0.848 4.459-0.848s1.806 0.508 2.709 1.75c0.933 1.213-0.903 3.021-1.157 4.432-0.254 1.41 1.553 1.552 1.553 1.552h7.789s4.178-1.552 5.307-3.104c1.103-1.579 2.482-3.216 2.482-4.599s-3.076-3.104-3.076-3.104l-3.133-1.524h-23.283s-11.146 6.379-12.443 7.705c-0.455 0.392-3.501 17.523-3.501 17.523z"/>
	<path d="m175.31 44.168c-1.072 1.24-4.571 12.135-3.81 13.912 0.79 1.723 5.108 3.781 5.108 3.781h22.69s10.583-6.633 11.401-7.563c0.79-0.959 3.782-11.543 3.782-12.645 0-1.101-2.54-5.052-2.54-5.052h-26.529c2e-3 3e-3 -8.999 6.325-10.102 7.567zm17.696-2.512h6.971s-0.79 8.383-2.539 10.752c-1.778 2.371-5.701 4.432-5.701 4.432s-4.402 0.452-5.023 0c-0.649-0.508-0.17-5.053-0.17-5.053s0.593-4.909 1.411-6.35c0.791-1.41 5.051-3.781 5.051-3.781z"/>
	<path d="m259.92 44.168c-1.073 1.24-4.572 12.135-3.782 13.912 0.79 1.723 5.08 3.781 5.08 3.781h31.58s1.045-5.022 2.344-10.104c1.24-4.771 2.709-12.105 2.709-12.645 0-1.129 7.846-11.033 7.846-11.033h-13.717l-6.94 8.521h-15.015c0.028 4e-3 -8.975 6.326-10.105 7.568zm17.695-2.512h6.942s-0.764 8.383-2.541 10.752c-1.723 2.371-5.673 4.432-5.673 4.432s-4.402 0.452-5.052 0c-0.593-0.508-0.169-5.053-0.169-5.053s0.593-4.909 1.439-6.35c0.792-1.41 5.054-3.781 5.054-3.781z"/>
	<path d="m211.1 61.863 7.168-25.26h30.311s4.008 0.424 5.362 2.682c1.411 2.259 0.96 6.152 0.96 6.152l-4.121 16.426h-12.644s1.468-8.043 2.879-13.887c1.411-5.842-2.54-6.32-2.54-6.32h-7.563l-4.346 15.154s-3.782 4.402-5.362 5.053h-10.104z"/>
	<path d="m522.16 61.863 8.044-25.26h30.311s3.979 0.424 5.392 2.682c1.412 2.259 0.96 6.152 0.96 6.152l-4.263 16.426h-13.856s2.313-6.772 3.782-12.646c1.411-5.813-2.062-7.563-2.062-7.563h-7.592l-4.233 15.154s-3.498 4.403-5.051 5.053h-11.432v2e-3z"/>
	<path d="m301.61 44.168c-1.102 1.24-4.543 12.135-3.78 13.912 0.762 1.723 5.051 3.781 5.051 3.781h22.72s4.517-2.822 7.874-5.053c0 0-19.305 0.143-20.488 0-0.536-0.056-0.339-2.396-0.282-3.779h15.521s2.991-0.649 7.45-4.348c4.516-3.695 5.08-4.093 5.08-7.028 0-2.905-2.541-5.052-2.541-5.052h-26.527c0.055 3e-3 -8.975 6.325-10.078 7.567zm17.726-2.512h10.188s-1.129 3.867-6.688 6.32h-8.494c-0.819-2.199 1.186-3.949 2.313-4.91 1.185-1.072 2.681-1.41 2.681-1.41z"/>
	<path d="m505.74 61.863s4.29-13.574 5.646-17.922c0.677-2.37-0.902-2.285-3.896-2.285s-5.165 0.648-9.313 7.563c-4.854 8.072 7.168 10.273 7.168 10.273l-0.848 2.369h-13.884s-7.593 0.312-7.593-8.832c0-11.232 14.365-16.427 14.365-16.427h30.338l-8.07 25.259h-13.913v2e-3z"/>
</g>
<path d="m72.559 23.369c0.705-0.028 1.439-0.058 2.173-0.058 15.805 0 29.352 15.324 30.367 23.113 0.112 0.819 0.169 1.553 0.226 2.174-0.198-21.278-33.359-48.598-60-48.598-20.547 0-30.141 8.297-33.303 17.667-4.741 11.825 1.496 28.646 16.059 40.61 1.552 1.242 3.076 2.398 4.656 3.473-0.678 0.057-1.411 0.057-2.145 0.057-15.805 0-29.352-15.324-30.367-23.113-0.084-0.819-0.168-1.553-0.225-2.174 0.197 21.279 33.358 48.598 60 48.598 20.545 0 30.141-8.324 33.302-17.666 4.741-11.798-1.496-28.616-16.059-40.611-1.553-1.243-3.076-2.4-4.684-3.472zm-29.663 35.334c-11.74-9.625-15.635-23.765-9.06-31.808 6.632-8.043 21.59-7.112 33.612 2.259 11.91 9.256 16.481 23.368 10.386 31.778 2.483-5.053-0.282-12.646-6.83-17.81-7.026-5.531-15.86-6.096-19.755-1.326-3.923 4.771-1.58 13.181 5.306 18.908 5.334 4.432 11.797 5.981 16.425 4.375-7.816 4.15-20.149 1.78-30.084-6.376z" fill="#f00"/>
</svg>
