<?xml version="1.0" encoding="UTF-8"?>
<!DOCTYPE svg [
	<!ENTITY ns_flows "http://ns.adobe.com/Flows/1.0/">
	<!ENTITY ns_extend "http://ns.adobe.com/Extensibility/1.0/">
	<!ENTITY ns_ai "http://ns.adobe.com/AdobeIllustrator/10.0/">
	<!ENTITY ns_graphs "http://ns.adobe.com/Graphs/1.0/">
	<!ENTITY ns_vars "http://ns.adobe.com/Variables/1.0/">
	<!ENTITY ns_imrep "http://ns.adobe.com/ImageReplacement/1.0/">
	<!ENTITY ns_sfw "http://ns.adobe.com/SaveForWeb/1.0/">
	<!ENTITY ns_custom "http://ns.adobe.com/GenericCustomNamespace/1.0/">
	<!ENTITY ns_adobe_xpath "http://ns.adobe.com/XPath/1.0/">
]>
<svg baseProfile="tiny" version="1.2" viewBox="0 0 566.93 98.441" xml:space="preserve" xmlns="http://www.w3.org/2000/svg">


	
		<path d="m12 98.442c-6.627 0-12-5.373-12-12v-54.536c0-6.628 5.373-12 12-12s12 5.371 12 12v54.535c0 6.628-5.373 12.001-12 12.001z" fill="#707070"/>
	
	<path d="m174.74 48.034h-36.223v-6.528h36.223c5.964 0 10.799-4.835 10.799-10.799 0-5.965-4.835-10.8-10.799-10.8h-49.423c-5.965 0-10.8 4.835-10.8 10.8v55.735c0 6.627 5.373 12 12 12s12-5.373 12-12v-16.81h36.223c5.964 0 10.799-4.835 10.799-10.8 1e-3 -5.963-4.834-10.798-10.799-10.798z" fill="#707070"/>
	<path d="m540.86 82.934-15.535-54.18c-0.918-3.207-3.068-5.724-5.787-7.194-1.66-1.041-3.619-1.652-5.723-1.652h-57c-0.373 0-0.742 0.019-1.105 0.056-6.107 0.56-10.895 5.688-10.895 11.944v54.535c0 6.627 5.371 12 12 12 6.627 0 12-5.373 12-12v-44.937h5.314v44.938c0 6.627 5.373 12 12 12 6.625 0 11.998-5.373 11.998-12v-44.938h6.041l13.766 48.002c1.5 5.233 6.271 8.644 11.457 8.644 1.088 0 2.193-0.149 3.293-0.465 6.33-1.819 9.992-8.422 8.176-14.753z" fill="#707070"/>
	<path d="m250.51 19.907h-40.751c-11.338 0-20.615 9.276-20.615 20.614v37.306c0 11.338 9.277 20.614 20.615 20.614h40.751c11.339 0 20.615-9.276 20.615-20.614v-37.305c0-11.338-9.276-20.615-20.615-20.615zm-2.65 53.848c0 1.32-1.08 2.4-2.4 2.4h-30.652c-1.32 0-2.4-1.08-2.4-2.4v-29.162c0-1.318 1.08-2.398 2.4-2.398h30.652c1.32 0 2.4 1.08 2.4 2.398v29.162z" fill="#707070"/>
	<path d="m419.32 19.907h-40.752c-11.336 0-20.615 9.276-20.615 20.614v37.306c0 11.338 9.279 20.614 20.615 20.614h40.752c11.338 0 20.613-9.276 20.613-20.614v-37.305c0-11.338-9.275-20.615-20.613-20.615zm-2.651 53.848c0 1.32-1.08 2.4-2.398 2.4h-30.652c-1.32 0-2.4-1.08-2.4-2.4v-29.162c0-1.318 1.08-2.398 2.4-2.398h30.652c1.318 0 2.398 1.08 2.398 2.398v29.162z" fill="#707070"/>
	<path d="m105.46 19.907h-70.722c-3.005 0-5.441 2.436-5.441 5.44v61.095c0 6.627 5.373 12 12 12s11.861-5.373 11.861-12v-41.859c0-1.318 1.08-2.398 2.4-2.398h28.855c1.32 0 2.488 1.08 2.488 2.398v41.858c0 6.627 5.373 12 12 12s12-5.373 12-12v-61.093c0-3.005-2.436-5.441-5.441-5.441z" fill="#707070"/>
	<path d="m345.04 76.156h-42.9c-1.32 0-2.4-1.08-2.4-2.4v-29.163c0-1.318 1.08-2.398 2.4-2.398h42.9c6.152 0 11.145-4.988 11.145-11.145 0-6.153-4.99-11.144-11.145-11.144h-48.664c-11.279 0-20.507 9.228-20.507 20.507v37.521c0 11.276 9.228 20.507 20.507 20.507h48.664c6.152 0 11.145-4.988 11.145-11.146 0-6.154-4.99-11.139-11.145-11.139z" fill="#707070"/>
	<g fill="#707070">
		<path d="M541.027,11.729h-4.131V8.826h11.752v2.903h-4.176v12.387h-3.445V11.729z"/>
		<path d="m563.32 18.263c-0.07-1.84-0.139-4.038-0.139-6.285h-0.045c-0.5 1.951-1.135 4.129-1.725 5.921l-1.859 5.967h-2.701l-1.633-5.898c-0.5-1.813-0.998-3.97-1.385-5.987h-0.045c-0.066 2.063-0.158 4.424-0.248 6.33l-0.297 5.809h-3.197l0.977-15.29h4.604l1.496 5.127c0.5 1.747 0.955 3.651 1.295 5.444h0.09c0.408-1.771 0.936-3.768 1.451-5.489l1.611-5.082h4.539l0.814 15.29h-3.355l-0.248-5.857z"/>
	</g>

</svg>
