<?xml version="1.0" encoding="UTF-8"?>
<!DOCTYPE svg  PUBLIC '-//W3C//DTD SVG 1.0//EN'  'http://www.w3.org/TR/2001/REC-SVG-20010904/DTD/svg10.dtd'>
<svg enable-background="new 0 0 21.775 20.762" version="1.0" viewBox="0 0 21.775 20.762" xml:space="preserve" xmlns="http://www.w3.org/2000/svg">
<path d="m14.152 11.931 3.009-2.931c0.397-0.388 0.308-0.758-0.148-0.9-8e-3 -3e-3 -0.012-0.011-0.02-0.014-0.068-0.03-0.174-0.07-0.328-0.092l-4.053-0.589c-0.279-0.04-0.589-0.184-0.86-0.379-0.142-0.104-0.272-0.221-0.386-0.345-0.105-0.117-0.194-0.241-0.255-0.365l-1.813-3.676c-0.02-0.04-0.044-0.07-0.066-0.107l-0.019-0.038c-9e-3 -0.018-0.021-0.023-0.03-0.04-0.012-0.015-0.023-0.032-0.035-0.046-0.129-0.208-0.28-0.333-0.438-0.333-0.15 0-0.294 0.119-0.419 0.309-0.01 0.011-0.018 0.025-0.027 0.036-0.017 0.029-0.039 0.041-0.055 0.074l-0.026 0.052c-0.02 0.033-0.041 0.053-0.06 0.093l-1.814 3.674c-0.062 0.126-0.152 0.252-0.259 0.371-0.112 0.121-0.239 0.236-0.376 0.336-0.274 0.199-0.586 0.344-0.867 0.385l-4.054 0.588c-0.055 8e-3 -0.119 0.033-0.18 0.051h-1e-3c-0.05 0.015-0.095 0.025-0.142 0.048-0.475 0.138-0.572 0.513-0.168 0.907l3.007 2.931c0.431 0.422 0.699 1.233 0.622 1.842l-0.687 4.005c-4e-3 0.025 0 0.045-2e-3 0.068l-0.022 0.133c-0.077 0.446 0.094 0.708 0.404 0.708 0.118 0 0.255-0.038 0.407-0.117l3.717-1.955c0.276-0.145 0.641-0.216 1.003-0.216 0.364 0 0.729 0.072 1.004 0.216l3.718 1.955c0.149 0.079 0.289 0.117 0.406 0.117 0.312 0 0.481-0.262 0.405-0.708l-0.03-0.174c-1e-3 -0.012 2e-3 -0.019 0-0.03l-0.682-3.962c-0.093-0.613 0.181-1.452 0.62-1.882zm-1.619 1.975 0.574 3.35-3.003-1.581c-0.386-0.203-0.881-0.315-1.395-0.315-0.511 0-1.005 0.112-1.393 0.315l-3.007 1.57 0.572-3.34c0.153-0.884-0.217-2.023-0.861-2.65l-2.424-2.373 3.354-0.487c0.887-0.128 1.857-0.833 2.255-1.639l1.495-3.067 1.513 3.068c0.397 0.806 1.367 1.51 2.255 1.637l3.355 0.496-2.432 2.367c-0.638 0.627-1.007 1.766-0.858 2.649z" fill="#393A3B"/>
</svg>
