<?xml version="1.0" encoding="UTF-8"?>
<!DOCTYPE svg  PUBLIC '-//W3C//DTD SVG 1.1//EN'  'http://www.w3.org/Graphics/SVG/1.1/DTD/svg11.dtd'>
<svg enable-background="new 0 0 21.775 20.762" version="1.1" viewBox="0 0 21.775 20.762" xml:space="preserve" xmlns="http://www.w3.org/2000/svg">
<path d="m8.71 2.48c0.026 0.018 0.083 0.07 0.143 0.193l1.859 3.766c0.333 0.676 1.18 1.291 1.924 1.398l4.155 0.603c0.15 0.022 0.218 0.066 0.227 0.066h1e-3c0 0.019-0.025 0.096-0.14 0.207l-3.009 2.931c-0.539 0.526-0.862 1.521-0.735 2.263l0.711 4.14c0.027 0.156 3e-3 0.234-0.011 0.239-0.025 0-0.098-8e-3 -0.221-0.071l-3.714-1.955c-0.324-0.171-0.747-0.264-1.19-0.264s-0.867 0.094-1.19 0.264l-3.716 1.954c-0.123 0.063-0.196 0.071-0.224 0.082-0.01-0.016-0.034-0.094-8e-3 -0.25l0.71-4.14c0.128-0.743-0.195-1.737-0.735-2.263l-3.006-2.931c-0.114-0.11-0.141-0.187-0.146-0.187 0.01-0.015 0.077-0.061 0.235-0.084l4.153-0.603c0.747-0.108 1.592-0.723 1.926-1.399l1.859-3.766c0.06-0.123 0.117-0.177 0.142-0.193m0-0.404c-0.182 0-0.364 0.14-0.501 0.419l-1.859 3.767c-0.276 0.56-1.007 1.091-1.624 1.18l-4.154 0.603c-0.618 0.09-0.757 0.52-0.31 0.955l3.007 2.931c0.447 0.436 0.726 1.295 0.62 1.909l-0.71 4.139c-0.077 0.446 0.094 0.708 0.405 0.708 0.118 0 0.255-0.038 0.407-0.117l3.717-1.955c0.276-0.145 0.64-0.216 1.003-0.216 0.364 0 0.729 0.072 1.004 0.216l3.717 1.955c0.15 0.079 0.289 0.117 0.407 0.117 0.311 0 0.481-0.262 0.405-0.708l-0.711-4.139c-0.105-0.614 0.174-1.474 0.619-1.909l3.009-2.931c0.446-0.435 0.307-0.865-0.311-0.955l-4.154-0.603c-0.617-0.089-1.349-0.62-1.624-1.18l-1.859-3.767c-0.139-0.279-0.32-0.419-0.503-0.419z" fill="#777"/>
</svg>
